%TF.GenerationSoftware,KiCad,Pcbnew,8.0.0*%
%TF.CreationDate,2024-04-26T14:48:51+07:00*%
%TF.ProjectId,tugas-akhir,74756761-732d-4616-9b68-69722e6b6963,0*%
%TF.SameCoordinates,Original*%
%TF.FileFunction,Copper,L2,Bot*%
%TF.FilePolarity,Positive*%
%FSLAX46Y46*%
G04 Gerber Fmt 4.6, Leading zero omitted, Abs format (unit mm)*
G04 Created by KiCad (PCBNEW 8.0.0) date 2024-04-26 14:48:51*
%MOMM*%
%LPD*%
G01*
G04 APERTURE LIST*
%TA.AperFunction,ComponentPad*%
%ADD10R,2.600000X2.600000*%
%TD*%
%TA.AperFunction,ComponentPad*%
%ADD11C,2.600000*%
%TD*%
%TA.AperFunction,ComponentPad*%
%ADD12C,1.400000*%
%TD*%
%TA.AperFunction,ComponentPad*%
%ADD13O,1.400000X1.400000*%
%TD*%
%TA.AperFunction,ComponentPad*%
%ADD14R,1.700000X1.700000*%
%TD*%
%TA.AperFunction,ComponentPad*%
%ADD15O,1.700000X1.700000*%
%TD*%
%TA.AperFunction,ComponentPad*%
%ADD16R,1.800000X1.800000*%
%TD*%
%TA.AperFunction,ComponentPad*%
%ADD17C,1.800000*%
%TD*%
%TA.AperFunction,ComponentPad*%
%ADD18R,1.524000X1.524000*%
%TD*%
%TA.AperFunction,ComponentPad*%
%ADD19C,1.524000*%
%TD*%
%TA.AperFunction,ComponentPad*%
%ADD20R,2.000000X2.000000*%
%TD*%
%TA.AperFunction,ComponentPad*%
%ADD21C,2.000000*%
%TD*%
%TA.AperFunction,ComponentPad*%
%ADD22C,3.000000*%
%TD*%
%TA.AperFunction,ComponentPad*%
%ADD23C,2.500000*%
%TD*%
%TA.AperFunction,ComponentPad*%
%ADD24R,1.050000X1.500000*%
%TD*%
%TA.AperFunction,ComponentPad*%
%ADD25O,1.050000X1.500000*%
%TD*%
%TA.AperFunction,ComponentPad*%
%ADD26C,1.600000*%
%TD*%
%TA.AperFunction,ComponentPad*%
%ADD27R,2.540000X2.540000*%
%TD*%
%TA.AperFunction,ComponentPad*%
%ADD28C,2.540000*%
%TD*%
%TA.AperFunction,ComponentPad*%
%ADD29R,2.200000X2.200000*%
%TD*%
%TA.AperFunction,ComponentPad*%
%ADD30O,2.200000X2.200000*%
%TD*%
%TA.AperFunction,Conductor*%
%ADD31C,0.700000*%
%TD*%
%TA.AperFunction,Conductor*%
%ADD32C,1.200000*%
%TD*%
%TA.AperFunction,Conductor*%
%ADD33C,0.300000*%
%TD*%
%TA.AperFunction,Conductor*%
%ADD34C,0.250000*%
%TD*%
G04 APERTURE END LIST*
D10*
%TO.P,J1,1,Pin_1*%
%TO.N,+24V*%
X74345000Y-111300000D03*
D11*
%TO.P,J1,2,Pin_2*%
%TO.N,-24V*%
X74345000Y-116380000D03*
%TD*%
D12*
%TO.P,R3,1*%
%TO.N,Net-(U1-D14)*%
X182495000Y-105490000D03*
D13*
%TO.P,R3,2*%
%TO.N,Net-(Q1-B)*%
X182495000Y-100410000D03*
%TD*%
D14*
%TO.P,S3,1*%
%TO.N,Net-(U1-D18)*%
X97345000Y-64510000D03*
D15*
%TO.P,S3,2*%
%TO.N,Net-(D2-K)*%
X97345000Y-67050000D03*
%TO.P,S3,3*%
%TO.N,Net-(D3-K)*%
X97345000Y-69590000D03*
%TD*%
D14*
%TO.P,M2,1*%
%TO.N,Net-(U4-OA2)*%
X78275000Y-87150000D03*
D15*
%TO.P,M2,2,-*%
%TO.N,Net-(M2--)*%
X80815000Y-87150000D03*
%TO.P,M2,3*%
%TO.N,Net-(U4-OB1)*%
X83355000Y-87150000D03*
%TO.P,M2,4*%
%TO.N,Net-(U4-OB2)*%
X85895000Y-87150000D03*
%TD*%
D14*
%TO.P,M3,1*%
%TO.N,Net-(U5-OA2)*%
X117145000Y-111800000D03*
D15*
%TO.P,M3,2,-*%
%TO.N,Net-(M3--)*%
X114605000Y-111800000D03*
%TO.P,M3,3*%
%TO.N,Net-(U5-OB1)*%
X112065000Y-111800000D03*
%TO.P,M3,4*%
%TO.N,Net-(U5-OB2)*%
X109525000Y-111800000D03*
%TD*%
D16*
%TO.P,D5,1,K*%
%TO.N,Net-(D2-K)*%
X196370000Y-86050000D03*
D17*
%TO.P,D5,2,A*%
%TO.N,Net-(D5-A)*%
X193830000Y-86050000D03*
%TD*%
D14*
%TO.P,S1,1*%
%TO.N,Net-(U1-D5)*%
X97345000Y-75800000D03*
D15*
%TO.P,S1,2*%
%TO.N,Net-(D2-K)*%
X97345000Y-78340000D03*
%TO.P,S1,3*%
%TO.N,Net-(D3-K)*%
X97345000Y-80880000D03*
%TD*%
D14*
%TO.P,S2,1*%
%TO.N,Net-(U1-TX2)*%
X97345000Y-87300000D03*
D15*
%TO.P,S2,2*%
%TO.N,Net-(D2-K)*%
X97345000Y-89840000D03*
%TO.P,S2,3*%
%TO.N,Net-(D3-K)*%
X97345000Y-92380000D03*
%TD*%
D12*
%TO.P,R5,1*%
%TO.N,Net-(U1-D13)*%
X183805000Y-86050000D03*
D13*
%TO.P,R5,2*%
%TO.N,Net-(D5-A)*%
X188885000Y-86050000D03*
%TD*%
D16*
%TO.P,D1,1,K*%
%TO.N,Net-(D1-K)*%
X186035000Y-112200000D03*
D17*
%TO.P,D1,2,A*%
%TO.N,Net-(D1-A)*%
X183495000Y-112200000D03*
%TD*%
D12*
%TO.P,R1,1*%
%TO.N,Net-(D3-K)*%
X193245000Y-100160000D03*
D13*
%TO.P,R1,2*%
%TO.N,Net-(D2-A)*%
X193245000Y-105240000D03*
%TD*%
D14*
%TO.P,J2,1,Pin_1*%
%TO.N,Net-(J2-Pin_1)*%
X215035000Y-93700000D03*
D15*
%TO.P,J2,2,Pin_2*%
%TO.N,-24V*%
X212495000Y-93700000D03*
%TD*%
D18*
%TO.P,U3,JP1_1,DIR*%
%TO.N,Net-(U1-D23)*%
X90735000Y-79650000D03*
D19*
%TO.P,U3,JP1_2,STEP*%
%TO.N,Net-(U1-D22)*%
X88195000Y-79650000D03*
%TO.P,U3,JP1_3,CLK*%
%TO.N,unconnected-(U3-CLK-PadJP1_3)*%
X85655000Y-79650000D03*
%TO.P,U3,JP1_4,PDN/UART1*%
%TO.N,unconnected-(U3-PDN{slash}UART1-PadJP1_4)*%
X83115000Y-79650000D03*
%TO.P,U3,JP1_5,NC*%
%TO.N,unconnected-(U3-NC-PadJP1_5)*%
X80575000Y-79650000D03*
%TO.P,U3,JP1_6,MS2*%
%TO.N,Net-(U1-D26)*%
X78035000Y-79650000D03*
%TO.P,U3,JP1_7,MS1*%
%TO.N,Net-(U1-D25)*%
X75495000Y-79650000D03*
%TO.P,U3,JP1_8,EN*%
%TO.N,Net-(U1-D21)*%
X72955000Y-79650000D03*
D18*
%TO.P,U3,JP2_1,VM*%
%TO.N,+24V*%
X72955000Y-66950000D03*
D19*
%TO.P,U3,JP2_2,GND*%
%TO.N,-24V*%
X75495000Y-66950000D03*
%TO.P,U3,JP2_3,OA2*%
%TO.N,Net-(U3-OA2)*%
X78035000Y-66950000D03*
%TO.P,U3,JP2_4,OA1*%
%TO.N,Net-(M1--)*%
X80575000Y-66950000D03*
%TO.P,U3,JP2_5,OB1*%
%TO.N,Net-(U3-OB1)*%
X83115000Y-66950000D03*
%TO.P,U3,JP2_6,OB2*%
%TO.N,Net-(U3-OB2)*%
X85655000Y-66950000D03*
%TO.P,U3,JP2_7,VIO*%
%TO.N,Net-(D3-K)*%
X88195000Y-66950000D03*
%TO.P,U3,JP2_8,GND*%
%TO.N,Net-(D2-K)*%
X90735000Y-66950000D03*
%TD*%
D14*
%TO.P,M1,1*%
%TO.N,Net-(U3-OA2)*%
X78045000Y-62800000D03*
D15*
%TO.P,M1,2,-*%
%TO.N,Net-(M1--)*%
X80585000Y-62800000D03*
%TO.P,M1,3*%
%TO.N,Net-(U3-OB1)*%
X83125000Y-62800000D03*
%TO.P,M1,4*%
%TO.N,Net-(U3-OB2)*%
X85665000Y-62800000D03*
%TD*%
D20*
%TO.P,U1,1,3V3*%
%TO.N,Net-(D3-K)*%
X144360000Y-63600000D03*
D21*
%TO.P,U1,2,GND*%
%TO.N,Net-(D2-K)*%
X141820000Y-63600000D03*
%TO.P,U1,3,D15*%
%TO.N,Net-(U1-D15)*%
X139280000Y-63600000D03*
%TO.P,U1,4,D2*%
%TO.N,unconnected-(U1-D2-Pad4)*%
X136740000Y-63600000D03*
%TO.P,U1,5,D4*%
%TO.N,unconnected-(U1-D4-Pad5)*%
X134200000Y-63600000D03*
%TO.P,U1,6,RX2*%
%TO.N,unconnected-(U1-RX2-Pad6)*%
X131660000Y-63600000D03*
%TO.P,U1,7,TX2*%
%TO.N,Net-(U1-TX2)*%
X129120000Y-63600000D03*
%TO.P,U1,8,D5*%
%TO.N,Net-(U1-D5)*%
X126580000Y-63600000D03*
%TO.P,U1,9,D18*%
%TO.N,Net-(U1-D18)*%
X124040000Y-63600000D03*
%TO.P,U1,10,D19*%
%TO.N,Net-(U1-D19)*%
X121500000Y-63600000D03*
%TO.P,U1,11,D21*%
%TO.N,Net-(U1-D21)*%
X118960000Y-63600000D03*
%TO.P,U1,12,RX0*%
%TO.N,unconnected-(U1-RX0-Pad12)*%
X116420000Y-63600000D03*
%TO.P,U1,13,TX0*%
%TO.N,unconnected-(U1-TX0-Pad13)*%
X113880000Y-63600000D03*
%TO.P,U1,14,D22*%
%TO.N,Net-(U1-D22)*%
X111340000Y-63600000D03*
%TO.P,U1,15,D23*%
%TO.N,Net-(U1-D23)*%
X108800000Y-63600000D03*
%TO.P,U1,16,EN*%
%TO.N,unconnected-(U1-EN-Pad16)*%
X108800000Y-89000000D03*
%TO.P,U1,17,VP*%
%TO.N,unconnected-(U1-VP-Pad17)*%
X111340000Y-89000000D03*
%TO.P,U1,18,VN*%
%TO.N,unconnected-(U1-VN-Pad18)*%
X113880000Y-89000000D03*
%TO.P,U1,19,D34*%
%TO.N,Net-(U1-D34)*%
X116420000Y-89000000D03*
%TO.P,U1,20,D35*%
%TO.N,Net-(U1-D35)*%
X118960000Y-89000000D03*
%TO.P,U1,21,D32*%
%TO.N,Net-(U1-D32)*%
X121500000Y-89000000D03*
%TO.P,U1,22,D33*%
%TO.N,Net-(U1-D33)*%
X124040000Y-89000000D03*
%TO.P,U1,23,D25*%
%TO.N,Net-(U1-D25)*%
X126580000Y-89000000D03*
%TO.P,U1,24,D26*%
%TO.N,Net-(U1-D26)*%
X129120000Y-89000000D03*
%TO.P,U1,25,D27*%
%TO.N,Net-(U1-D27)*%
X131660000Y-89000000D03*
%TO.P,U1,26,D14*%
%TO.N,Net-(U1-D14)*%
X134200000Y-89000000D03*
%TO.P,U1,27,D12*%
%TO.N,Net-(U1-D12)*%
X136740000Y-89000000D03*
%TO.P,U1,28,D13*%
%TO.N,Net-(U1-D13)*%
X139280000Y-89000000D03*
%TO.P,U1,29,GND*%
%TO.N,Net-(U1-GND-Pad29)*%
X141820000Y-89000000D03*
%TO.P,U1,30,VIN*%
%TO.N,Net-(U1-VIN)*%
X144360000Y-89000000D03*
%TD*%
D22*
%TO.P,K1,1*%
%TO.N,+24V*%
X215245000Y-106700000D03*
D23*
%TO.P,K1,2*%
%TO.N,Net-(D3-K)*%
X213295000Y-100650000D03*
D22*
%TO.P,K1,3*%
%TO.N,Net-(J2-Pin_1)*%
X201095000Y-100650000D03*
%TO.P,K1,4*%
%TO.N,unconnected-(K1-Pad4)*%
X201045000Y-112700000D03*
D23*
%TO.P,K1,5*%
%TO.N,Net-(D1-K)*%
X213295000Y-112650000D03*
%TD*%
D18*
%TO.P,U4,JP1_1,DIR*%
%TO.N,Net-(U1-D34)*%
X90965000Y-104000000D03*
D19*
%TO.P,U4,JP1_2,STEP*%
%TO.N,Net-(U1-D35)*%
X88425000Y-104000000D03*
%TO.P,U4,JP1_3,CLK*%
%TO.N,unconnected-(U4-CLK-PadJP1_3)*%
X85885000Y-104000000D03*
%TO.P,U4,JP1_4,PDN/UART1*%
%TO.N,unconnected-(U4-PDN{slash}UART1-PadJP1_4)*%
X83345000Y-104000000D03*
%TO.P,U4,JP1_5,NC*%
%TO.N,unconnected-(U4-NC-PadJP1_5)*%
X80805000Y-104000000D03*
%TO.P,U4,JP1_6,MS2*%
%TO.N,Net-(U1-D26)*%
X78265000Y-104000000D03*
%TO.P,U4,JP1_7,MS1*%
%TO.N,Net-(U1-D25)*%
X75725000Y-104000000D03*
%TO.P,U4,JP1_8,EN*%
%TO.N,Net-(U1-D19)*%
X73185000Y-104000000D03*
D18*
%TO.P,U4,JP2_1,VM*%
%TO.N,+24V*%
X73185000Y-91300000D03*
D19*
%TO.P,U4,JP2_2,GND*%
%TO.N,-24V*%
X75725000Y-91300000D03*
%TO.P,U4,JP2_3,OA2*%
%TO.N,Net-(U4-OA2)*%
X78265000Y-91300000D03*
%TO.P,U4,JP2_4,OA1*%
%TO.N,Net-(M2--)*%
X80805000Y-91300000D03*
%TO.P,U4,JP2_5,OB1*%
%TO.N,Net-(U4-OB1)*%
X83345000Y-91300000D03*
%TO.P,U4,JP2_6,OB2*%
%TO.N,Net-(U4-OB2)*%
X85885000Y-91300000D03*
%TO.P,U4,JP2_7,VIO*%
%TO.N,Net-(D3-K)*%
X88425000Y-91300000D03*
%TO.P,U4,JP2_8,GND*%
%TO.N,Net-(D2-K)*%
X90965000Y-91300000D03*
%TD*%
D24*
%TO.P,Q1,1,E*%
%TO.N,Net-(D2-K)*%
X185725000Y-93810000D03*
D25*
%TO.P,Q1,2,B*%
%TO.N,Net-(Q1-B)*%
X186995000Y-93810000D03*
%TO.P,Q1,3,C*%
%TO.N,Net-(D1-K)*%
X188265000Y-93810000D03*
%TD*%
D26*
%TO.P,C1,1*%
%TO.N,+24V*%
X73845000Y-70800000D03*
%TO.P,C1,2*%
%TO.N,-24V*%
X73845000Y-74300000D03*
%TD*%
%TO.P,C3,1*%
%TO.N,+24V*%
X121345000Y-104500000D03*
%TO.P,C3,2*%
%TO.N,-24V*%
X121345000Y-101000000D03*
%TD*%
D16*
%TO.P,D6,1,K*%
%TO.N,Net-(D2-K)*%
X187870000Y-76050000D03*
D17*
%TO.P,D6,2,A*%
%TO.N,Net-(D6-A)*%
X185330000Y-76050000D03*
%TD*%
D12*
%TO.P,R4,1*%
%TO.N,Net-(U1-D15)*%
X174055000Y-76050000D03*
D13*
%TO.P,R4,2*%
%TO.N,Net-(D6-A)*%
X179135000Y-76050000D03*
%TD*%
D18*
%TO.P,U5,JP1_1,DIR*%
%TO.N,Net-(U1-D32)*%
X104455000Y-95450000D03*
D19*
%TO.P,U5,JP1_2,STEP*%
%TO.N,Net-(U1-D33)*%
X106995000Y-95450000D03*
%TO.P,U5,JP1_3,CLK*%
%TO.N,unconnected-(U5-CLK-PadJP1_3)*%
X109535000Y-95450000D03*
%TO.P,U5,JP1_4,PDN/UART1*%
%TO.N,unconnected-(U5-PDN{slash}UART1-PadJP1_4)*%
X112075000Y-95450000D03*
%TO.P,U5,JP1_5,NC*%
%TO.N,unconnected-(U5-NC-PadJP1_5)*%
X114615000Y-95450000D03*
%TO.P,U5,JP1_6,MS2*%
%TO.N,Net-(U1-D26)*%
X117155000Y-95450000D03*
%TO.P,U5,JP1_7,MS1*%
%TO.N,Net-(U1-D25)*%
X119695000Y-95450000D03*
%TO.P,U5,JP1_8,EN*%
%TO.N,Net-(U1-D27)*%
X122235000Y-95450000D03*
D18*
%TO.P,U5,JP2_1,VM*%
%TO.N,+24V*%
X122235000Y-108150000D03*
D19*
%TO.P,U5,JP2_2,GND*%
%TO.N,-24V*%
X119695000Y-108150000D03*
%TO.P,U5,JP2_3,OA2*%
%TO.N,Net-(U5-OA2)*%
X117155000Y-108150000D03*
%TO.P,U5,JP2_4,OA1*%
%TO.N,Net-(M3--)*%
X114615000Y-108150000D03*
%TO.P,U5,JP2_5,OB1*%
%TO.N,Net-(U5-OB1)*%
X112075000Y-108150000D03*
%TO.P,U5,JP2_6,OB2*%
%TO.N,Net-(U5-OB2)*%
X109535000Y-108150000D03*
%TO.P,U5,JP2_7,VIO*%
%TO.N,Net-(D3-K)*%
X106995000Y-108150000D03*
%TO.P,U5,JP2_8,GND*%
%TO.N,Net-(D2-K)*%
X104455000Y-108150000D03*
%TD*%
D12*
%TO.P,R6,1*%
%TO.N,Net-(U1-D12)*%
X163305000Y-86050000D03*
D13*
%TO.P,R6,2*%
%TO.N,Net-(D4-A)*%
X168385000Y-86050000D03*
%TD*%
D12*
%TO.P,R2,1*%
%TO.N,Net-(D3-K)*%
X188245000Y-100160000D03*
D13*
%TO.P,R2,2*%
%TO.N,Net-(D1-A)*%
X188245000Y-105240000D03*
%TD*%
D27*
%TO.P,U2,1,Vin*%
%TO.N,+24V*%
X133025000Y-95160000D03*
D28*
%TO.P,U2,2,GND*%
%TO.N,-24V*%
X133025000Y-112940000D03*
%TO.P,U2,3,GND*%
%TO.N,Net-(U1-GND-Pad29)*%
X173665000Y-112940000D03*
%TO.P,U2,4,Vout*%
%TO.N,Net-(U1-VIN)*%
X173665000Y-95160000D03*
%TD*%
D16*
%TO.P,D4,1,K*%
%TO.N,Net-(D2-K)*%
X176870000Y-86050000D03*
D17*
%TO.P,D4,2,A*%
%TO.N,Net-(D4-A)*%
X174330000Y-86050000D03*
%TD*%
D16*
%TO.P,D2,1,K*%
%TO.N,Net-(D2-K)*%
X190745000Y-112200000D03*
D17*
%TO.P,D2,2,A*%
%TO.N,Net-(D2-A)*%
X193285000Y-112200000D03*
%TD*%
D26*
%TO.P,C2,1*%
%TO.N,+24V*%
X73575000Y-95150000D03*
%TO.P,C2,2*%
%TO.N,-24V*%
X73575000Y-98650000D03*
%TD*%
D29*
%TO.P,D3,1,K*%
%TO.N,Net-(D3-K)*%
X202305000Y-93700000D03*
D30*
%TO.P,D3,2,A*%
%TO.N,Net-(D1-K)*%
X194685000Y-93700000D03*
%TD*%
D31*
%TO.N,Net-(U1-VIN)*%
X173665000Y-95160000D02*
X150520000Y-95160000D01*
X150520000Y-95160000D02*
X144360000Y-89000000D01*
D32*
%TO.N,-24V*%
X74345000Y-116380000D02*
X99945102Y-116380000D01*
X75725000Y-96500000D02*
X73575000Y-98650000D01*
X212495000Y-93700000D02*
X212495000Y-92005000D01*
X129545000Y-92800000D02*
X121345000Y-101000000D01*
X75725000Y-90222370D02*
X75725000Y-91300000D01*
X75495000Y-66950000D02*
X75495000Y-72650000D01*
X136345000Y-94300000D02*
X134845000Y-92800000D01*
X75495000Y-72650000D02*
X73845000Y-74300000D01*
X71623000Y-104647002D02*
X74775998Y-107800000D01*
X70345000Y-77800000D02*
X70345000Y-84842370D01*
X215345000Y-111800862D02*
X215345000Y-115550000D01*
X75725000Y-91300000D02*
X75725000Y-96500000D01*
X217250000Y-101624898D02*
X214474898Y-104400000D01*
X213350000Y-104400000D02*
X212250000Y-105500000D01*
X73845000Y-74300000D02*
X70345000Y-77800000D01*
X212250000Y-105500000D02*
X212250000Y-108705862D01*
X96095000Y-107800000D02*
X103095000Y-114800000D01*
X74775998Y-107800000D02*
X96095000Y-107800000D01*
X119695000Y-102650000D02*
X121345000Y-101000000D01*
X134845000Y-92800000D02*
X129545000Y-92800000D01*
X217250000Y-92000000D02*
X217250000Y-101624898D01*
X216250000Y-91000000D02*
X217250000Y-92000000D01*
X103095000Y-114800000D02*
X117595000Y-114800000D01*
X71623000Y-100602000D02*
X71623000Y-104647002D01*
X119695000Y-112700000D02*
X119695000Y-108150000D01*
X213500000Y-91000000D02*
X216250000Y-91000000D01*
X215345000Y-115550000D02*
X212845000Y-118050000D01*
X73575000Y-98650000D02*
X71623000Y-100602000D01*
X128365000Y-117600000D02*
X133025000Y-112940000D01*
X212250000Y-108705862D02*
X215345000Y-111800862D01*
X138135000Y-118050000D02*
X133025000Y-112940000D01*
X119695000Y-107300000D02*
X119695000Y-102650000D01*
X119695000Y-108150000D02*
X119695000Y-107300000D01*
X99945102Y-116380000D02*
X101165102Y-117600000D01*
X70345000Y-84842370D02*
X75725000Y-90222370D01*
X214474898Y-104400000D02*
X213350000Y-104400000D01*
X101165102Y-117600000D02*
X128365000Y-117600000D01*
X212845000Y-118050000D02*
X138135000Y-118050000D01*
X133025000Y-112940000D02*
X136345000Y-109620000D01*
X117595000Y-114800000D02*
X119695000Y-112700000D01*
X212495000Y-92005000D02*
X213500000Y-91000000D01*
X136345000Y-109620000D02*
X136345000Y-94300000D01*
%TO.N,+24V*%
X72910000Y-94485000D02*
X73575000Y-95150000D01*
X71845000Y-113800000D02*
X71845000Y-117800000D01*
X73575000Y-95150000D02*
X70223000Y-98502000D01*
X101745000Y-116200000D02*
X118195000Y-116200000D01*
X68945000Y-90520000D02*
X72910000Y-94485000D01*
X96845000Y-111300000D02*
X101745000Y-116200000D01*
X133025000Y-95160000D02*
X129735000Y-95160000D01*
X74345000Y-111300000D02*
X71845000Y-113800000D01*
X121345000Y-103550000D02*
X121345000Y-104500000D01*
X70223000Y-98502000D02*
X70223000Y-107178000D01*
X72955000Y-66950000D02*
X72955000Y-69910000D01*
X121345000Y-107260000D02*
X121345000Y-104500000D01*
X73575000Y-91690000D02*
X73185000Y-91300000D01*
X70223000Y-107178000D02*
X74345000Y-111300000D01*
X129735000Y-95160000D02*
X121345000Y-103550000D01*
X118195000Y-116200000D02*
X122235000Y-112160000D01*
X213595000Y-119800000D02*
X216745000Y-116650000D01*
X122235000Y-108150000D02*
X121345000Y-107260000D01*
X68945000Y-75700000D02*
X68945000Y-90520000D01*
X73845000Y-119800000D02*
X213595000Y-119800000D01*
X74345000Y-111300000D02*
X96845000Y-111300000D01*
X71845000Y-117800000D02*
X73845000Y-119800000D01*
X72955000Y-69910000D02*
X73845000Y-70800000D01*
X216745000Y-108200000D02*
X215245000Y-106700000D01*
X122235000Y-112160000D02*
X122235000Y-108150000D01*
X216745000Y-116650000D02*
X216745000Y-108200000D01*
X73845000Y-70800000D02*
X68945000Y-75700000D01*
X73575000Y-95150000D02*
X73575000Y-91690000D01*
D33*
%TO.N,Net-(U1-D23)*%
X84465000Y-62180000D02*
X85045000Y-61600000D01*
X90735000Y-79650000D02*
X84465000Y-73380000D01*
X84465000Y-73380000D02*
X84465000Y-62180000D01*
X106800000Y-61600000D02*
X108800000Y-63600000D01*
X85045000Y-61600000D02*
X106800000Y-61600000D01*
%TO.N,Net-(U1-D22)*%
X81925000Y-73380000D02*
X81925000Y-62220000D01*
X81925000Y-62220000D02*
X83345000Y-60800000D01*
X83345000Y-60800000D02*
X108540000Y-60800000D01*
X88195000Y-79650000D02*
X81925000Y-73380000D01*
X108540000Y-60800000D02*
X111340000Y-63600000D01*
%TO.N,Net-(U1-D21)*%
X81345000Y-60300000D02*
X115660000Y-60300000D01*
X115660000Y-60300000D02*
X118960000Y-63600000D01*
X79385000Y-62260000D02*
X81345000Y-60300000D01*
X79385000Y-73220000D02*
X79385000Y-62260000D01*
X72955000Y-79650000D02*
X79385000Y-73220000D01*
D32*
%TO.N,Net-(U4-OA2)*%
X78275000Y-87150000D02*
X78275000Y-91290000D01*
D31*
X78275000Y-91290000D02*
X78265000Y-91300000D01*
%TO.N,Net-(M2--)*%
X80815000Y-91290000D02*
X80805000Y-91300000D01*
D32*
X80815000Y-87150000D02*
X80815000Y-91290000D01*
D31*
%TO.N,Net-(U4-OB1)*%
X83355000Y-91290000D02*
X83345000Y-91300000D01*
D32*
X83355000Y-87150000D02*
X83355000Y-91290000D01*
%TO.N,Net-(U4-OB2)*%
X85895000Y-87150000D02*
X85895000Y-91290000D01*
D31*
X85895000Y-91290000D02*
X85885000Y-91300000D01*
%TO.N,Net-(U5-OA2)*%
X117145000Y-108160000D02*
X117155000Y-108150000D01*
D32*
X117145000Y-111800000D02*
X117145000Y-108160000D01*
%TO.N,Net-(M3--)*%
X114605000Y-111800000D02*
X114605000Y-108160000D01*
D31*
X114605000Y-108160000D02*
X114615000Y-108150000D01*
%TO.N,Net-(U5-OB1)*%
X112065000Y-108160000D02*
X112075000Y-108150000D01*
D32*
X112065000Y-111800000D02*
X112065000Y-108160000D01*
%TO.N,Net-(U5-OB2)*%
X109525000Y-111800000D02*
X109525000Y-108160000D01*
D31*
X109525000Y-108160000D02*
X109535000Y-108150000D01*
D33*
%TO.N,Net-(D3-K)*%
X193245000Y-100160000D02*
X199705000Y-93700000D01*
X95645000Y-90680000D02*
X95645000Y-82580000D01*
X97345000Y-92380000D02*
X101284189Y-88440811D01*
X213295000Y-100650000D02*
X209255000Y-100650000D01*
X101284189Y-88440811D02*
X106204189Y-88440811D01*
X95645000Y-71290000D02*
X97345000Y-69590000D01*
X195235610Y-92200000D02*
X196495000Y-93459390D01*
X186045000Y-85000000D02*
X190095000Y-89050000D01*
D34*
X88425000Y-91300000D02*
X90355000Y-93230000D01*
D33*
X188245000Y-100160000D02*
X188245000Y-98089390D01*
X144360000Y-63600000D02*
X157895000Y-63600000D01*
X188245000Y-98089390D02*
X194134390Y-92200000D01*
D34*
X106995000Y-108150000D02*
X105908000Y-107063000D01*
D33*
X97345000Y-92380000D02*
X95645000Y-90680000D01*
X190095000Y-89050000D02*
X197655000Y-89050000D01*
D34*
X90355000Y-93230000D02*
X96495000Y-93230000D01*
X104188000Y-107063000D02*
X88425000Y-91300000D01*
D33*
X97345000Y-80880000D02*
X95645000Y-79180000D01*
X141910000Y-66050000D02*
X144360000Y-63600000D01*
X209255000Y-100650000D02*
X202305000Y-93700000D01*
X196495000Y-96910000D02*
X193245000Y-100160000D01*
X166345000Y-72050000D02*
X166345000Y-86300000D01*
X90835000Y-69590000D02*
X97345000Y-69590000D01*
X157895000Y-63600000D02*
X166345000Y-72050000D01*
X128595000Y-66050000D02*
X141910000Y-66050000D01*
X194134390Y-92200000D02*
X195235610Y-92200000D01*
X199705000Y-93700000D02*
X202305000Y-93700000D01*
D34*
X96495000Y-93230000D02*
X97345000Y-92380000D01*
D33*
X95645000Y-82580000D02*
X97345000Y-80880000D01*
X179570075Y-88800000D02*
X183370075Y-85000000D01*
D34*
X105908000Y-107063000D02*
X104188000Y-107063000D01*
D33*
X197655000Y-89050000D02*
X202305000Y-93700000D01*
X166345000Y-86300000D02*
X168845000Y-88800000D01*
X106204189Y-88440811D02*
X128595000Y-66050000D01*
X95645000Y-79180000D02*
X95645000Y-71290000D01*
X183370075Y-85000000D02*
X186045000Y-85000000D01*
X88195000Y-66950000D02*
X90835000Y-69590000D01*
X196495000Y-93459390D02*
X196495000Y-96910000D01*
X168845000Y-88800000D02*
X179570075Y-88800000D01*
D34*
%TO.N,Net-(U1-D25)*%
X126145000Y-89000000D02*
X126580000Y-89000000D01*
X118608000Y-94363000D02*
X119695000Y-95450000D01*
X116282000Y-94363000D02*
X118608000Y-94363000D01*
X79595000Y-103628626D02*
X80345000Y-102878626D01*
X97513604Y-106050000D02*
X102213604Y-110750000D01*
X81990000Y-86145000D02*
X75495000Y-79650000D01*
X113430000Y-112096701D02*
X113430000Y-98465000D01*
X110573097Y-113050000D02*
X112476701Y-113050000D01*
X115845000Y-94800000D02*
X116282000Y-94363000D01*
X80345000Y-102300000D02*
X81990000Y-100655000D01*
X79595000Y-104550000D02*
X79595000Y-103628626D01*
X110198097Y-113425000D02*
X110573097Y-113050000D01*
X81990000Y-100655000D02*
X81990000Y-86145000D01*
X77775000Y-106050000D02*
X97513604Y-106050000D01*
X80345000Y-102878626D02*
X80345000Y-102300000D01*
X106545000Y-110750000D02*
X107900000Y-112105000D01*
X107900000Y-112105000D02*
X107900000Y-112473097D01*
X119695000Y-95450000D02*
X126145000Y-89000000D01*
X107900000Y-112473097D02*
X108851903Y-113425000D01*
X78845000Y-105300000D02*
X79595000Y-104550000D01*
X108851903Y-113425000D02*
X110198097Y-113425000D01*
X115845000Y-96050000D02*
X115845000Y-94800000D01*
X75725000Y-104000000D02*
X77025000Y-105300000D01*
X77025000Y-105300000D02*
X78845000Y-105300000D01*
X113430000Y-98465000D02*
X115845000Y-96050000D01*
X102213604Y-110750000D02*
X106545000Y-110750000D01*
X112476701Y-113050000D02*
X113430000Y-112096701D01*
X75725000Y-104000000D02*
X77775000Y-106050000D01*
%TO.N,Net-(U1-D26)*%
X115780000Y-96825000D02*
X117155000Y-95450000D01*
X120845000Y-96068625D02*
X120845000Y-95300000D01*
X74638000Y-103549749D02*
X74638000Y-104450251D01*
X118505000Y-96800000D02*
X120113625Y-96800000D01*
X114191701Y-113875000D02*
X115780000Y-112286701D01*
X75274749Y-102913000D02*
X74638000Y-103549749D01*
X107450000Y-112291396D02*
X107450000Y-112659493D01*
X74408000Y-78868752D02*
X74976752Y-78300000D01*
X120845000Y-95300000D02*
X124845000Y-91300000D01*
X101995000Y-111200000D02*
X106358604Y-111200000D01*
X78265000Y-104000000D02*
X79450000Y-102815000D01*
X79450000Y-85142251D02*
X74408000Y-80100251D01*
X126845000Y-91275000D02*
X129120000Y-89000000D01*
X120113625Y-96800000D02*
X120845000Y-96068625D01*
X79450000Y-102815000D02*
X79450000Y-85142251D01*
X76685000Y-78300000D02*
X78035000Y-79650000D01*
X115780000Y-112286701D02*
X115780000Y-96825000D01*
X76687749Y-106500000D02*
X97295000Y-106500000D01*
X74976752Y-78300000D02*
X76685000Y-78300000D01*
X74408000Y-80100251D02*
X74408000Y-78868752D01*
X97295000Y-106500000D02*
X101995000Y-111200000D01*
X124845000Y-91300000D02*
X126845000Y-91300000D01*
X107450000Y-112659493D02*
X108665507Y-113875000D01*
X117155000Y-95450000D02*
X118505000Y-96800000D01*
X78265000Y-104000000D02*
X77178000Y-102913000D01*
X108665507Y-113875000D02*
X114191701Y-113875000D01*
X106358604Y-111200000D02*
X107450000Y-112291396D01*
X77178000Y-102913000D02*
X75274749Y-102913000D01*
X74638000Y-104450251D02*
X76687749Y-106500000D01*
X126845000Y-91300000D02*
X126845000Y-91275000D01*
D33*
%TO.N,Net-(D2-K)*%
X176870000Y-76525000D02*
X177845000Y-75550000D01*
X98845000Y-68550000D02*
X97345000Y-67050000D01*
X158770075Y-62250000D02*
X173620075Y-77100000D01*
D34*
X86845000Y-66300000D02*
X87282000Y-65863000D01*
D33*
X177845000Y-75550000D02*
X178595000Y-74800000D01*
X141820000Y-63600000D02*
X143170000Y-62250000D01*
X185725000Y-100180000D02*
X185725000Y-93810000D01*
X96145000Y-88640000D02*
X96145000Y-85000000D01*
D34*
X91822000Y-90443000D02*
X91822000Y-72277000D01*
D33*
X96145000Y-73500000D02*
X98845000Y-70800000D01*
X97345000Y-78340000D02*
X96145000Y-77140000D01*
X97345000Y-67050000D02*
X90835000Y-67050000D01*
D34*
X87282000Y-65863000D02*
X89648000Y-65863000D01*
D33*
X98845000Y-79840000D02*
X97345000Y-78340000D01*
X128345000Y-65550000D02*
X139870000Y-65550000D01*
X190745000Y-105200000D02*
X185725000Y-100180000D01*
X196370000Y-86050000D02*
X196370000Y-84550000D01*
X96145000Y-85000000D02*
X98845000Y-82300000D01*
X97345000Y-89840000D02*
X99385000Y-87800000D01*
D34*
X88387749Y-89800000D02*
X89465000Y-89800000D01*
D33*
X173620075Y-77100000D02*
X176295000Y-77100000D01*
D34*
X90965000Y-91300000D02*
X91822000Y-90443000D01*
D33*
X190745000Y-112200000D02*
X190745000Y-105200000D01*
D34*
X103377370Y-108150000D02*
X87338000Y-92110630D01*
D33*
X143170000Y-62250000D02*
X158770075Y-62250000D01*
X96145000Y-77140000D02*
X96145000Y-73500000D01*
D34*
X89648000Y-65863000D02*
X90735000Y-66950000D01*
D33*
X98845000Y-70800000D02*
X98845000Y-68550000D01*
X176295000Y-77100000D02*
X177845000Y-75550000D01*
X90835000Y-67050000D02*
X90735000Y-66950000D01*
D34*
X89465000Y-89800000D02*
X90965000Y-91300000D01*
D33*
X139870000Y-65550000D02*
X141820000Y-63600000D01*
X99385000Y-87800000D02*
X106095000Y-87800000D01*
X178595000Y-74800000D02*
X186620000Y-74800000D01*
X176870000Y-86050000D02*
X176870000Y-76525000D01*
X196370000Y-84550000D02*
X187870000Y-76050000D01*
D34*
X87338000Y-92110630D02*
X87338000Y-90849749D01*
D33*
X97345000Y-89840000D02*
X96145000Y-88640000D01*
D34*
X91822000Y-72277000D02*
X86845000Y-67300000D01*
D33*
X98845000Y-82300000D02*
X98845000Y-79840000D01*
X186620000Y-74800000D02*
X187870000Y-76050000D01*
X106095000Y-87800000D02*
X128345000Y-65550000D01*
D34*
X104455000Y-108150000D02*
X103377370Y-108150000D01*
X86845000Y-67300000D02*
X86845000Y-66300000D01*
X87338000Y-90849749D02*
X88387749Y-89800000D01*
%TO.N,Net-(U1-D27)*%
X122235000Y-95450000D02*
X125210000Y-95450000D01*
X125210000Y-95450000D02*
X131660000Y-89000000D01*
D31*
%TO.N,Net-(U1-GND-Pad29)*%
X173665000Y-112940000D02*
X165760000Y-112940000D01*
X165760000Y-112940000D02*
X141820000Y-89000000D01*
D33*
%TO.N,Net-(D2-A)*%
X193245000Y-105240000D02*
X193245000Y-112160000D01*
X193245000Y-112160000D02*
X193285000Y-112200000D01*
%TO.N,Net-(D1-A)*%
X187285000Y-113450000D02*
X184745000Y-113450000D01*
X188245000Y-112490000D02*
X187285000Y-113450000D01*
X184745000Y-113450000D02*
X183495000Y-112200000D01*
X188245000Y-105240000D02*
X188245000Y-112490000D01*
D31*
%TO.N,Net-(U3-OA2)*%
X78045000Y-66940000D02*
X78035000Y-66950000D01*
D32*
X78045000Y-62800000D02*
X78045000Y-66940000D01*
%TO.N,Net-(M1--)*%
X80585000Y-62800000D02*
X80585000Y-66940000D01*
D31*
X80585000Y-66940000D02*
X80575000Y-66950000D01*
D32*
%TO.N,Net-(U3-OB1)*%
X83125000Y-62800000D02*
X83125000Y-66940000D01*
D31*
X83125000Y-66940000D02*
X83115000Y-66950000D01*
%TO.N,Net-(U3-OB2)*%
X85665000Y-66940000D02*
X85655000Y-66950000D01*
D32*
X85665000Y-62800000D02*
X85665000Y-66940000D01*
D33*
%TO.N,Net-(Q1-B)*%
X184995000Y-92700000D02*
X182495000Y-95200000D01*
X182495000Y-95200000D02*
X182495000Y-100410000D01*
X186995000Y-93105000D02*
X186590000Y-92700000D01*
X186995000Y-93810000D02*
X186995000Y-93105000D01*
X186590000Y-92700000D02*
X184995000Y-92700000D01*
D34*
%TO.N,Net-(U1-D35)*%
X102400000Y-110300000D02*
X107336701Y-110300000D01*
X110011701Y-112975000D02*
X110845000Y-112141701D01*
X89725000Y-105300000D02*
X97400000Y-105300000D01*
X101845000Y-95050000D02*
X105545000Y-91350000D01*
X105545000Y-91350000D02*
X116610000Y-91350000D01*
X108350000Y-111313299D02*
X108350000Y-112286701D01*
X110845000Y-107550000D02*
X110095000Y-106800000D01*
X107336701Y-110300000D02*
X108350000Y-111313299D01*
X110845000Y-112141701D02*
X110845000Y-107550000D01*
X116610000Y-91350000D02*
X118960000Y-89000000D01*
X101845000Y-99800000D02*
X101845000Y-95050000D01*
X88425000Y-104000000D02*
X89725000Y-105300000D01*
X109038299Y-112975000D02*
X110011701Y-112975000D01*
X108845000Y-106800000D02*
X101845000Y-99800000D01*
X97400000Y-105300000D02*
X102400000Y-110300000D01*
X108350000Y-112286701D02*
X109038299Y-112975000D01*
X110095000Y-106800000D02*
X108845000Y-106800000D01*
D33*
%TO.N,Net-(D6-A)*%
X185330000Y-76050000D02*
X179135000Y-76050000D01*
%TO.N,Net-(D5-A)*%
X188885000Y-86050000D02*
X193830000Y-86050000D01*
D34*
%TO.N,Net-(U1-D34)*%
X103445000Y-109300000D02*
X107595000Y-109300000D01*
X90965000Y-104000000D02*
X98145000Y-104000000D01*
X104845000Y-90800000D02*
X114620000Y-90800000D01*
X100845000Y-101050000D02*
X100845000Y-94800000D01*
X108345000Y-108550000D02*
X108345000Y-107550000D01*
X98145000Y-104000000D02*
X103445000Y-109300000D01*
X100845000Y-94800000D02*
X104845000Y-90800000D01*
X108345000Y-107550000D02*
X107595000Y-106800000D01*
X107595000Y-106800000D02*
X106595000Y-106800000D01*
X114620000Y-90800000D02*
X116420000Y-89000000D01*
X107595000Y-109300000D02*
X108345000Y-108550000D01*
X106595000Y-106800000D02*
X100845000Y-101050000D01*
D33*
%TO.N,Net-(D4-A)*%
X174330000Y-86050000D02*
X168385000Y-86050000D01*
%TO.N,Net-(D1-K)*%
X199245000Y-101950000D02*
X192495000Y-101950000D01*
X192495000Y-101950000D02*
X191245000Y-100700000D01*
X181845000Y-95100000D02*
X184745000Y-92200000D01*
X209945000Y-112650000D02*
X199245000Y-101950000D01*
X186035000Y-105962462D02*
X181245000Y-101172462D01*
X181245000Y-99900000D02*
X181845000Y-99300000D01*
X187098553Y-98528731D02*
X187098553Y-100498478D01*
X191245000Y-100700000D02*
X191245000Y-97140000D01*
X181845000Y-99300000D02*
X181845000Y-95100000D01*
X188550075Y-101950000D02*
X199245000Y-101950000D01*
X188265000Y-97362284D02*
X187098553Y-98528731D01*
X186035000Y-112200000D02*
X186035000Y-105962462D01*
X187745000Y-92200000D02*
X188265000Y-92720000D01*
X188265000Y-92720000D02*
X188265000Y-93810000D01*
X213295000Y-112650000D02*
X209945000Y-112650000D01*
X181245000Y-101172462D02*
X181245000Y-99900000D01*
X187098553Y-100498478D02*
X188550075Y-101950000D01*
X188265000Y-93810000D02*
X188265000Y-97362284D01*
X184745000Y-92200000D02*
X187745000Y-92200000D01*
X191245000Y-97140000D02*
X194685000Y-93700000D01*
D32*
%TO.N,Net-(J2-Pin_1)*%
X214195000Y-102700000D02*
X203145000Y-102700000D01*
X203145000Y-102700000D02*
X201095000Y-100650000D01*
X215345000Y-101550000D02*
X214195000Y-102700000D01*
X215345000Y-94010000D02*
X215345000Y-101550000D01*
X215035000Y-93700000D02*
X215345000Y-94010000D01*
D34*
%TO.N,Net-(U1-D19)*%
X76870000Y-73840000D02*
X76870000Y-61625000D01*
X71868000Y-78842000D02*
X76870000Y-73840000D01*
X77178000Y-90222000D02*
X71868000Y-84912000D01*
X78670000Y-59825000D02*
X117725000Y-59825000D01*
X77178000Y-100007000D02*
X77178000Y-90222000D01*
X73185000Y-104000000D02*
X77178000Y-100007000D01*
X117725000Y-59825000D02*
X121500000Y-63600000D01*
X71868000Y-84912000D02*
X71868000Y-78842000D01*
X76870000Y-61625000D02*
X78670000Y-59825000D01*
%TO.N,Net-(U1-D33)*%
X120740000Y-92300000D02*
X124040000Y-89000000D01*
X110145000Y-92300000D02*
X120740000Y-92300000D01*
X106995000Y-95450000D02*
X110145000Y-92300000D01*
%TO.N,Net-(U1-D32)*%
X108105000Y-91800000D02*
X118700000Y-91800000D01*
X104455000Y-95450000D02*
X108105000Y-91800000D01*
X118700000Y-91800000D02*
X121500000Y-89000000D01*
D33*
%TO.N,Net-(U1-D14)*%
X142845000Y-116550000D02*
X138095000Y-111800000D01*
X175595000Y-116550000D02*
X142845000Y-116550000D01*
X138095000Y-111800000D02*
X138095000Y-92895000D01*
X182495000Y-109650000D02*
X175595000Y-116550000D01*
X182495000Y-105490000D02*
X182495000Y-109650000D01*
X138095000Y-92895000D02*
X134200000Y-89000000D01*
%TO.N,Net-(U1-TX2)*%
X105420000Y-87300000D02*
X129120000Y-63600000D01*
X97345000Y-87300000D02*
X105420000Y-87300000D01*
%TO.N,Net-(U1-D18)*%
X121590000Y-66050000D02*
X124040000Y-63600000D01*
X98885000Y-66050000D02*
X121590000Y-66050000D01*
X97345000Y-64510000D02*
X98885000Y-66050000D01*
%TO.N,Net-(U1-D5)*%
X97345000Y-75800000D02*
X114380000Y-75800000D01*
X114380000Y-75800000D02*
X126580000Y-63600000D01*
%TO.N,Net-(U1-D13)*%
X145945000Y-87650000D02*
X140630000Y-87650000D01*
X148095000Y-89800000D02*
X145945000Y-87650000D01*
X180055000Y-89800000D02*
X148095000Y-89800000D01*
X183805000Y-86050000D02*
X180055000Y-89800000D01*
X140630000Y-87650000D02*
X139280000Y-89000000D01*
%TO.N,Net-(U1-D12)*%
X163305000Y-86050000D02*
X139690000Y-86050000D01*
X139690000Y-86050000D02*
X136740000Y-89000000D01*
%TO.N,Net-(U1-D15)*%
X141580000Y-61300000D02*
X139280000Y-63600000D01*
X159305000Y-61300000D02*
X141580000Y-61300000D01*
X174055000Y-76050000D02*
X159305000Y-61300000D01*
%TD*%
M02*
