M48
; DRILL file {KiCad 8.0.0} date 2024-04-26T14:48:53+0700
; FORMAT={-:-/ absolute / metric / decimal}
; #@! TF.CreationDate,2024-04-26T14:48:53+07:00
; #@! TF.GenerationSoftware,Kicad,Pcbnew,8.0.0
; #@! TF.FileFunction,MixedPlating,1,2
FMAT,2
METRIC
; #@! TA.AperFunction,Plated,PTH,ComponentDrill
T1C0.700
; #@! TA.AperFunction,Plated,PTH,ComponentDrill
T2C0.750
; #@! TA.AperFunction,Plated,PTH,ComponentDrill
T3C0.800
; #@! TA.AperFunction,Plated,PTH,ComponentDrill
T4C0.900
; #@! TA.AperFunction,Plated,PTH,ComponentDrill
T5C1.000
; #@! TA.AperFunction,Plated,PTH,ComponentDrill
T6C1.016
; #@! TA.AperFunction,Plated,PTH,ComponentDrill
T7C1.020
; #@! TA.AperFunction,Plated,PTH,ComponentDrill
T8C1.100
; #@! TA.AperFunction,Plated,PTH,ComponentDrill
T9C1.300
; #@! TA.AperFunction,NonPlated,NPTH,ComponentDrill
T10C3.200
%
G90
G05
T1
X163.305Y-86.05
X168.385Y-86.05
X174.055Y-76.05
X179.135Y-76.05
X182.495Y-100.41
X182.495Y-105.49
X183.805Y-86.05
X188.245Y-100.16
X188.245Y-105.24
X188.885Y-86.05
X193.245Y-100.16
X193.245Y-105.24
T2
X185.725Y-93.81
X186.995Y-93.81
X188.265Y-93.81
T3
X73.575Y-95.15
X73.575Y-98.65
X73.845Y-70.8
X73.845Y-74.3
X121.345Y-101.0
X121.345Y-104.5
T4
X174.33Y-86.05
X176.87Y-86.05
X183.495Y-112.2
X185.33Y-76.05
X186.035Y-112.2
X187.87Y-76.05
X190.745Y-112.2
X193.285Y-112.2
X193.83Y-86.05
X196.37Y-86.05
T5
X78.045Y-62.8
X78.275Y-87.15
X80.585Y-62.8
X80.815Y-87.15
X83.125Y-62.8
X83.355Y-87.15
X85.665Y-62.8
X85.895Y-87.15
X97.345Y-64.51
X97.345Y-67.05
X97.345Y-69.59
X97.345Y-75.8
X97.345Y-78.34
X97.345Y-80.88
X97.345Y-87.3
X97.345Y-89.84
X97.345Y-92.38
X109.525Y-111.8
X112.065Y-111.8
X114.605Y-111.8
X117.145Y-111.8
X133.025Y-95.16
X133.025Y-112.94
X173.665Y-95.16
X173.665Y-112.94
X212.495Y-93.7
X213.295Y-100.65
X213.295Y-112.65
X215.035Y-93.7
T6
X72.955Y-66.95
X72.955Y-79.65
X73.185Y-91.3
X73.185Y-104.0
X75.495Y-66.95
X75.495Y-79.65
X75.725Y-91.3
X75.725Y-104.0
X78.035Y-66.95
X78.035Y-79.65
X78.265Y-91.3
X78.265Y-104.0
X80.575Y-66.95
X80.575Y-79.65
X80.805Y-91.3
X80.805Y-104.0
X83.115Y-66.95
X83.115Y-79.65
X83.345Y-91.3
X83.345Y-104.0
X85.655Y-66.95
X85.655Y-79.65
X85.885Y-91.3
X85.885Y-104.0
X88.195Y-66.95
X88.195Y-79.65
X88.425Y-91.3
X88.425Y-104.0
X90.735Y-66.95
X90.735Y-79.65
X90.965Y-91.3
X90.965Y-104.0
X104.455Y-95.45
X104.455Y-108.15
X106.995Y-95.45
X106.995Y-108.15
X109.535Y-95.45
X109.535Y-108.15
X112.075Y-95.45
X112.075Y-108.15
X114.615Y-95.45
X114.615Y-108.15
X117.155Y-95.45
X117.155Y-108.15
X119.695Y-95.45
X119.695Y-108.15
X122.235Y-95.45
X122.235Y-108.15
T7
X108.8Y-63.6
X108.8Y-89.0
X111.34Y-63.6
X111.34Y-89.0
X113.88Y-63.6
X113.88Y-89.0
X116.42Y-63.6
X116.42Y-89.0
X118.96Y-63.6
X118.96Y-89.0
X121.5Y-63.6
X121.5Y-89.0
X124.04Y-63.6
X124.04Y-89.0
X126.58Y-63.6
X126.58Y-89.0
X129.12Y-63.6
X129.12Y-89.0
X131.66Y-63.6
X131.66Y-89.0
X134.2Y-63.6
X134.2Y-89.0
X136.74Y-63.6
X136.74Y-89.0
X139.28Y-63.6
X139.28Y-89.0
X141.82Y-63.6
X141.82Y-89.0
X144.36Y-63.6
X144.36Y-89.0
T8
X194.685Y-93.7
X202.305Y-93.7
T9
X74.345Y-111.3
X74.345Y-116.38
X201.045Y-112.7
X201.095Y-100.65
X215.245Y-106.7
T10
X69.0Y-57.75
X69.0Y-125.2
X216.0Y-57.7
X216.0Y-125.2
M30
