%TF.GenerationSoftware,KiCad,Pcbnew,8.0.2-8.0.2-0~ubuntu24.04.1*%
%TF.CreationDate,2024-05-23T00:09:34+07:00*%
%TF.ProjectId,tugas-akhir,74756761-732d-4616-9b68-69722e6b6963,6*%
%TF.SameCoordinates,Original*%
%TF.FileFunction,Copper,L1,Top*%
%TF.FilePolarity,Positive*%
%FSLAX46Y46*%
G04 Gerber Fmt 4.6, Leading zero omitted, Abs format (unit mm)*
G04 Created by KiCad (PCBNEW 8.0.2-8.0.2-0~ubuntu24.04.1) date 2024-05-23 00:09:34*
%MOMM*%
%LPD*%
G01*
G04 APERTURE LIST*
%ADD10C,0.250000*%
%TA.AperFunction,NonConductor*%
%ADD11C,0.250000*%
%TD*%
%TA.AperFunction,NonConductor*%
%ADD12C,0.300000*%
%TD*%
%ADD13C,0.300000*%
%TA.AperFunction,ComponentPad*%
%ADD14C,1.508000*%
%TD*%
%TA.AperFunction,ComponentPad*%
%ADD15C,1.400000*%
%TD*%
%TA.AperFunction,ComponentPad*%
%ADD16O,1.400000X1.400000*%
%TD*%
%TA.AperFunction,ComponentPad*%
%ADD17R,1.800000X1.800000*%
%TD*%
%TA.AperFunction,ComponentPad*%
%ADD18C,1.800000*%
%TD*%
%TA.AperFunction,ComponentPad*%
%ADD19R,2.000000X2.000000*%
%TD*%
%TA.AperFunction,ComponentPad*%
%ADD20C,2.000000*%
%TD*%
%TA.AperFunction,ComponentPad*%
%ADD21R,1.700000X1.700000*%
%TD*%
%TA.AperFunction,ComponentPad*%
%ADD22O,1.700000X1.700000*%
%TD*%
%TA.AperFunction,ComponentPad*%
%ADD23R,1.500000X1.500000*%
%TD*%
%TA.AperFunction,ComponentPad*%
%ADD24C,1.500000*%
%TD*%
%TA.AperFunction,ComponentPad*%
%ADD25R,2.540000X2.540000*%
%TD*%
%TA.AperFunction,ComponentPad*%
%ADD26C,2.540000*%
%TD*%
%TA.AperFunction,ComponentPad*%
%ADD27R,1.524000X1.524000*%
%TD*%
%TA.AperFunction,ComponentPad*%
%ADD28C,1.524000*%
%TD*%
%TA.AperFunction,ComponentPad*%
%ADD29R,1.600000X1.600000*%
%TD*%
%TA.AperFunction,ComponentPad*%
%ADD30C,1.600000*%
%TD*%
%TA.AperFunction,ComponentPad*%
%ADD31C,3.000000*%
%TD*%
%TA.AperFunction,ComponentPad*%
%ADD32C,2.500000*%
%TD*%
%TA.AperFunction,ComponentPad*%
%ADD33R,2.400000X2.400000*%
%TD*%
%TA.AperFunction,ComponentPad*%
%ADD34C,2.400000*%
%TD*%
%TA.AperFunction,ComponentPad*%
%ADD35R,2.200000X2.200000*%
%TD*%
%TA.AperFunction,ComponentPad*%
%ADD36O,2.200000X2.200000*%
%TD*%
G04 APERTURE END LIST*
D10*
D11*
X106378571Y-89003428D02*
X105878571Y-88289142D01*
X105521428Y-89003428D02*
X105521428Y-87503428D01*
X105521428Y-87503428D02*
X106092857Y-87503428D01*
X106092857Y-87503428D02*
X106235714Y-87574857D01*
X106235714Y-87574857D02*
X106307143Y-87646285D01*
X106307143Y-87646285D02*
X106378571Y-87789142D01*
X106378571Y-87789142D02*
X106378571Y-88003428D01*
X106378571Y-88003428D02*
X106307143Y-88146285D01*
X106307143Y-88146285D02*
X106235714Y-88217714D01*
X106235714Y-88217714D02*
X106092857Y-88289142D01*
X106092857Y-88289142D02*
X105521428Y-88289142D01*
X106950000Y-88932000D02*
X107164286Y-89003428D01*
X107164286Y-89003428D02*
X107521428Y-89003428D01*
X107521428Y-89003428D02*
X107664286Y-88932000D01*
X107664286Y-88932000D02*
X107735714Y-88860571D01*
X107735714Y-88860571D02*
X107807143Y-88717714D01*
X107807143Y-88717714D02*
X107807143Y-88574857D01*
X107807143Y-88574857D02*
X107735714Y-88432000D01*
X107735714Y-88432000D02*
X107664286Y-88360571D01*
X107664286Y-88360571D02*
X107521428Y-88289142D01*
X107521428Y-88289142D02*
X107235714Y-88217714D01*
X107235714Y-88217714D02*
X107092857Y-88146285D01*
X107092857Y-88146285D02*
X107021428Y-88074857D01*
X107021428Y-88074857D02*
X106950000Y-87932000D01*
X106950000Y-87932000D02*
X106950000Y-87789142D01*
X106950000Y-87789142D02*
X107021428Y-87646285D01*
X107021428Y-87646285D02*
X107092857Y-87574857D01*
X107092857Y-87574857D02*
X107235714Y-87503428D01*
X107235714Y-87503428D02*
X107592857Y-87503428D01*
X107592857Y-87503428D02*
X107807143Y-87574857D01*
X108235714Y-87503428D02*
X109092857Y-87503428D01*
X108664285Y-89003428D02*
X108664285Y-87503428D01*
D12*
X155200000Y-103000000D02*
G75*
G02*
X154200000Y-102000000I0J1000000D01*
G01*
X192800000Y-102000000D02*
G75*
G02*
X191800000Y-103000000I-1000000J0D01*
G01*
X154200000Y-76200000D02*
G75*
G02*
X155200000Y-75200000I1000000J0D01*
G01*
X181500000Y-98500000D02*
X181500000Y-101500000D01*
X155200000Y-75200000D02*
X191800000Y-75200000D01*
X154200000Y-102000000D02*
X154200000Y-76200000D01*
X191800000Y-75200000D02*
G75*
G02*
X192800000Y-76200000I0J-1000000D01*
G01*
X192800000Y-76200000D02*
X192800000Y-102000000D01*
X191800000Y-103000000D02*
X155200000Y-103000000D01*
D13*
D12*
X123483082Y-136539638D02*
X124530701Y-135206304D01*
X123483082Y-135206304D02*
X124530701Y-136539638D01*
X128149750Y-135206304D02*
X129197369Y-135206304D01*
X129197369Y-135206304D02*
X128149750Y-136539638D01*
X128149750Y-136539638D02*
X129197369Y-136539638D01*
X130054512Y-134539638D02*
X129864036Y-134920590D01*
X133768799Y-135206304D02*
X134816418Y-135206304D01*
X134816418Y-135206304D02*
X133768799Y-136539638D01*
X133768799Y-136539638D02*
X134816418Y-136539638D01*
D10*
D11*
X101450187Y-76732000D02*
X101664473Y-76803428D01*
X101664473Y-76803428D02*
X102021615Y-76803428D01*
X102021615Y-76803428D02*
X102164473Y-76732000D01*
X102164473Y-76732000D02*
X102235901Y-76660571D01*
X102235901Y-76660571D02*
X102307330Y-76517714D01*
X102307330Y-76517714D02*
X102307330Y-76374857D01*
X102307330Y-76374857D02*
X102235901Y-76232000D01*
X102235901Y-76232000D02*
X102164473Y-76160571D01*
X102164473Y-76160571D02*
X102021615Y-76089142D01*
X102021615Y-76089142D02*
X101735901Y-76017714D01*
X101735901Y-76017714D02*
X101593044Y-75946285D01*
X101593044Y-75946285D02*
X101521615Y-75874857D01*
X101521615Y-75874857D02*
X101450187Y-75732000D01*
X101450187Y-75732000D02*
X101450187Y-75589142D01*
X101450187Y-75589142D02*
X101521615Y-75446285D01*
X101521615Y-75446285D02*
X101593044Y-75374857D01*
X101593044Y-75374857D02*
X101735901Y-75303428D01*
X101735901Y-75303428D02*
X102093044Y-75303428D01*
X102093044Y-75303428D02*
X102307330Y-75374857D01*
X102807329Y-75303428D02*
X103807329Y-76803428D01*
X103807329Y-75303428D02*
X102807329Y-76803428D01*
D10*
D11*
X188950187Y-93803428D02*
X188950187Y-94874857D01*
X188950187Y-94874857D02*
X188878758Y-95089142D01*
X188878758Y-95089142D02*
X188735901Y-95232000D01*
X188735901Y-95232000D02*
X188521615Y-95303428D01*
X188521615Y-95303428D02*
X188378758Y-95303428D01*
X189593044Y-93946285D02*
X189664472Y-93874857D01*
X189664472Y-93874857D02*
X189807330Y-93803428D01*
X189807330Y-93803428D02*
X190164472Y-93803428D01*
X190164472Y-93803428D02*
X190307330Y-93874857D01*
X190307330Y-93874857D02*
X190378758Y-93946285D01*
X190378758Y-93946285D02*
X190450187Y-94089142D01*
X190450187Y-94089142D02*
X190450187Y-94232000D01*
X190450187Y-94232000D02*
X190378758Y-94446285D01*
X190378758Y-94446285D02*
X189521615Y-95303428D01*
X189521615Y-95303428D02*
X190450187Y-95303428D01*
D10*
D11*
X162878758Y-92303428D02*
X162378758Y-91589142D01*
X162021615Y-92303428D02*
X162021615Y-90803428D01*
X162021615Y-90803428D02*
X162593044Y-90803428D01*
X162593044Y-90803428D02*
X162735901Y-90874857D01*
X162735901Y-90874857D02*
X162807330Y-90946285D01*
X162807330Y-90946285D02*
X162878758Y-91089142D01*
X162878758Y-91089142D02*
X162878758Y-91303428D01*
X162878758Y-91303428D02*
X162807330Y-91446285D01*
X162807330Y-91446285D02*
X162735901Y-91517714D01*
X162735901Y-91517714D02*
X162593044Y-91589142D01*
X162593044Y-91589142D02*
X162021615Y-91589142D01*
X163450187Y-90946285D02*
X163521615Y-90874857D01*
X163521615Y-90874857D02*
X163664473Y-90803428D01*
X163664473Y-90803428D02*
X164021615Y-90803428D01*
X164021615Y-90803428D02*
X164164473Y-90874857D01*
X164164473Y-90874857D02*
X164235901Y-90946285D01*
X164235901Y-90946285D02*
X164307330Y-91089142D01*
X164307330Y-91089142D02*
X164307330Y-91232000D01*
X164307330Y-91232000D02*
X164235901Y-91446285D01*
X164235901Y-91446285D02*
X163378758Y-92303428D01*
X163378758Y-92303428D02*
X164307330Y-92303428D01*
D10*
D11*
X178521615Y-98303428D02*
X178521615Y-96803428D01*
X178521615Y-96803428D02*
X178878758Y-96803428D01*
X178878758Y-96803428D02*
X179093044Y-96874857D01*
X179093044Y-96874857D02*
X179235901Y-97017714D01*
X179235901Y-97017714D02*
X179307330Y-97160571D01*
X179307330Y-97160571D02*
X179378758Y-97446285D01*
X179378758Y-97446285D02*
X179378758Y-97660571D01*
X179378758Y-97660571D02*
X179307330Y-97946285D01*
X179307330Y-97946285D02*
X179235901Y-98089142D01*
X179235901Y-98089142D02*
X179093044Y-98232000D01*
X179093044Y-98232000D02*
X178878758Y-98303428D01*
X178878758Y-98303428D02*
X178521615Y-98303428D01*
X179878758Y-96803428D02*
X180807330Y-96803428D01*
X180807330Y-96803428D02*
X180307330Y-97374857D01*
X180307330Y-97374857D02*
X180521615Y-97374857D01*
X180521615Y-97374857D02*
X180664473Y-97446285D01*
X180664473Y-97446285D02*
X180735901Y-97517714D01*
X180735901Y-97517714D02*
X180807330Y-97660571D01*
X180807330Y-97660571D02*
X180807330Y-98017714D01*
X180807330Y-98017714D02*
X180735901Y-98160571D01*
X180735901Y-98160571D02*
X180664473Y-98232000D01*
X180664473Y-98232000D02*
X180521615Y-98303428D01*
X180521615Y-98303428D02*
X180093044Y-98303428D01*
X180093044Y-98303428D02*
X179950187Y-98232000D01*
X179950187Y-98232000D02*
X179878758Y-98160571D01*
D10*
D11*
X114021615Y-61803428D02*
X114021615Y-60303428D01*
X114021615Y-60303428D02*
X114521615Y-61374857D01*
X114521615Y-61374857D02*
X115021615Y-60303428D01*
X115021615Y-60303428D02*
X115021615Y-61803428D01*
X115593044Y-60303428D02*
X116593044Y-61803428D01*
X116593044Y-60303428D02*
X115593044Y-61803428D01*
D13*
D12*
X103980249Y-61285714D02*
X103980249Y-62428571D01*
X101980249Y-61857142D02*
X103980249Y-61857142D01*
X101980249Y-63095238D02*
X103980249Y-63095238D01*
X103980249Y-63095238D02*
X102551678Y-63761905D01*
X102551678Y-63761905D02*
X103980249Y-64428571D01*
X103980249Y-64428571D02*
X101980249Y-64428571D01*
X102170726Y-66523809D02*
X102075488Y-66428571D01*
X102075488Y-66428571D02*
X101980249Y-66142857D01*
X101980249Y-66142857D02*
X101980249Y-65952381D01*
X101980249Y-65952381D02*
X102075488Y-65666666D01*
X102075488Y-65666666D02*
X102265964Y-65476190D01*
X102265964Y-65476190D02*
X102456440Y-65380952D01*
X102456440Y-65380952D02*
X102837392Y-65285714D01*
X102837392Y-65285714D02*
X103123107Y-65285714D01*
X103123107Y-65285714D02*
X103504059Y-65380952D01*
X103504059Y-65380952D02*
X103694535Y-65476190D01*
X103694535Y-65476190D02*
X103885011Y-65666666D01*
X103885011Y-65666666D02*
X103980249Y-65952381D01*
X103980249Y-65952381D02*
X103980249Y-66142857D01*
X103980249Y-66142857D02*
X103885011Y-66428571D01*
X103885011Y-66428571D02*
X103789773Y-66523809D01*
X100569885Y-58857142D02*
X100665123Y-58952380D01*
X100665123Y-58952380D02*
X100760361Y-59142856D01*
X100760361Y-59142856D02*
X100760361Y-59619047D01*
X100760361Y-59619047D02*
X100665123Y-59809523D01*
X100665123Y-59809523D02*
X100569885Y-59904761D01*
X100569885Y-59904761D02*
X100379409Y-59999999D01*
X100379409Y-59999999D02*
X100188933Y-59999999D01*
X100188933Y-59999999D02*
X99903219Y-59904761D01*
X99903219Y-59904761D02*
X98760361Y-58761904D01*
X98760361Y-58761904D02*
X98760361Y-59999999D01*
X100569885Y-60761904D02*
X100665123Y-60857142D01*
X100665123Y-60857142D02*
X100760361Y-61047618D01*
X100760361Y-61047618D02*
X100760361Y-61523809D01*
X100760361Y-61523809D02*
X100665123Y-61714285D01*
X100665123Y-61714285D02*
X100569885Y-61809523D01*
X100569885Y-61809523D02*
X100379409Y-61904761D01*
X100379409Y-61904761D02*
X100188933Y-61904761D01*
X100188933Y-61904761D02*
X99903219Y-61809523D01*
X99903219Y-61809523D02*
X98760361Y-60666666D01*
X98760361Y-60666666D02*
X98760361Y-61904761D01*
X100760361Y-63142856D02*
X100760361Y-63333333D01*
X100760361Y-63333333D02*
X100665123Y-63523809D01*
X100665123Y-63523809D02*
X100569885Y-63619047D01*
X100569885Y-63619047D02*
X100379409Y-63714285D01*
X100379409Y-63714285D02*
X99998457Y-63809523D01*
X99998457Y-63809523D02*
X99522266Y-63809523D01*
X99522266Y-63809523D02*
X99141314Y-63714285D01*
X99141314Y-63714285D02*
X98950838Y-63619047D01*
X98950838Y-63619047D02*
X98855600Y-63523809D01*
X98855600Y-63523809D02*
X98760361Y-63333333D01*
X98760361Y-63333333D02*
X98760361Y-63142856D01*
X98760361Y-63142856D02*
X98855600Y-62952380D01*
X98855600Y-62952380D02*
X98950838Y-62857142D01*
X98950838Y-62857142D02*
X99141314Y-62761904D01*
X99141314Y-62761904D02*
X99522266Y-62666666D01*
X99522266Y-62666666D02*
X99998457Y-62666666D01*
X99998457Y-62666666D02*
X100379409Y-62761904D01*
X100379409Y-62761904D02*
X100569885Y-62857142D01*
X100569885Y-62857142D02*
X100665123Y-62952380D01*
X100665123Y-62952380D02*
X100760361Y-63142856D01*
X99903219Y-64952380D02*
X99998457Y-64761904D01*
X99998457Y-64761904D02*
X100093695Y-64666666D01*
X100093695Y-64666666D02*
X100284171Y-64571428D01*
X100284171Y-64571428D02*
X100379409Y-64571428D01*
X100379409Y-64571428D02*
X100569885Y-64666666D01*
X100569885Y-64666666D02*
X100665123Y-64761904D01*
X100665123Y-64761904D02*
X100760361Y-64952380D01*
X100760361Y-64952380D02*
X100760361Y-65333333D01*
X100760361Y-65333333D02*
X100665123Y-65523809D01*
X100665123Y-65523809D02*
X100569885Y-65619047D01*
X100569885Y-65619047D02*
X100379409Y-65714285D01*
X100379409Y-65714285D02*
X100284171Y-65714285D01*
X100284171Y-65714285D02*
X100093695Y-65619047D01*
X100093695Y-65619047D02*
X99998457Y-65523809D01*
X99998457Y-65523809D02*
X99903219Y-65333333D01*
X99903219Y-65333333D02*
X99903219Y-64952380D01*
X99903219Y-64952380D02*
X99807980Y-64761904D01*
X99807980Y-64761904D02*
X99712742Y-64666666D01*
X99712742Y-64666666D02*
X99522266Y-64571428D01*
X99522266Y-64571428D02*
X99141314Y-64571428D01*
X99141314Y-64571428D02*
X98950838Y-64666666D01*
X98950838Y-64666666D02*
X98855600Y-64761904D01*
X98855600Y-64761904D02*
X98760361Y-64952380D01*
X98760361Y-64952380D02*
X98760361Y-65333333D01*
X98760361Y-65333333D02*
X98855600Y-65523809D01*
X98855600Y-65523809D02*
X98950838Y-65619047D01*
X98950838Y-65619047D02*
X99141314Y-65714285D01*
X99141314Y-65714285D02*
X99522266Y-65714285D01*
X99522266Y-65714285D02*
X99712742Y-65619047D01*
X99712742Y-65619047D02*
X99807980Y-65523809D01*
X99807980Y-65523809D02*
X99903219Y-65333333D01*
X100760361Y-67904762D02*
X98760361Y-69238095D01*
X100760361Y-69238095D02*
X98760361Y-67904762D01*
D13*
D12*
X157473558Y-134939638D02*
X157473558Y-132939638D01*
X157473558Y-132939638D02*
X157949748Y-132939638D01*
X157949748Y-132939638D02*
X158235463Y-133034876D01*
X158235463Y-133034876D02*
X158425939Y-133225352D01*
X158425939Y-133225352D02*
X158521177Y-133415828D01*
X158521177Y-133415828D02*
X158616415Y-133796780D01*
X158616415Y-133796780D02*
X158616415Y-134082495D01*
X158616415Y-134082495D02*
X158521177Y-134463447D01*
X158521177Y-134463447D02*
X158425939Y-134653923D01*
X158425939Y-134653923D02*
X158235463Y-134844400D01*
X158235463Y-134844400D02*
X157949748Y-134939638D01*
X157949748Y-134939638D02*
X157473558Y-134939638D01*
X160616415Y-134749161D02*
X160521177Y-134844400D01*
X160521177Y-134844400D02*
X160235463Y-134939638D01*
X160235463Y-134939638D02*
X160044987Y-134939638D01*
X160044987Y-134939638D02*
X159759272Y-134844400D01*
X159759272Y-134844400D02*
X159568796Y-134653923D01*
X159568796Y-134653923D02*
X159473558Y-134463447D01*
X159473558Y-134463447D02*
X159378320Y-134082495D01*
X159378320Y-134082495D02*
X159378320Y-133796780D01*
X159378320Y-133796780D02*
X159473558Y-133415828D01*
X159473558Y-133415828D02*
X159568796Y-133225352D01*
X159568796Y-133225352D02*
X159759272Y-133034876D01*
X159759272Y-133034876D02*
X160044987Y-132939638D01*
X160044987Y-132939638D02*
X160235463Y-132939638D01*
X160235463Y-132939638D02*
X160521177Y-133034876D01*
X160521177Y-133034876D02*
X160616415Y-133130114D01*
X162902130Y-134844400D02*
X163187844Y-134939638D01*
X163187844Y-134939638D02*
X163664035Y-134939638D01*
X163664035Y-134939638D02*
X163854511Y-134844400D01*
X163854511Y-134844400D02*
X163949749Y-134749161D01*
X163949749Y-134749161D02*
X164044987Y-134558685D01*
X164044987Y-134558685D02*
X164044987Y-134368209D01*
X164044987Y-134368209D02*
X163949749Y-134177733D01*
X163949749Y-134177733D02*
X163854511Y-134082495D01*
X163854511Y-134082495D02*
X163664035Y-133987257D01*
X163664035Y-133987257D02*
X163283082Y-133892019D01*
X163283082Y-133892019D02*
X163092606Y-133796780D01*
X163092606Y-133796780D02*
X162997368Y-133701542D01*
X162997368Y-133701542D02*
X162902130Y-133511066D01*
X162902130Y-133511066D02*
X162902130Y-133320590D01*
X162902130Y-133320590D02*
X162997368Y-133130114D01*
X162997368Y-133130114D02*
X163092606Y-133034876D01*
X163092606Y-133034876D02*
X163283082Y-132939638D01*
X163283082Y-132939638D02*
X163759273Y-132939638D01*
X163759273Y-132939638D02*
X164044987Y-133034876D01*
X164616416Y-133606304D02*
X165378320Y-133606304D01*
X164902130Y-132939638D02*
X164902130Y-134653923D01*
X164902130Y-134653923D02*
X164997368Y-134844400D01*
X164997368Y-134844400D02*
X165187844Y-134939638D01*
X165187844Y-134939638D02*
X165378320Y-134939638D01*
X166806892Y-134844400D02*
X166616416Y-134939638D01*
X166616416Y-134939638D02*
X166235463Y-134939638D01*
X166235463Y-134939638D02*
X166044987Y-134844400D01*
X166044987Y-134844400D02*
X165949749Y-134653923D01*
X165949749Y-134653923D02*
X165949749Y-133892019D01*
X165949749Y-133892019D02*
X166044987Y-133701542D01*
X166044987Y-133701542D02*
X166235463Y-133606304D01*
X166235463Y-133606304D02*
X166616416Y-133606304D01*
X166616416Y-133606304D02*
X166806892Y-133701542D01*
X166806892Y-133701542D02*
X166902130Y-133892019D01*
X166902130Y-133892019D02*
X166902130Y-134082495D01*
X166902130Y-134082495D02*
X165949749Y-134272971D01*
X167759273Y-133606304D02*
X167759273Y-135606304D01*
X167759273Y-133701542D02*
X167949749Y-133606304D01*
X167949749Y-133606304D02*
X168330702Y-133606304D01*
X168330702Y-133606304D02*
X168521178Y-133701542D01*
X168521178Y-133701542D02*
X168616416Y-133796780D01*
X168616416Y-133796780D02*
X168711654Y-133987257D01*
X168711654Y-133987257D02*
X168711654Y-134558685D01*
X168711654Y-134558685D02*
X168616416Y-134749161D01*
X168616416Y-134749161D02*
X168521178Y-134844400D01*
X168521178Y-134844400D02*
X168330702Y-134939638D01*
X168330702Y-134939638D02*
X167949749Y-134939638D01*
X167949749Y-134939638D02*
X167759273Y-134844400D01*
X171092607Y-134939638D02*
X171092607Y-132939638D01*
X171092607Y-132939638D02*
X171568797Y-132939638D01*
X171568797Y-132939638D02*
X171854512Y-133034876D01*
X171854512Y-133034876D02*
X172044988Y-133225352D01*
X172044988Y-133225352D02*
X172140226Y-133415828D01*
X172140226Y-133415828D02*
X172235464Y-133796780D01*
X172235464Y-133796780D02*
X172235464Y-134082495D01*
X172235464Y-134082495D02*
X172140226Y-134463447D01*
X172140226Y-134463447D02*
X172044988Y-134653923D01*
X172044988Y-134653923D02*
X171854512Y-134844400D01*
X171854512Y-134844400D02*
X171568797Y-134939638D01*
X171568797Y-134939638D02*
X171092607Y-134939638D01*
X173378321Y-134939638D02*
X173187845Y-134844400D01*
X173187845Y-134844400D02*
X173092607Y-134749161D01*
X173092607Y-134749161D02*
X172997369Y-134558685D01*
X172997369Y-134558685D02*
X172997369Y-133987257D01*
X172997369Y-133987257D02*
X173092607Y-133796780D01*
X173092607Y-133796780D02*
X173187845Y-133701542D01*
X173187845Y-133701542D02*
X173378321Y-133606304D01*
X173378321Y-133606304D02*
X173664036Y-133606304D01*
X173664036Y-133606304D02*
X173854512Y-133701542D01*
X173854512Y-133701542D02*
X173949750Y-133796780D01*
X173949750Y-133796780D02*
X174044988Y-133987257D01*
X174044988Y-133987257D02*
X174044988Y-134558685D01*
X174044988Y-134558685D02*
X173949750Y-134749161D01*
X173949750Y-134749161D02*
X173854512Y-134844400D01*
X173854512Y-134844400D02*
X173664036Y-134939638D01*
X173664036Y-134939638D02*
X173378321Y-134939638D01*
X174711655Y-133606304D02*
X175092607Y-134939638D01*
X175092607Y-134939638D02*
X175473560Y-133987257D01*
X175473560Y-133987257D02*
X175854512Y-134939638D01*
X175854512Y-134939638D02*
X176235464Y-133606304D01*
X176997369Y-133606304D02*
X176997369Y-134939638D01*
X176997369Y-133796780D02*
X177092607Y-133701542D01*
X177092607Y-133701542D02*
X177283083Y-133606304D01*
X177283083Y-133606304D02*
X177568798Y-133606304D01*
X177568798Y-133606304D02*
X177759274Y-133701542D01*
X177759274Y-133701542D02*
X177854512Y-133892019D01*
X177854512Y-133892019D02*
X177854512Y-134939638D01*
D13*
D12*
X130480249Y-60785714D02*
X130480249Y-61928571D01*
X128480249Y-61357142D02*
X130480249Y-61357142D01*
X128480249Y-62595238D02*
X130480249Y-62595238D01*
X130480249Y-62595238D02*
X129051678Y-63261905D01*
X129051678Y-63261905D02*
X130480249Y-63928571D01*
X130480249Y-63928571D02*
X128480249Y-63928571D01*
X128670726Y-66023809D02*
X128575488Y-65928571D01*
X128575488Y-65928571D02*
X128480249Y-65642857D01*
X128480249Y-65642857D02*
X128480249Y-65452381D01*
X128480249Y-65452381D02*
X128575488Y-65166666D01*
X128575488Y-65166666D02*
X128765964Y-64976190D01*
X128765964Y-64976190D02*
X128956440Y-64880952D01*
X128956440Y-64880952D02*
X129337392Y-64785714D01*
X129337392Y-64785714D02*
X129623107Y-64785714D01*
X129623107Y-64785714D02*
X130004059Y-64880952D01*
X130004059Y-64880952D02*
X130194535Y-64976190D01*
X130194535Y-64976190D02*
X130385011Y-65166666D01*
X130385011Y-65166666D02*
X130480249Y-65452381D01*
X130480249Y-65452381D02*
X130480249Y-65642857D01*
X130480249Y-65642857D02*
X130385011Y-65928571D01*
X130385011Y-65928571D02*
X130289773Y-66023809D01*
X127069885Y-57880952D02*
X127165123Y-57976190D01*
X127165123Y-57976190D02*
X127260361Y-58166666D01*
X127260361Y-58166666D02*
X127260361Y-58642857D01*
X127260361Y-58642857D02*
X127165123Y-58833333D01*
X127165123Y-58833333D02*
X127069885Y-58928571D01*
X127069885Y-58928571D02*
X126879409Y-59023809D01*
X126879409Y-59023809D02*
X126688933Y-59023809D01*
X126688933Y-59023809D02*
X126403219Y-58928571D01*
X126403219Y-58928571D02*
X125260361Y-57785714D01*
X125260361Y-57785714D02*
X125260361Y-59023809D01*
X127069885Y-59785714D02*
X127165123Y-59880952D01*
X127165123Y-59880952D02*
X127260361Y-60071428D01*
X127260361Y-60071428D02*
X127260361Y-60547619D01*
X127260361Y-60547619D02*
X127165123Y-60738095D01*
X127165123Y-60738095D02*
X127069885Y-60833333D01*
X127069885Y-60833333D02*
X126879409Y-60928571D01*
X126879409Y-60928571D02*
X126688933Y-60928571D01*
X126688933Y-60928571D02*
X126403219Y-60833333D01*
X126403219Y-60833333D02*
X125260361Y-59690476D01*
X125260361Y-59690476D02*
X125260361Y-60928571D01*
X127260361Y-62166666D02*
X127260361Y-62357143D01*
X127260361Y-62357143D02*
X127165123Y-62547619D01*
X127165123Y-62547619D02*
X127069885Y-62642857D01*
X127069885Y-62642857D02*
X126879409Y-62738095D01*
X126879409Y-62738095D02*
X126498457Y-62833333D01*
X126498457Y-62833333D02*
X126022266Y-62833333D01*
X126022266Y-62833333D02*
X125641314Y-62738095D01*
X125641314Y-62738095D02*
X125450838Y-62642857D01*
X125450838Y-62642857D02*
X125355600Y-62547619D01*
X125355600Y-62547619D02*
X125260361Y-62357143D01*
X125260361Y-62357143D02*
X125260361Y-62166666D01*
X125260361Y-62166666D02*
X125355600Y-61976190D01*
X125355600Y-61976190D02*
X125450838Y-61880952D01*
X125450838Y-61880952D02*
X125641314Y-61785714D01*
X125641314Y-61785714D02*
X126022266Y-61690476D01*
X126022266Y-61690476D02*
X126498457Y-61690476D01*
X126498457Y-61690476D02*
X126879409Y-61785714D01*
X126879409Y-61785714D02*
X127069885Y-61880952D01*
X127069885Y-61880952D02*
X127165123Y-61976190D01*
X127165123Y-61976190D02*
X127260361Y-62166666D01*
X126403219Y-63976190D02*
X126498457Y-63785714D01*
X126498457Y-63785714D02*
X126593695Y-63690476D01*
X126593695Y-63690476D02*
X126784171Y-63595238D01*
X126784171Y-63595238D02*
X126879409Y-63595238D01*
X126879409Y-63595238D02*
X127069885Y-63690476D01*
X127069885Y-63690476D02*
X127165123Y-63785714D01*
X127165123Y-63785714D02*
X127260361Y-63976190D01*
X127260361Y-63976190D02*
X127260361Y-64357143D01*
X127260361Y-64357143D02*
X127165123Y-64547619D01*
X127165123Y-64547619D02*
X127069885Y-64642857D01*
X127069885Y-64642857D02*
X126879409Y-64738095D01*
X126879409Y-64738095D02*
X126784171Y-64738095D01*
X126784171Y-64738095D02*
X126593695Y-64642857D01*
X126593695Y-64642857D02*
X126498457Y-64547619D01*
X126498457Y-64547619D02*
X126403219Y-64357143D01*
X126403219Y-64357143D02*
X126403219Y-63976190D01*
X126403219Y-63976190D02*
X126307980Y-63785714D01*
X126307980Y-63785714D02*
X126212742Y-63690476D01*
X126212742Y-63690476D02*
X126022266Y-63595238D01*
X126022266Y-63595238D02*
X125641314Y-63595238D01*
X125641314Y-63595238D02*
X125450838Y-63690476D01*
X125450838Y-63690476D02*
X125355600Y-63785714D01*
X125355600Y-63785714D02*
X125260361Y-63976190D01*
X125260361Y-63976190D02*
X125260361Y-64357143D01*
X125260361Y-64357143D02*
X125355600Y-64547619D01*
X125355600Y-64547619D02*
X125450838Y-64642857D01*
X125450838Y-64642857D02*
X125641314Y-64738095D01*
X125641314Y-64738095D02*
X126022266Y-64738095D01*
X126022266Y-64738095D02*
X126212742Y-64642857D01*
X126212742Y-64642857D02*
X126307980Y-64547619D01*
X126307980Y-64547619D02*
X126403219Y-64357143D01*
X127260361Y-66928572D02*
X127260361Y-68261905D01*
X127260361Y-68261905D02*
X125260361Y-66928572D01*
X125260361Y-66928572D02*
X125260361Y-68261905D01*
X127260361Y-69119048D02*
X126879409Y-68928572D01*
D13*
D12*
X123739285Y-96742131D02*
X124405952Y-96742131D01*
X124691666Y-97789750D02*
X123739285Y-97789750D01*
X123739285Y-97789750D02*
X123739285Y-95789750D01*
X123739285Y-95789750D02*
X124691666Y-95789750D01*
X125453571Y-97694512D02*
X125739285Y-97789750D01*
X125739285Y-97789750D02*
X126215476Y-97789750D01*
X126215476Y-97789750D02*
X126405952Y-97694512D01*
X126405952Y-97694512D02*
X126501190Y-97599273D01*
X126501190Y-97599273D02*
X126596428Y-97408797D01*
X126596428Y-97408797D02*
X126596428Y-97218321D01*
X126596428Y-97218321D02*
X126501190Y-97027845D01*
X126501190Y-97027845D02*
X126405952Y-96932607D01*
X126405952Y-96932607D02*
X126215476Y-96837369D01*
X126215476Y-96837369D02*
X125834523Y-96742131D01*
X125834523Y-96742131D02*
X125644047Y-96646892D01*
X125644047Y-96646892D02*
X125548809Y-96551654D01*
X125548809Y-96551654D02*
X125453571Y-96361178D01*
X125453571Y-96361178D02*
X125453571Y-96170702D01*
X125453571Y-96170702D02*
X125548809Y-95980226D01*
X125548809Y-95980226D02*
X125644047Y-95884988D01*
X125644047Y-95884988D02*
X125834523Y-95789750D01*
X125834523Y-95789750D02*
X126310714Y-95789750D01*
X126310714Y-95789750D02*
X126596428Y-95884988D01*
X127453571Y-97789750D02*
X127453571Y-95789750D01*
X127453571Y-95789750D02*
X128215476Y-95789750D01*
X128215476Y-95789750D02*
X128405952Y-95884988D01*
X128405952Y-95884988D02*
X128501190Y-95980226D01*
X128501190Y-95980226D02*
X128596428Y-96170702D01*
X128596428Y-96170702D02*
X128596428Y-96456416D01*
X128596428Y-96456416D02*
X128501190Y-96646892D01*
X128501190Y-96646892D02*
X128405952Y-96742131D01*
X128405952Y-96742131D02*
X128215476Y-96837369D01*
X128215476Y-96837369D02*
X127453571Y-96837369D01*
X129263095Y-95789750D02*
X130501190Y-95789750D01*
X130501190Y-95789750D02*
X129834523Y-96551654D01*
X129834523Y-96551654D02*
X130120238Y-96551654D01*
X130120238Y-96551654D02*
X130310714Y-96646892D01*
X130310714Y-96646892D02*
X130405952Y-96742131D01*
X130405952Y-96742131D02*
X130501190Y-96932607D01*
X130501190Y-96932607D02*
X130501190Y-97408797D01*
X130501190Y-97408797D02*
X130405952Y-97599273D01*
X130405952Y-97599273D02*
X130310714Y-97694512D01*
X130310714Y-97694512D02*
X130120238Y-97789750D01*
X130120238Y-97789750D02*
X129548809Y-97789750D01*
X129548809Y-97789750D02*
X129358333Y-97694512D01*
X129358333Y-97694512D02*
X129263095Y-97599273D01*
X131263095Y-95980226D02*
X131358333Y-95884988D01*
X131358333Y-95884988D02*
X131548809Y-95789750D01*
X131548809Y-95789750D02*
X132025000Y-95789750D01*
X132025000Y-95789750D02*
X132215476Y-95884988D01*
X132215476Y-95884988D02*
X132310714Y-95980226D01*
X132310714Y-95980226D02*
X132405952Y-96170702D01*
X132405952Y-96170702D02*
X132405952Y-96361178D01*
X132405952Y-96361178D02*
X132310714Y-96646892D01*
X132310714Y-96646892D02*
X131167857Y-97789750D01*
X131167857Y-97789750D02*
X132405952Y-97789750D01*
X120929761Y-101009638D02*
X120929761Y-99009638D01*
X120929761Y-99009638D02*
X121405951Y-99009638D01*
X121405951Y-99009638D02*
X121691666Y-99104876D01*
X121691666Y-99104876D02*
X121882142Y-99295352D01*
X121882142Y-99295352D02*
X121977380Y-99485828D01*
X121977380Y-99485828D02*
X122072618Y-99866780D01*
X122072618Y-99866780D02*
X122072618Y-100152495D01*
X122072618Y-100152495D02*
X121977380Y-100533447D01*
X121977380Y-100533447D02*
X121882142Y-100723923D01*
X121882142Y-100723923D02*
X121691666Y-100914400D01*
X121691666Y-100914400D02*
X121405951Y-101009638D01*
X121405951Y-101009638D02*
X120929761Y-101009638D01*
X122929761Y-99962019D02*
X123596428Y-99962019D01*
X123882142Y-101009638D02*
X122929761Y-101009638D01*
X122929761Y-101009638D02*
X122929761Y-99009638D01*
X122929761Y-99009638D02*
X123882142Y-99009638D01*
X124453571Y-99009638D02*
X125120237Y-101009638D01*
X125120237Y-101009638D02*
X125786904Y-99009638D01*
X126453571Y-101009638D02*
X126453571Y-99009638D01*
X127596428Y-101009638D02*
X126739285Y-99866780D01*
X127596428Y-99009638D02*
X126453571Y-100152495D01*
X128453571Y-101009638D02*
X128453571Y-99009638D01*
X129120238Y-99009638D02*
X130263095Y-99009638D01*
X129691666Y-101009638D02*
X129691666Y-99009638D01*
X132167858Y-99009638D02*
X132834524Y-101009638D01*
X132834524Y-101009638D02*
X133501191Y-99009638D01*
X135215477Y-101009638D02*
X134072620Y-101009638D01*
X134644048Y-101009638D02*
X134644048Y-99009638D01*
X134644048Y-99009638D02*
X134453572Y-99295352D01*
X134453572Y-99295352D02*
X134263096Y-99485828D01*
X134263096Y-99485828D02*
X134072620Y-99581066D01*
D10*
D11*
X125301615Y-132313428D02*
X125301615Y-130813428D01*
X125301615Y-130813428D02*
X125658758Y-130813428D01*
X125658758Y-130813428D02*
X125873044Y-130884857D01*
X125873044Y-130884857D02*
X126015901Y-131027714D01*
X126015901Y-131027714D02*
X126087330Y-131170571D01*
X126087330Y-131170571D02*
X126158758Y-131456285D01*
X126158758Y-131456285D02*
X126158758Y-131670571D01*
X126158758Y-131670571D02*
X126087330Y-131956285D01*
X126087330Y-131956285D02*
X126015901Y-132099142D01*
X126015901Y-132099142D02*
X125873044Y-132242000D01*
X125873044Y-132242000D02*
X125658758Y-132313428D01*
X125658758Y-132313428D02*
X125301615Y-132313428D01*
X127444473Y-131313428D02*
X127444473Y-132313428D01*
X127087330Y-130742000D02*
X126730187Y-131813428D01*
X126730187Y-131813428D02*
X127658758Y-131813428D01*
D10*
D11*
X101378758Y-52660571D02*
X101307330Y-52732000D01*
X101307330Y-52732000D02*
X101093044Y-52803428D01*
X101093044Y-52803428D02*
X100950187Y-52803428D01*
X100950187Y-52803428D02*
X100735901Y-52732000D01*
X100735901Y-52732000D02*
X100593044Y-52589142D01*
X100593044Y-52589142D02*
X100521615Y-52446285D01*
X100521615Y-52446285D02*
X100450187Y-52160571D01*
X100450187Y-52160571D02*
X100450187Y-51946285D01*
X100450187Y-51946285D02*
X100521615Y-51660571D01*
X100521615Y-51660571D02*
X100593044Y-51517714D01*
X100593044Y-51517714D02*
X100735901Y-51374857D01*
X100735901Y-51374857D02*
X100950187Y-51303428D01*
X100950187Y-51303428D02*
X101093044Y-51303428D01*
X101093044Y-51303428D02*
X101307330Y-51374857D01*
X101307330Y-51374857D02*
X101378758Y-51446285D01*
X101878758Y-51303428D02*
X102807330Y-51303428D01*
X102807330Y-51303428D02*
X102307330Y-51874857D01*
X102307330Y-51874857D02*
X102521615Y-51874857D01*
X102521615Y-51874857D02*
X102664473Y-51946285D01*
X102664473Y-51946285D02*
X102735901Y-52017714D01*
X102735901Y-52017714D02*
X102807330Y-52160571D01*
X102807330Y-52160571D02*
X102807330Y-52517714D01*
X102807330Y-52517714D02*
X102735901Y-52660571D01*
X102735901Y-52660571D02*
X102664473Y-52732000D01*
X102664473Y-52732000D02*
X102521615Y-52803428D01*
X102521615Y-52803428D02*
X102093044Y-52803428D01*
X102093044Y-52803428D02*
X101950187Y-52732000D01*
X101950187Y-52732000D02*
X101878758Y-52660571D01*
D10*
D11*
X124878758Y-122303428D02*
X124378758Y-121589142D01*
X124021615Y-122303428D02*
X124021615Y-120803428D01*
X124021615Y-120803428D02*
X124593044Y-120803428D01*
X124593044Y-120803428D02*
X124735901Y-120874857D01*
X124735901Y-120874857D02*
X124807330Y-120946285D01*
X124807330Y-120946285D02*
X124878758Y-121089142D01*
X124878758Y-121089142D02*
X124878758Y-121303428D01*
X124878758Y-121303428D02*
X124807330Y-121446285D01*
X124807330Y-121446285D02*
X124735901Y-121517714D01*
X124735901Y-121517714D02*
X124593044Y-121589142D01*
X124593044Y-121589142D02*
X124021615Y-121589142D01*
X126164473Y-120803428D02*
X125878758Y-120803428D01*
X125878758Y-120803428D02*
X125735901Y-120874857D01*
X125735901Y-120874857D02*
X125664473Y-120946285D01*
X125664473Y-120946285D02*
X125521615Y-121160571D01*
X125521615Y-121160571D02*
X125450187Y-121446285D01*
X125450187Y-121446285D02*
X125450187Y-122017714D01*
X125450187Y-122017714D02*
X125521615Y-122160571D01*
X125521615Y-122160571D02*
X125593044Y-122232000D01*
X125593044Y-122232000D02*
X125735901Y-122303428D01*
X125735901Y-122303428D02*
X126021615Y-122303428D01*
X126021615Y-122303428D02*
X126164473Y-122232000D01*
X126164473Y-122232000D02*
X126235901Y-122160571D01*
X126235901Y-122160571D02*
X126307330Y-122017714D01*
X126307330Y-122017714D02*
X126307330Y-121660571D01*
X126307330Y-121660571D02*
X126235901Y-121517714D01*
X126235901Y-121517714D02*
X126164473Y-121446285D01*
X126164473Y-121446285D02*
X126021615Y-121374857D01*
X126021615Y-121374857D02*
X125735901Y-121374857D01*
X125735901Y-121374857D02*
X125593044Y-121446285D01*
X125593044Y-121446285D02*
X125521615Y-121517714D01*
X125521615Y-121517714D02*
X125450187Y-121660571D01*
D10*
D11*
X130450187Y-76732000D02*
X130664473Y-76803428D01*
X130664473Y-76803428D02*
X131021615Y-76803428D01*
X131021615Y-76803428D02*
X131164473Y-76732000D01*
X131164473Y-76732000D02*
X131235901Y-76660571D01*
X131235901Y-76660571D02*
X131307330Y-76517714D01*
X131307330Y-76517714D02*
X131307330Y-76374857D01*
X131307330Y-76374857D02*
X131235901Y-76232000D01*
X131235901Y-76232000D02*
X131164473Y-76160571D01*
X131164473Y-76160571D02*
X131021615Y-76089142D01*
X131021615Y-76089142D02*
X130735901Y-76017714D01*
X130735901Y-76017714D02*
X130593044Y-75946285D01*
X130593044Y-75946285D02*
X130521615Y-75874857D01*
X130521615Y-75874857D02*
X130450187Y-75732000D01*
X130450187Y-75732000D02*
X130450187Y-75589142D01*
X130450187Y-75589142D02*
X130521615Y-75446285D01*
X130521615Y-75446285D02*
X130593044Y-75374857D01*
X130593044Y-75374857D02*
X130735901Y-75303428D01*
X130735901Y-75303428D02*
X131093044Y-75303428D01*
X131093044Y-75303428D02*
X131307330Y-75374857D01*
X131807329Y-75303428D02*
X132807329Y-75303428D01*
X132807329Y-75303428D02*
X131807329Y-76803428D01*
X131807329Y-76803428D02*
X132807329Y-76803428D01*
D10*
D11*
X117878758Y-122303428D02*
X117378758Y-121589142D01*
X117021615Y-122303428D02*
X117021615Y-120803428D01*
X117021615Y-120803428D02*
X117593044Y-120803428D01*
X117593044Y-120803428D02*
X117735901Y-120874857D01*
X117735901Y-120874857D02*
X117807330Y-120946285D01*
X117807330Y-120946285D02*
X117878758Y-121089142D01*
X117878758Y-121089142D02*
X117878758Y-121303428D01*
X117878758Y-121303428D02*
X117807330Y-121446285D01*
X117807330Y-121446285D02*
X117735901Y-121517714D01*
X117735901Y-121517714D02*
X117593044Y-121589142D01*
X117593044Y-121589142D02*
X117021615Y-121589142D01*
X119235901Y-120803428D02*
X118521615Y-120803428D01*
X118521615Y-120803428D02*
X118450187Y-121517714D01*
X118450187Y-121517714D02*
X118521615Y-121446285D01*
X118521615Y-121446285D02*
X118664473Y-121374857D01*
X118664473Y-121374857D02*
X119021615Y-121374857D01*
X119021615Y-121374857D02*
X119164473Y-121446285D01*
X119164473Y-121446285D02*
X119235901Y-121517714D01*
X119235901Y-121517714D02*
X119307330Y-121660571D01*
X119307330Y-121660571D02*
X119307330Y-122017714D01*
X119307330Y-122017714D02*
X119235901Y-122160571D01*
X119235901Y-122160571D02*
X119164473Y-122232000D01*
X119164473Y-122232000D02*
X119021615Y-122303428D01*
X119021615Y-122303428D02*
X118664473Y-122303428D01*
X118664473Y-122303428D02*
X118521615Y-122232000D01*
X118521615Y-122232000D02*
X118450187Y-122160571D01*
D10*
D11*
X168521615Y-97803428D02*
X168521615Y-96303428D01*
X168521615Y-96303428D02*
X168878758Y-96303428D01*
X168878758Y-96303428D02*
X169093044Y-96374857D01*
X169093044Y-96374857D02*
X169235901Y-96517714D01*
X169235901Y-96517714D02*
X169307330Y-96660571D01*
X169307330Y-96660571D02*
X169378758Y-96946285D01*
X169378758Y-96946285D02*
X169378758Y-97160571D01*
X169378758Y-97160571D02*
X169307330Y-97446285D01*
X169307330Y-97446285D02*
X169235901Y-97589142D01*
X169235901Y-97589142D02*
X169093044Y-97732000D01*
X169093044Y-97732000D02*
X168878758Y-97803428D01*
X168878758Y-97803428D02*
X168521615Y-97803428D01*
X170807330Y-97803428D02*
X169950187Y-97803428D01*
X170378758Y-97803428D02*
X170378758Y-96303428D01*
X170378758Y-96303428D02*
X170235901Y-96517714D01*
X170235901Y-96517714D02*
X170093044Y-96660571D01*
X170093044Y-96660571D02*
X169950187Y-96732000D01*
D13*
D12*
X196530114Y-69221679D02*
X196434876Y-69126441D01*
X196434876Y-69126441D02*
X196339638Y-68935965D01*
X196339638Y-68935965D02*
X196339638Y-68459774D01*
X196339638Y-68459774D02*
X196434876Y-68269298D01*
X196434876Y-68269298D02*
X196530114Y-68174060D01*
X196530114Y-68174060D02*
X196720590Y-68078822D01*
X196720590Y-68078822D02*
X196911066Y-68078822D01*
X196911066Y-68078822D02*
X197196780Y-68174060D01*
X197196780Y-68174060D02*
X198339638Y-69316917D01*
X198339638Y-69316917D02*
X198339638Y-68078822D01*
X197006304Y-66364536D02*
X198339638Y-66364536D01*
X196244400Y-66840727D02*
X197672971Y-67316917D01*
X197672971Y-67316917D02*
X197672971Y-66078822D01*
X196339638Y-65602631D02*
X198339638Y-64935965D01*
X198339638Y-64935965D02*
X196339638Y-64269298D01*
D10*
D11*
X166521615Y-61303428D02*
X166521615Y-59803428D01*
X166521615Y-59803428D02*
X167021615Y-60874857D01*
X167021615Y-60874857D02*
X167521615Y-59803428D01*
X167521615Y-59803428D02*
X167521615Y-61303428D01*
X168093044Y-59803428D02*
X169093044Y-59803428D01*
X169093044Y-59803428D02*
X168093044Y-61303428D01*
X168093044Y-61303428D02*
X169093044Y-61303428D01*
D13*
D12*
X170897870Y-121042266D02*
X164802632Y-121042266D01*
X166326441Y-119518457D02*
X164802632Y-121042266D01*
X164802632Y-121042266D02*
X166326441Y-122566076D01*
D10*
D11*
X153878758Y-53160571D02*
X153807330Y-53232000D01*
X153807330Y-53232000D02*
X153593044Y-53303428D01*
X153593044Y-53303428D02*
X153450187Y-53303428D01*
X153450187Y-53303428D02*
X153235901Y-53232000D01*
X153235901Y-53232000D02*
X153093044Y-53089142D01*
X153093044Y-53089142D02*
X153021615Y-52946285D01*
X153021615Y-52946285D02*
X152950187Y-52660571D01*
X152950187Y-52660571D02*
X152950187Y-52446285D01*
X152950187Y-52446285D02*
X153021615Y-52160571D01*
X153021615Y-52160571D02*
X153093044Y-52017714D01*
X153093044Y-52017714D02*
X153235901Y-51874857D01*
X153235901Y-51874857D02*
X153450187Y-51803428D01*
X153450187Y-51803428D02*
X153593044Y-51803428D01*
X153593044Y-51803428D02*
X153807330Y-51874857D01*
X153807330Y-51874857D02*
X153878758Y-51946285D01*
X155307330Y-53303428D02*
X154450187Y-53303428D01*
X154878758Y-53303428D02*
X154878758Y-51803428D01*
X154878758Y-51803428D02*
X154735901Y-52017714D01*
X154735901Y-52017714D02*
X154593044Y-52160571D01*
X154593044Y-52160571D02*
X154450187Y-52232000D01*
D10*
D11*
X131021615Y-132303428D02*
X131021615Y-130803428D01*
X131021615Y-130803428D02*
X131378758Y-130803428D01*
X131378758Y-130803428D02*
X131593044Y-130874857D01*
X131593044Y-130874857D02*
X131735901Y-131017714D01*
X131735901Y-131017714D02*
X131807330Y-131160571D01*
X131807330Y-131160571D02*
X131878758Y-131446285D01*
X131878758Y-131446285D02*
X131878758Y-131660571D01*
X131878758Y-131660571D02*
X131807330Y-131946285D01*
X131807330Y-131946285D02*
X131735901Y-132089142D01*
X131735901Y-132089142D02*
X131593044Y-132232000D01*
X131593044Y-132232000D02*
X131378758Y-132303428D01*
X131378758Y-132303428D02*
X131021615Y-132303428D01*
X133164473Y-130803428D02*
X132878758Y-130803428D01*
X132878758Y-130803428D02*
X132735901Y-130874857D01*
X132735901Y-130874857D02*
X132664473Y-130946285D01*
X132664473Y-130946285D02*
X132521615Y-131160571D01*
X132521615Y-131160571D02*
X132450187Y-131446285D01*
X132450187Y-131446285D02*
X132450187Y-132017714D01*
X132450187Y-132017714D02*
X132521615Y-132160571D01*
X132521615Y-132160571D02*
X132593044Y-132232000D01*
X132593044Y-132232000D02*
X132735901Y-132303428D01*
X132735901Y-132303428D02*
X133021615Y-132303428D01*
X133021615Y-132303428D02*
X133164473Y-132232000D01*
X133164473Y-132232000D02*
X133235901Y-132160571D01*
X133235901Y-132160571D02*
X133307330Y-132017714D01*
X133307330Y-132017714D02*
X133307330Y-131660571D01*
X133307330Y-131660571D02*
X133235901Y-131517714D01*
X133235901Y-131517714D02*
X133164473Y-131446285D01*
X133164473Y-131446285D02*
X133021615Y-131374857D01*
X133021615Y-131374857D02*
X132735901Y-131374857D01*
X132735901Y-131374857D02*
X132593044Y-131446285D01*
X132593044Y-131446285D02*
X132521615Y-131517714D01*
X132521615Y-131517714D02*
X132450187Y-131660571D01*
D10*
D11*
X166021615Y-82446285D02*
X165878758Y-82374857D01*
X165878758Y-82374857D02*
X165735901Y-82232000D01*
X165735901Y-82232000D02*
X165521615Y-82017714D01*
X165521615Y-82017714D02*
X165378758Y-81946285D01*
X165378758Y-81946285D02*
X165235901Y-81946285D01*
X165307330Y-82303428D02*
X165164473Y-82232000D01*
X165164473Y-82232000D02*
X165021615Y-82089142D01*
X165021615Y-82089142D02*
X164950187Y-81803428D01*
X164950187Y-81803428D02*
X164950187Y-81303428D01*
X164950187Y-81303428D02*
X165021615Y-81017714D01*
X165021615Y-81017714D02*
X165164473Y-80874857D01*
X165164473Y-80874857D02*
X165307330Y-80803428D01*
X165307330Y-80803428D02*
X165593044Y-80803428D01*
X165593044Y-80803428D02*
X165735901Y-80874857D01*
X165735901Y-80874857D02*
X165878758Y-81017714D01*
X165878758Y-81017714D02*
X165950187Y-81303428D01*
X165950187Y-81303428D02*
X165950187Y-81803428D01*
X165950187Y-81803428D02*
X165878758Y-82089142D01*
X165878758Y-82089142D02*
X165735901Y-82232000D01*
X165735901Y-82232000D02*
X165593044Y-82303428D01*
X165593044Y-82303428D02*
X165307330Y-82303428D01*
X167378759Y-82303428D02*
X166521616Y-82303428D01*
X166950187Y-82303428D02*
X166950187Y-80803428D01*
X166950187Y-80803428D02*
X166807330Y-81017714D01*
X166807330Y-81017714D02*
X166664473Y-81160571D01*
X166664473Y-81160571D02*
X166521616Y-81232000D01*
D10*
D11*
X162878758Y-87803428D02*
X162378758Y-87089142D01*
X162021615Y-87803428D02*
X162021615Y-86303428D01*
X162021615Y-86303428D02*
X162593044Y-86303428D01*
X162593044Y-86303428D02*
X162735901Y-86374857D01*
X162735901Y-86374857D02*
X162807330Y-86446285D01*
X162807330Y-86446285D02*
X162878758Y-86589142D01*
X162878758Y-86589142D02*
X162878758Y-86803428D01*
X162878758Y-86803428D02*
X162807330Y-86946285D01*
X162807330Y-86946285D02*
X162735901Y-87017714D01*
X162735901Y-87017714D02*
X162593044Y-87089142D01*
X162593044Y-87089142D02*
X162021615Y-87089142D01*
X163378758Y-86303428D02*
X164307330Y-86303428D01*
X164307330Y-86303428D02*
X163807330Y-86874857D01*
X163807330Y-86874857D02*
X164021615Y-86874857D01*
X164021615Y-86874857D02*
X164164473Y-86946285D01*
X164164473Y-86946285D02*
X164235901Y-87017714D01*
X164235901Y-87017714D02*
X164307330Y-87160571D01*
X164307330Y-87160571D02*
X164307330Y-87517714D01*
X164307330Y-87517714D02*
X164235901Y-87660571D01*
X164235901Y-87660571D02*
X164164473Y-87732000D01*
X164164473Y-87732000D02*
X164021615Y-87803428D01*
X164021615Y-87803428D02*
X163593044Y-87803428D01*
X163593044Y-87803428D02*
X163450187Y-87732000D01*
X163450187Y-87732000D02*
X163378758Y-87660571D01*
D10*
D11*
X132378758Y-122303428D02*
X131878758Y-121589142D01*
X131521615Y-122303428D02*
X131521615Y-120803428D01*
X131521615Y-120803428D02*
X132093044Y-120803428D01*
X132093044Y-120803428D02*
X132235901Y-120874857D01*
X132235901Y-120874857D02*
X132307330Y-120946285D01*
X132307330Y-120946285D02*
X132378758Y-121089142D01*
X132378758Y-121089142D02*
X132378758Y-121303428D01*
X132378758Y-121303428D02*
X132307330Y-121446285D01*
X132307330Y-121446285D02*
X132235901Y-121517714D01*
X132235901Y-121517714D02*
X132093044Y-121589142D01*
X132093044Y-121589142D02*
X131521615Y-121589142D01*
X133664473Y-121303428D02*
X133664473Y-122303428D01*
X133307330Y-120732000D02*
X132950187Y-121803428D01*
X132950187Y-121803428D02*
X133878758Y-121803428D01*
D13*
D12*
X171816415Y-95239638D02*
X171149748Y-94287257D01*
X170673558Y-95239638D02*
X170673558Y-93239638D01*
X170673558Y-93239638D02*
X171435463Y-93239638D01*
X171435463Y-93239638D02*
X171625939Y-93334876D01*
X171625939Y-93334876D02*
X171721177Y-93430114D01*
X171721177Y-93430114D02*
X171816415Y-93620590D01*
X171816415Y-93620590D02*
X171816415Y-93906304D01*
X171816415Y-93906304D02*
X171721177Y-94096780D01*
X171721177Y-94096780D02*
X171625939Y-94192019D01*
X171625939Y-94192019D02*
X171435463Y-94287257D01*
X171435463Y-94287257D02*
X170673558Y-94287257D01*
X173435463Y-95144400D02*
X173244987Y-95239638D01*
X173244987Y-95239638D02*
X172864034Y-95239638D01*
X172864034Y-95239638D02*
X172673558Y-95144400D01*
X172673558Y-95144400D02*
X172578320Y-94953923D01*
X172578320Y-94953923D02*
X172578320Y-94192019D01*
X172578320Y-94192019D02*
X172673558Y-94001542D01*
X172673558Y-94001542D02*
X172864034Y-93906304D01*
X172864034Y-93906304D02*
X173244987Y-93906304D01*
X173244987Y-93906304D02*
X173435463Y-94001542D01*
X173435463Y-94001542D02*
X173530701Y-94192019D01*
X173530701Y-94192019D02*
X173530701Y-94382495D01*
X173530701Y-94382495D02*
X172578320Y-94572971D01*
X174673558Y-95239638D02*
X174483082Y-95144400D01*
X174483082Y-95144400D02*
X174387844Y-94953923D01*
X174387844Y-94953923D02*
X174387844Y-93239638D01*
X176292606Y-95239638D02*
X176292606Y-94192019D01*
X176292606Y-94192019D02*
X176197368Y-94001542D01*
X176197368Y-94001542D02*
X176006892Y-93906304D01*
X176006892Y-93906304D02*
X175625939Y-93906304D01*
X175625939Y-93906304D02*
X175435463Y-94001542D01*
X176292606Y-95144400D02*
X176102130Y-95239638D01*
X176102130Y-95239638D02*
X175625939Y-95239638D01*
X175625939Y-95239638D02*
X175435463Y-95144400D01*
X175435463Y-95144400D02*
X175340225Y-94953923D01*
X175340225Y-94953923D02*
X175340225Y-94763447D01*
X175340225Y-94763447D02*
X175435463Y-94572971D01*
X175435463Y-94572971D02*
X175625939Y-94477733D01*
X175625939Y-94477733D02*
X176102130Y-94477733D01*
X176102130Y-94477733D02*
X176292606Y-94382495D01*
X177054511Y-93906304D02*
X177530701Y-95239638D01*
X178006892Y-93906304D02*
X177530701Y-95239638D01*
X177530701Y-95239638D02*
X177340225Y-95715828D01*
X177340225Y-95715828D02*
X177244987Y-95811066D01*
X177244987Y-95811066D02*
X177054511Y-95906304D01*
D13*
D12*
X192777733Y-69926441D02*
X192777733Y-68402632D01*
X193539638Y-69164536D02*
X192015828Y-69164536D01*
X192777733Y-64402631D02*
X192777733Y-62878822D01*
D10*
D11*
X178803428Y-67049812D02*
X179874857Y-67049812D01*
X179874857Y-67049812D02*
X180089142Y-67121241D01*
X180089142Y-67121241D02*
X180232000Y-67264098D01*
X180232000Y-67264098D02*
X180303428Y-67478384D01*
X180303428Y-67478384D02*
X180303428Y-67621241D01*
X180303428Y-65549812D02*
X180303428Y-66406955D01*
X180303428Y-65978384D02*
X178803428Y-65978384D01*
X178803428Y-65978384D02*
X179017714Y-66121241D01*
X179017714Y-66121241D02*
X179160571Y-66264098D01*
X179160571Y-66264098D02*
X179232000Y-66406955D01*
D10*
D11*
X127378758Y-52660571D02*
X127307330Y-52732000D01*
X127307330Y-52732000D02*
X127093044Y-52803428D01*
X127093044Y-52803428D02*
X126950187Y-52803428D01*
X126950187Y-52803428D02*
X126735901Y-52732000D01*
X126735901Y-52732000D02*
X126593044Y-52589142D01*
X126593044Y-52589142D02*
X126521615Y-52446285D01*
X126521615Y-52446285D02*
X126450187Y-52160571D01*
X126450187Y-52160571D02*
X126450187Y-51946285D01*
X126450187Y-51946285D02*
X126521615Y-51660571D01*
X126521615Y-51660571D02*
X126593044Y-51517714D01*
X126593044Y-51517714D02*
X126735901Y-51374857D01*
X126735901Y-51374857D02*
X126950187Y-51303428D01*
X126950187Y-51303428D02*
X127093044Y-51303428D01*
X127093044Y-51303428D02*
X127307330Y-51374857D01*
X127307330Y-51374857D02*
X127378758Y-51446285D01*
X127950187Y-51446285D02*
X128021615Y-51374857D01*
X128021615Y-51374857D02*
X128164473Y-51303428D01*
X128164473Y-51303428D02*
X128521615Y-51303428D01*
X128521615Y-51303428D02*
X128664473Y-51374857D01*
X128664473Y-51374857D02*
X128735901Y-51446285D01*
X128735901Y-51446285D02*
X128807330Y-51589142D01*
X128807330Y-51589142D02*
X128807330Y-51732000D01*
X128807330Y-51732000D02*
X128735901Y-51946285D01*
X128735901Y-51946285D02*
X127878758Y-52803428D01*
X127878758Y-52803428D02*
X128807330Y-52803428D01*
D10*
D11*
X157521615Y-82303428D02*
X157521615Y-80803428D01*
X157521615Y-80803428D02*
X157878758Y-80803428D01*
X157878758Y-80803428D02*
X158093044Y-80874857D01*
X158093044Y-80874857D02*
X158235901Y-81017714D01*
X158235901Y-81017714D02*
X158307330Y-81160571D01*
X158307330Y-81160571D02*
X158378758Y-81446285D01*
X158378758Y-81446285D02*
X158378758Y-81660571D01*
X158378758Y-81660571D02*
X158307330Y-81946285D01*
X158307330Y-81946285D02*
X158235901Y-82089142D01*
X158235901Y-82089142D02*
X158093044Y-82232000D01*
X158093044Y-82232000D02*
X157878758Y-82303428D01*
X157878758Y-82303428D02*
X157521615Y-82303428D01*
X158950187Y-80946285D02*
X159021615Y-80874857D01*
X159021615Y-80874857D02*
X159164473Y-80803428D01*
X159164473Y-80803428D02*
X159521615Y-80803428D01*
X159521615Y-80803428D02*
X159664473Y-80874857D01*
X159664473Y-80874857D02*
X159735901Y-80946285D01*
X159735901Y-80946285D02*
X159807330Y-81089142D01*
X159807330Y-81089142D02*
X159807330Y-81232000D01*
X159807330Y-81232000D02*
X159735901Y-81446285D01*
X159735901Y-81446285D02*
X158878758Y-82303428D01*
X158878758Y-82303428D02*
X159807330Y-82303428D01*
D13*
D12*
X156980249Y-60285714D02*
X156980249Y-61428571D01*
X154980249Y-60857142D02*
X156980249Y-60857142D01*
X154980249Y-62095238D02*
X156980249Y-62095238D01*
X156980249Y-62095238D02*
X155551678Y-62761905D01*
X155551678Y-62761905D02*
X156980249Y-63428571D01*
X156980249Y-63428571D02*
X154980249Y-63428571D01*
X155170726Y-65523809D02*
X155075488Y-65428571D01*
X155075488Y-65428571D02*
X154980249Y-65142857D01*
X154980249Y-65142857D02*
X154980249Y-64952381D01*
X154980249Y-64952381D02*
X155075488Y-64666666D01*
X155075488Y-64666666D02*
X155265964Y-64476190D01*
X155265964Y-64476190D02*
X155456440Y-64380952D01*
X155456440Y-64380952D02*
X155837392Y-64285714D01*
X155837392Y-64285714D02*
X156123107Y-64285714D01*
X156123107Y-64285714D02*
X156504059Y-64380952D01*
X156504059Y-64380952D02*
X156694535Y-64476190D01*
X156694535Y-64476190D02*
X156885011Y-64666666D01*
X156885011Y-64666666D02*
X156980249Y-64952381D01*
X156980249Y-64952381D02*
X156980249Y-65142857D01*
X156980249Y-65142857D02*
X156885011Y-65428571D01*
X156885011Y-65428571D02*
X156789773Y-65523809D01*
X153569885Y-57857142D02*
X153665123Y-57952380D01*
X153665123Y-57952380D02*
X153760361Y-58142856D01*
X153760361Y-58142856D02*
X153760361Y-58619047D01*
X153760361Y-58619047D02*
X153665123Y-58809523D01*
X153665123Y-58809523D02*
X153569885Y-58904761D01*
X153569885Y-58904761D02*
X153379409Y-58999999D01*
X153379409Y-58999999D02*
X153188933Y-58999999D01*
X153188933Y-58999999D02*
X152903219Y-58904761D01*
X152903219Y-58904761D02*
X151760361Y-57761904D01*
X151760361Y-57761904D02*
X151760361Y-58999999D01*
X153569885Y-59761904D02*
X153665123Y-59857142D01*
X153665123Y-59857142D02*
X153760361Y-60047618D01*
X153760361Y-60047618D02*
X153760361Y-60523809D01*
X153760361Y-60523809D02*
X153665123Y-60714285D01*
X153665123Y-60714285D02*
X153569885Y-60809523D01*
X153569885Y-60809523D02*
X153379409Y-60904761D01*
X153379409Y-60904761D02*
X153188933Y-60904761D01*
X153188933Y-60904761D02*
X152903219Y-60809523D01*
X152903219Y-60809523D02*
X151760361Y-59666666D01*
X151760361Y-59666666D02*
X151760361Y-60904761D01*
X153760361Y-62142856D02*
X153760361Y-62333333D01*
X153760361Y-62333333D02*
X153665123Y-62523809D01*
X153665123Y-62523809D02*
X153569885Y-62619047D01*
X153569885Y-62619047D02*
X153379409Y-62714285D01*
X153379409Y-62714285D02*
X152998457Y-62809523D01*
X152998457Y-62809523D02*
X152522266Y-62809523D01*
X152522266Y-62809523D02*
X152141314Y-62714285D01*
X152141314Y-62714285D02*
X151950838Y-62619047D01*
X151950838Y-62619047D02*
X151855600Y-62523809D01*
X151855600Y-62523809D02*
X151760361Y-62333333D01*
X151760361Y-62333333D02*
X151760361Y-62142856D01*
X151760361Y-62142856D02*
X151855600Y-61952380D01*
X151855600Y-61952380D02*
X151950838Y-61857142D01*
X151950838Y-61857142D02*
X152141314Y-61761904D01*
X152141314Y-61761904D02*
X152522266Y-61666666D01*
X152522266Y-61666666D02*
X152998457Y-61666666D01*
X152998457Y-61666666D02*
X153379409Y-61761904D01*
X153379409Y-61761904D02*
X153569885Y-61857142D01*
X153569885Y-61857142D02*
X153665123Y-61952380D01*
X153665123Y-61952380D02*
X153760361Y-62142856D01*
X152903219Y-63952380D02*
X152998457Y-63761904D01*
X152998457Y-63761904D02*
X153093695Y-63666666D01*
X153093695Y-63666666D02*
X153284171Y-63571428D01*
X153284171Y-63571428D02*
X153379409Y-63571428D01*
X153379409Y-63571428D02*
X153569885Y-63666666D01*
X153569885Y-63666666D02*
X153665123Y-63761904D01*
X153665123Y-63761904D02*
X153760361Y-63952380D01*
X153760361Y-63952380D02*
X153760361Y-64333333D01*
X153760361Y-64333333D02*
X153665123Y-64523809D01*
X153665123Y-64523809D02*
X153569885Y-64619047D01*
X153569885Y-64619047D02*
X153379409Y-64714285D01*
X153379409Y-64714285D02*
X153284171Y-64714285D01*
X153284171Y-64714285D02*
X153093695Y-64619047D01*
X153093695Y-64619047D02*
X152998457Y-64523809D01*
X152998457Y-64523809D02*
X152903219Y-64333333D01*
X152903219Y-64333333D02*
X152903219Y-63952380D01*
X152903219Y-63952380D02*
X152807980Y-63761904D01*
X152807980Y-63761904D02*
X152712742Y-63666666D01*
X152712742Y-63666666D02*
X152522266Y-63571428D01*
X152522266Y-63571428D02*
X152141314Y-63571428D01*
X152141314Y-63571428D02*
X151950838Y-63666666D01*
X151950838Y-63666666D02*
X151855600Y-63761904D01*
X151855600Y-63761904D02*
X151760361Y-63952380D01*
X151760361Y-63952380D02*
X151760361Y-64333333D01*
X151760361Y-64333333D02*
X151855600Y-64523809D01*
X151855600Y-64523809D02*
X151950838Y-64619047D01*
X151950838Y-64619047D02*
X152141314Y-64714285D01*
X152141314Y-64714285D02*
X152522266Y-64714285D01*
X152522266Y-64714285D02*
X152712742Y-64619047D01*
X152712742Y-64619047D02*
X152807980Y-64523809D01*
X152807980Y-64523809D02*
X152903219Y-64333333D01*
X153760361Y-66904762D02*
X153760361Y-68238095D01*
X153760361Y-68238095D02*
X151760361Y-66904762D01*
X151760361Y-66904762D02*
X151760361Y-68238095D01*
D10*
D11*
X162878758Y-96803428D02*
X162378758Y-96089142D01*
X162021615Y-96803428D02*
X162021615Y-95303428D01*
X162021615Y-95303428D02*
X162593044Y-95303428D01*
X162593044Y-95303428D02*
X162735901Y-95374857D01*
X162735901Y-95374857D02*
X162807330Y-95446285D01*
X162807330Y-95446285D02*
X162878758Y-95589142D01*
X162878758Y-95589142D02*
X162878758Y-95803428D01*
X162878758Y-95803428D02*
X162807330Y-95946285D01*
X162807330Y-95946285D02*
X162735901Y-96017714D01*
X162735901Y-96017714D02*
X162593044Y-96089142D01*
X162593044Y-96089142D02*
X162021615Y-96089142D01*
X164307330Y-96803428D02*
X163450187Y-96803428D01*
X163878758Y-96803428D02*
X163878758Y-95303428D01*
X163878758Y-95303428D02*
X163735901Y-95517714D01*
X163735901Y-95517714D02*
X163593044Y-95660571D01*
X163593044Y-95660571D02*
X163450187Y-95732000D01*
D10*
D11*
X118521615Y-132303428D02*
X118521615Y-130803428D01*
X118521615Y-130803428D02*
X118878758Y-130803428D01*
X118878758Y-130803428D02*
X119093044Y-130874857D01*
X119093044Y-130874857D02*
X119235901Y-131017714D01*
X119235901Y-131017714D02*
X119307330Y-131160571D01*
X119307330Y-131160571D02*
X119378758Y-131446285D01*
X119378758Y-131446285D02*
X119378758Y-131660571D01*
X119378758Y-131660571D02*
X119307330Y-131946285D01*
X119307330Y-131946285D02*
X119235901Y-132089142D01*
X119235901Y-132089142D02*
X119093044Y-132232000D01*
X119093044Y-132232000D02*
X118878758Y-132303428D01*
X118878758Y-132303428D02*
X118521615Y-132303428D01*
X120735901Y-130803428D02*
X120021615Y-130803428D01*
X120021615Y-130803428D02*
X119950187Y-131517714D01*
X119950187Y-131517714D02*
X120021615Y-131446285D01*
X120021615Y-131446285D02*
X120164473Y-131374857D01*
X120164473Y-131374857D02*
X120521615Y-131374857D01*
X120521615Y-131374857D02*
X120664473Y-131446285D01*
X120664473Y-131446285D02*
X120735901Y-131517714D01*
X120735901Y-131517714D02*
X120807330Y-131660571D01*
X120807330Y-131660571D02*
X120807330Y-132017714D01*
X120807330Y-132017714D02*
X120735901Y-132160571D01*
X120735901Y-132160571D02*
X120664473Y-132232000D01*
X120664473Y-132232000D02*
X120521615Y-132303428D01*
X120521615Y-132303428D02*
X120164473Y-132303428D01*
X120164473Y-132303428D02*
X120021615Y-132232000D01*
X120021615Y-132232000D02*
X119950187Y-132160571D01*
D10*
D11*
X114450187Y-76732000D02*
X114664473Y-76803428D01*
X114664473Y-76803428D02*
X115021615Y-76803428D01*
X115021615Y-76803428D02*
X115164473Y-76732000D01*
X115164473Y-76732000D02*
X115235901Y-76660571D01*
X115235901Y-76660571D02*
X115307330Y-76517714D01*
X115307330Y-76517714D02*
X115307330Y-76374857D01*
X115307330Y-76374857D02*
X115235901Y-76232000D01*
X115235901Y-76232000D02*
X115164473Y-76160571D01*
X115164473Y-76160571D02*
X115021615Y-76089142D01*
X115021615Y-76089142D02*
X114735901Y-76017714D01*
X114735901Y-76017714D02*
X114593044Y-75946285D01*
X114593044Y-75946285D02*
X114521615Y-75874857D01*
X114521615Y-75874857D02*
X114450187Y-75732000D01*
X114450187Y-75732000D02*
X114450187Y-75589142D01*
X114450187Y-75589142D02*
X114521615Y-75446285D01*
X114521615Y-75446285D02*
X114593044Y-75374857D01*
X114593044Y-75374857D02*
X114735901Y-75303428D01*
X114735901Y-75303428D02*
X115093044Y-75303428D01*
X115093044Y-75303428D02*
X115307330Y-75374857D01*
X115807329Y-75303428D02*
X116807329Y-75303428D01*
X116807329Y-75303428D02*
X115807329Y-76803428D01*
X115807329Y-76803428D02*
X116807329Y-76803428D01*
X117450186Y-75303428D02*
X117307329Y-75589142D01*
D13*
D12*
X97412574Y-94271428D02*
X100412574Y-94271428D01*
X97412574Y-96128571D02*
X97555432Y-95842856D01*
X97555432Y-95842856D02*
X97698289Y-95699999D01*
X97698289Y-95699999D02*
X97984003Y-95557142D01*
X97984003Y-95557142D02*
X98841146Y-95557142D01*
X98841146Y-95557142D02*
X99126860Y-95699999D01*
X99126860Y-95699999D02*
X99269717Y-95842856D01*
X99269717Y-95842856D02*
X99412574Y-96128571D01*
X99412574Y-96128571D02*
X99412574Y-96557142D01*
X99412574Y-96557142D02*
X99269717Y-96842856D01*
X99269717Y-96842856D02*
X99126860Y-96985714D01*
X99126860Y-96985714D02*
X98841146Y-97128571D01*
X98841146Y-97128571D02*
X97984003Y-97128571D01*
X97984003Y-97128571D02*
X97698289Y-96985714D01*
X97698289Y-96985714D02*
X97555432Y-96842856D01*
X97555432Y-96842856D02*
X97412574Y-96557142D01*
X97412574Y-96557142D02*
X97412574Y-96128571D01*
X100412574Y-97985714D02*
X100412574Y-99700000D01*
X97412574Y-98842857D02*
X100412574Y-98842857D01*
X98555432Y-100699999D02*
X98555432Y-102985714D01*
X97412574Y-105842857D02*
X97412574Y-104414285D01*
X97412574Y-104414285D02*
X100412574Y-104414285D01*
X97412574Y-106842856D02*
X100412574Y-106842856D01*
X100412574Y-106842856D02*
X100412574Y-107557142D01*
X100412574Y-107557142D02*
X100269717Y-107985713D01*
X100269717Y-107985713D02*
X99984003Y-108271428D01*
X99984003Y-108271428D02*
X99698289Y-108414285D01*
X99698289Y-108414285D02*
X99126860Y-108557142D01*
X99126860Y-108557142D02*
X98698289Y-108557142D01*
X98698289Y-108557142D02*
X98126860Y-108414285D01*
X98126860Y-108414285D02*
X97841146Y-108271428D01*
X97841146Y-108271428D02*
X97555432Y-107985713D01*
X97555432Y-107985713D02*
X97412574Y-107557142D01*
X97412574Y-107557142D02*
X97412574Y-106842856D01*
X98555432Y-109842856D02*
X98555432Y-112128571D01*
X97412574Y-113557142D02*
X100412574Y-113557142D01*
X97412574Y-116557142D02*
X97412574Y-114842856D01*
X97412574Y-115699999D02*
X100412574Y-115699999D01*
X100412574Y-115699999D02*
X99984003Y-115414285D01*
X99984003Y-115414285D02*
X99698289Y-115128570D01*
X99698289Y-115128570D02*
X99555432Y-114842856D01*
X100412574Y-117557142D02*
X100412574Y-119414285D01*
X100412574Y-119414285D02*
X99269717Y-118414285D01*
X99269717Y-118414285D02*
X99269717Y-118842856D01*
X99269717Y-118842856D02*
X99126860Y-119128571D01*
X99126860Y-119128571D02*
X98984003Y-119271428D01*
X98984003Y-119271428D02*
X98698289Y-119414285D01*
X98698289Y-119414285D02*
X97984003Y-119414285D01*
X97984003Y-119414285D02*
X97698289Y-119271428D01*
X97698289Y-119271428D02*
X97555432Y-119128571D01*
X97555432Y-119128571D02*
X97412574Y-118842856D01*
X97412574Y-118842856D02*
X97412574Y-117985713D01*
X97412574Y-117985713D02*
X97555432Y-117699999D01*
X97555432Y-117699999D02*
X97698289Y-117557142D01*
X97412574Y-122271428D02*
X97412574Y-120557142D01*
X97412574Y-121414285D02*
X100412574Y-121414285D01*
X100412574Y-121414285D02*
X99984003Y-121128571D01*
X99984003Y-121128571D02*
X99698289Y-120842856D01*
X99698289Y-120842856D02*
X99555432Y-120557142D01*
X95582742Y-95414285D02*
X95582742Y-97128571D01*
X92582742Y-96271428D02*
X95582742Y-96271428D01*
X93439885Y-97985713D02*
X93439885Y-99414285D01*
X92582742Y-97699999D02*
X95582742Y-98699999D01*
X95582742Y-98699999D02*
X92582742Y-99699999D01*
X93725600Y-100699999D02*
X93725600Y-102985714D01*
X92582742Y-104414285D02*
X95582742Y-104414285D01*
X95582742Y-104414285D02*
X92582742Y-106128571D01*
X92582742Y-106128571D02*
X95582742Y-106128571D01*
X93439885Y-107414285D02*
X93439885Y-108842857D01*
X92582742Y-107128571D02*
X95582742Y-108128571D01*
X95582742Y-108128571D02*
X92582742Y-109128571D01*
X92582742Y-110128571D02*
X95582742Y-110128571D01*
X95582742Y-110128571D02*
X92582742Y-111842857D01*
X92582742Y-111842857D02*
X95582742Y-111842857D01*
X93439885Y-113128571D02*
X93439885Y-114557143D01*
X92582742Y-112842857D02*
X95582742Y-113842857D01*
X95582742Y-113842857D02*
X92582742Y-114842857D01*
X92582742Y-115842857D02*
X95582742Y-115842857D01*
X95582742Y-115842857D02*
X92582742Y-117557143D01*
X92582742Y-117557143D02*
X95582742Y-117557143D01*
X95439885Y-120557143D02*
X95582742Y-120271429D01*
X95582742Y-120271429D02*
X95582742Y-119842857D01*
X95582742Y-119842857D02*
X95439885Y-119414286D01*
X95439885Y-119414286D02*
X95154171Y-119128571D01*
X95154171Y-119128571D02*
X94868457Y-118985714D01*
X94868457Y-118985714D02*
X94297028Y-118842857D01*
X94297028Y-118842857D02*
X93868457Y-118842857D01*
X93868457Y-118842857D02*
X93297028Y-118985714D01*
X93297028Y-118985714D02*
X93011314Y-119128571D01*
X93011314Y-119128571D02*
X92725600Y-119414286D01*
X92725600Y-119414286D02*
X92582742Y-119842857D01*
X92582742Y-119842857D02*
X92582742Y-120128571D01*
X92582742Y-120128571D02*
X92725600Y-120557143D01*
X92725600Y-120557143D02*
X92868457Y-120700000D01*
X92868457Y-120700000D02*
X93868457Y-120700000D01*
X93868457Y-120700000D02*
X93868457Y-120128571D01*
D10*
D11*
X140021615Y-60803428D02*
X140021615Y-59303428D01*
X140021615Y-59303428D02*
X140521615Y-60374857D01*
X140521615Y-60374857D02*
X141021615Y-59303428D01*
X141021615Y-59303428D02*
X141021615Y-60803428D01*
X141593044Y-59303428D02*
X142593044Y-59303428D01*
X142593044Y-59303428D02*
X141593044Y-60803428D01*
X141593044Y-60803428D02*
X142593044Y-60803428D01*
X143235901Y-59303428D02*
X143093044Y-59589142D01*
D14*
%TO.P,S4,2*%
%TO.N,Net-(U1-EN)*%
X109670000Y-83050000D03*
%TO.P,S4,1*%
%TO.N,GND*%
X104670000Y-83050000D03*
%TD*%
D15*
%TO.P,R1,1*%
%TO.N,3V3*%
X159190000Y-94185000D03*
D16*
%TO.P,R1,2*%
%TO.N,Net-(D2-A)*%
X166810000Y-94185000D03*
%TD*%
D17*
%TO.P,D4,1,K*%
%TO.N,GND*%
X129075000Y-132660000D03*
D18*
%TO.P,D4,2,A*%
%TO.N,Net-(D4-A)*%
X129075000Y-130120000D03*
%TD*%
D19*
%TO.P,U1,1,3V3*%
%TO.N,3V3*%
X140725000Y-116785000D03*
D20*
%TO.P,U1,2,GND*%
%TO.N,GND*%
X140725000Y-114245000D03*
%TO.P,U1,3,D15*%
%TO.N,unconnected-(U1-D15-Pad3)*%
X140725000Y-111705000D03*
%TO.P,U1,4,D2*%
%TO.N,X_SW*%
X140725000Y-109165000D03*
%TO.P,U1,5,D4*%
%TO.N,ZP_SW*%
X140725000Y-106625000D03*
%TO.P,U1,6,RX2*%
%TO.N,ZP_DIR*%
X140725000Y-104085000D03*
%TO.P,U1,7,TX2*%
%TO.N,ZP_STEP*%
X140725000Y-101545000D03*
%TO.P,U1,8,D5*%
%TO.N,RELAY*%
X140725000Y-99005000D03*
%TO.P,U1,9,D18*%
%TO.N,Z_SW*%
X140725000Y-96465000D03*
%TO.P,U1,10,D19*%
%TO.N,ZP_EN*%
X140725000Y-93925000D03*
%TO.P,U1,11,D21*%
%TO.N,Z_EN*%
X140725000Y-91385000D03*
%TO.P,U1,12,RX0*%
%TO.N,unconnected-(U1-RX0-Pad12)*%
X140725000Y-88845000D03*
%TO.P,U1,13,TX0*%
%TO.N,unconnected-(U1-TX0-Pad13)*%
X140725000Y-86305000D03*
%TO.P,U1,14,D22*%
%TO.N,Z_STEP*%
X140725000Y-83765000D03*
%TO.P,U1,15,D23*%
%TO.N,Z_DIR*%
X140725000Y-81225000D03*
%TO.P,U1,16,EN*%
%TO.N,Net-(U1-EN)*%
X115325000Y-81225000D03*
%TO.P,U1,17,VP*%
%TO.N,unconnected-(U1-VP-Pad17)*%
X115325000Y-83765000D03*
%TO.P,U1,18,VN*%
%TO.N,unconnected-(U1-VN-Pad18)*%
X115325000Y-86305000D03*
%TO.P,U1,19,D34*%
%TO.N,unconnected-(U1-D34-Pad19)*%
X115325000Y-88845000D03*
%TO.P,U1,20,D35*%
%TO.N,unconnected-(U1-D35-Pad20)*%
X115325000Y-91385000D03*
%TO.P,U1,21,D32*%
%TO.N,X_DIR*%
X115325000Y-93925000D03*
%TO.P,U1,22,D33*%
%TO.N,X_STEP*%
X115325000Y-96465000D03*
%TO.P,U1,23,D25*%
%TO.N,MS1*%
X115325000Y-99005000D03*
%TO.P,U1,24,D26*%
%TO.N,MS2*%
X115325000Y-101545000D03*
%TO.P,U1,25,D27*%
%TO.N,X_EN*%
X115325000Y-104085000D03*
%TO.P,U1,26,D14*%
%TO.N,X_LED*%
X115325000Y-106625000D03*
%TO.P,U1,27,D12*%
%TO.N,Z_LED*%
X115325000Y-109165000D03*
%TO.P,U1,28,D13*%
%TO.N,ZP_LED*%
X115325000Y-111705000D03*
%TO.P,U1,29,GND*%
%TO.N,Net-(U1-GND-Pad29)*%
X115325000Y-114245000D03*
%TO.P,U1,30,VIN*%
%TO.N,Net-(U1-VIN)*%
X115325000Y-116785000D03*
%TD*%
D21*
%TO.P,M3,1*%
%TO.N,Net-(U5-OA2)*%
X111367500Y-56335000D03*
D22*
%TO.P,M3,2,-*%
%TO.N,Net-(M3--)*%
X111367500Y-58875000D03*
%TO.P,M3,3*%
%TO.N,Net-(U5-OB1)*%
X111367500Y-61415000D03*
%TO.P,M3,4*%
%TO.N,Net-(U5-OB2)*%
X111367500Y-63955000D03*
%TD*%
D23*
%TO.P,Q1,1,E*%
%TO.N,GND*%
X163335000Y-79145000D03*
D24*
%TO.P,Q1,2,B*%
%TO.N,Net-(Q1-B)*%
X165875000Y-79145000D03*
%TO.P,Q1,3,C*%
%TO.N,Net-(D1-K)*%
X168415000Y-79145000D03*
%TD*%
D25*
%TO.P,U2,1,Vin*%
%TO.N,V+*%
X189595000Y-129275000D03*
D26*
%TO.P,U2,2,GND*%
%TO.N,V-*%
X189595000Y-111495000D03*
%TO.P,U2,3,GND*%
%TO.N,Net-(U1-GND-Pad29)*%
X148955000Y-111495000D03*
%TO.P,U2,4,Vout*%
%TO.N,Net-(U1-VIN)*%
X148955000Y-129275000D03*
%TD*%
D21*
%TO.P,M1,1*%
%TO.N,Net-(U3-OA2)*%
X164120000Y-56225000D03*
D22*
%TO.P,M1,2,-*%
%TO.N,Net-(M1--)*%
X164120000Y-58765000D03*
%TO.P,M1,3*%
%TO.N,Net-(U3-OB1)*%
X164120000Y-61305000D03*
%TO.P,M1,4*%
%TO.N,Net-(U3-OB2)*%
X164120000Y-63845000D03*
%TD*%
D27*
%TO.P,U3,JP1_1,DIR*%
%TO.N,Z_DIR*%
X147875000Y-68975000D03*
D28*
%TO.P,U3,JP1_2,STEP*%
%TO.N,Z_STEP*%
X147875000Y-66435000D03*
%TO.P,U3,JP1_3,CLK*%
%TO.N,Net-(U3-CLK)*%
X147875000Y-63895000D03*
%TO.P,U3,JP1_4,PDN/UART1*%
X147875000Y-61355000D03*
%TO.P,U3,JP1_5,NC*%
%TO.N,3V3*%
X147875000Y-58815000D03*
%TO.P,U3,JP1_6,MS2*%
%TO.N,MS2*%
X147875000Y-56275000D03*
%TO.P,U3,JP1_7,MS1*%
%TO.N,MS1*%
X147875000Y-53735000D03*
%TO.P,U3,JP1_8,EN*%
%TO.N,Z_EN*%
X147875000Y-51195000D03*
D27*
%TO.P,U3,JP2_1,VM*%
%TO.N,V+*%
X160575000Y-51195000D03*
D28*
%TO.P,U3,JP2_2,GND*%
%TO.N,V-*%
X160575000Y-53735000D03*
%TO.P,U3,JP2_3,OA2*%
%TO.N,Net-(U3-OA2)*%
X160575000Y-56275000D03*
%TO.P,U3,JP2_4,OA1*%
%TO.N,Net-(M1--)*%
X160575000Y-58815000D03*
%TO.P,U3,JP2_5,OB1*%
%TO.N,Net-(U3-OB1)*%
X160575000Y-61355000D03*
%TO.P,U3,JP2_6,OB2*%
%TO.N,Net-(U3-OB2)*%
X160575000Y-63895000D03*
%TO.P,U3,JP2_7,VIO*%
%TO.N,3V3*%
X160575000Y-66435000D03*
%TO.P,U3,JP2_8,GND*%
%TO.N,GND*%
X160575000Y-68975000D03*
%TD*%
D27*
%TO.P,U5,JP1_1,DIR*%
%TO.N,X_DIR*%
X95125000Y-68925000D03*
D28*
%TO.P,U5,JP1_2,STEP*%
%TO.N,X_STEP*%
X95125000Y-66385000D03*
%TO.P,U5,JP1_3,CLK*%
%TO.N,Net-(U5-CLK)*%
X95125000Y-63845000D03*
%TO.P,U5,JP1_4,PDN/UART1*%
X95125000Y-61305000D03*
%TO.P,U5,JP1_5,NC*%
%TO.N,3V3*%
X95125000Y-58765000D03*
%TO.P,U5,JP1_6,MS2*%
%TO.N,MS2*%
X95125000Y-56225000D03*
%TO.P,U5,JP1_7,MS1*%
%TO.N,MS1*%
X95125000Y-53685000D03*
%TO.P,U5,JP1_8,EN*%
%TO.N,X_EN*%
X95125000Y-51145000D03*
D27*
%TO.P,U5,JP2_1,VM*%
%TO.N,V+*%
X107825000Y-51145000D03*
D28*
%TO.P,U5,JP2_2,GND*%
%TO.N,V-*%
X107825000Y-53685000D03*
%TO.P,U5,JP2_3,OA2*%
%TO.N,Net-(U5-OA2)*%
X107825000Y-56225000D03*
%TO.P,U5,JP2_4,OA1*%
%TO.N,Net-(M3--)*%
X107825000Y-58765000D03*
%TO.P,U5,JP2_5,OB1*%
%TO.N,Net-(U5-OB1)*%
X107825000Y-61305000D03*
%TO.P,U5,JP2_6,OB2*%
%TO.N,Net-(U5-OB2)*%
X107825000Y-63845000D03*
%TO.P,U5,JP2_7,VIO*%
%TO.N,3V3*%
X107825000Y-66385000D03*
%TO.P,U5,JP2_8,GND*%
%TO.N,GND*%
X107825000Y-68925000D03*
%TD*%
D29*
%TO.P,C2,1*%
%TO.N,V+*%
X129320000Y-49785000D03*
D30*
%TO.P,C2,2*%
%TO.N,V-*%
X125820000Y-49785000D03*
%TD*%
D31*
%TO.P,K1,1*%
%TO.N,V+*%
X172575000Y-84385000D03*
D32*
%TO.P,K1,2*%
%TO.N,3V3*%
X174525000Y-90435000D03*
D31*
%TO.P,K1,3*%
%TO.N,Net-(J2-Pin_1)*%
X186725000Y-90435000D03*
%TO.P,K1,4*%
%TO.N,unconnected-(K1-Pad4)*%
X186775000Y-78385000D03*
D32*
%TO.P,K1,5*%
%TO.N,Net-(D1-K)*%
X174525000Y-78435000D03*
%TD*%
D15*
%TO.P,R2,1*%
%TO.N,3V3*%
X159190000Y-89785000D03*
D16*
%TO.P,R2,2*%
%TO.N,Net-(D1-A)*%
X166810000Y-89785000D03*
%TD*%
D29*
%TO.P,C3,1*%
%TO.N,V+*%
X103130000Y-49675000D03*
D30*
%TO.P,C3,2*%
%TO.N,V-*%
X99630000Y-49675000D03*
%TD*%
D17*
%TO.P,D5,1,K*%
%TO.N,GND*%
X123475000Y-132660000D03*
D18*
%TO.P,D5,2,A*%
%TO.N,Net-(D5-A)*%
X123475000Y-130120000D03*
%TD*%
D15*
%TO.P,R4,1*%
%TO.N,X_LED*%
X134675000Y-117690000D03*
D16*
%TO.P,R4,2*%
%TO.N,Net-(D6-A)*%
X134675000Y-125310000D03*
%TD*%
D15*
%TO.P,R6,1*%
%TO.N,Z_LED*%
X127075000Y-117690000D03*
D16*
%TO.P,R6,2*%
%TO.N,Net-(D4-A)*%
X127075000Y-125310000D03*
%TD*%
D33*
%TO.P,J1,1,Pin_1*%
%TO.N,V+*%
X185300000Y-68250000D03*
D34*
%TO.P,J1,2,Pin_2*%
%TO.N,V-*%
X185300000Y-64750000D03*
%TD*%
D21*
%TO.P,M2,1*%
%TO.N,Net-(U4-OA2)*%
X137675000Y-56285000D03*
D22*
%TO.P,M2,2,-*%
%TO.N,Net-(M2--)*%
X137675000Y-58825000D03*
%TO.P,M2,3*%
%TO.N,Net-(U4-OB1)*%
X137675000Y-61365000D03*
%TO.P,M2,4*%
%TO.N,Net-(U4-OB2)*%
X137675000Y-63905000D03*
%TD*%
D17*
%TO.P,D6,1,K*%
%TO.N,GND*%
X134675000Y-132622500D03*
D18*
%TO.P,D6,2,A*%
%TO.N,Net-(D6-A)*%
X134675000Y-130082500D03*
%TD*%
D15*
%TO.P,R5,1*%
%TO.N,ZP_LED*%
X120275000Y-117690000D03*
D16*
%TO.P,R5,2*%
%TO.N,Net-(D5-A)*%
X120275000Y-125310000D03*
%TD*%
D17*
%TO.P,D1,1,K*%
%TO.N,Net-(D1-K)*%
X170825000Y-99785000D03*
D18*
%TO.P,D1,2,A*%
%TO.N,Net-(D1-A)*%
X168285000Y-99785000D03*
%TD*%
D21*
%TO.P,S1,1*%
%TO.N,X_SW*%
X105075000Y-72985000D03*
D22*
%TO.P,S1,2*%
%TO.N,GND*%
X102535000Y-72985000D03*
%TO.P,S1,3*%
%TO.N,3V3*%
X99995000Y-72985000D03*
%TD*%
D17*
%TO.P,D2,1,K*%
%TO.N,GND*%
X157400000Y-78785000D03*
D18*
%TO.P,D2,2,A*%
%TO.N,Net-(D2-A)*%
X159940000Y-78785000D03*
%TD*%
D35*
%TO.P,D3,1,K*%
%TO.N,3V3*%
X183885000Y-99985000D03*
D36*
%TO.P,D3,2,A*%
%TO.N,Net-(D1-K)*%
X176265000Y-99985000D03*
%TD*%
D15*
%TO.P,R3,1*%
%TO.N,RELAY*%
X159190000Y-85385000D03*
D16*
%TO.P,R3,2*%
%TO.N,Net-(Q1-B)*%
X166810000Y-85385000D03*
%TD*%
D27*
%TO.P,U4,JP1_1,DIR*%
%TO.N,ZP_DIR*%
X121370000Y-68975000D03*
D28*
%TO.P,U4,JP1_2,STEP*%
%TO.N,ZP_STEP*%
X121370000Y-66435000D03*
%TO.P,U4,JP1_3,CLK*%
%TO.N,Net-(U4-CLK)*%
X121370000Y-63895000D03*
%TO.P,U4,JP1_4,PDN/UART1*%
X121370000Y-61355000D03*
%TO.P,U4,JP1_5,NC*%
%TO.N,3V3*%
X121370000Y-58815000D03*
%TO.P,U4,JP1_6,MS2*%
%TO.N,MS2*%
X121370000Y-56275000D03*
%TO.P,U4,JP1_7,MS1*%
%TO.N,MS1*%
X121370000Y-53735000D03*
%TO.P,U4,JP1_8,EN*%
%TO.N,ZP_EN*%
X121370000Y-51195000D03*
D27*
%TO.P,U4,JP2_1,VM*%
%TO.N,V+*%
X134070000Y-51195000D03*
D28*
%TO.P,U4,JP2_2,GND*%
%TO.N,V-*%
X134070000Y-53735000D03*
%TO.P,U4,JP2_3,OA2*%
%TO.N,Net-(U4-OA2)*%
X134070000Y-56275000D03*
%TO.P,U4,JP2_4,OA1*%
%TO.N,Net-(M2--)*%
X134070000Y-58815000D03*
%TO.P,U4,JP2_5,OB1*%
%TO.N,Net-(U4-OB1)*%
X134070000Y-61355000D03*
%TO.P,U4,JP2_6,OB2*%
%TO.N,Net-(U4-OB2)*%
X134070000Y-63895000D03*
%TO.P,U4,JP2_7,VIO*%
%TO.N,3V3*%
X134070000Y-66435000D03*
%TO.P,U4,JP2_8,GND*%
%TO.N,GND*%
X134070000Y-68975000D03*
%TD*%
D21*
%TO.P,S2,1*%
%TO.N,ZP_SW*%
X118275000Y-72985000D03*
D22*
%TO.P,S2,2*%
%TO.N,GND*%
X115735000Y-72985000D03*
%TO.P,S2,3*%
%TO.N,3V3*%
X113195000Y-72985000D03*
%TD*%
D21*
%TO.P,J2,1,Pin_1*%
%TO.N,Net-(J2-Pin_1)*%
X189475000Y-99660000D03*
D22*
%TO.P,J2,2,Pin_2*%
%TO.N,V-*%
X189475000Y-97120000D03*
%TD*%
D21*
%TO.P,S3,1*%
%TO.N,Z_SW*%
X133875000Y-72985000D03*
D22*
%TO.P,S3,2*%
%TO.N,GND*%
X131335000Y-72985000D03*
%TO.P,S3,3*%
%TO.N,3V3*%
X128795000Y-72985000D03*
%TD*%
D29*
%TO.P,C1,1*%
%TO.N,V+*%
X155820000Y-50075000D03*
D30*
%TO.P,C1,2*%
%TO.N,V-*%
X152320000Y-50075000D03*
%TD*%
M02*
