%TF.GenerationSoftware,KiCad,Pcbnew,8.0.0*%
%TF.CreationDate,2024-04-26T14:48:52+07:00*%
%TF.ProjectId,tugas-akhir,74756761-732d-4616-9b68-69722e6b6963,0*%
%TF.SameCoordinates,Original*%
%TF.FileFunction,Legend,Top*%
%TF.FilePolarity,Positive*%
%FSLAX46Y46*%
G04 Gerber Fmt 4.6, Leading zero omitted, Abs format (unit mm)*
G04 Created by KiCad (PCBNEW 8.0.0) date 2024-04-26 14:48:52*
%MOMM*%
%LPD*%
G01*
G04 APERTURE LIST*
G04 Aperture macros list*
%AMRoundRect*
0 Rectangle with rounded corners*
0 $1 Rounding radius*
0 $2 $3 $4 $5 $6 $7 $8 $9 X,Y pos of 4 corners*
0 Add a 4 corners polygon primitive as box body*
4,1,4,$2,$3,$4,$5,$6,$7,$8,$9,$2,$3,0*
0 Add four circle primitives for the rounded corners*
1,1,$1+$1,$2,$3*
1,1,$1+$1,$4,$5*
1,1,$1+$1,$6,$7*
1,1,$1+$1,$8,$9*
0 Add four rect primitives between the rounded corners*
20,1,$1+$1,$2,$3,$4,$5,0*
20,1,$1+$1,$4,$5,$6,$7,0*
20,1,$1+$1,$6,$7,$8,$9,0*
20,1,$1+$1,$8,$9,$2,$3,0*%
G04 Aperture macros list end*
%ADD10C,0.150000*%
%ADD11C,0.120000*%
%ADD12C,0.127000*%
%ADD13C,0.200000*%
%ADD14R,2.600000X2.600000*%
%ADD15C,2.600000*%
%ADD16C,1.400000*%
%ADD17O,1.400000X1.400000*%
%ADD18R,1.700000X1.700000*%
%ADD19O,1.700000X1.700000*%
%ADD20R,1.800000X1.800000*%
%ADD21C,1.800000*%
%ADD22RoundRect,0.102000X-0.762000X0.762000X-0.762000X-0.762000X0.762000X-0.762000X0.762000X0.762000X0*%
%ADD23C,1.728000*%
%ADD24RoundRect,0.102000X-1.000000X1.000000X-1.000000X-1.000000X1.000000X-1.000000X1.000000X1.000000X0*%
%ADD25C,2.204000*%
%ADD26C,3.000000*%
%ADD27C,2.500000*%
%ADD28C,3.200000*%
%ADD29R,1.050000X1.500000*%
%ADD30O,1.050000X1.500000*%
%ADD31C,1.600000*%
%ADD32RoundRect,0.102000X0.762000X-0.762000X0.762000X0.762000X-0.762000X0.762000X-0.762000X-0.762000X0*%
%ADD33R,2.540000X2.540000*%
%ADD34C,2.540000*%
%ADD35R,2.200000X2.200000*%
%ADD36O,2.200000X2.200000*%
G04 APERTURE END LIST*
D10*
X80059819Y-114173333D02*
X80774104Y-114173333D01*
X80774104Y-114173333D02*
X80916961Y-114220952D01*
X80916961Y-114220952D02*
X81012200Y-114316190D01*
X81012200Y-114316190D02*
X81059819Y-114459047D01*
X81059819Y-114459047D02*
X81059819Y-114554285D01*
X81059819Y-113173333D02*
X81059819Y-113744761D01*
X81059819Y-113459047D02*
X80059819Y-113459047D01*
X80059819Y-113459047D02*
X80202676Y-113554285D01*
X80202676Y-113554285D02*
X80297914Y-113649523D01*
X80297914Y-113649523D02*
X80345533Y-113744761D01*
X181029819Y-103116666D02*
X180553628Y-103449999D01*
X181029819Y-103688094D02*
X180029819Y-103688094D01*
X180029819Y-103688094D02*
X180029819Y-103307142D01*
X180029819Y-103307142D02*
X180077438Y-103211904D01*
X180077438Y-103211904D02*
X180125057Y-103164285D01*
X180125057Y-103164285D02*
X180220295Y-103116666D01*
X180220295Y-103116666D02*
X180363152Y-103116666D01*
X180363152Y-103116666D02*
X180458390Y-103164285D01*
X180458390Y-103164285D02*
X180506009Y-103211904D01*
X180506009Y-103211904D02*
X180553628Y-103307142D01*
X180553628Y-103307142D02*
X180553628Y-103688094D01*
X180029819Y-102783332D02*
X180029819Y-102164285D01*
X180029819Y-102164285D02*
X180410771Y-102497618D01*
X180410771Y-102497618D02*
X180410771Y-102354761D01*
X180410771Y-102354761D02*
X180458390Y-102259523D01*
X180458390Y-102259523D02*
X180506009Y-102211904D01*
X180506009Y-102211904D02*
X180601247Y-102164285D01*
X180601247Y-102164285D02*
X180839342Y-102164285D01*
X180839342Y-102164285D02*
X180934580Y-102211904D01*
X180934580Y-102211904D02*
X180982200Y-102259523D01*
X180982200Y-102259523D02*
X181029819Y-102354761D01*
X181029819Y-102354761D02*
X181029819Y-102640475D01*
X181029819Y-102640475D02*
X180982200Y-102735713D01*
X180982200Y-102735713D02*
X180934580Y-102783332D01*
X96583095Y-62587200D02*
X96725952Y-62634819D01*
X96725952Y-62634819D02*
X96964047Y-62634819D01*
X96964047Y-62634819D02*
X97059285Y-62587200D01*
X97059285Y-62587200D02*
X97106904Y-62539580D01*
X97106904Y-62539580D02*
X97154523Y-62444342D01*
X97154523Y-62444342D02*
X97154523Y-62349104D01*
X97154523Y-62349104D02*
X97106904Y-62253866D01*
X97106904Y-62253866D02*
X97059285Y-62206247D01*
X97059285Y-62206247D02*
X96964047Y-62158628D01*
X96964047Y-62158628D02*
X96773571Y-62111009D01*
X96773571Y-62111009D02*
X96678333Y-62063390D01*
X96678333Y-62063390D02*
X96630714Y-62015771D01*
X96630714Y-62015771D02*
X96583095Y-61920533D01*
X96583095Y-61920533D02*
X96583095Y-61825295D01*
X96583095Y-61825295D02*
X96630714Y-61730057D01*
X96630714Y-61730057D02*
X96678333Y-61682438D01*
X96678333Y-61682438D02*
X96773571Y-61634819D01*
X96773571Y-61634819D02*
X97011666Y-61634819D01*
X97011666Y-61634819D02*
X97154523Y-61682438D01*
X97487857Y-61634819D02*
X98106904Y-61634819D01*
X98106904Y-61634819D02*
X97773571Y-62015771D01*
X97773571Y-62015771D02*
X97916428Y-62015771D01*
X97916428Y-62015771D02*
X98011666Y-62063390D01*
X98011666Y-62063390D02*
X98059285Y-62111009D01*
X98059285Y-62111009D02*
X98106904Y-62206247D01*
X98106904Y-62206247D02*
X98106904Y-62444342D01*
X98106904Y-62444342D02*
X98059285Y-62539580D01*
X98059285Y-62539580D02*
X98011666Y-62587200D01*
X98011666Y-62587200D02*
X97916428Y-62634819D01*
X97916428Y-62634819D02*
X97630714Y-62634819D01*
X97630714Y-62634819D02*
X97535476Y-62587200D01*
X97535476Y-62587200D02*
X97487857Y-62539580D01*
X76399819Y-87959523D02*
X75399819Y-87959523D01*
X75399819Y-87959523D02*
X76114104Y-87626190D01*
X76114104Y-87626190D02*
X75399819Y-87292857D01*
X75399819Y-87292857D02*
X76399819Y-87292857D01*
X75495057Y-86864285D02*
X75447438Y-86816666D01*
X75447438Y-86816666D02*
X75399819Y-86721428D01*
X75399819Y-86721428D02*
X75399819Y-86483333D01*
X75399819Y-86483333D02*
X75447438Y-86388095D01*
X75447438Y-86388095D02*
X75495057Y-86340476D01*
X75495057Y-86340476D02*
X75590295Y-86292857D01*
X75590295Y-86292857D02*
X75685533Y-86292857D01*
X75685533Y-86292857D02*
X75828390Y-86340476D01*
X75828390Y-86340476D02*
X76399819Y-86911904D01*
X76399819Y-86911904D02*
X76399819Y-86292857D01*
X119929819Y-112609523D02*
X118929819Y-112609523D01*
X118929819Y-112609523D02*
X119644104Y-112276190D01*
X119644104Y-112276190D02*
X118929819Y-111942857D01*
X118929819Y-111942857D02*
X119929819Y-111942857D01*
X118929819Y-111561904D02*
X118929819Y-110942857D01*
X118929819Y-110942857D02*
X119310771Y-111276190D01*
X119310771Y-111276190D02*
X119310771Y-111133333D01*
X119310771Y-111133333D02*
X119358390Y-111038095D01*
X119358390Y-111038095D02*
X119406009Y-110990476D01*
X119406009Y-110990476D02*
X119501247Y-110942857D01*
X119501247Y-110942857D02*
X119739342Y-110942857D01*
X119739342Y-110942857D02*
X119834580Y-110990476D01*
X119834580Y-110990476D02*
X119882200Y-111038095D01*
X119882200Y-111038095D02*
X119929819Y-111133333D01*
X119929819Y-111133333D02*
X119929819Y-111419047D01*
X119929819Y-111419047D02*
X119882200Y-111514285D01*
X119882200Y-111514285D02*
X119834580Y-111561904D01*
X194361905Y-89464819D02*
X194361905Y-88464819D01*
X194361905Y-88464819D02*
X194600000Y-88464819D01*
X194600000Y-88464819D02*
X194742857Y-88512438D01*
X194742857Y-88512438D02*
X194838095Y-88607676D01*
X194838095Y-88607676D02*
X194885714Y-88702914D01*
X194885714Y-88702914D02*
X194933333Y-88893390D01*
X194933333Y-88893390D02*
X194933333Y-89036247D01*
X194933333Y-89036247D02*
X194885714Y-89226723D01*
X194885714Y-89226723D02*
X194838095Y-89321961D01*
X194838095Y-89321961D02*
X194742857Y-89417200D01*
X194742857Y-89417200D02*
X194600000Y-89464819D01*
X194600000Y-89464819D02*
X194361905Y-89464819D01*
X195838095Y-88464819D02*
X195361905Y-88464819D01*
X195361905Y-88464819D02*
X195314286Y-88941009D01*
X195314286Y-88941009D02*
X195361905Y-88893390D01*
X195361905Y-88893390D02*
X195457143Y-88845771D01*
X195457143Y-88845771D02*
X195695238Y-88845771D01*
X195695238Y-88845771D02*
X195790476Y-88893390D01*
X195790476Y-88893390D02*
X195838095Y-88941009D01*
X195838095Y-88941009D02*
X195885714Y-89036247D01*
X195885714Y-89036247D02*
X195885714Y-89274342D01*
X195885714Y-89274342D02*
X195838095Y-89369580D01*
X195838095Y-89369580D02*
X195790476Y-89417200D01*
X195790476Y-89417200D02*
X195695238Y-89464819D01*
X195695238Y-89464819D02*
X195457143Y-89464819D01*
X195457143Y-89464819D02*
X195361905Y-89417200D01*
X195361905Y-89417200D02*
X195314286Y-89369580D01*
X96583095Y-73877200D02*
X96725952Y-73924819D01*
X96725952Y-73924819D02*
X96964047Y-73924819D01*
X96964047Y-73924819D02*
X97059285Y-73877200D01*
X97059285Y-73877200D02*
X97106904Y-73829580D01*
X97106904Y-73829580D02*
X97154523Y-73734342D01*
X97154523Y-73734342D02*
X97154523Y-73639104D01*
X97154523Y-73639104D02*
X97106904Y-73543866D01*
X97106904Y-73543866D02*
X97059285Y-73496247D01*
X97059285Y-73496247D02*
X96964047Y-73448628D01*
X96964047Y-73448628D02*
X96773571Y-73401009D01*
X96773571Y-73401009D02*
X96678333Y-73353390D01*
X96678333Y-73353390D02*
X96630714Y-73305771D01*
X96630714Y-73305771D02*
X96583095Y-73210533D01*
X96583095Y-73210533D02*
X96583095Y-73115295D01*
X96583095Y-73115295D02*
X96630714Y-73020057D01*
X96630714Y-73020057D02*
X96678333Y-72972438D01*
X96678333Y-72972438D02*
X96773571Y-72924819D01*
X96773571Y-72924819D02*
X97011666Y-72924819D01*
X97011666Y-72924819D02*
X97154523Y-72972438D01*
X98106904Y-73924819D02*
X97535476Y-73924819D01*
X97821190Y-73924819D02*
X97821190Y-72924819D01*
X97821190Y-72924819D02*
X97725952Y-73067676D01*
X97725952Y-73067676D02*
X97630714Y-73162914D01*
X97630714Y-73162914D02*
X97535476Y-73210533D01*
X96583095Y-85377200D02*
X96725952Y-85424819D01*
X96725952Y-85424819D02*
X96964047Y-85424819D01*
X96964047Y-85424819D02*
X97059285Y-85377200D01*
X97059285Y-85377200D02*
X97106904Y-85329580D01*
X97106904Y-85329580D02*
X97154523Y-85234342D01*
X97154523Y-85234342D02*
X97154523Y-85139104D01*
X97154523Y-85139104D02*
X97106904Y-85043866D01*
X97106904Y-85043866D02*
X97059285Y-84996247D01*
X97059285Y-84996247D02*
X96964047Y-84948628D01*
X96964047Y-84948628D02*
X96773571Y-84901009D01*
X96773571Y-84901009D02*
X96678333Y-84853390D01*
X96678333Y-84853390D02*
X96630714Y-84805771D01*
X96630714Y-84805771D02*
X96583095Y-84710533D01*
X96583095Y-84710533D02*
X96583095Y-84615295D01*
X96583095Y-84615295D02*
X96630714Y-84520057D01*
X96630714Y-84520057D02*
X96678333Y-84472438D01*
X96678333Y-84472438D02*
X96773571Y-84424819D01*
X96773571Y-84424819D02*
X97011666Y-84424819D01*
X97011666Y-84424819D02*
X97154523Y-84472438D01*
X97535476Y-84520057D02*
X97583095Y-84472438D01*
X97583095Y-84472438D02*
X97678333Y-84424819D01*
X97678333Y-84424819D02*
X97916428Y-84424819D01*
X97916428Y-84424819D02*
X98011666Y-84472438D01*
X98011666Y-84472438D02*
X98059285Y-84520057D01*
X98059285Y-84520057D02*
X98106904Y-84615295D01*
X98106904Y-84615295D02*
X98106904Y-84710533D01*
X98106904Y-84710533D02*
X98059285Y-84853390D01*
X98059285Y-84853390D02*
X97487857Y-85424819D01*
X97487857Y-85424819D02*
X98106904Y-85424819D01*
X186178333Y-84584819D02*
X185845000Y-84108628D01*
X185606905Y-84584819D02*
X185606905Y-83584819D01*
X185606905Y-83584819D02*
X185987857Y-83584819D01*
X185987857Y-83584819D02*
X186083095Y-83632438D01*
X186083095Y-83632438D02*
X186130714Y-83680057D01*
X186130714Y-83680057D02*
X186178333Y-83775295D01*
X186178333Y-83775295D02*
X186178333Y-83918152D01*
X186178333Y-83918152D02*
X186130714Y-84013390D01*
X186130714Y-84013390D02*
X186083095Y-84061009D01*
X186083095Y-84061009D02*
X185987857Y-84108628D01*
X185987857Y-84108628D02*
X185606905Y-84108628D01*
X187083095Y-83584819D02*
X186606905Y-83584819D01*
X186606905Y-83584819D02*
X186559286Y-84061009D01*
X186559286Y-84061009D02*
X186606905Y-84013390D01*
X186606905Y-84013390D02*
X186702143Y-83965771D01*
X186702143Y-83965771D02*
X186940238Y-83965771D01*
X186940238Y-83965771D02*
X187035476Y-84013390D01*
X187035476Y-84013390D02*
X187083095Y-84061009D01*
X187083095Y-84061009D02*
X187130714Y-84156247D01*
X187130714Y-84156247D02*
X187130714Y-84394342D01*
X187130714Y-84394342D02*
X187083095Y-84489580D01*
X187083095Y-84489580D02*
X187035476Y-84537200D01*
X187035476Y-84537200D02*
X186940238Y-84584819D01*
X186940238Y-84584819D02*
X186702143Y-84584819D01*
X186702143Y-84584819D02*
X186606905Y-84537200D01*
X186606905Y-84537200D02*
X186559286Y-84489580D01*
X184026905Y-115614819D02*
X184026905Y-114614819D01*
X184026905Y-114614819D02*
X184265000Y-114614819D01*
X184265000Y-114614819D02*
X184407857Y-114662438D01*
X184407857Y-114662438D02*
X184503095Y-114757676D01*
X184503095Y-114757676D02*
X184550714Y-114852914D01*
X184550714Y-114852914D02*
X184598333Y-115043390D01*
X184598333Y-115043390D02*
X184598333Y-115186247D01*
X184598333Y-115186247D02*
X184550714Y-115376723D01*
X184550714Y-115376723D02*
X184503095Y-115471961D01*
X184503095Y-115471961D02*
X184407857Y-115567200D01*
X184407857Y-115567200D02*
X184265000Y-115614819D01*
X184265000Y-115614819D02*
X184026905Y-115614819D01*
X185550714Y-115614819D02*
X184979286Y-115614819D01*
X185265000Y-115614819D02*
X185265000Y-114614819D01*
X185265000Y-114614819D02*
X185169762Y-114757676D01*
X185169762Y-114757676D02*
X185074524Y-114852914D01*
X185074524Y-114852914D02*
X184979286Y-114900533D01*
X195619819Y-102866666D02*
X195143628Y-103199999D01*
X195619819Y-103438094D02*
X194619819Y-103438094D01*
X194619819Y-103438094D02*
X194619819Y-103057142D01*
X194619819Y-103057142D02*
X194667438Y-102961904D01*
X194667438Y-102961904D02*
X194715057Y-102914285D01*
X194715057Y-102914285D02*
X194810295Y-102866666D01*
X194810295Y-102866666D02*
X194953152Y-102866666D01*
X194953152Y-102866666D02*
X195048390Y-102914285D01*
X195048390Y-102914285D02*
X195096009Y-102961904D01*
X195096009Y-102961904D02*
X195143628Y-103057142D01*
X195143628Y-103057142D02*
X195143628Y-103438094D01*
X195619819Y-101914285D02*
X195619819Y-102485713D01*
X195619819Y-102199999D02*
X194619819Y-102199999D01*
X194619819Y-102199999D02*
X194762676Y-102295237D01*
X194762676Y-102295237D02*
X194857914Y-102390475D01*
X194857914Y-102390475D02*
X194905533Y-102485713D01*
X216819819Y-94033333D02*
X217534104Y-94033333D01*
X217534104Y-94033333D02*
X217676961Y-94080952D01*
X217676961Y-94080952D02*
X217772200Y-94176190D01*
X217772200Y-94176190D02*
X217819819Y-94319047D01*
X217819819Y-94319047D02*
X217819819Y-94414285D01*
X216915057Y-93604761D02*
X216867438Y-93557142D01*
X216867438Y-93557142D02*
X216819819Y-93461904D01*
X216819819Y-93461904D02*
X216819819Y-93223809D01*
X216819819Y-93223809D02*
X216867438Y-93128571D01*
X216867438Y-93128571D02*
X216915057Y-93080952D01*
X216915057Y-93080952D02*
X217010295Y-93033333D01*
X217010295Y-93033333D02*
X217105533Y-93033333D01*
X217105533Y-93033333D02*
X217248390Y-93080952D01*
X217248390Y-93080952D02*
X217819819Y-93652380D01*
X217819819Y-93652380D02*
X217819819Y-93033333D01*
X92573866Y-71211666D02*
X93707200Y-71211666D01*
X93707200Y-71211666D02*
X93840533Y-71145000D01*
X93840533Y-71145000D02*
X93907200Y-71078333D01*
X93907200Y-71078333D02*
X93973866Y-70945000D01*
X93973866Y-70945000D02*
X93973866Y-70678333D01*
X93973866Y-70678333D02*
X93907200Y-70545000D01*
X93907200Y-70545000D02*
X93840533Y-70478333D01*
X93840533Y-70478333D02*
X93707200Y-70411666D01*
X93707200Y-70411666D02*
X92573866Y-70411666D01*
X92573866Y-69878333D02*
X92573866Y-69011666D01*
X92573866Y-69011666D02*
X93107200Y-69478333D01*
X93107200Y-69478333D02*
X93107200Y-69278333D01*
X93107200Y-69278333D02*
X93173866Y-69144999D01*
X93173866Y-69144999D02*
X93240533Y-69078333D01*
X93240533Y-69078333D02*
X93373866Y-69011666D01*
X93373866Y-69011666D02*
X93707200Y-69011666D01*
X93707200Y-69011666D02*
X93840533Y-69078333D01*
X93840533Y-69078333D02*
X93907200Y-69144999D01*
X93907200Y-69144999D02*
X93973866Y-69278333D01*
X93973866Y-69278333D02*
X93973866Y-69678333D01*
X93973866Y-69678333D02*
X93907200Y-69811666D01*
X93907200Y-69811666D02*
X93840533Y-69878333D01*
X76169819Y-63609523D02*
X75169819Y-63609523D01*
X75169819Y-63609523D02*
X75884104Y-63276190D01*
X75884104Y-63276190D02*
X75169819Y-62942857D01*
X75169819Y-62942857D02*
X76169819Y-62942857D01*
X76169819Y-61942857D02*
X76169819Y-62514285D01*
X76169819Y-62228571D02*
X75169819Y-62228571D01*
X75169819Y-62228571D02*
X75312676Y-62323809D01*
X75312676Y-62323809D02*
X75407914Y-62419047D01*
X75407914Y-62419047D02*
X75455533Y-62514285D01*
X178659819Y-94206904D02*
X179469342Y-94206904D01*
X179469342Y-94206904D02*
X179564580Y-94159285D01*
X179564580Y-94159285D02*
X179612200Y-94111666D01*
X179612200Y-94111666D02*
X179659819Y-94016428D01*
X179659819Y-94016428D02*
X179659819Y-93825952D01*
X179659819Y-93825952D02*
X179612200Y-93730714D01*
X179612200Y-93730714D02*
X179564580Y-93683095D01*
X179564580Y-93683095D02*
X179469342Y-93635476D01*
X179469342Y-93635476D02*
X178659819Y-93635476D01*
X179659819Y-92635476D02*
X179659819Y-93206904D01*
X179659819Y-92921190D02*
X178659819Y-92921190D01*
X178659819Y-92921190D02*
X178802676Y-93016428D01*
X178802676Y-93016428D02*
X178897914Y-93111666D01*
X178897914Y-93111666D02*
X178945533Y-93206904D01*
X206406905Y-97954819D02*
X206406905Y-96954819D01*
X206978333Y-97954819D02*
X206549762Y-97383390D01*
X206978333Y-96954819D02*
X206406905Y-97526247D01*
X207930714Y-97954819D02*
X207359286Y-97954819D01*
X207645000Y-97954819D02*
X207645000Y-96954819D01*
X207645000Y-96954819D02*
X207549762Y-97097676D01*
X207549762Y-97097676D02*
X207454524Y-97192914D01*
X207454524Y-97192914D02*
X207359286Y-97240533D01*
X92803866Y-95561666D02*
X93937200Y-95561666D01*
X93937200Y-95561666D02*
X94070533Y-95495000D01*
X94070533Y-95495000D02*
X94137200Y-95428333D01*
X94137200Y-95428333D02*
X94203866Y-95295000D01*
X94203866Y-95295000D02*
X94203866Y-95028333D01*
X94203866Y-95028333D02*
X94137200Y-94895000D01*
X94137200Y-94895000D02*
X94070533Y-94828333D01*
X94070533Y-94828333D02*
X93937200Y-94761666D01*
X93937200Y-94761666D02*
X92803866Y-94761666D01*
X93270533Y-93494999D02*
X94203866Y-93494999D01*
X92737200Y-93828333D02*
X93737200Y-94161666D01*
X93737200Y-94161666D02*
X93737200Y-93294999D01*
X67666666Y-121454819D02*
X67333333Y-120978628D01*
X67095238Y-121454819D02*
X67095238Y-120454819D01*
X67095238Y-120454819D02*
X67476190Y-120454819D01*
X67476190Y-120454819D02*
X67571428Y-120502438D01*
X67571428Y-120502438D02*
X67619047Y-120550057D01*
X67619047Y-120550057D02*
X67666666Y-120645295D01*
X67666666Y-120645295D02*
X67666666Y-120788152D01*
X67666666Y-120788152D02*
X67619047Y-120883390D01*
X67619047Y-120883390D02*
X67571428Y-120931009D01*
X67571428Y-120931009D02*
X67476190Y-120978628D01*
X67476190Y-120978628D02*
X67095238Y-120978628D01*
X68095238Y-120931009D02*
X68428571Y-120931009D01*
X68571428Y-121454819D02*
X68095238Y-121454819D01*
X68095238Y-121454819D02*
X68095238Y-120454819D01*
X68095238Y-120454819D02*
X68571428Y-120454819D01*
X69333333Y-120931009D02*
X69000000Y-120931009D01*
X69000000Y-121454819D02*
X69000000Y-120454819D01*
X69000000Y-120454819D02*
X69476190Y-120454819D01*
X70000000Y-120454819D02*
X70000000Y-120692914D01*
X69761905Y-120597676D02*
X70000000Y-120692914D01*
X70000000Y-120692914D02*
X70238095Y-120597676D01*
X69857143Y-120883390D02*
X70000000Y-120692914D01*
X70000000Y-120692914D02*
X70142857Y-120883390D01*
X70761905Y-120454819D02*
X70761905Y-120692914D01*
X70523810Y-120597676D02*
X70761905Y-120692914D01*
X70761905Y-120692914D02*
X71000000Y-120597676D01*
X70619048Y-120883390D02*
X70761905Y-120692914D01*
X70761905Y-120692914D02*
X70904762Y-120883390D01*
X186899761Y-90800057D02*
X186804523Y-90752438D01*
X186804523Y-90752438D02*
X186709285Y-90657200D01*
X186709285Y-90657200D02*
X186566428Y-90514342D01*
X186566428Y-90514342D02*
X186471190Y-90466723D01*
X186471190Y-90466723D02*
X186375952Y-90466723D01*
X186423571Y-90704819D02*
X186328333Y-90657200D01*
X186328333Y-90657200D02*
X186233095Y-90561961D01*
X186233095Y-90561961D02*
X186185476Y-90371485D01*
X186185476Y-90371485D02*
X186185476Y-90038152D01*
X186185476Y-90038152D02*
X186233095Y-89847676D01*
X186233095Y-89847676D02*
X186328333Y-89752438D01*
X186328333Y-89752438D02*
X186423571Y-89704819D01*
X186423571Y-89704819D02*
X186614047Y-89704819D01*
X186614047Y-89704819D02*
X186709285Y-89752438D01*
X186709285Y-89752438D02*
X186804523Y-89847676D01*
X186804523Y-89847676D02*
X186852142Y-90038152D01*
X186852142Y-90038152D02*
X186852142Y-90371485D01*
X186852142Y-90371485D02*
X186804523Y-90561961D01*
X186804523Y-90561961D02*
X186709285Y-90657200D01*
X186709285Y-90657200D02*
X186614047Y-90704819D01*
X186614047Y-90704819D02*
X186423571Y-90704819D01*
X187804523Y-90704819D02*
X187233095Y-90704819D01*
X187518809Y-90704819D02*
X187518809Y-89704819D01*
X187518809Y-89704819D02*
X187423571Y-89847676D01*
X187423571Y-89847676D02*
X187328333Y-89942914D01*
X187328333Y-89942914D02*
X187233095Y-89990533D01*
X79454580Y-72716666D02*
X79502200Y-72764285D01*
X79502200Y-72764285D02*
X79549819Y-72907142D01*
X79549819Y-72907142D02*
X79549819Y-73002380D01*
X79549819Y-73002380D02*
X79502200Y-73145237D01*
X79502200Y-73145237D02*
X79406961Y-73240475D01*
X79406961Y-73240475D02*
X79311723Y-73288094D01*
X79311723Y-73288094D02*
X79121247Y-73335713D01*
X79121247Y-73335713D02*
X78978390Y-73335713D01*
X78978390Y-73335713D02*
X78787914Y-73288094D01*
X78787914Y-73288094D02*
X78692676Y-73240475D01*
X78692676Y-73240475D02*
X78597438Y-73145237D01*
X78597438Y-73145237D02*
X78549819Y-73002380D01*
X78549819Y-73002380D02*
X78549819Y-72907142D01*
X78549819Y-72907142D02*
X78597438Y-72764285D01*
X78597438Y-72764285D02*
X78645057Y-72716666D01*
X79549819Y-71764285D02*
X79549819Y-72335713D01*
X79549819Y-72049999D02*
X78549819Y-72049999D01*
X78549819Y-72049999D02*
X78692676Y-72145237D01*
X78692676Y-72145237D02*
X78787914Y-72240475D01*
X78787914Y-72240475D02*
X78835533Y-72335713D01*
X214666666Y-53954819D02*
X214333333Y-53478628D01*
X214095238Y-53954819D02*
X214095238Y-52954819D01*
X214095238Y-52954819D02*
X214476190Y-52954819D01*
X214476190Y-52954819D02*
X214571428Y-53002438D01*
X214571428Y-53002438D02*
X214619047Y-53050057D01*
X214619047Y-53050057D02*
X214666666Y-53145295D01*
X214666666Y-53145295D02*
X214666666Y-53288152D01*
X214666666Y-53288152D02*
X214619047Y-53383390D01*
X214619047Y-53383390D02*
X214571428Y-53431009D01*
X214571428Y-53431009D02*
X214476190Y-53478628D01*
X214476190Y-53478628D02*
X214095238Y-53478628D01*
X215095238Y-53431009D02*
X215428571Y-53431009D01*
X215571428Y-53954819D02*
X215095238Y-53954819D01*
X215095238Y-53954819D02*
X215095238Y-52954819D01*
X215095238Y-52954819D02*
X215571428Y-52954819D01*
X216333333Y-53431009D02*
X216000000Y-53431009D01*
X216000000Y-53954819D02*
X216000000Y-52954819D01*
X216000000Y-52954819D02*
X216476190Y-52954819D01*
X217000000Y-52954819D02*
X217000000Y-53192914D01*
X216761905Y-53097676D02*
X217000000Y-53192914D01*
X217000000Y-53192914D02*
X217238095Y-53097676D01*
X216857143Y-53383390D02*
X217000000Y-53192914D01*
X217000000Y-53192914D02*
X217142857Y-53383390D01*
X217761905Y-52954819D02*
X217761905Y-53192914D01*
X217523810Y-53097676D02*
X217761905Y-53192914D01*
X217761905Y-53192914D02*
X218000000Y-53097676D01*
X217619048Y-53383390D02*
X217761905Y-53192914D01*
X217761905Y-53192914D02*
X217904762Y-53383390D01*
X67666666Y-54004819D02*
X67333333Y-53528628D01*
X67095238Y-54004819D02*
X67095238Y-53004819D01*
X67095238Y-53004819D02*
X67476190Y-53004819D01*
X67476190Y-53004819D02*
X67571428Y-53052438D01*
X67571428Y-53052438D02*
X67619047Y-53100057D01*
X67619047Y-53100057D02*
X67666666Y-53195295D01*
X67666666Y-53195295D02*
X67666666Y-53338152D01*
X67666666Y-53338152D02*
X67619047Y-53433390D01*
X67619047Y-53433390D02*
X67571428Y-53481009D01*
X67571428Y-53481009D02*
X67476190Y-53528628D01*
X67476190Y-53528628D02*
X67095238Y-53528628D01*
X68095238Y-53481009D02*
X68428571Y-53481009D01*
X68571428Y-54004819D02*
X68095238Y-54004819D01*
X68095238Y-54004819D02*
X68095238Y-53004819D01*
X68095238Y-53004819D02*
X68571428Y-53004819D01*
X69333333Y-53481009D02*
X69000000Y-53481009D01*
X69000000Y-54004819D02*
X69000000Y-53004819D01*
X69000000Y-53004819D02*
X69476190Y-53004819D01*
X70000000Y-53004819D02*
X70000000Y-53242914D01*
X69761905Y-53147676D02*
X70000000Y-53242914D01*
X70000000Y-53242914D02*
X70238095Y-53147676D01*
X69857143Y-53433390D02*
X70000000Y-53242914D01*
X70000000Y-53242914D02*
X70142857Y-53433390D01*
X70761905Y-53004819D02*
X70761905Y-53242914D01*
X70523810Y-53147676D02*
X70761905Y-53242914D01*
X70761905Y-53242914D02*
X71000000Y-53147676D01*
X70619048Y-53433390D02*
X70761905Y-53242914D01*
X70761905Y-53242914D02*
X70904762Y-53433390D01*
X116454580Y-102916666D02*
X116502200Y-102964285D01*
X116502200Y-102964285D02*
X116549819Y-103107142D01*
X116549819Y-103107142D02*
X116549819Y-103202380D01*
X116549819Y-103202380D02*
X116502200Y-103345237D01*
X116502200Y-103345237D02*
X116406961Y-103440475D01*
X116406961Y-103440475D02*
X116311723Y-103488094D01*
X116311723Y-103488094D02*
X116121247Y-103535713D01*
X116121247Y-103535713D02*
X115978390Y-103535713D01*
X115978390Y-103535713D02*
X115787914Y-103488094D01*
X115787914Y-103488094D02*
X115692676Y-103440475D01*
X115692676Y-103440475D02*
X115597438Y-103345237D01*
X115597438Y-103345237D02*
X115549819Y-103202380D01*
X115549819Y-103202380D02*
X115549819Y-103107142D01*
X115549819Y-103107142D02*
X115597438Y-102964285D01*
X115597438Y-102964285D02*
X115645057Y-102916666D01*
X115549819Y-102583332D02*
X115549819Y-101964285D01*
X115549819Y-101964285D02*
X115930771Y-102297618D01*
X115930771Y-102297618D02*
X115930771Y-102154761D01*
X115930771Y-102154761D02*
X115978390Y-102059523D01*
X115978390Y-102059523D02*
X116026009Y-102011904D01*
X116026009Y-102011904D02*
X116121247Y-101964285D01*
X116121247Y-101964285D02*
X116359342Y-101964285D01*
X116359342Y-101964285D02*
X116454580Y-102011904D01*
X116454580Y-102011904D02*
X116502200Y-102059523D01*
X116502200Y-102059523D02*
X116549819Y-102154761D01*
X116549819Y-102154761D02*
X116549819Y-102440475D01*
X116549819Y-102440475D02*
X116502200Y-102535713D01*
X116502200Y-102535713D02*
X116454580Y-102583332D01*
X185861905Y-79464819D02*
X185861905Y-78464819D01*
X185861905Y-78464819D02*
X186100000Y-78464819D01*
X186100000Y-78464819D02*
X186242857Y-78512438D01*
X186242857Y-78512438D02*
X186338095Y-78607676D01*
X186338095Y-78607676D02*
X186385714Y-78702914D01*
X186385714Y-78702914D02*
X186433333Y-78893390D01*
X186433333Y-78893390D02*
X186433333Y-79036247D01*
X186433333Y-79036247D02*
X186385714Y-79226723D01*
X186385714Y-79226723D02*
X186338095Y-79321961D01*
X186338095Y-79321961D02*
X186242857Y-79417200D01*
X186242857Y-79417200D02*
X186100000Y-79464819D01*
X186100000Y-79464819D02*
X185861905Y-79464819D01*
X187290476Y-78464819D02*
X187100000Y-78464819D01*
X187100000Y-78464819D02*
X187004762Y-78512438D01*
X187004762Y-78512438D02*
X186957143Y-78560057D01*
X186957143Y-78560057D02*
X186861905Y-78702914D01*
X186861905Y-78702914D02*
X186814286Y-78893390D01*
X186814286Y-78893390D02*
X186814286Y-79274342D01*
X186814286Y-79274342D02*
X186861905Y-79369580D01*
X186861905Y-79369580D02*
X186909524Y-79417200D01*
X186909524Y-79417200D02*
X187004762Y-79464819D01*
X187004762Y-79464819D02*
X187195238Y-79464819D01*
X187195238Y-79464819D02*
X187290476Y-79417200D01*
X187290476Y-79417200D02*
X187338095Y-79369580D01*
X187338095Y-79369580D02*
X187385714Y-79274342D01*
X187385714Y-79274342D02*
X187385714Y-79036247D01*
X187385714Y-79036247D02*
X187338095Y-78941009D01*
X187338095Y-78941009D02*
X187290476Y-78893390D01*
X187290476Y-78893390D02*
X187195238Y-78845771D01*
X187195238Y-78845771D02*
X187004762Y-78845771D01*
X187004762Y-78845771D02*
X186909524Y-78893390D01*
X186909524Y-78893390D02*
X186861905Y-78941009D01*
X186861905Y-78941009D02*
X186814286Y-79036247D01*
X176428333Y-74584819D02*
X176095000Y-74108628D01*
X175856905Y-74584819D02*
X175856905Y-73584819D01*
X175856905Y-73584819D02*
X176237857Y-73584819D01*
X176237857Y-73584819D02*
X176333095Y-73632438D01*
X176333095Y-73632438D02*
X176380714Y-73680057D01*
X176380714Y-73680057D02*
X176428333Y-73775295D01*
X176428333Y-73775295D02*
X176428333Y-73918152D01*
X176428333Y-73918152D02*
X176380714Y-74013390D01*
X176380714Y-74013390D02*
X176333095Y-74061009D01*
X176333095Y-74061009D02*
X176237857Y-74108628D01*
X176237857Y-74108628D02*
X175856905Y-74108628D01*
X177285476Y-73918152D02*
X177285476Y-74584819D01*
X177047381Y-73537200D02*
X176809286Y-74251485D01*
X176809286Y-74251485D02*
X177428333Y-74251485D01*
X101095866Y-106021666D02*
X102229200Y-106021666D01*
X102229200Y-106021666D02*
X102362533Y-105955000D01*
X102362533Y-105955000D02*
X102429200Y-105888333D01*
X102429200Y-105888333D02*
X102495866Y-105755000D01*
X102495866Y-105755000D02*
X102495866Y-105488333D01*
X102495866Y-105488333D02*
X102429200Y-105355000D01*
X102429200Y-105355000D02*
X102362533Y-105288333D01*
X102362533Y-105288333D02*
X102229200Y-105221666D01*
X102229200Y-105221666D02*
X101095866Y-105221666D01*
X101095866Y-103888333D02*
X101095866Y-104554999D01*
X101095866Y-104554999D02*
X101762533Y-104621666D01*
X101762533Y-104621666D02*
X101695866Y-104554999D01*
X101695866Y-104554999D02*
X101629200Y-104421666D01*
X101629200Y-104421666D02*
X101629200Y-104088333D01*
X101629200Y-104088333D02*
X101695866Y-103954999D01*
X101695866Y-103954999D02*
X101762533Y-103888333D01*
X101762533Y-103888333D02*
X101895866Y-103821666D01*
X101895866Y-103821666D02*
X102229200Y-103821666D01*
X102229200Y-103821666D02*
X102362533Y-103888333D01*
X102362533Y-103888333D02*
X102429200Y-103954999D01*
X102429200Y-103954999D02*
X102495866Y-104088333D01*
X102495866Y-104088333D02*
X102495866Y-104421666D01*
X102495866Y-104421666D02*
X102429200Y-104554999D01*
X102429200Y-104554999D02*
X102362533Y-104621666D01*
X165678333Y-84584819D02*
X165345000Y-84108628D01*
X165106905Y-84584819D02*
X165106905Y-83584819D01*
X165106905Y-83584819D02*
X165487857Y-83584819D01*
X165487857Y-83584819D02*
X165583095Y-83632438D01*
X165583095Y-83632438D02*
X165630714Y-83680057D01*
X165630714Y-83680057D02*
X165678333Y-83775295D01*
X165678333Y-83775295D02*
X165678333Y-83918152D01*
X165678333Y-83918152D02*
X165630714Y-84013390D01*
X165630714Y-84013390D02*
X165583095Y-84061009D01*
X165583095Y-84061009D02*
X165487857Y-84108628D01*
X165487857Y-84108628D02*
X165106905Y-84108628D01*
X166535476Y-83584819D02*
X166345000Y-83584819D01*
X166345000Y-83584819D02*
X166249762Y-83632438D01*
X166249762Y-83632438D02*
X166202143Y-83680057D01*
X166202143Y-83680057D02*
X166106905Y-83822914D01*
X166106905Y-83822914D02*
X166059286Y-84013390D01*
X166059286Y-84013390D02*
X166059286Y-84394342D01*
X166059286Y-84394342D02*
X166106905Y-84489580D01*
X166106905Y-84489580D02*
X166154524Y-84537200D01*
X166154524Y-84537200D02*
X166249762Y-84584819D01*
X166249762Y-84584819D02*
X166440238Y-84584819D01*
X166440238Y-84584819D02*
X166535476Y-84537200D01*
X166535476Y-84537200D02*
X166583095Y-84489580D01*
X166583095Y-84489580D02*
X166630714Y-84394342D01*
X166630714Y-84394342D02*
X166630714Y-84156247D01*
X166630714Y-84156247D02*
X166583095Y-84061009D01*
X166583095Y-84061009D02*
X166535476Y-84013390D01*
X166535476Y-84013390D02*
X166440238Y-83965771D01*
X166440238Y-83965771D02*
X166249762Y-83965771D01*
X166249762Y-83965771D02*
X166154524Y-84013390D01*
X166154524Y-84013390D02*
X166106905Y-84061009D01*
X166106905Y-84061009D02*
X166059286Y-84156247D01*
X190619819Y-102866666D02*
X190143628Y-103199999D01*
X190619819Y-103438094D02*
X189619819Y-103438094D01*
X189619819Y-103438094D02*
X189619819Y-103057142D01*
X189619819Y-103057142D02*
X189667438Y-102961904D01*
X189667438Y-102961904D02*
X189715057Y-102914285D01*
X189715057Y-102914285D02*
X189810295Y-102866666D01*
X189810295Y-102866666D02*
X189953152Y-102866666D01*
X189953152Y-102866666D02*
X190048390Y-102914285D01*
X190048390Y-102914285D02*
X190096009Y-102961904D01*
X190096009Y-102961904D02*
X190143628Y-103057142D01*
X190143628Y-103057142D02*
X190143628Y-103438094D01*
X189715057Y-102485713D02*
X189667438Y-102438094D01*
X189667438Y-102438094D02*
X189619819Y-102342856D01*
X189619819Y-102342856D02*
X189619819Y-102104761D01*
X189619819Y-102104761D02*
X189667438Y-102009523D01*
X189667438Y-102009523D02*
X189715057Y-101961904D01*
X189715057Y-101961904D02*
X189810295Y-101914285D01*
X189810295Y-101914285D02*
X189905533Y-101914285D01*
X189905533Y-101914285D02*
X190048390Y-101961904D01*
X190048390Y-101961904D02*
X190619819Y-102533332D01*
X190619819Y-102533332D02*
X190619819Y-101914285D01*
X214666666Y-121454819D02*
X214333333Y-120978628D01*
X214095238Y-121454819D02*
X214095238Y-120454819D01*
X214095238Y-120454819D02*
X214476190Y-120454819D01*
X214476190Y-120454819D02*
X214571428Y-120502438D01*
X214571428Y-120502438D02*
X214619047Y-120550057D01*
X214619047Y-120550057D02*
X214666666Y-120645295D01*
X214666666Y-120645295D02*
X214666666Y-120788152D01*
X214666666Y-120788152D02*
X214619047Y-120883390D01*
X214619047Y-120883390D02*
X214571428Y-120931009D01*
X214571428Y-120931009D02*
X214476190Y-120978628D01*
X214476190Y-120978628D02*
X214095238Y-120978628D01*
X215095238Y-120931009D02*
X215428571Y-120931009D01*
X215571428Y-121454819D02*
X215095238Y-121454819D01*
X215095238Y-121454819D02*
X215095238Y-120454819D01*
X215095238Y-120454819D02*
X215571428Y-120454819D01*
X216333333Y-120931009D02*
X216000000Y-120931009D01*
X216000000Y-121454819D02*
X216000000Y-120454819D01*
X216000000Y-120454819D02*
X216476190Y-120454819D01*
X217000000Y-120454819D02*
X217000000Y-120692914D01*
X216761905Y-120597676D02*
X217000000Y-120692914D01*
X217000000Y-120692914D02*
X217238095Y-120597676D01*
X216857143Y-120883390D02*
X217000000Y-120692914D01*
X217000000Y-120692914D02*
X217142857Y-120883390D01*
X217761905Y-120454819D02*
X217761905Y-120692914D01*
X217523810Y-120597676D02*
X217761905Y-120692914D01*
X217761905Y-120692914D02*
X218000000Y-120597676D01*
X217619048Y-120883390D02*
X217761905Y-120692914D01*
X217761905Y-120692914D02*
X217904762Y-120883390D01*
X153853095Y-90804819D02*
X153853095Y-91614342D01*
X153853095Y-91614342D02*
X153900714Y-91709580D01*
X153900714Y-91709580D02*
X153948333Y-91757200D01*
X153948333Y-91757200D02*
X154043571Y-91804819D01*
X154043571Y-91804819D02*
X154234047Y-91804819D01*
X154234047Y-91804819D02*
X154329285Y-91757200D01*
X154329285Y-91757200D02*
X154376904Y-91709580D01*
X154376904Y-91709580D02*
X154424523Y-91614342D01*
X154424523Y-91614342D02*
X154424523Y-90804819D01*
X154853095Y-90900057D02*
X154900714Y-90852438D01*
X154900714Y-90852438D02*
X154995952Y-90804819D01*
X154995952Y-90804819D02*
X155234047Y-90804819D01*
X155234047Y-90804819D02*
X155329285Y-90852438D01*
X155329285Y-90852438D02*
X155376904Y-90900057D01*
X155376904Y-90900057D02*
X155424523Y-90995295D01*
X155424523Y-90995295D02*
X155424523Y-91090533D01*
X155424523Y-91090533D02*
X155376904Y-91233390D01*
X155376904Y-91233390D02*
X154805476Y-91804819D01*
X154805476Y-91804819D02*
X155424523Y-91804819D01*
X174861905Y-89464819D02*
X174861905Y-88464819D01*
X174861905Y-88464819D02*
X175100000Y-88464819D01*
X175100000Y-88464819D02*
X175242857Y-88512438D01*
X175242857Y-88512438D02*
X175338095Y-88607676D01*
X175338095Y-88607676D02*
X175385714Y-88702914D01*
X175385714Y-88702914D02*
X175433333Y-88893390D01*
X175433333Y-88893390D02*
X175433333Y-89036247D01*
X175433333Y-89036247D02*
X175385714Y-89226723D01*
X175385714Y-89226723D02*
X175338095Y-89321961D01*
X175338095Y-89321961D02*
X175242857Y-89417200D01*
X175242857Y-89417200D02*
X175100000Y-89464819D01*
X175100000Y-89464819D02*
X174861905Y-89464819D01*
X176290476Y-88798152D02*
X176290476Y-89464819D01*
X176052381Y-88417200D02*
X175814286Y-89131485D01*
X175814286Y-89131485D02*
X176433333Y-89131485D01*
X191276905Y-109694819D02*
X191276905Y-108694819D01*
X191276905Y-108694819D02*
X191515000Y-108694819D01*
X191515000Y-108694819D02*
X191657857Y-108742438D01*
X191657857Y-108742438D02*
X191753095Y-108837676D01*
X191753095Y-108837676D02*
X191800714Y-108932914D01*
X191800714Y-108932914D02*
X191848333Y-109123390D01*
X191848333Y-109123390D02*
X191848333Y-109266247D01*
X191848333Y-109266247D02*
X191800714Y-109456723D01*
X191800714Y-109456723D02*
X191753095Y-109551961D01*
X191753095Y-109551961D02*
X191657857Y-109647200D01*
X191657857Y-109647200D02*
X191515000Y-109694819D01*
X191515000Y-109694819D02*
X191276905Y-109694819D01*
X192229286Y-108790057D02*
X192276905Y-108742438D01*
X192276905Y-108742438D02*
X192372143Y-108694819D01*
X192372143Y-108694819D02*
X192610238Y-108694819D01*
X192610238Y-108694819D02*
X192705476Y-108742438D01*
X192705476Y-108742438D02*
X192753095Y-108790057D01*
X192753095Y-108790057D02*
X192800714Y-108885295D01*
X192800714Y-108885295D02*
X192800714Y-108980533D01*
X192800714Y-108980533D02*
X192753095Y-109123390D01*
X192753095Y-109123390D02*
X192181667Y-109694819D01*
X192181667Y-109694819D02*
X192800714Y-109694819D01*
X79184580Y-97066666D02*
X79232200Y-97114285D01*
X79232200Y-97114285D02*
X79279819Y-97257142D01*
X79279819Y-97257142D02*
X79279819Y-97352380D01*
X79279819Y-97352380D02*
X79232200Y-97495237D01*
X79232200Y-97495237D02*
X79136961Y-97590475D01*
X79136961Y-97590475D02*
X79041723Y-97638094D01*
X79041723Y-97638094D02*
X78851247Y-97685713D01*
X78851247Y-97685713D02*
X78708390Y-97685713D01*
X78708390Y-97685713D02*
X78517914Y-97638094D01*
X78517914Y-97638094D02*
X78422676Y-97590475D01*
X78422676Y-97590475D02*
X78327438Y-97495237D01*
X78327438Y-97495237D02*
X78279819Y-97352380D01*
X78279819Y-97352380D02*
X78279819Y-97257142D01*
X78279819Y-97257142D02*
X78327438Y-97114285D01*
X78327438Y-97114285D02*
X78375057Y-97066666D01*
X78375057Y-96685713D02*
X78327438Y-96638094D01*
X78327438Y-96638094D02*
X78279819Y-96542856D01*
X78279819Y-96542856D02*
X78279819Y-96304761D01*
X78279819Y-96304761D02*
X78327438Y-96209523D01*
X78327438Y-96209523D02*
X78375057Y-96161904D01*
X78375057Y-96161904D02*
X78470295Y-96114285D01*
X78470295Y-96114285D02*
X78565533Y-96114285D01*
X78565533Y-96114285D02*
X78708390Y-96161904D01*
X78708390Y-96161904D02*
X79279819Y-96733332D01*
X79279819Y-96733332D02*
X79279819Y-96114285D01*
X197756905Y-96624819D02*
X197756905Y-95624819D01*
X197756905Y-95624819D02*
X197995000Y-95624819D01*
X197995000Y-95624819D02*
X198137857Y-95672438D01*
X198137857Y-95672438D02*
X198233095Y-95767676D01*
X198233095Y-95767676D02*
X198280714Y-95862914D01*
X198280714Y-95862914D02*
X198328333Y-96053390D01*
X198328333Y-96053390D02*
X198328333Y-96196247D01*
X198328333Y-96196247D02*
X198280714Y-96386723D01*
X198280714Y-96386723D02*
X198233095Y-96481961D01*
X198233095Y-96481961D02*
X198137857Y-96577200D01*
X198137857Y-96577200D02*
X197995000Y-96624819D01*
X197995000Y-96624819D02*
X197756905Y-96624819D01*
X198661667Y-95624819D02*
X199280714Y-95624819D01*
X199280714Y-95624819D02*
X198947381Y-96005771D01*
X198947381Y-96005771D02*
X199090238Y-96005771D01*
X199090238Y-96005771D02*
X199185476Y-96053390D01*
X199185476Y-96053390D02*
X199233095Y-96101009D01*
X199233095Y-96101009D02*
X199280714Y-96196247D01*
X199280714Y-96196247D02*
X199280714Y-96434342D01*
X199280714Y-96434342D02*
X199233095Y-96529580D01*
X199233095Y-96529580D02*
X199185476Y-96577200D01*
X199185476Y-96577200D02*
X199090238Y-96624819D01*
X199090238Y-96624819D02*
X198804524Y-96624819D01*
X198804524Y-96624819D02*
X198709286Y-96577200D01*
X198709286Y-96577200D02*
X198661667Y-96529580D01*
X202043095Y-96254819D02*
X202043095Y-95254819D01*
X202614523Y-96254819D02*
X202185952Y-95683390D01*
X202614523Y-95254819D02*
X202043095Y-95826247D01*
D11*
%TO.C,J1*%
X69445000Y-108460000D02*
X69445000Y-108960000D01*
X69685000Y-108700000D02*
X69685000Y-118980000D01*
X70185000Y-108460000D02*
X69445000Y-108460000D01*
X70245000Y-108700000D02*
X70245000Y-118980000D01*
X71745000Y-108700000D02*
X71745000Y-118980000D01*
X73106000Y-115346000D02*
X73071000Y-115311000D01*
X73322000Y-115153000D02*
X73276000Y-115106000D01*
X75414000Y-117655000D02*
X75368000Y-117608000D01*
X75620000Y-117450000D02*
X75584000Y-117415000D01*
X76646000Y-108700000D02*
X76646000Y-118980000D01*
X79606000Y-108700000D02*
X69685000Y-108700000D01*
X79606000Y-108700000D02*
X79606000Y-118980000D01*
X79606000Y-118980000D02*
X69685000Y-118980000D01*
X72664748Y-111328805D02*
G75*
G02*
X72810001Y-110616000I1680253J28806D01*
G01*
X72810245Y-111983318D02*
G75*
G02*
X72665001Y-111300000I1534755J683318D01*
G01*
X73661958Y-109764574D02*
G75*
G02*
X75028999Y-109765001I683041J-1535419D01*
G01*
X75028042Y-112835426D02*
G75*
G02*
X73661000Y-112835000I-683042J1535426D01*
G01*
X75880426Y-110616958D02*
G75*
G02*
X75879999Y-111983999I-1535419J-683041D01*
G01*
X76025000Y-116380000D02*
G75*
G02*
X72665000Y-116380000I-1680000J0D01*
G01*
X72665000Y-116380000D02*
G75*
G02*
X76025000Y-116380000I1680000J0D01*
G01*
%TO.C,R3*%
X181575000Y-104870000D02*
X181575000Y-101030000D01*
X183415000Y-104870000D02*
X183415000Y-101030000D01*
%TO.C,S3*%
X96015000Y-63180000D02*
X97345000Y-63180000D01*
X96015000Y-64510000D02*
X96015000Y-63180000D01*
X96015000Y-65780000D02*
X96015000Y-70920000D01*
X96015000Y-65780000D02*
X98675000Y-65780000D01*
X96015000Y-70920000D02*
X98675000Y-70920000D01*
X98675000Y-65780000D02*
X98675000Y-70920000D01*
%TO.C,M2*%
X76945000Y-88480000D02*
X76945000Y-87150000D01*
X78275000Y-88480000D02*
X76945000Y-88480000D01*
X79545000Y-85820000D02*
X87225000Y-85820000D01*
X79545000Y-88480000D02*
X79545000Y-85820000D01*
X79545000Y-88480000D02*
X87225000Y-88480000D01*
X87225000Y-88480000D02*
X87225000Y-85820000D01*
%TO.C,M3*%
X108195000Y-110470000D02*
X108195000Y-113130000D01*
X115875000Y-110470000D02*
X108195000Y-110470000D01*
X115875000Y-110470000D02*
X115875000Y-113130000D01*
X115875000Y-113130000D02*
X108195000Y-113130000D01*
X117145000Y-110470000D02*
X118475000Y-110470000D01*
X118475000Y-110470000D02*
X118475000Y-111800000D01*
%TO.C,D5*%
X196660000Y-84970000D02*
X196660000Y-84814000D01*
X196660000Y-87286000D02*
X196660000Y-87130000D01*
X193427666Y-84971392D02*
G75*
G02*
X196659999Y-84814485I1672334J-1078608D01*
G01*
X194058871Y-84970164D02*
G75*
G02*
X196140960Y-84970001I1041129J-1079836D01*
G01*
X196140960Y-87129999D02*
G75*
G02*
X194058871Y-87129836I-1040960J1079999D01*
G01*
X196659999Y-87285515D02*
G75*
G02*
X193427666Y-87128608I-1559999J1235515D01*
G01*
%TO.C,S1*%
X96015000Y-74470000D02*
X97345000Y-74470000D01*
X96015000Y-75800000D02*
X96015000Y-74470000D01*
X96015000Y-77070000D02*
X96015000Y-82210000D01*
X96015000Y-77070000D02*
X98675000Y-77070000D01*
X96015000Y-82210000D02*
X98675000Y-82210000D01*
X98675000Y-77070000D02*
X98675000Y-82210000D01*
%TO.C,S2*%
X96015000Y-85970000D02*
X97345000Y-85970000D01*
X96015000Y-87300000D02*
X96015000Y-85970000D01*
X96015000Y-88570000D02*
X96015000Y-93710000D01*
X96015000Y-88570000D02*
X98675000Y-88570000D01*
X96015000Y-93710000D02*
X98675000Y-93710000D01*
X98675000Y-88570000D02*
X98675000Y-93710000D01*
%TO.C,R5*%
X184425000Y-85130000D02*
X188265000Y-85130000D01*
X184425000Y-86970000D02*
X188265000Y-86970000D01*
%TO.C,D1*%
X186325000Y-111120000D02*
X186325000Y-110964000D01*
X186325000Y-113436000D02*
X186325000Y-113280000D01*
X183092666Y-111121392D02*
G75*
G02*
X186324999Y-110964485I1672334J-1078608D01*
G01*
X183723871Y-111120164D02*
G75*
G02*
X185805960Y-111120001I1041129J-1079836D01*
G01*
X185805960Y-113279999D02*
G75*
G02*
X183723871Y-113279836I-1040960J1079999D01*
G01*
X186324999Y-113435515D02*
G75*
G02*
X183092666Y-113278608I-1559999J1235515D01*
G01*
%TO.C,R1*%
X192325000Y-100780000D02*
X192325000Y-104620000D01*
X194165000Y-100780000D02*
X194165000Y-104620000D01*
%TO.C,J2*%
X211165000Y-92370000D02*
X211165000Y-95030000D01*
X213765000Y-92370000D02*
X211165000Y-92370000D01*
X213765000Y-92370000D02*
X213765000Y-95030000D01*
X213765000Y-95030000D02*
X211165000Y-95030000D01*
X215035000Y-92370000D02*
X216365000Y-92370000D01*
X216365000Y-92370000D02*
X216365000Y-93700000D01*
D12*
%TO.C,U3*%
X71685000Y-65680000D02*
X71685000Y-80920000D01*
X71685000Y-80920000D02*
X92005000Y-80920000D01*
X92005000Y-65680000D02*
X71685000Y-65680000D01*
X92005000Y-80920000D02*
X92005000Y-65680000D01*
D13*
X90835000Y-81510000D02*
G75*
G02*
X90635000Y-81510000I-100000J0D01*
G01*
X90635000Y-81510000D02*
G75*
G02*
X90835000Y-81510000I100000J0D01*
G01*
D11*
%TO.C,M1*%
X76715000Y-64130000D02*
X76715000Y-62800000D01*
X78045000Y-64130000D02*
X76715000Y-64130000D01*
X79315000Y-61470000D02*
X86995000Y-61470000D01*
X79315000Y-64130000D02*
X79315000Y-61470000D01*
X79315000Y-64130000D02*
X86995000Y-64130000D01*
X86995000Y-64130000D02*
X86995000Y-61470000D01*
D12*
%TO.C,U1*%
X103370000Y-62020000D02*
X103370000Y-67390000D01*
X103370000Y-62020000D02*
X154320000Y-62020000D01*
X103370000Y-62020000D02*
X154320000Y-62020000D01*
X103370000Y-67390000D02*
X103370000Y-85080000D01*
X103370000Y-85080000D02*
X103370000Y-90530000D01*
X103370000Y-90530000D02*
X103370000Y-62020000D01*
X154320000Y-62020000D02*
X154320000Y-73089000D01*
X154320000Y-62020000D02*
X154320000Y-90530000D01*
X154320000Y-73089000D02*
X154320000Y-79800000D01*
X154320000Y-79800000D02*
X154320000Y-90530000D01*
X154320000Y-90530000D02*
X103370000Y-90530000D01*
X154320000Y-90530000D02*
X103370000Y-90530000D01*
D13*
X144460000Y-61450000D02*
G75*
G02*
X144260000Y-61450000I-100000J0D01*
G01*
X144260000Y-61450000D02*
G75*
G02*
X144460000Y-61450000I100000J0D01*
G01*
D11*
%TO.C,K1*%
X196845000Y-98900000D02*
X216645000Y-98900000D01*
X196845000Y-114500000D02*
X196845000Y-98900000D01*
X201095000Y-102500000D02*
X201095000Y-104950000D01*
X201095000Y-110900000D02*
X201095000Y-108400000D01*
X204295000Y-106650000D02*
X199695000Y-109150000D01*
X205795000Y-103050000D02*
X212595000Y-103050000D01*
X205795000Y-106650000D02*
X204295000Y-106650000D01*
X205795000Y-106650000D02*
X205795000Y-103050000D01*
X207195000Y-104850000D02*
X211195000Y-104850000D01*
X207195000Y-104850000D02*
X211195000Y-108450000D01*
X207195000Y-108450000D02*
X207195000Y-104850000D01*
X209195000Y-104850000D02*
X209195000Y-100650000D01*
X209195000Y-112650000D02*
X209195000Y-108450000D01*
X209195000Y-112650000D02*
X211695000Y-112650000D01*
X211195000Y-104850000D02*
X211195000Y-108450000D01*
X211195000Y-108450000D02*
X207195000Y-108450000D01*
X211695000Y-100650000D02*
X209195000Y-100650000D01*
X212595000Y-106650000D02*
X212595000Y-103050000D01*
X212595000Y-106650000D02*
X213395000Y-106650000D01*
X216645000Y-105500000D02*
X216645000Y-98900000D01*
X216645000Y-114500000D02*
X196845000Y-114500000D01*
X216645000Y-114500000D02*
X216645000Y-107900000D01*
D12*
%TO.C,U4*%
X71915000Y-90030000D02*
X71915000Y-105270000D01*
X71915000Y-105270000D02*
X92235000Y-105270000D01*
X92235000Y-90030000D02*
X71915000Y-90030000D01*
X92235000Y-105270000D02*
X92235000Y-90030000D01*
D13*
X91065000Y-105860000D02*
G75*
G02*
X90865000Y-105860000I-100000J0D01*
G01*
X90865000Y-105860000D02*
G75*
G02*
X91065000Y-105860000I100000J0D01*
G01*
D11*
%TO.C,Q1*%
X185195000Y-95660000D02*
X188795000Y-95660000D01*
X185156522Y-95648478D02*
G75*
G02*
X186995000Y-91210000I1838478J1838478D01*
G01*
X186995000Y-91210000D02*
G75*
G02*
X188833478Y-95648478I0J-2600000D01*
G01*
%TO.C,C1*%
X77965000Y-72550000D02*
G75*
G02*
X69725000Y-72550000I-4120000J0D01*
G01*
X69725000Y-72550000D02*
G75*
G02*
X77965000Y-72550000I4120000J0D01*
G01*
%TO.C,C3*%
X125465000Y-102750000D02*
G75*
G02*
X117225000Y-102750000I-4120000J0D01*
G01*
X117225000Y-102750000D02*
G75*
G02*
X125465000Y-102750000I4120000J0D01*
G01*
%TO.C,D6*%
X188160000Y-74970000D02*
X188160000Y-74814000D01*
X188160000Y-77286000D02*
X188160000Y-77130000D01*
X184927666Y-74971392D02*
G75*
G02*
X188159999Y-74814485I1672334J-1078608D01*
G01*
X185558871Y-74970164D02*
G75*
G02*
X187640960Y-74970001I1041129J-1079836D01*
G01*
X187640960Y-77129999D02*
G75*
G02*
X185558871Y-77129836I-1040960J1079999D01*
G01*
X188159999Y-77285515D02*
G75*
G02*
X184927666Y-77128608I-1559999J1235515D01*
G01*
%TO.C,R4*%
X174675000Y-75130000D02*
X178515000Y-75130000D01*
X174675000Y-76970000D02*
X178515000Y-76970000D01*
D12*
%TO.C,U5*%
X103185000Y-94180000D02*
X103185000Y-109420000D01*
X103185000Y-109420000D02*
X123505000Y-109420000D01*
X123505000Y-94180000D02*
X103185000Y-94180000D01*
X123505000Y-109420000D02*
X123505000Y-94180000D01*
D13*
X104555000Y-93590000D02*
G75*
G02*
X104355000Y-93590000I-100000J0D01*
G01*
X104355000Y-93590000D02*
G75*
G02*
X104555000Y-93590000I100000J0D01*
G01*
D11*
%TO.C,R6*%
X163925000Y-85130000D02*
X167765000Y-85130000D01*
X163925000Y-86970000D02*
X167765000Y-86970000D01*
%TO.C,R2*%
X187325000Y-100780000D02*
X187325000Y-104620000D01*
X189165000Y-100780000D02*
X189165000Y-104620000D01*
%TO.C,U2*%
X131470000Y-93325000D02*
X131470000Y-114775000D01*
X131470000Y-114775000D02*
X175220000Y-114775000D01*
X131475000Y-93580000D02*
X132775000Y-93580000D01*
X131475000Y-96735000D02*
X134605000Y-96740000D01*
X131475000Y-111360000D02*
X134605000Y-111360000D01*
X131475000Y-114520000D02*
X134605000Y-114520000D01*
X134605000Y-96430000D02*
X134605000Y-96740000D01*
X134605000Y-111360000D02*
X134605000Y-114520000D01*
X141774233Y-96164149D02*
X141774233Y-96325687D01*
X141775233Y-94797610D02*
X143425233Y-94506671D01*
X141775233Y-104149106D02*
X141775233Y-94797610D01*
X141775233Y-104149106D02*
X141852797Y-104226670D01*
X141852797Y-104226670D02*
X151857670Y-104226670D01*
X142056636Y-111718217D02*
X142506636Y-111718217D01*
X142056636Y-113468217D02*
X142056636Y-111718217D01*
X142506636Y-113468217D02*
X142056636Y-113468217D01*
X142506636Y-113743217D02*
X142506636Y-111443217D01*
X142606636Y-111343217D02*
X146206636Y-111343217D01*
X143035233Y-108856670D02*
X143035233Y-104226670D01*
X143035233Y-108856670D02*
X143875233Y-108856670D01*
X143425233Y-94506671D02*
X150285233Y-94506671D01*
X143875233Y-108856670D02*
X143875233Y-104226670D01*
X144735233Y-108856670D02*
X144735233Y-104226670D01*
X144735233Y-108856670D02*
X145575233Y-108856670D01*
X145436358Y-111443217D02*
X145436358Y-113743217D01*
X145575233Y-108856670D02*
X145575233Y-104226670D01*
X146206636Y-113843217D02*
X142606636Y-113843217D01*
X146306636Y-111443217D02*
X146306636Y-113743217D01*
X146306636Y-111718217D02*
X146756636Y-111718217D01*
X146307636Y-111954696D02*
X146307636Y-111860144D01*
X146435233Y-108856670D02*
X146435233Y-104226670D01*
X146435233Y-108856670D02*
X147275233Y-108856670D01*
X146756636Y-111718217D02*
X146756636Y-113468217D01*
X146756636Y-113468217D02*
X146306636Y-113468217D01*
X147275233Y-108856670D02*
X147275233Y-104226670D01*
X148135233Y-108856670D02*
X148135233Y-104226670D01*
X148135233Y-108856670D02*
X148975233Y-108856670D01*
X148975233Y-108856670D02*
X148975233Y-104226670D01*
X149835233Y-108856670D02*
X149835233Y-104226670D01*
X149835233Y-108856670D02*
X150675233Y-108856670D01*
X150285233Y-94506671D02*
X151935233Y-94797610D01*
X150675233Y-108856670D02*
X150675233Y-104226670D01*
X151857670Y-104226670D02*
X151935233Y-104149106D01*
X151935233Y-95586670D02*
X141775233Y-95586670D01*
X151935233Y-104149106D02*
X151935233Y-94797610D01*
X153492397Y-102745796D02*
X153492397Y-112445796D01*
X154992397Y-113945796D02*
X164692397Y-113945796D01*
X156324783Y-98742294D02*
X156324783Y-93842295D01*
X156374783Y-93792295D02*
X166274783Y-93792295D01*
X157361385Y-95110900D02*
X157385553Y-95142295D01*
X157373594Y-95167294D02*
X157349147Y-95162062D01*
X157373594Y-95167294D02*
X157380764Y-95136075D01*
X157373594Y-95167294D02*
X157385553Y-95142295D01*
X157385553Y-95642294D02*
X159464014Y-95642294D01*
X159464014Y-95142295D02*
X157385553Y-95142295D01*
X164692397Y-101245796D02*
X154992397Y-101245796D01*
X164883978Y-93791295D02*
X164839106Y-93791295D01*
X164967312Y-93791295D02*
X164933357Y-93791295D01*
X166192397Y-112445796D02*
X166192397Y-102745796D01*
X166274783Y-98792294D02*
X156374783Y-98792294D01*
X166324783Y-93842295D02*
X166324783Y-98742294D01*
X169673681Y-94860296D02*
X170473681Y-94860296D01*
X169673681Y-96140295D02*
X169673681Y-94540296D01*
X170473681Y-94540296D02*
X169673681Y-94540296D01*
X170473681Y-94540296D02*
X170473681Y-96140295D01*
X170473681Y-95820295D02*
X169673681Y-95820295D01*
X170473681Y-96140295D02*
X169673681Y-96140295D01*
X172085000Y-93580000D02*
X175200000Y-93580000D01*
X172085000Y-96740000D02*
X172085000Y-93580000D01*
X172085000Y-96740000D02*
X175245000Y-96740000D01*
X172085000Y-111360000D02*
X175200000Y-111360000D01*
X172085000Y-114520000D02*
X172085000Y-111360000D01*
X172085000Y-114520000D02*
X175200000Y-114520000D01*
X175220000Y-93325000D02*
X131470000Y-93325000D01*
X175220000Y-114775000D02*
X175220000Y-93325000D01*
X142506636Y-111443217D02*
G75*
G02*
X142606636Y-111343236I99964J17D01*
G01*
X142606636Y-113843217D02*
G75*
G02*
X142506683Y-113743217I-36J99917D01*
G01*
X146206636Y-111343217D02*
G75*
G02*
X146306683Y-111443217I-36J-100083D01*
G01*
X146306636Y-113743217D02*
G75*
G02*
X146206636Y-113843236I-100036J17D01*
G01*
X153492397Y-102745796D02*
G75*
G02*
X154992397Y-101245797I1500003J-4D01*
G01*
X154806131Y-104626010D02*
G75*
G02*
X154840278Y-104760217I-52831J-84890D01*
G01*
X154806132Y-104626011D02*
G75*
G02*
X156872610Y-102559531I793628J1272851D01*
G01*
X154840216Y-110431409D02*
G75*
G02*
X154806118Y-110565559I-87016J-49291D01*
G01*
X154840219Y-110431410D02*
G75*
G02*
X154840222Y-104760185I5002181J2835610D01*
G01*
X154992397Y-113945796D02*
G75*
G02*
X153492404Y-112445796I3J1499996D01*
G01*
X156324783Y-93842295D02*
G75*
G02*
X156374783Y-93792283I50017J-5D01*
G01*
X156374783Y-98792294D02*
G75*
G02*
X156324806Y-98742294I17J49994D01*
G01*
X156872611Y-112632062D02*
G75*
G02*
X154806137Y-110565590I-1272811J793662D01*
G01*
X156872612Y-112632063D02*
G75*
G02*
X157006816Y-112597919I84888J-52837D01*
G01*
X157006783Y-102593616D02*
G75*
G02*
X156872613Y-102559530I-49283J87116D01*
G01*
X157006784Y-102593617D02*
G75*
G02*
X162678011Y-102593617I2835614J-5002178D01*
G01*
X157349148Y-95622527D02*
G75*
G02*
X157361385Y-95673690I1075652J230227D01*
G01*
X162678011Y-112597976D02*
G75*
G02*
X157006783Y-112597976I-2835614J5002180D01*
G01*
X162678011Y-112597977D02*
G75*
G02*
X162812161Y-112632076I49289J-87023D01*
G01*
X162812183Y-102559531D02*
G75*
G02*
X162677998Y-102593641I-84883J52931D01*
G01*
X162812183Y-102559531D02*
G75*
G02*
X164878667Y-104626018I1272817J-793669D01*
G01*
X164692397Y-101245796D02*
G75*
G02*
X166192404Y-102745796I3J-1500004D01*
G01*
X164844576Y-104760183D02*
G75*
G02*
X164844579Y-110431412I-5002176J-2835617D01*
G01*
X164844578Y-104760184D02*
G75*
G02*
X164878662Y-104626011I87122J49284D01*
G01*
X164878662Y-110565582D02*
G75*
G02*
X162812182Y-112632062I-793622J-1272858D01*
G01*
X164878663Y-110565583D02*
G75*
G02*
X164844555Y-110431398I52937J84883D01*
G01*
X166192397Y-112445796D02*
G75*
G02*
X164692397Y-113945797I-1499997J-4D01*
G01*
X166274783Y-93792295D02*
G75*
G02*
X166324805Y-93842295I17J-50005D01*
G01*
X166324783Y-98742294D02*
G75*
G02*
X166274783Y-98792283I-49983J-6D01*
G01*
X139671666Y-104117418D02*
G75*
G02*
X131671666Y-104117418I-4000000J0D01*
G01*
X131671666Y-104117418D02*
G75*
G02*
X139671666Y-104117418I4000000J0D01*
G01*
X139703999Y-95795000D02*
G75*
G02*
X136506001Y-95795000I-1598999J0D01*
G01*
X136506001Y-95795000D02*
G75*
G02*
X139703999Y-95795000I1598999J0D01*
G01*
X143073179Y-103314594D02*
G75*
G02*
X142323179Y-103314594I-375000J0D01*
G01*
X142323179Y-103314594D02*
G75*
G02*
X143073179Y-103314594I375000J0D01*
G01*
X165092397Y-107595796D02*
G75*
G02*
X154592397Y-107595796I-5250000J0D01*
G01*
X154592397Y-107595796D02*
G75*
G02*
X165092397Y-107595796I5250000J0D01*
G01*
X170184000Y-112305000D02*
G75*
G02*
X166986000Y-112305000I-1599000J0D01*
G01*
X166986000Y-112305000D02*
G75*
G02*
X170184000Y-112305000I1599000J0D01*
G01*
X175054307Y-104615206D02*
G75*
G02*
X167054307Y-104615206I-4000000J0D01*
G01*
X167054307Y-104615206D02*
G75*
G02*
X175054307Y-104615206I4000000J0D01*
G01*
%TO.C,D4*%
X177160000Y-84970000D02*
X177160000Y-84814000D01*
X177160000Y-87286000D02*
X177160000Y-87130000D01*
X173927666Y-84971392D02*
G75*
G02*
X177159999Y-84814485I1672334J-1078608D01*
G01*
X174558871Y-84970164D02*
G75*
G02*
X176640960Y-84970001I1041129J-1079836D01*
G01*
X176640960Y-87129999D02*
G75*
G02*
X174558871Y-87129836I-1040960J1079999D01*
G01*
X177159999Y-87285515D02*
G75*
G02*
X173927666Y-87128608I-1559999J1235515D01*
G01*
%TO.C,D2*%
X190455000Y-110964000D02*
X190455000Y-111120000D01*
X190455000Y-113280000D02*
X190455000Y-113436000D01*
X190455001Y-110964485D02*
G75*
G02*
X193687334Y-111121392I1559999J-1235515D01*
G01*
X190974040Y-111120001D02*
G75*
G02*
X193056129Y-111120164I1040960J-1079999D01*
G01*
X193056129Y-113279836D02*
G75*
G02*
X190974040Y-113279999I-1041129J1079836D01*
G01*
X193687334Y-113278608D02*
G75*
G02*
X190455001Y-113435515I-1672334J1078608D01*
G01*
%TO.C,C2*%
X77695000Y-96900000D02*
G75*
G02*
X69455000Y-96900000I-4120000J0D01*
G01*
X69455000Y-96900000D02*
G75*
G02*
X77695000Y-96900000I4120000J0D01*
G01*
%TO.C,D3*%
X195775000Y-92230000D02*
X195775000Y-92360000D01*
X195775000Y-95170000D02*
X195775000Y-95040000D01*
X200195000Y-95170000D02*
X200195000Y-92230000D01*
X200315000Y-95170000D02*
X200315000Y-92230000D01*
X200435000Y-95170000D02*
X200435000Y-92230000D01*
X201215000Y-92230000D02*
X195775000Y-92230000D01*
X201215000Y-92360000D02*
X201215000Y-92230000D01*
X201215000Y-95040000D02*
X201215000Y-95170000D01*
X201215000Y-95170000D02*
X195775000Y-95170000D01*
%TD*%
%LPC*%
D14*
%TO.C,J1*%
X74345000Y-111300000D03*
D15*
X74345000Y-116380000D03*
%TD*%
D16*
%TO.C,R3*%
X182495000Y-105490000D03*
D17*
X182495000Y-100410000D03*
%TD*%
D18*
%TO.C,S3*%
X97345000Y-64510000D03*
D19*
X97345000Y-67050000D03*
X97345000Y-69590000D03*
%TD*%
D18*
%TO.C,M2*%
X78275000Y-87150000D03*
D19*
X80815000Y-87150000D03*
X83355000Y-87150000D03*
X85895000Y-87150000D03*
%TD*%
D18*
%TO.C,M3*%
X117145000Y-111800000D03*
D19*
X114605000Y-111800000D03*
X112065000Y-111800000D03*
X109525000Y-111800000D03*
%TD*%
D20*
%TO.C,D5*%
X196370000Y-86050000D03*
D21*
X193830000Y-86050000D03*
%TD*%
D18*
%TO.C,S1*%
X97345000Y-75800000D03*
D19*
X97345000Y-78340000D03*
X97345000Y-80880000D03*
%TD*%
D18*
%TO.C,S2*%
X97345000Y-87300000D03*
D19*
X97345000Y-89840000D03*
X97345000Y-92380000D03*
%TD*%
D16*
%TO.C,R5*%
X183805000Y-86050000D03*
D17*
X188885000Y-86050000D03*
%TD*%
D20*
%TO.C,D1*%
X186035000Y-112200000D03*
D21*
X183495000Y-112200000D03*
%TD*%
D16*
%TO.C,R1*%
X193245000Y-100160000D03*
D17*
X193245000Y-105240000D03*
%TD*%
D18*
%TO.C,J2*%
X215035000Y-93700000D03*
D19*
X212495000Y-93700000D03*
%TD*%
D22*
%TO.C,U3*%
X90735000Y-79650000D03*
D23*
X88195000Y-79650000D03*
X85655000Y-79650000D03*
X83115000Y-79650000D03*
X80575000Y-79650000D03*
X78035000Y-79650000D03*
X75495000Y-79650000D03*
X72955000Y-79650000D03*
D22*
X72955000Y-66950000D03*
D23*
X75495000Y-66950000D03*
X78035000Y-66950000D03*
X80575000Y-66950000D03*
X83115000Y-66950000D03*
X85655000Y-66950000D03*
X88195000Y-66950000D03*
X90735000Y-66950000D03*
%TD*%
D18*
%TO.C,M1*%
X78045000Y-62800000D03*
D19*
X80585000Y-62800000D03*
X83125000Y-62800000D03*
X85665000Y-62800000D03*
%TD*%
D24*
%TO.C,U1*%
X144360000Y-63600000D03*
D25*
X141820000Y-63600000D03*
X139280000Y-63600000D03*
X136740000Y-63600000D03*
X134200000Y-63600000D03*
X131660000Y-63600000D03*
X129120000Y-63600000D03*
X126580000Y-63600000D03*
X124040000Y-63600000D03*
X121500000Y-63600000D03*
X118960000Y-63600000D03*
X116420000Y-63600000D03*
X113880000Y-63600000D03*
X111340000Y-63600000D03*
X108800000Y-63600000D03*
X108800000Y-89000000D03*
X111340000Y-89000000D03*
X113880000Y-89000000D03*
X116420000Y-89000000D03*
X118960000Y-89000000D03*
X121500000Y-89000000D03*
X124040000Y-89000000D03*
X126580000Y-89000000D03*
X129120000Y-89000000D03*
X131660000Y-89000000D03*
X134200000Y-89000000D03*
X136740000Y-89000000D03*
X139280000Y-89000000D03*
X141820000Y-89000000D03*
X144360000Y-89000000D03*
%TD*%
D26*
%TO.C,K1*%
X215245000Y-106700000D03*
D27*
X213295000Y-100650000D03*
D26*
X201095000Y-100650000D03*
X201045000Y-112700000D03*
D27*
X213295000Y-112650000D03*
%TD*%
D22*
%TO.C,U4*%
X90965000Y-104000000D03*
D23*
X88425000Y-104000000D03*
X85885000Y-104000000D03*
X83345000Y-104000000D03*
X80805000Y-104000000D03*
X78265000Y-104000000D03*
X75725000Y-104000000D03*
X73185000Y-104000000D03*
D22*
X73185000Y-91300000D03*
D23*
X75725000Y-91300000D03*
X78265000Y-91300000D03*
X80805000Y-91300000D03*
X83345000Y-91300000D03*
X85885000Y-91300000D03*
X88425000Y-91300000D03*
X90965000Y-91300000D03*
%TD*%
D28*
%TO.C,REF\u002A\u002A*%
X69000000Y-125200000D03*
%TD*%
D29*
%TO.C,Q1*%
X185725000Y-93810000D03*
D30*
X186995000Y-93810000D03*
X188265000Y-93810000D03*
%TD*%
D31*
%TO.C,C1*%
X73845000Y-70800000D03*
X73845000Y-74300000D03*
%TD*%
D28*
%TO.C,REF\u002A\u002A*%
X216000000Y-57700000D03*
%TD*%
%TO.C,REF\u002A\u002A*%
X69000000Y-57750000D03*
%TD*%
D31*
%TO.C,C3*%
X121345000Y-104500000D03*
X121345000Y-101000000D03*
%TD*%
D20*
%TO.C,D6*%
X187870000Y-76050000D03*
D21*
X185330000Y-76050000D03*
%TD*%
D16*
%TO.C,R4*%
X174055000Y-76050000D03*
D17*
X179135000Y-76050000D03*
%TD*%
D32*
%TO.C,U5*%
X104455000Y-95450000D03*
D23*
X106995000Y-95450000D03*
X109535000Y-95450000D03*
X112075000Y-95450000D03*
X114615000Y-95450000D03*
X117155000Y-95450000D03*
X119695000Y-95450000D03*
X122235000Y-95450000D03*
D32*
X122235000Y-108150000D03*
D23*
X119695000Y-108150000D03*
X117155000Y-108150000D03*
X114615000Y-108150000D03*
X112075000Y-108150000D03*
X109535000Y-108150000D03*
X106995000Y-108150000D03*
X104455000Y-108150000D03*
%TD*%
D16*
%TO.C,R6*%
X163305000Y-86050000D03*
D17*
X168385000Y-86050000D03*
%TD*%
D16*
%TO.C,R2*%
X188245000Y-100160000D03*
D17*
X188245000Y-105240000D03*
%TD*%
D28*
%TO.C,REF\u002A\u002A*%
X216000000Y-125200000D03*
%TD*%
D33*
%TO.C,U2*%
X133025000Y-95160000D03*
D34*
X133025000Y-112940000D03*
X173665000Y-112940000D03*
X173665000Y-95160000D03*
%TD*%
D20*
%TO.C,D4*%
X176870000Y-86050000D03*
D21*
X174330000Y-86050000D03*
%TD*%
D20*
%TO.C,D2*%
X190745000Y-112200000D03*
D21*
X193285000Y-112200000D03*
%TD*%
D31*
%TO.C,C2*%
X73575000Y-95150000D03*
X73575000Y-98650000D03*
%TD*%
D35*
%TO.C,D3*%
X202305000Y-93700000D03*
D36*
X194685000Y-93700000D03*
%TD*%
%LPD*%
M02*
