%TF.GenerationSoftware,KiCad,Pcbnew,8.0.2-8.0.2-0~ubuntu24.04.1*%
%TF.CreationDate,2024-05-23T10:48:31+07:00*%
%TF.ProjectId,tugas-akhir,74756761-732d-4616-9b68-69722e6b6963,6*%
%TF.SameCoordinates,Original*%
%TF.FileFunction,Drillmap*%
%TF.FilePolarity,Positive*%
%FSLAX45Y45*%
G04 Gerber Fmt 4.5, Leading zero omitted, Abs format (unit mm)*
G04 Created by KiCad (PCBNEW 8.0.2-8.0.2-0~ubuntu24.04.1) date 2024-05-23 10:48:31*
%MOMM*%
%LPD*%
G01*
G04 APERTURE LIST*
%ADD10C,0.100000*%
%ADD11C,0.200000*%
%ADD12C,0.320000*%
G04 APERTURE END LIST*
D10*
X20420000Y-4460000D02*
X20420000Y-14060000D01*
X8420000Y-4460000D02*
G75*
G02*
X8620000Y-4260000I200000J0D01*
G01*
X8620000Y-4260000D02*
X20220000Y-4260000D01*
X20220000Y-4260000D02*
G75*
G02*
X20420000Y-4460000I0J-200000D01*
G01*
X8620000Y-14260000D02*
G75*
G02*
X8420000Y-14060000I0J200000D01*
G01*
X20220000Y-14260000D02*
X8620000Y-14260000D01*
X20420000Y-14060000D02*
G75*
G02*
X20220000Y-14260000I-200000J0D01*
G01*
X8420000Y-14060000D02*
X8420000Y-4460000D01*
D11*
D12*
X8660000Y-4500000D02*
X8980000Y-4820000D01*
X8980000Y-4500000D02*
X8660000Y-4820000D01*
X8660000Y-13700000D02*
X8980000Y-14020000D01*
X8980000Y-13700000D02*
X8660000Y-14020000D01*
X19860000Y-4500000D02*
X20180000Y-4820000D01*
X20180000Y-4500000D02*
X19860000Y-4820000D01*
X19860000Y-13700000D02*
X20180000Y-14020000D01*
X20180000Y-13700000D02*
X19860000Y-14020000D01*
D11*
X8675777Y-14576484D02*
X8675777Y-14376484D01*
X8675777Y-14376484D02*
X8723396Y-14376484D01*
X8723396Y-14376484D02*
X8751967Y-14386008D01*
X8751967Y-14386008D02*
X8771015Y-14405055D01*
X8771015Y-14405055D02*
X8780539Y-14424103D01*
X8780539Y-14424103D02*
X8790063Y-14462198D01*
X8790063Y-14462198D02*
X8790063Y-14490769D01*
X8790063Y-14490769D02*
X8780539Y-14528865D01*
X8780539Y-14528865D02*
X8771015Y-14547912D01*
X8771015Y-14547912D02*
X8751967Y-14566960D01*
X8751967Y-14566960D02*
X8723396Y-14576484D01*
X8723396Y-14576484D02*
X8675777Y-14576484D01*
X8875777Y-14576484D02*
X8875777Y-14443150D01*
X8875777Y-14481246D02*
X8885301Y-14462198D01*
X8885301Y-14462198D02*
X8894824Y-14452674D01*
X8894824Y-14452674D02*
X8913872Y-14443150D01*
X8913872Y-14443150D02*
X8932920Y-14443150D01*
X8999586Y-14576484D02*
X8999586Y-14443150D01*
X8999586Y-14376484D02*
X8990063Y-14386008D01*
X8990063Y-14386008D02*
X8999586Y-14395531D01*
X8999586Y-14395531D02*
X9009110Y-14386008D01*
X9009110Y-14386008D02*
X8999586Y-14376484D01*
X8999586Y-14376484D02*
X8999586Y-14395531D01*
X9123396Y-14576484D02*
X9104348Y-14566960D01*
X9104348Y-14566960D02*
X9094824Y-14547912D01*
X9094824Y-14547912D02*
X9094824Y-14376484D01*
X9228158Y-14576484D02*
X9209110Y-14566960D01*
X9209110Y-14566960D02*
X9199586Y-14547912D01*
X9199586Y-14547912D02*
X9199586Y-14376484D01*
X9456729Y-14576484D02*
X9456729Y-14376484D01*
X9456729Y-14376484D02*
X9523396Y-14519341D01*
X9523396Y-14519341D02*
X9590063Y-14376484D01*
X9590063Y-14376484D02*
X9590063Y-14576484D01*
X9771015Y-14576484D02*
X9771015Y-14471722D01*
X9771015Y-14471722D02*
X9761491Y-14452674D01*
X9761491Y-14452674D02*
X9742444Y-14443150D01*
X9742444Y-14443150D02*
X9704348Y-14443150D01*
X9704348Y-14443150D02*
X9685301Y-14452674D01*
X9771015Y-14566960D02*
X9751967Y-14576484D01*
X9751967Y-14576484D02*
X9704348Y-14576484D01*
X9704348Y-14576484D02*
X9685301Y-14566960D01*
X9685301Y-14566960D02*
X9675777Y-14547912D01*
X9675777Y-14547912D02*
X9675777Y-14528865D01*
X9675777Y-14528865D02*
X9685301Y-14509817D01*
X9685301Y-14509817D02*
X9704348Y-14500293D01*
X9704348Y-14500293D02*
X9751967Y-14500293D01*
X9751967Y-14500293D02*
X9771015Y-14490769D01*
X9866253Y-14443150D02*
X9866253Y-14643150D01*
X9866253Y-14452674D02*
X9885301Y-14443150D01*
X9885301Y-14443150D02*
X9923396Y-14443150D01*
X9923396Y-14443150D02*
X9942444Y-14452674D01*
X9942444Y-14452674D02*
X9951967Y-14462198D01*
X9951967Y-14462198D02*
X9961491Y-14481246D01*
X9961491Y-14481246D02*
X9961491Y-14538388D01*
X9961491Y-14538388D02*
X9951967Y-14557436D01*
X9951967Y-14557436D02*
X9942444Y-14566960D01*
X9942444Y-14566960D02*
X9923396Y-14576484D01*
X9923396Y-14576484D02*
X9885301Y-14576484D01*
X9885301Y-14576484D02*
X9866253Y-14566960D01*
X10047205Y-14557436D02*
X10056729Y-14566960D01*
X10056729Y-14566960D02*
X10047205Y-14576484D01*
X10047205Y-14576484D02*
X10037682Y-14566960D01*
X10037682Y-14566960D02*
X10047205Y-14557436D01*
X10047205Y-14557436D02*
X10047205Y-14576484D01*
X10047205Y-14452674D02*
X10056729Y-14462198D01*
X10056729Y-14462198D02*
X10047205Y-14471722D01*
X10047205Y-14471722D02*
X10037682Y-14462198D01*
X10037682Y-14462198D02*
X10047205Y-14452674D01*
X10047205Y-14452674D02*
X10047205Y-14471722D01*
X8215000Y-14805000D02*
X8415000Y-15005000D01*
X8415000Y-14805000D02*
X8215000Y-15005000D01*
X8656729Y-14796484D02*
X8780539Y-14796484D01*
X8780539Y-14796484D02*
X8713872Y-14872674D01*
X8713872Y-14872674D02*
X8742444Y-14872674D01*
X8742444Y-14872674D02*
X8761491Y-14882198D01*
X8761491Y-14882198D02*
X8771015Y-14891722D01*
X8771015Y-14891722D02*
X8780539Y-14910769D01*
X8780539Y-14910769D02*
X8780539Y-14958388D01*
X8780539Y-14958388D02*
X8771015Y-14977436D01*
X8771015Y-14977436D02*
X8761491Y-14986960D01*
X8761491Y-14986960D02*
X8742444Y-14996484D01*
X8742444Y-14996484D02*
X8685301Y-14996484D01*
X8685301Y-14996484D02*
X8666253Y-14986960D01*
X8666253Y-14986960D02*
X8656729Y-14977436D01*
X8866253Y-14977436D02*
X8875777Y-14986960D01*
X8875777Y-14986960D02*
X8866253Y-14996484D01*
X8866253Y-14996484D02*
X8856729Y-14986960D01*
X8856729Y-14986960D02*
X8866253Y-14977436D01*
X8866253Y-14977436D02*
X8866253Y-14996484D01*
X8951967Y-14815531D02*
X8961491Y-14806008D01*
X8961491Y-14806008D02*
X8980539Y-14796484D01*
X8980539Y-14796484D02*
X9028158Y-14796484D01*
X9028158Y-14796484D02*
X9047205Y-14806008D01*
X9047205Y-14806008D02*
X9056729Y-14815531D01*
X9056729Y-14815531D02*
X9066253Y-14834579D01*
X9066253Y-14834579D02*
X9066253Y-14853627D01*
X9066253Y-14853627D02*
X9056729Y-14882198D01*
X9056729Y-14882198D02*
X8942444Y-14996484D01*
X8942444Y-14996484D02*
X9066253Y-14996484D01*
X9190063Y-14796484D02*
X9209110Y-14796484D01*
X9209110Y-14796484D02*
X9228158Y-14806008D01*
X9228158Y-14806008D02*
X9237682Y-14815531D01*
X9237682Y-14815531D02*
X9247205Y-14834579D01*
X9247205Y-14834579D02*
X9256729Y-14872674D01*
X9256729Y-14872674D02*
X9256729Y-14920293D01*
X9256729Y-14920293D02*
X9247205Y-14958388D01*
X9247205Y-14958388D02*
X9237682Y-14977436D01*
X9237682Y-14977436D02*
X9228158Y-14986960D01*
X9228158Y-14986960D02*
X9209110Y-14996484D01*
X9209110Y-14996484D02*
X9190063Y-14996484D01*
X9190063Y-14996484D02*
X9171015Y-14986960D01*
X9171015Y-14986960D02*
X9161491Y-14977436D01*
X9161491Y-14977436D02*
X9151967Y-14958388D01*
X9151967Y-14958388D02*
X9142444Y-14920293D01*
X9142444Y-14920293D02*
X9142444Y-14872674D01*
X9142444Y-14872674D02*
X9151967Y-14834579D01*
X9151967Y-14834579D02*
X9161491Y-14815531D01*
X9161491Y-14815531D02*
X9171015Y-14806008D01*
X9171015Y-14806008D02*
X9190063Y-14796484D01*
X9380539Y-14796484D02*
X9399586Y-14796484D01*
X9399586Y-14796484D02*
X9418634Y-14806008D01*
X9418634Y-14806008D02*
X9428158Y-14815531D01*
X9428158Y-14815531D02*
X9437682Y-14834579D01*
X9437682Y-14834579D02*
X9447205Y-14872674D01*
X9447205Y-14872674D02*
X9447205Y-14920293D01*
X9447205Y-14920293D02*
X9437682Y-14958388D01*
X9437682Y-14958388D02*
X9428158Y-14977436D01*
X9428158Y-14977436D02*
X9418634Y-14986960D01*
X9418634Y-14986960D02*
X9399586Y-14996484D01*
X9399586Y-14996484D02*
X9380539Y-14996484D01*
X9380539Y-14996484D02*
X9361491Y-14986960D01*
X9361491Y-14986960D02*
X9351967Y-14977436D01*
X9351967Y-14977436D02*
X9342444Y-14958388D01*
X9342444Y-14958388D02*
X9332920Y-14920293D01*
X9332920Y-14920293D02*
X9332920Y-14872674D01*
X9332920Y-14872674D02*
X9342444Y-14834579D01*
X9342444Y-14834579D02*
X9351967Y-14815531D01*
X9351967Y-14815531D02*
X9361491Y-14806008D01*
X9361491Y-14806008D02*
X9380539Y-14796484D01*
X9532920Y-14996484D02*
X9532920Y-14863150D01*
X9532920Y-14882198D02*
X9542444Y-14872674D01*
X9542444Y-14872674D02*
X9561491Y-14863150D01*
X9561491Y-14863150D02*
X9590063Y-14863150D01*
X9590063Y-14863150D02*
X9609110Y-14872674D01*
X9609110Y-14872674D02*
X9618634Y-14891722D01*
X9618634Y-14891722D02*
X9618634Y-14996484D01*
X9618634Y-14891722D02*
X9628158Y-14872674D01*
X9628158Y-14872674D02*
X9647205Y-14863150D01*
X9647205Y-14863150D02*
X9675777Y-14863150D01*
X9675777Y-14863150D02*
X9694825Y-14872674D01*
X9694825Y-14872674D02*
X9704348Y-14891722D01*
X9704348Y-14891722D02*
X9704348Y-14996484D01*
X9799586Y-14996484D02*
X9799586Y-14863150D01*
X9799586Y-14882198D02*
X9809110Y-14872674D01*
X9809110Y-14872674D02*
X9828158Y-14863150D01*
X9828158Y-14863150D02*
X9856729Y-14863150D01*
X9856729Y-14863150D02*
X9875777Y-14872674D01*
X9875777Y-14872674D02*
X9885301Y-14891722D01*
X9885301Y-14891722D02*
X9885301Y-14996484D01*
X9885301Y-14891722D02*
X9894825Y-14872674D01*
X9894825Y-14872674D02*
X9913872Y-14863150D01*
X9913872Y-14863150D02*
X9942444Y-14863150D01*
X9942444Y-14863150D02*
X9961491Y-14872674D01*
X9961491Y-14872674D02*
X9971015Y-14891722D01*
X9971015Y-14891722D02*
X9971015Y-14996484D01*
X10361491Y-14786960D02*
X10190063Y-15044103D01*
X10618634Y-14796484D02*
X10637682Y-14796484D01*
X10637682Y-14796484D02*
X10656729Y-14806008D01*
X10656729Y-14806008D02*
X10666253Y-14815531D01*
X10666253Y-14815531D02*
X10675777Y-14834579D01*
X10675777Y-14834579D02*
X10685301Y-14872674D01*
X10685301Y-14872674D02*
X10685301Y-14920293D01*
X10685301Y-14920293D02*
X10675777Y-14958388D01*
X10675777Y-14958388D02*
X10666253Y-14977436D01*
X10666253Y-14977436D02*
X10656729Y-14986960D01*
X10656729Y-14986960D02*
X10637682Y-14996484D01*
X10637682Y-14996484D02*
X10618634Y-14996484D01*
X10618634Y-14996484D02*
X10599587Y-14986960D01*
X10599587Y-14986960D02*
X10590063Y-14977436D01*
X10590063Y-14977436D02*
X10580539Y-14958388D01*
X10580539Y-14958388D02*
X10571015Y-14920293D01*
X10571015Y-14920293D02*
X10571015Y-14872674D01*
X10571015Y-14872674D02*
X10580539Y-14834579D01*
X10580539Y-14834579D02*
X10590063Y-14815531D01*
X10590063Y-14815531D02*
X10599587Y-14806008D01*
X10599587Y-14806008D02*
X10618634Y-14796484D01*
X10771015Y-14977436D02*
X10780539Y-14986960D01*
X10780539Y-14986960D02*
X10771015Y-14996484D01*
X10771015Y-14996484D02*
X10761491Y-14986960D01*
X10761491Y-14986960D02*
X10771015Y-14977436D01*
X10771015Y-14977436D02*
X10771015Y-14996484D01*
X10971015Y-14996484D02*
X10856729Y-14996484D01*
X10913872Y-14996484D02*
X10913872Y-14796484D01*
X10913872Y-14796484D02*
X10894825Y-14825055D01*
X10894825Y-14825055D02*
X10875777Y-14844103D01*
X10875777Y-14844103D02*
X10856729Y-14853627D01*
X11047206Y-14815531D02*
X11056729Y-14806008D01*
X11056729Y-14806008D02*
X11075777Y-14796484D01*
X11075777Y-14796484D02*
X11123396Y-14796484D01*
X11123396Y-14796484D02*
X11142444Y-14806008D01*
X11142444Y-14806008D02*
X11151968Y-14815531D01*
X11151968Y-14815531D02*
X11161491Y-14834579D01*
X11161491Y-14834579D02*
X11161491Y-14853627D01*
X11161491Y-14853627D02*
X11151968Y-14882198D01*
X11151968Y-14882198D02*
X11037682Y-14996484D01*
X11037682Y-14996484D02*
X11161491Y-14996484D01*
X11332920Y-14796484D02*
X11294825Y-14796484D01*
X11294825Y-14796484D02*
X11275777Y-14806008D01*
X11275777Y-14806008D02*
X11266253Y-14815531D01*
X11266253Y-14815531D02*
X11247206Y-14844103D01*
X11247206Y-14844103D02*
X11237682Y-14882198D01*
X11237682Y-14882198D02*
X11237682Y-14958388D01*
X11237682Y-14958388D02*
X11247206Y-14977436D01*
X11247206Y-14977436D02*
X11256729Y-14986960D01*
X11256729Y-14986960D02*
X11275777Y-14996484D01*
X11275777Y-14996484D02*
X11313872Y-14996484D01*
X11313872Y-14996484D02*
X11332920Y-14986960D01*
X11332920Y-14986960D02*
X11342444Y-14977436D01*
X11342444Y-14977436D02*
X11351967Y-14958388D01*
X11351967Y-14958388D02*
X11351967Y-14910769D01*
X11351967Y-14910769D02*
X11342444Y-14891722D01*
X11342444Y-14891722D02*
X11332920Y-14882198D01*
X11332920Y-14882198D02*
X11313872Y-14872674D01*
X11313872Y-14872674D02*
X11275777Y-14872674D01*
X11275777Y-14872674D02*
X11256729Y-14882198D01*
X11256729Y-14882198D02*
X11247206Y-14891722D01*
X11247206Y-14891722D02*
X11237682Y-14910769D01*
X11475777Y-14796484D02*
X11494825Y-14796484D01*
X11494825Y-14796484D02*
X11513872Y-14806008D01*
X11513872Y-14806008D02*
X11523396Y-14815531D01*
X11523396Y-14815531D02*
X11532920Y-14834579D01*
X11532920Y-14834579D02*
X11542444Y-14872674D01*
X11542444Y-14872674D02*
X11542444Y-14920293D01*
X11542444Y-14920293D02*
X11532920Y-14958388D01*
X11532920Y-14958388D02*
X11523396Y-14977436D01*
X11523396Y-14977436D02*
X11513872Y-14986960D01*
X11513872Y-14986960D02*
X11494825Y-14996484D01*
X11494825Y-14996484D02*
X11475777Y-14996484D01*
X11475777Y-14996484D02*
X11456729Y-14986960D01*
X11456729Y-14986960D02*
X11447206Y-14977436D01*
X11447206Y-14977436D02*
X11437682Y-14958388D01*
X11437682Y-14958388D02*
X11428158Y-14920293D01*
X11428158Y-14920293D02*
X11428158Y-14872674D01*
X11428158Y-14872674D02*
X11437682Y-14834579D01*
X11437682Y-14834579D02*
X11447206Y-14815531D01*
X11447206Y-14815531D02*
X11456729Y-14806008D01*
X11456729Y-14806008D02*
X11475777Y-14796484D01*
X11618634Y-14796484D02*
X11618634Y-14834579D01*
X11694825Y-14796484D02*
X11694825Y-14834579D01*
X11990063Y-15072674D02*
X11980539Y-15063150D01*
X11980539Y-15063150D02*
X11961491Y-15034579D01*
X11961491Y-15034579D02*
X11951968Y-15015531D01*
X11951968Y-15015531D02*
X11942444Y-14986960D01*
X11942444Y-14986960D02*
X11932920Y-14939341D01*
X11932920Y-14939341D02*
X11932920Y-14901246D01*
X11932920Y-14901246D02*
X11942444Y-14853627D01*
X11942444Y-14853627D02*
X11951968Y-14825055D01*
X11951968Y-14825055D02*
X11961491Y-14806008D01*
X11961491Y-14806008D02*
X11980539Y-14777436D01*
X11980539Y-14777436D02*
X11990063Y-14767912D01*
X12151968Y-14863150D02*
X12151968Y-14996484D01*
X12104348Y-14786960D02*
X12056729Y-14929817D01*
X12056729Y-14929817D02*
X12180539Y-14929817D01*
X12409110Y-14996484D02*
X12409110Y-14796484D01*
X12494825Y-14996484D02*
X12494825Y-14891722D01*
X12494825Y-14891722D02*
X12485301Y-14872674D01*
X12485301Y-14872674D02*
X12466253Y-14863150D01*
X12466253Y-14863150D02*
X12437682Y-14863150D01*
X12437682Y-14863150D02*
X12418634Y-14872674D01*
X12418634Y-14872674D02*
X12409110Y-14882198D01*
X12618634Y-14996484D02*
X12599587Y-14986960D01*
X12599587Y-14986960D02*
X12590063Y-14977436D01*
X12590063Y-14977436D02*
X12580539Y-14958388D01*
X12580539Y-14958388D02*
X12580539Y-14901246D01*
X12580539Y-14901246D02*
X12590063Y-14882198D01*
X12590063Y-14882198D02*
X12599587Y-14872674D01*
X12599587Y-14872674D02*
X12618634Y-14863150D01*
X12618634Y-14863150D02*
X12647206Y-14863150D01*
X12647206Y-14863150D02*
X12666253Y-14872674D01*
X12666253Y-14872674D02*
X12675777Y-14882198D01*
X12675777Y-14882198D02*
X12685301Y-14901246D01*
X12685301Y-14901246D02*
X12685301Y-14958388D01*
X12685301Y-14958388D02*
X12675777Y-14977436D01*
X12675777Y-14977436D02*
X12666253Y-14986960D01*
X12666253Y-14986960D02*
X12647206Y-14996484D01*
X12647206Y-14996484D02*
X12618634Y-14996484D01*
X12799587Y-14996484D02*
X12780539Y-14986960D01*
X12780539Y-14986960D02*
X12771015Y-14967912D01*
X12771015Y-14967912D02*
X12771015Y-14796484D01*
X12951968Y-14986960D02*
X12932920Y-14996484D01*
X12932920Y-14996484D02*
X12894825Y-14996484D01*
X12894825Y-14996484D02*
X12875777Y-14986960D01*
X12875777Y-14986960D02*
X12866253Y-14967912D01*
X12866253Y-14967912D02*
X12866253Y-14891722D01*
X12866253Y-14891722D02*
X12875777Y-14872674D01*
X12875777Y-14872674D02*
X12894825Y-14863150D01*
X12894825Y-14863150D02*
X12932920Y-14863150D01*
X12932920Y-14863150D02*
X12951968Y-14872674D01*
X12951968Y-14872674D02*
X12961491Y-14891722D01*
X12961491Y-14891722D02*
X12961491Y-14910769D01*
X12961491Y-14910769D02*
X12866253Y-14929817D01*
X13037682Y-14986960D02*
X13056730Y-14996484D01*
X13056730Y-14996484D02*
X13094825Y-14996484D01*
X13094825Y-14996484D02*
X13113872Y-14986960D01*
X13113872Y-14986960D02*
X13123396Y-14967912D01*
X13123396Y-14967912D02*
X13123396Y-14958388D01*
X13123396Y-14958388D02*
X13113872Y-14939341D01*
X13113872Y-14939341D02*
X13094825Y-14929817D01*
X13094825Y-14929817D02*
X13066253Y-14929817D01*
X13066253Y-14929817D02*
X13047206Y-14920293D01*
X13047206Y-14920293D02*
X13037682Y-14901246D01*
X13037682Y-14901246D02*
X13037682Y-14891722D01*
X13037682Y-14891722D02*
X13047206Y-14872674D01*
X13047206Y-14872674D02*
X13066253Y-14863150D01*
X13066253Y-14863150D02*
X13094825Y-14863150D01*
X13094825Y-14863150D02*
X13113872Y-14872674D01*
X13190063Y-15072674D02*
X13199587Y-15063150D01*
X13199587Y-15063150D02*
X13218634Y-15034579D01*
X13218634Y-15034579D02*
X13228158Y-15015531D01*
X13228158Y-15015531D02*
X13237682Y-14986960D01*
X13237682Y-14986960D02*
X13247206Y-14939341D01*
X13247206Y-14939341D02*
X13247206Y-14901246D01*
X13247206Y-14901246D02*
X13237682Y-14853627D01*
X13237682Y-14853627D02*
X13228158Y-14825055D01*
X13228158Y-14825055D02*
X13218634Y-14806008D01*
X13218634Y-14806008D02*
X13199587Y-14777436D01*
X13199587Y-14777436D02*
X13190063Y-14767912D01*
X13551968Y-15072674D02*
X13542444Y-15063150D01*
X13542444Y-15063150D02*
X13523396Y-15034579D01*
X13523396Y-15034579D02*
X13513872Y-15015531D01*
X13513872Y-15015531D02*
X13504349Y-14986960D01*
X13504349Y-14986960D02*
X13494825Y-14939341D01*
X13494825Y-14939341D02*
X13494825Y-14901246D01*
X13494825Y-14901246D02*
X13504349Y-14853627D01*
X13504349Y-14853627D02*
X13513872Y-14825055D01*
X13513872Y-14825055D02*
X13523396Y-14806008D01*
X13523396Y-14806008D02*
X13542444Y-14777436D01*
X13542444Y-14777436D02*
X13551968Y-14767912D01*
X13628158Y-14863150D02*
X13628158Y-14996484D01*
X13628158Y-14882198D02*
X13637682Y-14872674D01*
X13637682Y-14872674D02*
X13656730Y-14863150D01*
X13656730Y-14863150D02*
X13685301Y-14863150D01*
X13685301Y-14863150D02*
X13704349Y-14872674D01*
X13704349Y-14872674D02*
X13713872Y-14891722D01*
X13713872Y-14891722D02*
X13713872Y-14996484D01*
X13837682Y-14996484D02*
X13818634Y-14986960D01*
X13818634Y-14986960D02*
X13809111Y-14977436D01*
X13809111Y-14977436D02*
X13799587Y-14958388D01*
X13799587Y-14958388D02*
X13799587Y-14901246D01*
X13799587Y-14901246D02*
X13809111Y-14882198D01*
X13809111Y-14882198D02*
X13818634Y-14872674D01*
X13818634Y-14872674D02*
X13837682Y-14863150D01*
X13837682Y-14863150D02*
X13866253Y-14863150D01*
X13866253Y-14863150D02*
X13885301Y-14872674D01*
X13885301Y-14872674D02*
X13894825Y-14882198D01*
X13894825Y-14882198D02*
X13904349Y-14901246D01*
X13904349Y-14901246D02*
X13904349Y-14958388D01*
X13904349Y-14958388D02*
X13894825Y-14977436D01*
X13894825Y-14977436D02*
X13885301Y-14986960D01*
X13885301Y-14986960D02*
X13866253Y-14996484D01*
X13866253Y-14996484D02*
X13837682Y-14996484D01*
X13961492Y-14863150D02*
X14037682Y-14863150D01*
X13990063Y-14796484D02*
X13990063Y-14967912D01*
X13990063Y-14967912D02*
X13999587Y-14986960D01*
X13999587Y-14986960D02*
X14018634Y-14996484D01*
X14018634Y-14996484D02*
X14037682Y-14996484D01*
X14256730Y-14863150D02*
X14256730Y-15063150D01*
X14256730Y-14872674D02*
X14275777Y-14863150D01*
X14275777Y-14863150D02*
X14313873Y-14863150D01*
X14313873Y-14863150D02*
X14332920Y-14872674D01*
X14332920Y-14872674D02*
X14342444Y-14882198D01*
X14342444Y-14882198D02*
X14351968Y-14901246D01*
X14351968Y-14901246D02*
X14351968Y-14958388D01*
X14351968Y-14958388D02*
X14342444Y-14977436D01*
X14342444Y-14977436D02*
X14332920Y-14986960D01*
X14332920Y-14986960D02*
X14313873Y-14996484D01*
X14313873Y-14996484D02*
X14275777Y-14996484D01*
X14275777Y-14996484D02*
X14256730Y-14986960D01*
X14466253Y-14996484D02*
X14447206Y-14986960D01*
X14447206Y-14986960D02*
X14437682Y-14967912D01*
X14437682Y-14967912D02*
X14437682Y-14796484D01*
X14628158Y-14996484D02*
X14628158Y-14891722D01*
X14628158Y-14891722D02*
X14618634Y-14872674D01*
X14618634Y-14872674D02*
X14599587Y-14863150D01*
X14599587Y-14863150D02*
X14561492Y-14863150D01*
X14561492Y-14863150D02*
X14542444Y-14872674D01*
X14628158Y-14986960D02*
X14609111Y-14996484D01*
X14609111Y-14996484D02*
X14561492Y-14996484D01*
X14561492Y-14996484D02*
X14542444Y-14986960D01*
X14542444Y-14986960D02*
X14532920Y-14967912D01*
X14532920Y-14967912D02*
X14532920Y-14948865D01*
X14532920Y-14948865D02*
X14542444Y-14929817D01*
X14542444Y-14929817D02*
X14561492Y-14920293D01*
X14561492Y-14920293D02*
X14609111Y-14920293D01*
X14609111Y-14920293D02*
X14628158Y-14910769D01*
X14694825Y-14863150D02*
X14771015Y-14863150D01*
X14723396Y-14796484D02*
X14723396Y-14967912D01*
X14723396Y-14967912D02*
X14732920Y-14986960D01*
X14732920Y-14986960D02*
X14751968Y-14996484D01*
X14751968Y-14996484D02*
X14771015Y-14996484D01*
X14913873Y-14986960D02*
X14894825Y-14996484D01*
X14894825Y-14996484D02*
X14856730Y-14996484D01*
X14856730Y-14996484D02*
X14837682Y-14986960D01*
X14837682Y-14986960D02*
X14828158Y-14967912D01*
X14828158Y-14967912D02*
X14828158Y-14891722D01*
X14828158Y-14891722D02*
X14837682Y-14872674D01*
X14837682Y-14872674D02*
X14856730Y-14863150D01*
X14856730Y-14863150D02*
X14894825Y-14863150D01*
X14894825Y-14863150D02*
X14913873Y-14872674D01*
X14913873Y-14872674D02*
X14923396Y-14891722D01*
X14923396Y-14891722D02*
X14923396Y-14910769D01*
X14923396Y-14910769D02*
X14828158Y-14929817D01*
X15094825Y-14996484D02*
X15094825Y-14796484D01*
X15094825Y-14986960D02*
X15075777Y-14996484D01*
X15075777Y-14996484D02*
X15037682Y-14996484D01*
X15037682Y-14996484D02*
X15018634Y-14986960D01*
X15018634Y-14986960D02*
X15009111Y-14977436D01*
X15009111Y-14977436D02*
X14999587Y-14958388D01*
X14999587Y-14958388D02*
X14999587Y-14901246D01*
X14999587Y-14901246D02*
X15009111Y-14882198D01*
X15009111Y-14882198D02*
X15018634Y-14872674D01*
X15018634Y-14872674D02*
X15037682Y-14863150D01*
X15037682Y-14863150D02*
X15075777Y-14863150D01*
X15075777Y-14863150D02*
X15094825Y-14872674D01*
X15171015Y-15072674D02*
X15180539Y-15063150D01*
X15180539Y-15063150D02*
X15199587Y-15034579D01*
X15199587Y-15034579D02*
X15209111Y-15015531D01*
X15209111Y-15015531D02*
X15218634Y-14986960D01*
X15218634Y-14986960D02*
X15228158Y-14939341D01*
X15228158Y-14939341D02*
X15228158Y-14901246D01*
X15228158Y-14901246D02*
X15218634Y-14853627D01*
X15218634Y-14853627D02*
X15209111Y-14825055D01*
X15209111Y-14825055D02*
X15199587Y-14806008D01*
X15199587Y-14806008D02*
X15180539Y-14777436D01*
X15180539Y-14777436D02*
X15171015Y-14767912D01*
M02*
