%TF.GenerationSoftware,KiCad,Pcbnew,8.0.0*%
%TF.CreationDate,2024-04-26T14:48:54+07:00*%
%TF.ProjectId,tugas-akhir,74756761-732d-4616-9b68-69722e6b6963,0*%
%TF.SameCoordinates,Original*%
%TF.FileFunction,Drillmap*%
%TF.FilePolarity,Positive*%
%FSLAX45Y45*%
G04 Gerber Fmt 4.5, Leading zero omitted, Abs format (unit mm)*
G04 Created by KiCad (PCBNEW 8.0.0) date 2024-04-26 14:48:54*
%MOMM*%
%LPD*%
G01*
G04 APERTURE LIST*
%ADD10C,0.200000*%
%ADD11C,0.100000*%
%ADD12C,0.101600*%
%ADD13C,0.102000*%
%ADD14C,0.110000*%
%ADD15C,0.130000*%
%ADD16C,0.320000*%
G04 APERTURE END LIST*
D10*
X21850000Y-12925000D02*
X6650000Y-12925000D01*
X6650000Y-12925000D02*
G75*
G02*
X6500000Y-12775000I0J150000D01*
G01*
X6650000Y-5375000D02*
X21850000Y-5375000D01*
X22000000Y-5525000D02*
X22000000Y-12775000D01*
X6500000Y-5525000D02*
G75*
G02*
X6650000Y-5375000I150000J0D01*
G01*
X6500000Y-12775000D02*
X6500000Y-5525000D01*
X21850000Y-5375000D02*
G75*
G02*
X22000000Y-5525000I0J-150000D01*
G01*
X22000000Y-12775000D02*
G75*
G02*
X21850000Y-12925000I-150000J0D01*
G01*
D11*
X16295500Y-8570000D02*
X16365500Y-8640000D01*
X16365500Y-8570000D02*
X16295500Y-8640000D01*
X16803500Y-8570000D02*
X16873500Y-8640000D01*
X16873500Y-8570000D02*
X16803500Y-8640000D01*
X17370500Y-7570000D02*
X17440500Y-7640000D01*
X17440500Y-7570000D02*
X17370500Y-7640000D01*
X17878500Y-7570000D02*
X17948500Y-7640000D01*
X17948500Y-7570000D02*
X17878500Y-7640000D01*
X18214500Y-10006000D02*
X18284500Y-10076000D01*
X18284500Y-10006000D02*
X18214500Y-10076000D01*
X18214500Y-10514000D02*
X18284500Y-10584000D01*
X18284500Y-10514000D02*
X18214500Y-10584000D01*
X18345500Y-8570000D02*
X18415500Y-8640000D01*
X18415500Y-8570000D02*
X18345500Y-8640000D01*
X18789500Y-9981000D02*
X18859500Y-10051000D01*
X18859500Y-9981000D02*
X18789500Y-10051000D01*
X18789500Y-10489000D02*
X18859500Y-10559000D01*
X18859500Y-10489000D02*
X18789500Y-10559000D01*
X18853500Y-8570000D02*
X18923500Y-8640000D01*
X18923500Y-8570000D02*
X18853500Y-8640000D01*
X19289500Y-9981000D02*
X19359500Y-10051000D01*
X19359500Y-9981000D02*
X19289500Y-10051000D01*
X19289500Y-10489000D02*
X19359500Y-10559000D01*
X19359500Y-10489000D02*
X19289500Y-10559000D01*
X18610000Y-9381000D02*
G75*
G02*
X18535000Y-9381000I-37500J0D01*
G01*
X18535000Y-9381000D02*
G75*
G02*
X18610000Y-9381000I37500J0D01*
G01*
X18737000Y-9381000D02*
G75*
G02*
X18662000Y-9381000I-37500J0D01*
G01*
X18662000Y-9381000D02*
G75*
G02*
X18737000Y-9381000I37500J0D01*
G01*
X18864000Y-9381000D02*
G75*
G02*
X18789000Y-9381000I-37500J0D01*
G01*
X18789000Y-9381000D02*
G75*
G02*
X18864000Y-9381000I37500J0D01*
G01*
X7357500Y-9475000D02*
X7357500Y-9555000D01*
X7317500Y-9515000D02*
X7397500Y-9515000D01*
X7357500Y-9825000D02*
X7357500Y-9905000D01*
X7317500Y-9865000D02*
X7397500Y-9865000D01*
X7384500Y-7040000D02*
X7384500Y-7120000D01*
X7344500Y-7080000D02*
X7424500Y-7080000D01*
X7384500Y-7390000D02*
X7384500Y-7470000D01*
X7344500Y-7430000D02*
X7424500Y-7430000D01*
X12134500Y-10060000D02*
X12134500Y-10140000D01*
X12094500Y-10100000D02*
X12174500Y-10100000D01*
X12134500Y-10410000D02*
X12134500Y-10490000D01*
X12094500Y-10450000D02*
X12174500Y-10450000D01*
X17464820Y-8636820D02*
X17464820Y-8573180D01*
X17401180Y-8573180D01*
X17401180Y-8636820D01*
X17464820Y-8636820D01*
X17718820Y-8636820D02*
X17718820Y-8573180D01*
X17655180Y-8573180D01*
X17655180Y-8636820D01*
X17718820Y-8636820D01*
X18381320Y-11251820D02*
X18381320Y-11188180D01*
X18317680Y-11188180D01*
X18317680Y-11251820D01*
X18381320Y-11251820D01*
X18564820Y-7636820D02*
X18564820Y-7573180D01*
X18501180Y-7573180D01*
X18501180Y-7636820D01*
X18564820Y-7636820D01*
X18635320Y-11251820D02*
X18635320Y-11188180D01*
X18571680Y-11188180D01*
X18571680Y-11251820D01*
X18635320Y-11251820D01*
X18818820Y-7636820D02*
X18818820Y-7573180D01*
X18755180Y-7573180D01*
X18755180Y-7636820D01*
X18818820Y-7636820D01*
X19106320Y-11251820D02*
X19106320Y-11188180D01*
X19042680Y-11188180D01*
X19042680Y-11251820D01*
X19106320Y-11251820D01*
X19360320Y-11251820D02*
X19360320Y-11188180D01*
X19296680Y-11188180D01*
X19296680Y-11251820D01*
X19360320Y-11251820D01*
X19414820Y-8636820D02*
X19414820Y-8573180D01*
X19351180Y-8573180D01*
X19351180Y-8636820D01*
X19414820Y-8636820D01*
X19668820Y-8636820D02*
X19668820Y-8573180D01*
X19605180Y-8573180D01*
X19605180Y-8636820D01*
X19668820Y-8636820D01*
X7804500Y-6330000D02*
X7854500Y-6280000D01*
X7804500Y-6230000D01*
X7754500Y-6280000D01*
X7804500Y-6330000D01*
X7827500Y-8765000D02*
X7877500Y-8715000D01*
X7827500Y-8665000D01*
X7777500Y-8715000D01*
X7827500Y-8765000D01*
X8058500Y-6330000D02*
X8108500Y-6280000D01*
X8058500Y-6230000D01*
X8008500Y-6280000D01*
X8058500Y-6330000D01*
X8081500Y-8765000D02*
X8131500Y-8715000D01*
X8081500Y-8665000D01*
X8031500Y-8715000D01*
X8081500Y-8765000D01*
X8312500Y-6330000D02*
X8362500Y-6280000D01*
X8312500Y-6230000D01*
X8262500Y-6280000D01*
X8312500Y-6330000D01*
X8335500Y-8765000D02*
X8385500Y-8715000D01*
X8335500Y-8665000D01*
X8285500Y-8715000D01*
X8335500Y-8765000D01*
X8566500Y-6330000D02*
X8616500Y-6280000D01*
X8566500Y-6230000D01*
X8516500Y-6280000D01*
X8566500Y-6330000D01*
X8589500Y-8765000D02*
X8639500Y-8715000D01*
X8589500Y-8665000D01*
X8539500Y-8715000D01*
X8589500Y-8765000D01*
X9734500Y-6501000D02*
X9784500Y-6451000D01*
X9734500Y-6401000D01*
X9684500Y-6451000D01*
X9734500Y-6501000D01*
X9734500Y-6755000D02*
X9784500Y-6705000D01*
X9734500Y-6655000D01*
X9684500Y-6705000D01*
X9734500Y-6755000D01*
X9734500Y-7009000D02*
X9784500Y-6959000D01*
X9734500Y-6909000D01*
X9684500Y-6959000D01*
X9734500Y-7009000D01*
X9734500Y-7630000D02*
X9784500Y-7580000D01*
X9734500Y-7530000D01*
X9684500Y-7580000D01*
X9734500Y-7630000D01*
X9734500Y-7884000D02*
X9784500Y-7834000D01*
X9734500Y-7784000D01*
X9684500Y-7834000D01*
X9734500Y-7884000D01*
X9734500Y-8138000D02*
X9784500Y-8088000D01*
X9734500Y-8038000D01*
X9684500Y-8088000D01*
X9734500Y-8138000D01*
X9734500Y-8780000D02*
X9784500Y-8730000D01*
X9734500Y-8680000D01*
X9684500Y-8730000D01*
X9734500Y-8780000D01*
X9734500Y-9034000D02*
X9784500Y-8984000D01*
X9734500Y-8934000D01*
X9684500Y-8984000D01*
X9734500Y-9034000D01*
X9734500Y-9288000D02*
X9784500Y-9238000D01*
X9734500Y-9188000D01*
X9684500Y-9238000D01*
X9734500Y-9288000D01*
X10952500Y-11230000D02*
X11002500Y-11180000D01*
X10952500Y-11130000D01*
X10902500Y-11180000D01*
X10952500Y-11230000D01*
X11206500Y-11230000D02*
X11256500Y-11180000D01*
X11206500Y-11130000D01*
X11156500Y-11180000D01*
X11206500Y-11230000D01*
X11460500Y-11230000D02*
X11510500Y-11180000D01*
X11460500Y-11130000D01*
X11410500Y-11180000D01*
X11460500Y-11230000D01*
X11714500Y-11230000D02*
X11764500Y-11180000D01*
X11714500Y-11130000D01*
X11664500Y-11180000D01*
X11714500Y-11230000D01*
X13302500Y-9566000D02*
X13352500Y-9516000D01*
X13302500Y-9466000D01*
X13252500Y-9516000D01*
X13302500Y-9566000D01*
X13302500Y-11344000D02*
X13352500Y-11294000D01*
X13302500Y-11244000D01*
X13252500Y-11294000D01*
X13302500Y-11344000D01*
X17366500Y-9566000D02*
X17416500Y-9516000D01*
X17366500Y-9466000D01*
X17316500Y-9516000D01*
X17366500Y-9566000D01*
X17366500Y-11344000D02*
X17416500Y-11294000D01*
X17366500Y-11244000D01*
X17316500Y-11294000D01*
X17366500Y-11344000D01*
X21249500Y-9420000D02*
X21299500Y-9370000D01*
X21249500Y-9320000D01*
X21199500Y-9370000D01*
X21249500Y-9420000D01*
X21329500Y-10115000D02*
X21379500Y-10065000D01*
X21329500Y-10015000D01*
X21279500Y-10065000D01*
X21329500Y-10115000D01*
X21329500Y-11315000D02*
X21379500Y-11265000D01*
X21329500Y-11215000D01*
X21279500Y-11265000D01*
X21329500Y-11315000D01*
X21503500Y-9420000D02*
X21553500Y-9370000D01*
X21503500Y-9320000D01*
X21453500Y-9370000D01*
X21503500Y-9420000D01*
D12*
X7244700Y-6644200D02*
X7346300Y-6745800D01*
X7346300Y-6644200D02*
X7244700Y-6745800D01*
X7346300Y-6695000D02*
G75*
G02*
X7244700Y-6695000I-50800J0D01*
G01*
X7244700Y-6695000D02*
G75*
G02*
X7346300Y-6695000I50800J0D01*
G01*
X7244700Y-7914200D02*
X7346300Y-8015800D01*
X7346300Y-7914200D02*
X7244700Y-8015800D01*
X7346300Y-7965000D02*
G75*
G02*
X7244700Y-7965000I-50800J0D01*
G01*
X7244700Y-7965000D02*
G75*
G02*
X7346300Y-7965000I50800J0D01*
G01*
X7267700Y-9079200D02*
X7369300Y-9180800D01*
X7369300Y-9079200D02*
X7267700Y-9180800D01*
X7369300Y-9130000D02*
G75*
G02*
X7267700Y-9130000I-50800J0D01*
G01*
X7267700Y-9130000D02*
G75*
G02*
X7369300Y-9130000I50800J0D01*
G01*
X7267700Y-10349200D02*
X7369300Y-10450800D01*
X7369300Y-10349200D02*
X7267700Y-10450800D01*
X7369300Y-10400000D02*
G75*
G02*
X7267700Y-10400000I-50800J0D01*
G01*
X7267700Y-10400000D02*
G75*
G02*
X7369300Y-10400000I50800J0D01*
G01*
X7498700Y-6644200D02*
X7600300Y-6745800D01*
X7600300Y-6644200D02*
X7498700Y-6745800D01*
X7600300Y-6695000D02*
G75*
G02*
X7498700Y-6695000I-50800J0D01*
G01*
X7498700Y-6695000D02*
G75*
G02*
X7600300Y-6695000I50800J0D01*
G01*
X7498700Y-7914200D02*
X7600300Y-8015800D01*
X7600300Y-7914200D02*
X7498700Y-8015800D01*
X7600300Y-7965000D02*
G75*
G02*
X7498700Y-7965000I-50800J0D01*
G01*
X7498700Y-7965000D02*
G75*
G02*
X7600300Y-7965000I50800J0D01*
G01*
X7521700Y-9079200D02*
X7623300Y-9180800D01*
X7623300Y-9079200D02*
X7521700Y-9180800D01*
X7623300Y-9130000D02*
G75*
G02*
X7521700Y-9130000I-50800J0D01*
G01*
X7521700Y-9130000D02*
G75*
G02*
X7623300Y-9130000I50800J0D01*
G01*
X7521700Y-10349200D02*
X7623300Y-10450800D01*
X7623300Y-10349200D02*
X7521700Y-10450800D01*
X7623300Y-10400000D02*
G75*
G02*
X7521700Y-10400000I-50800J0D01*
G01*
X7521700Y-10400000D02*
G75*
G02*
X7623300Y-10400000I50800J0D01*
G01*
X7752700Y-6644200D02*
X7854300Y-6745800D01*
X7854300Y-6644200D02*
X7752700Y-6745800D01*
X7854300Y-6695000D02*
G75*
G02*
X7752700Y-6695000I-50800J0D01*
G01*
X7752700Y-6695000D02*
G75*
G02*
X7854300Y-6695000I50800J0D01*
G01*
X7752700Y-7914200D02*
X7854300Y-8015800D01*
X7854300Y-7914200D02*
X7752700Y-8015800D01*
X7854300Y-7965000D02*
G75*
G02*
X7752700Y-7965000I-50800J0D01*
G01*
X7752700Y-7965000D02*
G75*
G02*
X7854300Y-7965000I50800J0D01*
G01*
X7775700Y-9079200D02*
X7877300Y-9180800D01*
X7877300Y-9079200D02*
X7775700Y-9180800D01*
X7877300Y-9130000D02*
G75*
G02*
X7775700Y-9130000I-50800J0D01*
G01*
X7775700Y-9130000D02*
G75*
G02*
X7877300Y-9130000I50800J0D01*
G01*
X7775700Y-10349200D02*
X7877300Y-10450800D01*
X7877300Y-10349200D02*
X7775700Y-10450800D01*
X7877300Y-10400000D02*
G75*
G02*
X7775700Y-10400000I-50800J0D01*
G01*
X7775700Y-10400000D02*
G75*
G02*
X7877300Y-10400000I50800J0D01*
G01*
X8006700Y-6644200D02*
X8108300Y-6745800D01*
X8108300Y-6644200D02*
X8006700Y-6745800D01*
X8108300Y-6695000D02*
G75*
G02*
X8006700Y-6695000I-50800J0D01*
G01*
X8006700Y-6695000D02*
G75*
G02*
X8108300Y-6695000I50800J0D01*
G01*
X8006700Y-7914200D02*
X8108300Y-8015800D01*
X8108300Y-7914200D02*
X8006700Y-8015800D01*
X8108300Y-7965000D02*
G75*
G02*
X8006700Y-7965000I-50800J0D01*
G01*
X8006700Y-7965000D02*
G75*
G02*
X8108300Y-7965000I50800J0D01*
G01*
X8029700Y-9079200D02*
X8131300Y-9180800D01*
X8131300Y-9079200D02*
X8029700Y-9180800D01*
X8131300Y-9130000D02*
G75*
G02*
X8029700Y-9130000I-50800J0D01*
G01*
X8029700Y-9130000D02*
G75*
G02*
X8131300Y-9130000I50800J0D01*
G01*
X8029700Y-10349200D02*
X8131300Y-10450800D01*
X8131300Y-10349200D02*
X8029700Y-10450800D01*
X8131300Y-10400000D02*
G75*
G02*
X8029700Y-10400000I-50800J0D01*
G01*
X8029700Y-10400000D02*
G75*
G02*
X8131300Y-10400000I50800J0D01*
G01*
X8260700Y-6644200D02*
X8362300Y-6745800D01*
X8362300Y-6644200D02*
X8260700Y-6745800D01*
X8362300Y-6695000D02*
G75*
G02*
X8260700Y-6695000I-50800J0D01*
G01*
X8260700Y-6695000D02*
G75*
G02*
X8362300Y-6695000I50800J0D01*
G01*
X8260700Y-7914200D02*
X8362300Y-8015800D01*
X8362300Y-7914200D02*
X8260700Y-8015800D01*
X8362300Y-7965000D02*
G75*
G02*
X8260700Y-7965000I-50800J0D01*
G01*
X8260700Y-7965000D02*
G75*
G02*
X8362300Y-7965000I50800J0D01*
G01*
X8283700Y-9079200D02*
X8385300Y-9180800D01*
X8385300Y-9079200D02*
X8283700Y-9180800D01*
X8385300Y-9130000D02*
G75*
G02*
X8283700Y-9130000I-50800J0D01*
G01*
X8283700Y-9130000D02*
G75*
G02*
X8385300Y-9130000I50800J0D01*
G01*
X8283700Y-10349200D02*
X8385300Y-10450800D01*
X8385300Y-10349200D02*
X8283700Y-10450800D01*
X8385300Y-10400000D02*
G75*
G02*
X8283700Y-10400000I-50800J0D01*
G01*
X8283700Y-10400000D02*
G75*
G02*
X8385300Y-10400000I50800J0D01*
G01*
X8514700Y-6644200D02*
X8616300Y-6745800D01*
X8616300Y-6644200D02*
X8514700Y-6745800D01*
X8616300Y-6695000D02*
G75*
G02*
X8514700Y-6695000I-50800J0D01*
G01*
X8514700Y-6695000D02*
G75*
G02*
X8616300Y-6695000I50800J0D01*
G01*
X8514700Y-7914200D02*
X8616300Y-8015800D01*
X8616300Y-7914200D02*
X8514700Y-8015800D01*
X8616300Y-7965000D02*
G75*
G02*
X8514700Y-7965000I-50800J0D01*
G01*
X8514700Y-7965000D02*
G75*
G02*
X8616300Y-7965000I50800J0D01*
G01*
X8537700Y-9079200D02*
X8639300Y-9180800D01*
X8639300Y-9079200D02*
X8537700Y-9180800D01*
X8639300Y-9130000D02*
G75*
G02*
X8537700Y-9130000I-50800J0D01*
G01*
X8537700Y-9130000D02*
G75*
G02*
X8639300Y-9130000I50800J0D01*
G01*
X8537700Y-10349200D02*
X8639300Y-10450800D01*
X8639300Y-10349200D02*
X8537700Y-10450800D01*
X8639300Y-10400000D02*
G75*
G02*
X8537700Y-10400000I-50800J0D01*
G01*
X8537700Y-10400000D02*
G75*
G02*
X8639300Y-10400000I50800J0D01*
G01*
X8768700Y-6644200D02*
X8870300Y-6745800D01*
X8870300Y-6644200D02*
X8768700Y-6745800D01*
X8870300Y-6695000D02*
G75*
G02*
X8768700Y-6695000I-50800J0D01*
G01*
X8768700Y-6695000D02*
G75*
G02*
X8870300Y-6695000I50800J0D01*
G01*
X8768700Y-7914200D02*
X8870300Y-8015800D01*
X8870300Y-7914200D02*
X8768700Y-8015800D01*
X8870300Y-7965000D02*
G75*
G02*
X8768700Y-7965000I-50800J0D01*
G01*
X8768700Y-7965000D02*
G75*
G02*
X8870300Y-7965000I50800J0D01*
G01*
X8791700Y-9079200D02*
X8893300Y-9180800D01*
X8893300Y-9079200D02*
X8791700Y-9180800D01*
X8893300Y-9130000D02*
G75*
G02*
X8791700Y-9130000I-50800J0D01*
G01*
X8791700Y-9130000D02*
G75*
G02*
X8893300Y-9130000I50800J0D01*
G01*
X8791700Y-10349200D02*
X8893300Y-10450800D01*
X8893300Y-10349200D02*
X8791700Y-10450800D01*
X8893300Y-10400000D02*
G75*
G02*
X8791700Y-10400000I-50800J0D01*
G01*
X8791700Y-10400000D02*
G75*
G02*
X8893300Y-10400000I50800J0D01*
G01*
X9022700Y-6644200D02*
X9124300Y-6745800D01*
X9124300Y-6644200D02*
X9022700Y-6745800D01*
X9124300Y-6695000D02*
G75*
G02*
X9022700Y-6695000I-50800J0D01*
G01*
X9022700Y-6695000D02*
G75*
G02*
X9124300Y-6695000I50800J0D01*
G01*
X9022700Y-7914200D02*
X9124300Y-8015800D01*
X9124300Y-7914200D02*
X9022700Y-8015800D01*
X9124300Y-7965000D02*
G75*
G02*
X9022700Y-7965000I-50800J0D01*
G01*
X9022700Y-7965000D02*
G75*
G02*
X9124300Y-7965000I50800J0D01*
G01*
X9045700Y-9079200D02*
X9147300Y-9180800D01*
X9147300Y-9079200D02*
X9045700Y-9180800D01*
X9147300Y-9130000D02*
G75*
G02*
X9045700Y-9130000I-50800J0D01*
G01*
X9045700Y-9130000D02*
G75*
G02*
X9147300Y-9130000I50800J0D01*
G01*
X9045700Y-10349200D02*
X9147300Y-10450800D01*
X9147300Y-10349200D02*
X9045700Y-10450800D01*
X9147300Y-10400000D02*
G75*
G02*
X9045700Y-10400000I-50800J0D01*
G01*
X9045700Y-10400000D02*
G75*
G02*
X9147300Y-10400000I50800J0D01*
G01*
X10394700Y-9494200D02*
X10496300Y-9595800D01*
X10496300Y-9494200D02*
X10394700Y-9595800D01*
X10496300Y-9545000D02*
G75*
G02*
X10394700Y-9545000I-50800J0D01*
G01*
X10394700Y-9545000D02*
G75*
G02*
X10496300Y-9545000I50800J0D01*
G01*
X10394700Y-10764200D02*
X10496300Y-10865800D01*
X10496300Y-10764200D02*
X10394700Y-10865800D01*
X10496300Y-10815000D02*
G75*
G02*
X10394700Y-10815000I-50800J0D01*
G01*
X10394700Y-10815000D02*
G75*
G02*
X10496300Y-10815000I50800J0D01*
G01*
X10648700Y-9494200D02*
X10750300Y-9595800D01*
X10750300Y-9494200D02*
X10648700Y-9595800D01*
X10750300Y-9545000D02*
G75*
G02*
X10648700Y-9545000I-50800J0D01*
G01*
X10648700Y-9545000D02*
G75*
G02*
X10750300Y-9545000I50800J0D01*
G01*
X10648700Y-10764200D02*
X10750300Y-10865800D01*
X10750300Y-10764200D02*
X10648700Y-10865800D01*
X10750300Y-10815000D02*
G75*
G02*
X10648700Y-10815000I-50800J0D01*
G01*
X10648700Y-10815000D02*
G75*
G02*
X10750300Y-10815000I50800J0D01*
G01*
X10902700Y-9494200D02*
X11004300Y-9595800D01*
X11004300Y-9494200D02*
X10902700Y-9595800D01*
X11004300Y-9545000D02*
G75*
G02*
X10902700Y-9545000I-50800J0D01*
G01*
X10902700Y-9545000D02*
G75*
G02*
X11004300Y-9545000I50800J0D01*
G01*
X10902700Y-10764200D02*
X11004300Y-10865800D01*
X11004300Y-10764200D02*
X10902700Y-10865800D01*
X11004300Y-10815000D02*
G75*
G02*
X10902700Y-10815000I-50800J0D01*
G01*
X10902700Y-10815000D02*
G75*
G02*
X11004300Y-10815000I50800J0D01*
G01*
X11156700Y-9494200D02*
X11258300Y-9595800D01*
X11258300Y-9494200D02*
X11156700Y-9595800D01*
X11258300Y-9545000D02*
G75*
G02*
X11156700Y-9545000I-50800J0D01*
G01*
X11156700Y-9545000D02*
G75*
G02*
X11258300Y-9545000I50800J0D01*
G01*
X11156700Y-10764200D02*
X11258300Y-10865800D01*
X11258300Y-10764200D02*
X11156700Y-10865800D01*
X11258300Y-10815000D02*
G75*
G02*
X11156700Y-10815000I-50800J0D01*
G01*
X11156700Y-10815000D02*
G75*
G02*
X11258300Y-10815000I50800J0D01*
G01*
X11410700Y-9494200D02*
X11512300Y-9595800D01*
X11512300Y-9494200D02*
X11410700Y-9595800D01*
X11512300Y-9545000D02*
G75*
G02*
X11410700Y-9545000I-50800J0D01*
G01*
X11410700Y-9545000D02*
G75*
G02*
X11512300Y-9545000I50800J0D01*
G01*
X11410700Y-10764200D02*
X11512300Y-10865800D01*
X11512300Y-10764200D02*
X11410700Y-10865800D01*
X11512300Y-10815000D02*
G75*
G02*
X11410700Y-10815000I-50800J0D01*
G01*
X11410700Y-10815000D02*
G75*
G02*
X11512300Y-10815000I50800J0D01*
G01*
X11664700Y-9494200D02*
X11766300Y-9595800D01*
X11766300Y-9494200D02*
X11664700Y-9595800D01*
X11766300Y-9545000D02*
G75*
G02*
X11664700Y-9545000I-50800J0D01*
G01*
X11664700Y-9545000D02*
G75*
G02*
X11766300Y-9545000I50800J0D01*
G01*
X11664700Y-10764200D02*
X11766300Y-10865800D01*
X11766300Y-10764200D02*
X11664700Y-10865800D01*
X11766300Y-10815000D02*
G75*
G02*
X11664700Y-10815000I-50800J0D01*
G01*
X11664700Y-10815000D02*
G75*
G02*
X11766300Y-10815000I50800J0D01*
G01*
X11918700Y-9494200D02*
X12020300Y-9595800D01*
X12020300Y-9494200D02*
X11918700Y-9595800D01*
X12020300Y-9545000D02*
G75*
G02*
X11918700Y-9545000I-50800J0D01*
G01*
X11918700Y-9545000D02*
G75*
G02*
X12020300Y-9545000I50800J0D01*
G01*
X11918700Y-10764200D02*
X12020300Y-10865800D01*
X12020300Y-10764200D02*
X11918700Y-10865800D01*
X12020300Y-10815000D02*
G75*
G02*
X11918700Y-10815000I-50800J0D01*
G01*
X11918700Y-10815000D02*
G75*
G02*
X12020300Y-10815000I50800J0D01*
G01*
X12172700Y-9494200D02*
X12274300Y-9595800D01*
X12274300Y-9494200D02*
X12172700Y-9595800D01*
X12274300Y-9545000D02*
G75*
G02*
X12172700Y-9545000I-50800J0D01*
G01*
X12172700Y-9545000D02*
G75*
G02*
X12274300Y-9545000I50800J0D01*
G01*
X12172700Y-10764200D02*
X12274300Y-10865800D01*
X12274300Y-10764200D02*
X12172700Y-10865800D01*
X12274300Y-10815000D02*
G75*
G02*
X12172700Y-10815000I-50800J0D01*
G01*
X12172700Y-10815000D02*
G75*
G02*
X12274300Y-10815000I50800J0D01*
G01*
D13*
X10829000Y-6309000D02*
X10931000Y-6411000D01*
X10931000Y-6309000D02*
X10829000Y-6411000D01*
X10880000Y-6309000D02*
X10880000Y-6411000D01*
X10829000Y-6360000D02*
X10931000Y-6360000D01*
X10829000Y-8849000D02*
X10931000Y-8951000D01*
X10931000Y-8849000D02*
X10829000Y-8951000D01*
X10880000Y-8849000D02*
X10880000Y-8951000D01*
X10829000Y-8900000D02*
X10931000Y-8900000D01*
X11083000Y-6309000D02*
X11185000Y-6411000D01*
X11185000Y-6309000D02*
X11083000Y-6411000D01*
X11134000Y-6309000D02*
X11134000Y-6411000D01*
X11083000Y-6360000D02*
X11185000Y-6360000D01*
X11083000Y-8849000D02*
X11185000Y-8951000D01*
X11185000Y-8849000D02*
X11083000Y-8951000D01*
X11134000Y-8849000D02*
X11134000Y-8951000D01*
X11083000Y-8900000D02*
X11185000Y-8900000D01*
X11337000Y-6309000D02*
X11439000Y-6411000D01*
X11439000Y-6309000D02*
X11337000Y-6411000D01*
X11388000Y-6309000D02*
X11388000Y-6411000D01*
X11337000Y-6360000D02*
X11439000Y-6360000D01*
X11337000Y-8849000D02*
X11439000Y-8951000D01*
X11439000Y-8849000D02*
X11337000Y-8951000D01*
X11388000Y-8849000D02*
X11388000Y-8951000D01*
X11337000Y-8900000D02*
X11439000Y-8900000D01*
X11591000Y-6309000D02*
X11693000Y-6411000D01*
X11693000Y-6309000D02*
X11591000Y-6411000D01*
X11642000Y-6309000D02*
X11642000Y-6411000D01*
X11591000Y-6360000D02*
X11693000Y-6360000D01*
X11591000Y-8849000D02*
X11693000Y-8951000D01*
X11693000Y-8849000D02*
X11591000Y-8951000D01*
X11642000Y-8849000D02*
X11642000Y-8951000D01*
X11591000Y-8900000D02*
X11693000Y-8900000D01*
X11845000Y-6309000D02*
X11947000Y-6411000D01*
X11947000Y-6309000D02*
X11845000Y-6411000D01*
X11896000Y-6309000D02*
X11896000Y-6411000D01*
X11845000Y-6360000D02*
X11947000Y-6360000D01*
X11845000Y-8849000D02*
X11947000Y-8951000D01*
X11947000Y-8849000D02*
X11845000Y-8951000D01*
X11896000Y-8849000D02*
X11896000Y-8951000D01*
X11845000Y-8900000D02*
X11947000Y-8900000D01*
X12099000Y-6309000D02*
X12201000Y-6411000D01*
X12201000Y-6309000D02*
X12099000Y-6411000D01*
X12150000Y-6309000D02*
X12150000Y-6411000D01*
X12099000Y-6360000D02*
X12201000Y-6360000D01*
X12099000Y-8849000D02*
X12201000Y-8951000D01*
X12201000Y-8849000D02*
X12099000Y-8951000D01*
X12150000Y-8849000D02*
X12150000Y-8951000D01*
X12099000Y-8900000D02*
X12201000Y-8900000D01*
X12353000Y-6309000D02*
X12455000Y-6411000D01*
X12455000Y-6309000D02*
X12353000Y-6411000D01*
X12404000Y-6309000D02*
X12404000Y-6411000D01*
X12353000Y-6360000D02*
X12455000Y-6360000D01*
X12353000Y-8849000D02*
X12455000Y-8951000D01*
X12455000Y-8849000D02*
X12353000Y-8951000D01*
X12404000Y-8849000D02*
X12404000Y-8951000D01*
X12353000Y-8900000D02*
X12455000Y-8900000D01*
X12607000Y-6309000D02*
X12709000Y-6411000D01*
X12709000Y-6309000D02*
X12607000Y-6411000D01*
X12658000Y-6309000D02*
X12658000Y-6411000D01*
X12607000Y-6360000D02*
X12709000Y-6360000D01*
X12607000Y-8849000D02*
X12709000Y-8951000D01*
X12709000Y-8849000D02*
X12607000Y-8951000D01*
X12658000Y-8849000D02*
X12658000Y-8951000D01*
X12607000Y-8900000D02*
X12709000Y-8900000D01*
X12861000Y-6309000D02*
X12963000Y-6411000D01*
X12963000Y-6309000D02*
X12861000Y-6411000D01*
X12912000Y-6309000D02*
X12912000Y-6411000D01*
X12861000Y-6360000D02*
X12963000Y-6360000D01*
X12861000Y-8849000D02*
X12963000Y-8951000D01*
X12963000Y-8849000D02*
X12861000Y-8951000D01*
X12912000Y-8849000D02*
X12912000Y-8951000D01*
X12861000Y-8900000D02*
X12963000Y-8900000D01*
X13115000Y-6309000D02*
X13217000Y-6411000D01*
X13217000Y-6309000D02*
X13115000Y-6411000D01*
X13166000Y-6309000D02*
X13166000Y-6411000D01*
X13115000Y-6360000D02*
X13217000Y-6360000D01*
X13115000Y-8849000D02*
X13217000Y-8951000D01*
X13217000Y-8849000D02*
X13115000Y-8951000D01*
X13166000Y-8849000D02*
X13166000Y-8951000D01*
X13115000Y-8900000D02*
X13217000Y-8900000D01*
X13369000Y-6309000D02*
X13471000Y-6411000D01*
X13471000Y-6309000D02*
X13369000Y-6411000D01*
X13420000Y-6309000D02*
X13420000Y-6411000D01*
X13369000Y-6360000D02*
X13471000Y-6360000D01*
X13369000Y-8849000D02*
X13471000Y-8951000D01*
X13471000Y-8849000D02*
X13369000Y-8951000D01*
X13420000Y-8849000D02*
X13420000Y-8951000D01*
X13369000Y-8900000D02*
X13471000Y-8900000D01*
X13623000Y-6309000D02*
X13725000Y-6411000D01*
X13725000Y-6309000D02*
X13623000Y-6411000D01*
X13674000Y-6309000D02*
X13674000Y-6411000D01*
X13623000Y-6360000D02*
X13725000Y-6360000D01*
X13623000Y-8849000D02*
X13725000Y-8951000D01*
X13725000Y-8849000D02*
X13623000Y-8951000D01*
X13674000Y-8849000D02*
X13674000Y-8951000D01*
X13623000Y-8900000D02*
X13725000Y-8900000D01*
X13877000Y-6309000D02*
X13979000Y-6411000D01*
X13979000Y-6309000D02*
X13877000Y-6411000D01*
X13928000Y-6309000D02*
X13928000Y-6411000D01*
X13877000Y-6360000D02*
X13979000Y-6360000D01*
X13877000Y-8849000D02*
X13979000Y-8951000D01*
X13979000Y-8849000D02*
X13877000Y-8951000D01*
X13928000Y-8849000D02*
X13928000Y-8951000D01*
X13877000Y-8900000D02*
X13979000Y-8900000D01*
X14131000Y-6309000D02*
X14233000Y-6411000D01*
X14233000Y-6309000D02*
X14131000Y-6411000D01*
X14182000Y-6309000D02*
X14182000Y-6411000D01*
X14131000Y-6360000D02*
X14233000Y-6360000D01*
X14131000Y-8849000D02*
X14233000Y-8951000D01*
X14233000Y-8849000D02*
X14131000Y-8951000D01*
X14182000Y-8849000D02*
X14182000Y-8951000D01*
X14131000Y-8900000D02*
X14233000Y-8900000D01*
X14385000Y-6309000D02*
X14487000Y-6411000D01*
X14487000Y-6309000D02*
X14385000Y-6411000D01*
X14436000Y-6309000D02*
X14436000Y-6411000D01*
X14385000Y-6360000D02*
X14487000Y-6360000D01*
X14385000Y-8849000D02*
X14487000Y-8951000D01*
X14487000Y-8849000D02*
X14385000Y-8951000D01*
X14436000Y-8849000D02*
X14436000Y-8951000D01*
X14385000Y-8900000D02*
X14487000Y-8900000D01*
D14*
X19413500Y-9315000D02*
X19523500Y-9425000D01*
X19523500Y-9315000D02*
X19413500Y-9425000D01*
X19507391Y-9408891D02*
X19507391Y-9331109D01*
X19429609Y-9331109D01*
X19429609Y-9408891D01*
X19507391Y-9408891D01*
X20175500Y-9315000D02*
X20285500Y-9425000D01*
X20285500Y-9315000D02*
X20175500Y-9425000D01*
X20269391Y-9408891D02*
X20269391Y-9331109D01*
X20191609Y-9331109D01*
X20191609Y-9408891D01*
X20269391Y-9408891D01*
D15*
X7369500Y-11065000D02*
X7499500Y-11195000D01*
X7499500Y-11065000D02*
X7369500Y-11195000D01*
X7434500Y-11195000D02*
X7499500Y-11130000D01*
X7434500Y-11065000D01*
X7369500Y-11130000D01*
X7434500Y-11195000D01*
X7369500Y-11573000D02*
X7499500Y-11703000D01*
X7499500Y-11573000D02*
X7369500Y-11703000D01*
X7434500Y-11703000D02*
X7499500Y-11638000D01*
X7434500Y-11573000D01*
X7369500Y-11638000D01*
X7434500Y-11703000D01*
X20039500Y-11205000D02*
X20169500Y-11335000D01*
X20169500Y-11205000D02*
X20039500Y-11335000D01*
X20104500Y-11335000D02*
X20169500Y-11270000D01*
X20104500Y-11205000D01*
X20039500Y-11270000D01*
X20104500Y-11335000D01*
X20044500Y-10000000D02*
X20174500Y-10130000D01*
X20174500Y-10000000D02*
X20044500Y-10130000D01*
X20109500Y-10130000D02*
X20174500Y-10065000D01*
X20109500Y-10000000D01*
X20044500Y-10065000D01*
X20109500Y-10130000D01*
X21459500Y-10605000D02*
X21589500Y-10735000D01*
X21589500Y-10605000D02*
X21459500Y-10735000D01*
X21524500Y-10735000D02*
X21589500Y-10670000D01*
X21524500Y-10605000D01*
X21459500Y-10670000D01*
X21524500Y-10735000D01*
D16*
X6900000Y-5615000D02*
X6900000Y-5935000D01*
X6740000Y-5775000D02*
X7060000Y-5775000D01*
X7060000Y-5775000D02*
G75*
G02*
X6740000Y-5775000I-160000J0D01*
G01*
X6740000Y-5775000D02*
G75*
G02*
X7060000Y-5775000I160000J0D01*
G01*
X6900000Y-12360000D02*
X6900000Y-12680000D01*
X6740000Y-12520000D02*
X7060000Y-12520000D01*
X7060000Y-12520000D02*
G75*
G02*
X6740000Y-12520000I-160000J0D01*
G01*
X6740000Y-12520000D02*
G75*
G02*
X7060000Y-12520000I160000J0D01*
G01*
X21600000Y-5610000D02*
X21600000Y-5930000D01*
X21440000Y-5770000D02*
X21760000Y-5770000D01*
X21760000Y-5770000D02*
G75*
G02*
X21440000Y-5770000I-160000J0D01*
G01*
X21440000Y-5770000D02*
G75*
G02*
X21760000Y-5770000I160000J0D01*
G01*
X21600000Y-12360000D02*
X21600000Y-12680000D01*
X21440000Y-12520000D02*
X21760000Y-12520000D01*
X21760000Y-12520000D02*
G75*
G02*
X21440000Y-12520000I-160000J0D01*
G01*
X21440000Y-12520000D02*
G75*
G02*
X21760000Y-12520000I160000J0D01*
G01*
D10*
X6750777Y-13246484D02*
X6750777Y-13046484D01*
X6750777Y-13046484D02*
X6798396Y-13046484D01*
X6798396Y-13046484D02*
X6826967Y-13056008D01*
X6826967Y-13056008D02*
X6846015Y-13075055D01*
X6846015Y-13075055D02*
X6855539Y-13094103D01*
X6855539Y-13094103D02*
X6865062Y-13132198D01*
X6865062Y-13132198D02*
X6865062Y-13160769D01*
X6865062Y-13160769D02*
X6855539Y-13198865D01*
X6855539Y-13198865D02*
X6846015Y-13217912D01*
X6846015Y-13217912D02*
X6826967Y-13236960D01*
X6826967Y-13236960D02*
X6798396Y-13246484D01*
X6798396Y-13246484D02*
X6750777Y-13246484D01*
X6950777Y-13246484D02*
X6950777Y-13113150D01*
X6950777Y-13151246D02*
X6960301Y-13132198D01*
X6960301Y-13132198D02*
X6969824Y-13122674D01*
X6969824Y-13122674D02*
X6988872Y-13113150D01*
X6988872Y-13113150D02*
X7007920Y-13113150D01*
X7074586Y-13246484D02*
X7074586Y-13113150D01*
X7074586Y-13046484D02*
X7065062Y-13056008D01*
X7065062Y-13056008D02*
X7074586Y-13065531D01*
X7074586Y-13065531D02*
X7084110Y-13056008D01*
X7084110Y-13056008D02*
X7074586Y-13046484D01*
X7074586Y-13046484D02*
X7074586Y-13065531D01*
X7198396Y-13246484D02*
X7179348Y-13236960D01*
X7179348Y-13236960D02*
X7169824Y-13217912D01*
X7169824Y-13217912D02*
X7169824Y-13046484D01*
X7303158Y-13246484D02*
X7284110Y-13236960D01*
X7284110Y-13236960D02*
X7274586Y-13217912D01*
X7274586Y-13217912D02*
X7274586Y-13046484D01*
X7531729Y-13246484D02*
X7531729Y-13046484D01*
X7531729Y-13046484D02*
X7598396Y-13189341D01*
X7598396Y-13189341D02*
X7665062Y-13046484D01*
X7665062Y-13046484D02*
X7665062Y-13246484D01*
X7846015Y-13246484D02*
X7846015Y-13141722D01*
X7846015Y-13141722D02*
X7836491Y-13122674D01*
X7836491Y-13122674D02*
X7817443Y-13113150D01*
X7817443Y-13113150D02*
X7779348Y-13113150D01*
X7779348Y-13113150D02*
X7760301Y-13122674D01*
X7846015Y-13236960D02*
X7826967Y-13246484D01*
X7826967Y-13246484D02*
X7779348Y-13246484D01*
X7779348Y-13246484D02*
X7760301Y-13236960D01*
X7760301Y-13236960D02*
X7750777Y-13217912D01*
X7750777Y-13217912D02*
X7750777Y-13198865D01*
X7750777Y-13198865D02*
X7760301Y-13179817D01*
X7760301Y-13179817D02*
X7779348Y-13170293D01*
X7779348Y-13170293D02*
X7826967Y-13170293D01*
X7826967Y-13170293D02*
X7846015Y-13160769D01*
X7941253Y-13113150D02*
X7941253Y-13313150D01*
X7941253Y-13122674D02*
X7960301Y-13113150D01*
X7960301Y-13113150D02*
X7998396Y-13113150D01*
X7998396Y-13113150D02*
X8017443Y-13122674D01*
X8017443Y-13122674D02*
X8026967Y-13132198D01*
X8026967Y-13132198D02*
X8036491Y-13151246D01*
X8036491Y-13151246D02*
X8036491Y-13208388D01*
X8036491Y-13208388D02*
X8026967Y-13227436D01*
X8026967Y-13227436D02*
X8017443Y-13236960D01*
X8017443Y-13236960D02*
X7998396Y-13246484D01*
X7998396Y-13246484D02*
X7960301Y-13246484D01*
X7960301Y-13246484D02*
X7941253Y-13236960D01*
X8122205Y-13227436D02*
X8131729Y-13236960D01*
X8131729Y-13236960D02*
X8122205Y-13246484D01*
X8122205Y-13246484D02*
X8112682Y-13236960D01*
X8112682Y-13236960D02*
X8122205Y-13227436D01*
X8122205Y-13227436D02*
X8122205Y-13246484D01*
X8122205Y-13122674D02*
X8131729Y-13132198D01*
X8131729Y-13132198D02*
X8122205Y-13141722D01*
X8122205Y-13141722D02*
X8112682Y-13132198D01*
X8112682Y-13132198D02*
X8122205Y-13122674D01*
X8122205Y-13122674D02*
X8122205Y-13141722D01*
D11*
X6420000Y-13540000D02*
X6490000Y-13610000D01*
X6490000Y-13540000D02*
X6420000Y-13610000D01*
D10*
X6788872Y-13466484D02*
X6807920Y-13466484D01*
X6807920Y-13466484D02*
X6826967Y-13476008D01*
X6826967Y-13476008D02*
X6836491Y-13485531D01*
X6836491Y-13485531D02*
X6846015Y-13504579D01*
X6846015Y-13504579D02*
X6855539Y-13542674D01*
X6855539Y-13542674D02*
X6855539Y-13590293D01*
X6855539Y-13590293D02*
X6846015Y-13628388D01*
X6846015Y-13628388D02*
X6836491Y-13647436D01*
X6836491Y-13647436D02*
X6826967Y-13656960D01*
X6826967Y-13656960D02*
X6807920Y-13666484D01*
X6807920Y-13666484D02*
X6788872Y-13666484D01*
X6788872Y-13666484D02*
X6769824Y-13656960D01*
X6769824Y-13656960D02*
X6760301Y-13647436D01*
X6760301Y-13647436D02*
X6750777Y-13628388D01*
X6750777Y-13628388D02*
X6741253Y-13590293D01*
X6741253Y-13590293D02*
X6741253Y-13542674D01*
X6741253Y-13542674D02*
X6750777Y-13504579D01*
X6750777Y-13504579D02*
X6760301Y-13485531D01*
X6760301Y-13485531D02*
X6769824Y-13476008D01*
X6769824Y-13476008D02*
X6788872Y-13466484D01*
X6941253Y-13647436D02*
X6950777Y-13656960D01*
X6950777Y-13656960D02*
X6941253Y-13666484D01*
X6941253Y-13666484D02*
X6931729Y-13656960D01*
X6931729Y-13656960D02*
X6941253Y-13647436D01*
X6941253Y-13647436D02*
X6941253Y-13666484D01*
X7017443Y-13466484D02*
X7150777Y-13466484D01*
X7150777Y-13466484D02*
X7065062Y-13666484D01*
X7265062Y-13466484D02*
X7284110Y-13466484D01*
X7284110Y-13466484D02*
X7303158Y-13476008D01*
X7303158Y-13476008D02*
X7312682Y-13485531D01*
X7312682Y-13485531D02*
X7322205Y-13504579D01*
X7322205Y-13504579D02*
X7331729Y-13542674D01*
X7331729Y-13542674D02*
X7331729Y-13590293D01*
X7331729Y-13590293D02*
X7322205Y-13628388D01*
X7322205Y-13628388D02*
X7312682Y-13647436D01*
X7312682Y-13647436D02*
X7303158Y-13656960D01*
X7303158Y-13656960D02*
X7284110Y-13666484D01*
X7284110Y-13666484D02*
X7265062Y-13666484D01*
X7265062Y-13666484D02*
X7246015Y-13656960D01*
X7246015Y-13656960D02*
X7236491Y-13647436D01*
X7236491Y-13647436D02*
X7226967Y-13628388D01*
X7226967Y-13628388D02*
X7217443Y-13590293D01*
X7217443Y-13590293D02*
X7217443Y-13542674D01*
X7217443Y-13542674D02*
X7226967Y-13504579D01*
X7226967Y-13504579D02*
X7236491Y-13485531D01*
X7236491Y-13485531D02*
X7246015Y-13476008D01*
X7246015Y-13476008D02*
X7265062Y-13466484D01*
X7455539Y-13466484D02*
X7474586Y-13466484D01*
X7474586Y-13466484D02*
X7493634Y-13476008D01*
X7493634Y-13476008D02*
X7503158Y-13485531D01*
X7503158Y-13485531D02*
X7512682Y-13504579D01*
X7512682Y-13504579D02*
X7522205Y-13542674D01*
X7522205Y-13542674D02*
X7522205Y-13590293D01*
X7522205Y-13590293D02*
X7512682Y-13628388D01*
X7512682Y-13628388D02*
X7503158Y-13647436D01*
X7503158Y-13647436D02*
X7493634Y-13656960D01*
X7493634Y-13656960D02*
X7474586Y-13666484D01*
X7474586Y-13666484D02*
X7455539Y-13666484D01*
X7455539Y-13666484D02*
X7436491Y-13656960D01*
X7436491Y-13656960D02*
X7426967Y-13647436D01*
X7426967Y-13647436D02*
X7417443Y-13628388D01*
X7417443Y-13628388D02*
X7407920Y-13590293D01*
X7407920Y-13590293D02*
X7407920Y-13542674D01*
X7407920Y-13542674D02*
X7417443Y-13504579D01*
X7417443Y-13504579D02*
X7426967Y-13485531D01*
X7426967Y-13485531D02*
X7436491Y-13476008D01*
X7436491Y-13476008D02*
X7455539Y-13466484D01*
X7607920Y-13666484D02*
X7607920Y-13533150D01*
X7607920Y-13552198D02*
X7617443Y-13542674D01*
X7617443Y-13542674D02*
X7636491Y-13533150D01*
X7636491Y-13533150D02*
X7665063Y-13533150D01*
X7665063Y-13533150D02*
X7684110Y-13542674D01*
X7684110Y-13542674D02*
X7693634Y-13561722D01*
X7693634Y-13561722D02*
X7693634Y-13666484D01*
X7693634Y-13561722D02*
X7703158Y-13542674D01*
X7703158Y-13542674D02*
X7722205Y-13533150D01*
X7722205Y-13533150D02*
X7750777Y-13533150D01*
X7750777Y-13533150D02*
X7769824Y-13542674D01*
X7769824Y-13542674D02*
X7779348Y-13561722D01*
X7779348Y-13561722D02*
X7779348Y-13666484D01*
X7874586Y-13666484D02*
X7874586Y-13533150D01*
X7874586Y-13552198D02*
X7884110Y-13542674D01*
X7884110Y-13542674D02*
X7903158Y-13533150D01*
X7903158Y-13533150D02*
X7931729Y-13533150D01*
X7931729Y-13533150D02*
X7950777Y-13542674D01*
X7950777Y-13542674D02*
X7960301Y-13561722D01*
X7960301Y-13561722D02*
X7960301Y-13666484D01*
X7960301Y-13561722D02*
X7969824Y-13542674D01*
X7969824Y-13542674D02*
X7988872Y-13533150D01*
X7988872Y-13533150D02*
X8017443Y-13533150D01*
X8017443Y-13533150D02*
X8036491Y-13542674D01*
X8036491Y-13542674D02*
X8046015Y-13561722D01*
X8046015Y-13561722D02*
X8046015Y-13666484D01*
X8436491Y-13456960D02*
X8265063Y-13714103D01*
X8693634Y-13466484D02*
X8712682Y-13466484D01*
X8712682Y-13466484D02*
X8731729Y-13476008D01*
X8731729Y-13476008D02*
X8741253Y-13485531D01*
X8741253Y-13485531D02*
X8750777Y-13504579D01*
X8750777Y-13504579D02*
X8760301Y-13542674D01*
X8760301Y-13542674D02*
X8760301Y-13590293D01*
X8760301Y-13590293D02*
X8750777Y-13628388D01*
X8750777Y-13628388D02*
X8741253Y-13647436D01*
X8741253Y-13647436D02*
X8731729Y-13656960D01*
X8731729Y-13656960D02*
X8712682Y-13666484D01*
X8712682Y-13666484D02*
X8693634Y-13666484D01*
X8693634Y-13666484D02*
X8674587Y-13656960D01*
X8674587Y-13656960D02*
X8665063Y-13647436D01*
X8665063Y-13647436D02*
X8655539Y-13628388D01*
X8655539Y-13628388D02*
X8646015Y-13590293D01*
X8646015Y-13590293D02*
X8646015Y-13542674D01*
X8646015Y-13542674D02*
X8655539Y-13504579D01*
X8655539Y-13504579D02*
X8665063Y-13485531D01*
X8665063Y-13485531D02*
X8674587Y-13476008D01*
X8674587Y-13476008D02*
X8693634Y-13466484D01*
X8846015Y-13647436D02*
X8855539Y-13656960D01*
X8855539Y-13656960D02*
X8846015Y-13666484D01*
X8846015Y-13666484D02*
X8836491Y-13656960D01*
X8836491Y-13656960D02*
X8846015Y-13647436D01*
X8846015Y-13647436D02*
X8846015Y-13666484D01*
X8979348Y-13466484D02*
X8998396Y-13466484D01*
X8998396Y-13466484D02*
X9017444Y-13476008D01*
X9017444Y-13476008D02*
X9026968Y-13485531D01*
X9026968Y-13485531D02*
X9036491Y-13504579D01*
X9036491Y-13504579D02*
X9046015Y-13542674D01*
X9046015Y-13542674D02*
X9046015Y-13590293D01*
X9046015Y-13590293D02*
X9036491Y-13628388D01*
X9036491Y-13628388D02*
X9026968Y-13647436D01*
X9026968Y-13647436D02*
X9017444Y-13656960D01*
X9017444Y-13656960D02*
X8998396Y-13666484D01*
X8998396Y-13666484D02*
X8979348Y-13666484D01*
X8979348Y-13666484D02*
X8960301Y-13656960D01*
X8960301Y-13656960D02*
X8950777Y-13647436D01*
X8950777Y-13647436D02*
X8941253Y-13628388D01*
X8941253Y-13628388D02*
X8931729Y-13590293D01*
X8931729Y-13590293D02*
X8931729Y-13542674D01*
X8931729Y-13542674D02*
X8941253Y-13504579D01*
X8941253Y-13504579D02*
X8950777Y-13485531D01*
X8950777Y-13485531D02*
X8960301Y-13476008D01*
X8960301Y-13476008D02*
X8979348Y-13466484D01*
X9122206Y-13485531D02*
X9131729Y-13476008D01*
X9131729Y-13476008D02*
X9150777Y-13466484D01*
X9150777Y-13466484D02*
X9198396Y-13466484D01*
X9198396Y-13466484D02*
X9217444Y-13476008D01*
X9217444Y-13476008D02*
X9226968Y-13485531D01*
X9226968Y-13485531D02*
X9236491Y-13504579D01*
X9236491Y-13504579D02*
X9236491Y-13523627D01*
X9236491Y-13523627D02*
X9226968Y-13552198D01*
X9226968Y-13552198D02*
X9112682Y-13666484D01*
X9112682Y-13666484D02*
X9236491Y-13666484D01*
X9303158Y-13466484D02*
X9436491Y-13466484D01*
X9436491Y-13466484D02*
X9350777Y-13666484D01*
X9598396Y-13466484D02*
X9560301Y-13466484D01*
X9560301Y-13466484D02*
X9541253Y-13476008D01*
X9541253Y-13476008D02*
X9531729Y-13485531D01*
X9531729Y-13485531D02*
X9512682Y-13514103D01*
X9512682Y-13514103D02*
X9503158Y-13552198D01*
X9503158Y-13552198D02*
X9503158Y-13628388D01*
X9503158Y-13628388D02*
X9512682Y-13647436D01*
X9512682Y-13647436D02*
X9522206Y-13656960D01*
X9522206Y-13656960D02*
X9541253Y-13666484D01*
X9541253Y-13666484D02*
X9579349Y-13666484D01*
X9579349Y-13666484D02*
X9598396Y-13656960D01*
X9598396Y-13656960D02*
X9607920Y-13647436D01*
X9607920Y-13647436D02*
X9617444Y-13628388D01*
X9617444Y-13628388D02*
X9617444Y-13580769D01*
X9617444Y-13580769D02*
X9607920Y-13561722D01*
X9607920Y-13561722D02*
X9598396Y-13552198D01*
X9598396Y-13552198D02*
X9579349Y-13542674D01*
X9579349Y-13542674D02*
X9541253Y-13542674D01*
X9541253Y-13542674D02*
X9522206Y-13552198D01*
X9522206Y-13552198D02*
X9512682Y-13561722D01*
X9512682Y-13561722D02*
X9503158Y-13580769D01*
X9693634Y-13466484D02*
X9693634Y-13504579D01*
X9769825Y-13466484D02*
X9769825Y-13504579D01*
X10065063Y-13742674D02*
X10055539Y-13733150D01*
X10055539Y-13733150D02*
X10036491Y-13704579D01*
X10036491Y-13704579D02*
X10026968Y-13685531D01*
X10026968Y-13685531D02*
X10017444Y-13656960D01*
X10017444Y-13656960D02*
X10007920Y-13609341D01*
X10007920Y-13609341D02*
X10007920Y-13571246D01*
X10007920Y-13571246D02*
X10017444Y-13523627D01*
X10017444Y-13523627D02*
X10026968Y-13495055D01*
X10026968Y-13495055D02*
X10036491Y-13476008D01*
X10036491Y-13476008D02*
X10055539Y-13447436D01*
X10055539Y-13447436D02*
X10065063Y-13437912D01*
X10246015Y-13666484D02*
X10131730Y-13666484D01*
X10188872Y-13666484D02*
X10188872Y-13466484D01*
X10188872Y-13466484D02*
X10169825Y-13495055D01*
X10169825Y-13495055D02*
X10150777Y-13514103D01*
X10150777Y-13514103D02*
X10131730Y-13523627D01*
X10322206Y-13485531D02*
X10331730Y-13476008D01*
X10331730Y-13476008D02*
X10350777Y-13466484D01*
X10350777Y-13466484D02*
X10398396Y-13466484D01*
X10398396Y-13466484D02*
X10417444Y-13476008D01*
X10417444Y-13476008D02*
X10426968Y-13485531D01*
X10426968Y-13485531D02*
X10436491Y-13504579D01*
X10436491Y-13504579D02*
X10436491Y-13523627D01*
X10436491Y-13523627D02*
X10426968Y-13552198D01*
X10426968Y-13552198D02*
X10312682Y-13666484D01*
X10312682Y-13666484D02*
X10436491Y-13666484D01*
X10674587Y-13666484D02*
X10674587Y-13466484D01*
X10760301Y-13666484D02*
X10760301Y-13561722D01*
X10760301Y-13561722D02*
X10750777Y-13542674D01*
X10750777Y-13542674D02*
X10731730Y-13533150D01*
X10731730Y-13533150D02*
X10703158Y-13533150D01*
X10703158Y-13533150D02*
X10684111Y-13542674D01*
X10684111Y-13542674D02*
X10674587Y-13552198D01*
X10884111Y-13666484D02*
X10865063Y-13656960D01*
X10865063Y-13656960D02*
X10855539Y-13647436D01*
X10855539Y-13647436D02*
X10846015Y-13628388D01*
X10846015Y-13628388D02*
X10846015Y-13571246D01*
X10846015Y-13571246D02*
X10855539Y-13552198D01*
X10855539Y-13552198D02*
X10865063Y-13542674D01*
X10865063Y-13542674D02*
X10884111Y-13533150D01*
X10884111Y-13533150D02*
X10912682Y-13533150D01*
X10912682Y-13533150D02*
X10931730Y-13542674D01*
X10931730Y-13542674D02*
X10941253Y-13552198D01*
X10941253Y-13552198D02*
X10950777Y-13571246D01*
X10950777Y-13571246D02*
X10950777Y-13628388D01*
X10950777Y-13628388D02*
X10941253Y-13647436D01*
X10941253Y-13647436D02*
X10931730Y-13656960D01*
X10931730Y-13656960D02*
X10912682Y-13666484D01*
X10912682Y-13666484D02*
X10884111Y-13666484D01*
X11065063Y-13666484D02*
X11046015Y-13656960D01*
X11046015Y-13656960D02*
X11036492Y-13637912D01*
X11036492Y-13637912D02*
X11036492Y-13466484D01*
X11217444Y-13656960D02*
X11198396Y-13666484D01*
X11198396Y-13666484D02*
X11160301Y-13666484D01*
X11160301Y-13666484D02*
X11141253Y-13656960D01*
X11141253Y-13656960D02*
X11131730Y-13637912D01*
X11131730Y-13637912D02*
X11131730Y-13561722D01*
X11131730Y-13561722D02*
X11141253Y-13542674D01*
X11141253Y-13542674D02*
X11160301Y-13533150D01*
X11160301Y-13533150D02*
X11198396Y-13533150D01*
X11198396Y-13533150D02*
X11217444Y-13542674D01*
X11217444Y-13542674D02*
X11226968Y-13561722D01*
X11226968Y-13561722D02*
X11226968Y-13580769D01*
X11226968Y-13580769D02*
X11131730Y-13599817D01*
X11303158Y-13656960D02*
X11322206Y-13666484D01*
X11322206Y-13666484D02*
X11360301Y-13666484D01*
X11360301Y-13666484D02*
X11379349Y-13656960D01*
X11379349Y-13656960D02*
X11388872Y-13637912D01*
X11388872Y-13637912D02*
X11388872Y-13628388D01*
X11388872Y-13628388D02*
X11379349Y-13609341D01*
X11379349Y-13609341D02*
X11360301Y-13599817D01*
X11360301Y-13599817D02*
X11331730Y-13599817D01*
X11331730Y-13599817D02*
X11312682Y-13590293D01*
X11312682Y-13590293D02*
X11303158Y-13571246D01*
X11303158Y-13571246D02*
X11303158Y-13561722D01*
X11303158Y-13561722D02*
X11312682Y-13542674D01*
X11312682Y-13542674D02*
X11331730Y-13533150D01*
X11331730Y-13533150D02*
X11360301Y-13533150D01*
X11360301Y-13533150D02*
X11379349Y-13542674D01*
X11455539Y-13742674D02*
X11465063Y-13733150D01*
X11465063Y-13733150D02*
X11484111Y-13704579D01*
X11484111Y-13704579D02*
X11493634Y-13685531D01*
X11493634Y-13685531D02*
X11503158Y-13656960D01*
X11503158Y-13656960D02*
X11512682Y-13609341D01*
X11512682Y-13609341D02*
X11512682Y-13571246D01*
X11512682Y-13571246D02*
X11503158Y-13523627D01*
X11503158Y-13523627D02*
X11493634Y-13495055D01*
X11493634Y-13495055D02*
X11484111Y-13476008D01*
X11484111Y-13476008D02*
X11465063Y-13447436D01*
X11465063Y-13447436D02*
X11455539Y-13437912D01*
D11*
X6490000Y-13839000D02*
G75*
G02*
X6415000Y-13839000I-37500J0D01*
G01*
X6415000Y-13839000D02*
G75*
G02*
X6490000Y-13839000I37500J0D01*
G01*
D10*
X6788872Y-13730484D02*
X6807920Y-13730484D01*
X6807920Y-13730484D02*
X6826967Y-13740008D01*
X6826967Y-13740008D02*
X6836491Y-13749531D01*
X6836491Y-13749531D02*
X6846015Y-13768579D01*
X6846015Y-13768579D02*
X6855539Y-13806674D01*
X6855539Y-13806674D02*
X6855539Y-13854293D01*
X6855539Y-13854293D02*
X6846015Y-13892388D01*
X6846015Y-13892388D02*
X6836491Y-13911436D01*
X6836491Y-13911436D02*
X6826967Y-13920960D01*
X6826967Y-13920960D02*
X6807920Y-13930484D01*
X6807920Y-13930484D02*
X6788872Y-13930484D01*
X6788872Y-13930484D02*
X6769824Y-13920960D01*
X6769824Y-13920960D02*
X6760301Y-13911436D01*
X6760301Y-13911436D02*
X6750777Y-13892388D01*
X6750777Y-13892388D02*
X6741253Y-13854293D01*
X6741253Y-13854293D02*
X6741253Y-13806674D01*
X6741253Y-13806674D02*
X6750777Y-13768579D01*
X6750777Y-13768579D02*
X6760301Y-13749531D01*
X6760301Y-13749531D02*
X6769824Y-13740008D01*
X6769824Y-13740008D02*
X6788872Y-13730484D01*
X6941253Y-13911436D02*
X6950777Y-13920960D01*
X6950777Y-13920960D02*
X6941253Y-13930484D01*
X6941253Y-13930484D02*
X6931729Y-13920960D01*
X6931729Y-13920960D02*
X6941253Y-13911436D01*
X6941253Y-13911436D02*
X6941253Y-13930484D01*
X7017443Y-13730484D02*
X7150777Y-13730484D01*
X7150777Y-13730484D02*
X7065062Y-13930484D01*
X7322205Y-13730484D02*
X7226967Y-13730484D01*
X7226967Y-13730484D02*
X7217443Y-13825722D01*
X7217443Y-13825722D02*
X7226967Y-13816198D01*
X7226967Y-13816198D02*
X7246015Y-13806674D01*
X7246015Y-13806674D02*
X7293634Y-13806674D01*
X7293634Y-13806674D02*
X7312682Y-13816198D01*
X7312682Y-13816198D02*
X7322205Y-13825722D01*
X7322205Y-13825722D02*
X7331729Y-13844769D01*
X7331729Y-13844769D02*
X7331729Y-13892388D01*
X7331729Y-13892388D02*
X7322205Y-13911436D01*
X7322205Y-13911436D02*
X7312682Y-13920960D01*
X7312682Y-13920960D02*
X7293634Y-13930484D01*
X7293634Y-13930484D02*
X7246015Y-13930484D01*
X7246015Y-13930484D02*
X7226967Y-13920960D01*
X7226967Y-13920960D02*
X7217443Y-13911436D01*
X7455539Y-13730484D02*
X7474586Y-13730484D01*
X7474586Y-13730484D02*
X7493634Y-13740008D01*
X7493634Y-13740008D02*
X7503158Y-13749531D01*
X7503158Y-13749531D02*
X7512682Y-13768579D01*
X7512682Y-13768579D02*
X7522205Y-13806674D01*
X7522205Y-13806674D02*
X7522205Y-13854293D01*
X7522205Y-13854293D02*
X7512682Y-13892388D01*
X7512682Y-13892388D02*
X7503158Y-13911436D01*
X7503158Y-13911436D02*
X7493634Y-13920960D01*
X7493634Y-13920960D02*
X7474586Y-13930484D01*
X7474586Y-13930484D02*
X7455539Y-13930484D01*
X7455539Y-13930484D02*
X7436491Y-13920960D01*
X7436491Y-13920960D02*
X7426967Y-13911436D01*
X7426967Y-13911436D02*
X7417443Y-13892388D01*
X7417443Y-13892388D02*
X7407920Y-13854293D01*
X7407920Y-13854293D02*
X7407920Y-13806674D01*
X7407920Y-13806674D02*
X7417443Y-13768579D01*
X7417443Y-13768579D02*
X7426967Y-13749531D01*
X7426967Y-13749531D02*
X7436491Y-13740008D01*
X7436491Y-13740008D02*
X7455539Y-13730484D01*
X7607920Y-13930484D02*
X7607920Y-13797150D01*
X7607920Y-13816198D02*
X7617443Y-13806674D01*
X7617443Y-13806674D02*
X7636491Y-13797150D01*
X7636491Y-13797150D02*
X7665063Y-13797150D01*
X7665063Y-13797150D02*
X7684110Y-13806674D01*
X7684110Y-13806674D02*
X7693634Y-13825722D01*
X7693634Y-13825722D02*
X7693634Y-13930484D01*
X7693634Y-13825722D02*
X7703158Y-13806674D01*
X7703158Y-13806674D02*
X7722205Y-13797150D01*
X7722205Y-13797150D02*
X7750777Y-13797150D01*
X7750777Y-13797150D02*
X7769824Y-13806674D01*
X7769824Y-13806674D02*
X7779348Y-13825722D01*
X7779348Y-13825722D02*
X7779348Y-13930484D01*
X7874586Y-13930484D02*
X7874586Y-13797150D01*
X7874586Y-13816198D02*
X7884110Y-13806674D01*
X7884110Y-13806674D02*
X7903158Y-13797150D01*
X7903158Y-13797150D02*
X7931729Y-13797150D01*
X7931729Y-13797150D02*
X7950777Y-13806674D01*
X7950777Y-13806674D02*
X7960301Y-13825722D01*
X7960301Y-13825722D02*
X7960301Y-13930484D01*
X7960301Y-13825722D02*
X7969824Y-13806674D01*
X7969824Y-13806674D02*
X7988872Y-13797150D01*
X7988872Y-13797150D02*
X8017443Y-13797150D01*
X8017443Y-13797150D02*
X8036491Y-13806674D01*
X8036491Y-13806674D02*
X8046015Y-13825722D01*
X8046015Y-13825722D02*
X8046015Y-13930484D01*
X8436491Y-13720960D02*
X8265063Y-13978103D01*
X8693634Y-13730484D02*
X8712682Y-13730484D01*
X8712682Y-13730484D02*
X8731729Y-13740008D01*
X8731729Y-13740008D02*
X8741253Y-13749531D01*
X8741253Y-13749531D02*
X8750777Y-13768579D01*
X8750777Y-13768579D02*
X8760301Y-13806674D01*
X8760301Y-13806674D02*
X8760301Y-13854293D01*
X8760301Y-13854293D02*
X8750777Y-13892388D01*
X8750777Y-13892388D02*
X8741253Y-13911436D01*
X8741253Y-13911436D02*
X8731729Y-13920960D01*
X8731729Y-13920960D02*
X8712682Y-13930484D01*
X8712682Y-13930484D02*
X8693634Y-13930484D01*
X8693634Y-13930484D02*
X8674587Y-13920960D01*
X8674587Y-13920960D02*
X8665063Y-13911436D01*
X8665063Y-13911436D02*
X8655539Y-13892388D01*
X8655539Y-13892388D02*
X8646015Y-13854293D01*
X8646015Y-13854293D02*
X8646015Y-13806674D01*
X8646015Y-13806674D02*
X8655539Y-13768579D01*
X8655539Y-13768579D02*
X8665063Y-13749531D01*
X8665063Y-13749531D02*
X8674587Y-13740008D01*
X8674587Y-13740008D02*
X8693634Y-13730484D01*
X8846015Y-13911436D02*
X8855539Y-13920960D01*
X8855539Y-13920960D02*
X8846015Y-13930484D01*
X8846015Y-13930484D02*
X8836491Y-13920960D01*
X8836491Y-13920960D02*
X8846015Y-13911436D01*
X8846015Y-13911436D02*
X8846015Y-13930484D01*
X8979348Y-13730484D02*
X8998396Y-13730484D01*
X8998396Y-13730484D02*
X9017444Y-13740008D01*
X9017444Y-13740008D02*
X9026968Y-13749531D01*
X9026968Y-13749531D02*
X9036491Y-13768579D01*
X9036491Y-13768579D02*
X9046015Y-13806674D01*
X9046015Y-13806674D02*
X9046015Y-13854293D01*
X9046015Y-13854293D02*
X9036491Y-13892388D01*
X9036491Y-13892388D02*
X9026968Y-13911436D01*
X9026968Y-13911436D02*
X9017444Y-13920960D01*
X9017444Y-13920960D02*
X8998396Y-13930484D01*
X8998396Y-13930484D02*
X8979348Y-13930484D01*
X8979348Y-13930484D02*
X8960301Y-13920960D01*
X8960301Y-13920960D02*
X8950777Y-13911436D01*
X8950777Y-13911436D02*
X8941253Y-13892388D01*
X8941253Y-13892388D02*
X8931729Y-13854293D01*
X8931729Y-13854293D02*
X8931729Y-13806674D01*
X8931729Y-13806674D02*
X8941253Y-13768579D01*
X8941253Y-13768579D02*
X8950777Y-13749531D01*
X8950777Y-13749531D02*
X8960301Y-13740008D01*
X8960301Y-13740008D02*
X8979348Y-13730484D01*
X9122206Y-13749531D02*
X9131729Y-13740008D01*
X9131729Y-13740008D02*
X9150777Y-13730484D01*
X9150777Y-13730484D02*
X9198396Y-13730484D01*
X9198396Y-13730484D02*
X9217444Y-13740008D01*
X9217444Y-13740008D02*
X9226968Y-13749531D01*
X9226968Y-13749531D02*
X9236491Y-13768579D01*
X9236491Y-13768579D02*
X9236491Y-13787627D01*
X9236491Y-13787627D02*
X9226968Y-13816198D01*
X9226968Y-13816198D02*
X9112682Y-13930484D01*
X9112682Y-13930484D02*
X9236491Y-13930484D01*
X9331729Y-13930484D02*
X9369825Y-13930484D01*
X9369825Y-13930484D02*
X9388872Y-13920960D01*
X9388872Y-13920960D02*
X9398396Y-13911436D01*
X9398396Y-13911436D02*
X9417444Y-13882865D01*
X9417444Y-13882865D02*
X9426968Y-13844769D01*
X9426968Y-13844769D02*
X9426968Y-13768579D01*
X9426968Y-13768579D02*
X9417444Y-13749531D01*
X9417444Y-13749531D02*
X9407920Y-13740008D01*
X9407920Y-13740008D02*
X9388872Y-13730484D01*
X9388872Y-13730484D02*
X9350777Y-13730484D01*
X9350777Y-13730484D02*
X9331729Y-13740008D01*
X9331729Y-13740008D02*
X9322206Y-13749531D01*
X9322206Y-13749531D02*
X9312682Y-13768579D01*
X9312682Y-13768579D02*
X9312682Y-13816198D01*
X9312682Y-13816198D02*
X9322206Y-13835246D01*
X9322206Y-13835246D02*
X9331729Y-13844769D01*
X9331729Y-13844769D02*
X9350777Y-13854293D01*
X9350777Y-13854293D02*
X9388872Y-13854293D01*
X9388872Y-13854293D02*
X9407920Y-13844769D01*
X9407920Y-13844769D02*
X9417444Y-13835246D01*
X9417444Y-13835246D02*
X9426968Y-13816198D01*
X9607920Y-13730484D02*
X9512682Y-13730484D01*
X9512682Y-13730484D02*
X9503158Y-13825722D01*
X9503158Y-13825722D02*
X9512682Y-13816198D01*
X9512682Y-13816198D02*
X9531729Y-13806674D01*
X9531729Y-13806674D02*
X9579349Y-13806674D01*
X9579349Y-13806674D02*
X9598396Y-13816198D01*
X9598396Y-13816198D02*
X9607920Y-13825722D01*
X9607920Y-13825722D02*
X9617444Y-13844769D01*
X9617444Y-13844769D02*
X9617444Y-13892388D01*
X9617444Y-13892388D02*
X9607920Y-13911436D01*
X9607920Y-13911436D02*
X9598396Y-13920960D01*
X9598396Y-13920960D02*
X9579349Y-13930484D01*
X9579349Y-13930484D02*
X9531729Y-13930484D01*
X9531729Y-13930484D02*
X9512682Y-13920960D01*
X9512682Y-13920960D02*
X9503158Y-13911436D01*
X9693634Y-13730484D02*
X9693634Y-13768579D01*
X9769825Y-13730484D02*
X9769825Y-13768579D01*
X10065063Y-14006674D02*
X10055539Y-13997150D01*
X10055539Y-13997150D02*
X10036491Y-13968579D01*
X10036491Y-13968579D02*
X10026968Y-13949531D01*
X10026968Y-13949531D02*
X10017444Y-13920960D01*
X10017444Y-13920960D02*
X10007920Y-13873341D01*
X10007920Y-13873341D02*
X10007920Y-13835246D01*
X10007920Y-13835246D02*
X10017444Y-13787627D01*
X10017444Y-13787627D02*
X10026968Y-13759055D01*
X10026968Y-13759055D02*
X10036491Y-13740008D01*
X10036491Y-13740008D02*
X10055539Y-13711436D01*
X10055539Y-13711436D02*
X10065063Y-13701912D01*
X10122206Y-13730484D02*
X10246015Y-13730484D01*
X10246015Y-13730484D02*
X10179349Y-13806674D01*
X10179349Y-13806674D02*
X10207920Y-13806674D01*
X10207920Y-13806674D02*
X10226968Y-13816198D01*
X10226968Y-13816198D02*
X10236491Y-13825722D01*
X10236491Y-13825722D02*
X10246015Y-13844769D01*
X10246015Y-13844769D02*
X10246015Y-13892388D01*
X10246015Y-13892388D02*
X10236491Y-13911436D01*
X10236491Y-13911436D02*
X10226968Y-13920960D01*
X10226968Y-13920960D02*
X10207920Y-13930484D01*
X10207920Y-13930484D02*
X10150777Y-13930484D01*
X10150777Y-13930484D02*
X10131730Y-13920960D01*
X10131730Y-13920960D02*
X10122206Y-13911436D01*
X10484111Y-13930484D02*
X10484111Y-13730484D01*
X10569825Y-13930484D02*
X10569825Y-13825722D01*
X10569825Y-13825722D02*
X10560301Y-13806674D01*
X10560301Y-13806674D02*
X10541253Y-13797150D01*
X10541253Y-13797150D02*
X10512682Y-13797150D01*
X10512682Y-13797150D02*
X10493634Y-13806674D01*
X10493634Y-13806674D02*
X10484111Y-13816198D01*
X10693634Y-13930484D02*
X10674587Y-13920960D01*
X10674587Y-13920960D02*
X10665063Y-13911436D01*
X10665063Y-13911436D02*
X10655539Y-13892388D01*
X10655539Y-13892388D02*
X10655539Y-13835246D01*
X10655539Y-13835246D02*
X10665063Y-13816198D01*
X10665063Y-13816198D02*
X10674587Y-13806674D01*
X10674587Y-13806674D02*
X10693634Y-13797150D01*
X10693634Y-13797150D02*
X10722206Y-13797150D01*
X10722206Y-13797150D02*
X10741253Y-13806674D01*
X10741253Y-13806674D02*
X10750777Y-13816198D01*
X10750777Y-13816198D02*
X10760301Y-13835246D01*
X10760301Y-13835246D02*
X10760301Y-13892388D01*
X10760301Y-13892388D02*
X10750777Y-13911436D01*
X10750777Y-13911436D02*
X10741253Y-13920960D01*
X10741253Y-13920960D02*
X10722206Y-13930484D01*
X10722206Y-13930484D02*
X10693634Y-13930484D01*
X10874587Y-13930484D02*
X10855539Y-13920960D01*
X10855539Y-13920960D02*
X10846015Y-13901912D01*
X10846015Y-13901912D02*
X10846015Y-13730484D01*
X11026968Y-13920960D02*
X11007920Y-13930484D01*
X11007920Y-13930484D02*
X10969825Y-13930484D01*
X10969825Y-13930484D02*
X10950777Y-13920960D01*
X10950777Y-13920960D02*
X10941253Y-13901912D01*
X10941253Y-13901912D02*
X10941253Y-13825722D01*
X10941253Y-13825722D02*
X10950777Y-13806674D01*
X10950777Y-13806674D02*
X10969825Y-13797150D01*
X10969825Y-13797150D02*
X11007920Y-13797150D01*
X11007920Y-13797150D02*
X11026968Y-13806674D01*
X11026968Y-13806674D02*
X11036492Y-13825722D01*
X11036492Y-13825722D02*
X11036492Y-13844769D01*
X11036492Y-13844769D02*
X10941253Y-13863817D01*
X11112682Y-13920960D02*
X11131730Y-13930484D01*
X11131730Y-13930484D02*
X11169825Y-13930484D01*
X11169825Y-13930484D02*
X11188872Y-13920960D01*
X11188872Y-13920960D02*
X11198396Y-13901912D01*
X11198396Y-13901912D02*
X11198396Y-13892388D01*
X11198396Y-13892388D02*
X11188872Y-13873341D01*
X11188872Y-13873341D02*
X11169825Y-13863817D01*
X11169825Y-13863817D02*
X11141253Y-13863817D01*
X11141253Y-13863817D02*
X11122206Y-13854293D01*
X11122206Y-13854293D02*
X11112682Y-13835246D01*
X11112682Y-13835246D02*
X11112682Y-13825722D01*
X11112682Y-13825722D02*
X11122206Y-13806674D01*
X11122206Y-13806674D02*
X11141253Y-13797150D01*
X11141253Y-13797150D02*
X11169825Y-13797150D01*
X11169825Y-13797150D02*
X11188872Y-13806674D01*
X11265063Y-14006674D02*
X11274587Y-13997150D01*
X11274587Y-13997150D02*
X11293634Y-13968579D01*
X11293634Y-13968579D02*
X11303158Y-13949531D01*
X11303158Y-13949531D02*
X11312682Y-13920960D01*
X11312682Y-13920960D02*
X11322206Y-13873341D01*
X11322206Y-13873341D02*
X11322206Y-13835246D01*
X11322206Y-13835246D02*
X11312682Y-13787627D01*
X11312682Y-13787627D02*
X11303158Y-13759055D01*
X11303158Y-13759055D02*
X11293634Y-13740008D01*
X11293634Y-13740008D02*
X11274587Y-13711436D01*
X11274587Y-13711436D02*
X11265063Y-13701912D01*
D11*
X6450000Y-14063000D02*
X6450000Y-14143000D01*
X6410000Y-14103000D02*
X6490000Y-14103000D01*
D10*
X6788872Y-13994484D02*
X6807920Y-13994484D01*
X6807920Y-13994484D02*
X6826967Y-14004008D01*
X6826967Y-14004008D02*
X6836491Y-14013531D01*
X6836491Y-14013531D02*
X6846015Y-14032579D01*
X6846015Y-14032579D02*
X6855539Y-14070674D01*
X6855539Y-14070674D02*
X6855539Y-14118293D01*
X6855539Y-14118293D02*
X6846015Y-14156388D01*
X6846015Y-14156388D02*
X6836491Y-14175436D01*
X6836491Y-14175436D02*
X6826967Y-14184960D01*
X6826967Y-14184960D02*
X6807920Y-14194484D01*
X6807920Y-14194484D02*
X6788872Y-14194484D01*
X6788872Y-14194484D02*
X6769824Y-14184960D01*
X6769824Y-14184960D02*
X6760301Y-14175436D01*
X6760301Y-14175436D02*
X6750777Y-14156388D01*
X6750777Y-14156388D02*
X6741253Y-14118293D01*
X6741253Y-14118293D02*
X6741253Y-14070674D01*
X6741253Y-14070674D02*
X6750777Y-14032579D01*
X6750777Y-14032579D02*
X6760301Y-14013531D01*
X6760301Y-14013531D02*
X6769824Y-14004008D01*
X6769824Y-14004008D02*
X6788872Y-13994484D01*
X6941253Y-14175436D02*
X6950777Y-14184960D01*
X6950777Y-14184960D02*
X6941253Y-14194484D01*
X6941253Y-14194484D02*
X6931729Y-14184960D01*
X6931729Y-14184960D02*
X6941253Y-14175436D01*
X6941253Y-14175436D02*
X6941253Y-14194484D01*
X7065062Y-14080198D02*
X7046015Y-14070674D01*
X7046015Y-14070674D02*
X7036491Y-14061150D01*
X7036491Y-14061150D02*
X7026967Y-14042103D01*
X7026967Y-14042103D02*
X7026967Y-14032579D01*
X7026967Y-14032579D02*
X7036491Y-14013531D01*
X7036491Y-14013531D02*
X7046015Y-14004008D01*
X7046015Y-14004008D02*
X7065062Y-13994484D01*
X7065062Y-13994484D02*
X7103158Y-13994484D01*
X7103158Y-13994484D02*
X7122205Y-14004008D01*
X7122205Y-14004008D02*
X7131729Y-14013531D01*
X7131729Y-14013531D02*
X7141253Y-14032579D01*
X7141253Y-14032579D02*
X7141253Y-14042103D01*
X7141253Y-14042103D02*
X7131729Y-14061150D01*
X7131729Y-14061150D02*
X7122205Y-14070674D01*
X7122205Y-14070674D02*
X7103158Y-14080198D01*
X7103158Y-14080198D02*
X7065062Y-14080198D01*
X7065062Y-14080198D02*
X7046015Y-14089722D01*
X7046015Y-14089722D02*
X7036491Y-14099246D01*
X7036491Y-14099246D02*
X7026967Y-14118293D01*
X7026967Y-14118293D02*
X7026967Y-14156388D01*
X7026967Y-14156388D02*
X7036491Y-14175436D01*
X7036491Y-14175436D02*
X7046015Y-14184960D01*
X7046015Y-14184960D02*
X7065062Y-14194484D01*
X7065062Y-14194484D02*
X7103158Y-14194484D01*
X7103158Y-14194484D02*
X7122205Y-14184960D01*
X7122205Y-14184960D02*
X7131729Y-14175436D01*
X7131729Y-14175436D02*
X7141253Y-14156388D01*
X7141253Y-14156388D02*
X7141253Y-14118293D01*
X7141253Y-14118293D02*
X7131729Y-14099246D01*
X7131729Y-14099246D02*
X7122205Y-14089722D01*
X7122205Y-14089722D02*
X7103158Y-14080198D01*
X7265062Y-13994484D02*
X7284110Y-13994484D01*
X7284110Y-13994484D02*
X7303158Y-14004008D01*
X7303158Y-14004008D02*
X7312682Y-14013531D01*
X7312682Y-14013531D02*
X7322205Y-14032579D01*
X7322205Y-14032579D02*
X7331729Y-14070674D01*
X7331729Y-14070674D02*
X7331729Y-14118293D01*
X7331729Y-14118293D02*
X7322205Y-14156388D01*
X7322205Y-14156388D02*
X7312682Y-14175436D01*
X7312682Y-14175436D02*
X7303158Y-14184960D01*
X7303158Y-14184960D02*
X7284110Y-14194484D01*
X7284110Y-14194484D02*
X7265062Y-14194484D01*
X7265062Y-14194484D02*
X7246015Y-14184960D01*
X7246015Y-14184960D02*
X7236491Y-14175436D01*
X7236491Y-14175436D02*
X7226967Y-14156388D01*
X7226967Y-14156388D02*
X7217443Y-14118293D01*
X7217443Y-14118293D02*
X7217443Y-14070674D01*
X7217443Y-14070674D02*
X7226967Y-14032579D01*
X7226967Y-14032579D02*
X7236491Y-14013531D01*
X7236491Y-14013531D02*
X7246015Y-14004008D01*
X7246015Y-14004008D02*
X7265062Y-13994484D01*
X7455539Y-13994484D02*
X7474586Y-13994484D01*
X7474586Y-13994484D02*
X7493634Y-14004008D01*
X7493634Y-14004008D02*
X7503158Y-14013531D01*
X7503158Y-14013531D02*
X7512682Y-14032579D01*
X7512682Y-14032579D02*
X7522205Y-14070674D01*
X7522205Y-14070674D02*
X7522205Y-14118293D01*
X7522205Y-14118293D02*
X7512682Y-14156388D01*
X7512682Y-14156388D02*
X7503158Y-14175436D01*
X7503158Y-14175436D02*
X7493634Y-14184960D01*
X7493634Y-14184960D02*
X7474586Y-14194484D01*
X7474586Y-14194484D02*
X7455539Y-14194484D01*
X7455539Y-14194484D02*
X7436491Y-14184960D01*
X7436491Y-14184960D02*
X7426967Y-14175436D01*
X7426967Y-14175436D02*
X7417443Y-14156388D01*
X7417443Y-14156388D02*
X7407920Y-14118293D01*
X7407920Y-14118293D02*
X7407920Y-14070674D01*
X7407920Y-14070674D02*
X7417443Y-14032579D01*
X7417443Y-14032579D02*
X7426967Y-14013531D01*
X7426967Y-14013531D02*
X7436491Y-14004008D01*
X7436491Y-14004008D02*
X7455539Y-13994484D01*
X7607920Y-14194484D02*
X7607920Y-14061150D01*
X7607920Y-14080198D02*
X7617443Y-14070674D01*
X7617443Y-14070674D02*
X7636491Y-14061150D01*
X7636491Y-14061150D02*
X7665063Y-14061150D01*
X7665063Y-14061150D02*
X7684110Y-14070674D01*
X7684110Y-14070674D02*
X7693634Y-14089722D01*
X7693634Y-14089722D02*
X7693634Y-14194484D01*
X7693634Y-14089722D02*
X7703158Y-14070674D01*
X7703158Y-14070674D02*
X7722205Y-14061150D01*
X7722205Y-14061150D02*
X7750777Y-14061150D01*
X7750777Y-14061150D02*
X7769824Y-14070674D01*
X7769824Y-14070674D02*
X7779348Y-14089722D01*
X7779348Y-14089722D02*
X7779348Y-14194484D01*
X7874586Y-14194484D02*
X7874586Y-14061150D01*
X7874586Y-14080198D02*
X7884110Y-14070674D01*
X7884110Y-14070674D02*
X7903158Y-14061150D01*
X7903158Y-14061150D02*
X7931729Y-14061150D01*
X7931729Y-14061150D02*
X7950777Y-14070674D01*
X7950777Y-14070674D02*
X7960301Y-14089722D01*
X7960301Y-14089722D02*
X7960301Y-14194484D01*
X7960301Y-14089722D02*
X7969824Y-14070674D01*
X7969824Y-14070674D02*
X7988872Y-14061150D01*
X7988872Y-14061150D02*
X8017443Y-14061150D01*
X8017443Y-14061150D02*
X8036491Y-14070674D01*
X8036491Y-14070674D02*
X8046015Y-14089722D01*
X8046015Y-14089722D02*
X8046015Y-14194484D01*
X8436491Y-13984960D02*
X8265063Y-14242103D01*
X8693634Y-13994484D02*
X8712682Y-13994484D01*
X8712682Y-13994484D02*
X8731729Y-14004008D01*
X8731729Y-14004008D02*
X8741253Y-14013531D01*
X8741253Y-14013531D02*
X8750777Y-14032579D01*
X8750777Y-14032579D02*
X8760301Y-14070674D01*
X8760301Y-14070674D02*
X8760301Y-14118293D01*
X8760301Y-14118293D02*
X8750777Y-14156388D01*
X8750777Y-14156388D02*
X8741253Y-14175436D01*
X8741253Y-14175436D02*
X8731729Y-14184960D01*
X8731729Y-14184960D02*
X8712682Y-14194484D01*
X8712682Y-14194484D02*
X8693634Y-14194484D01*
X8693634Y-14194484D02*
X8674587Y-14184960D01*
X8674587Y-14184960D02*
X8665063Y-14175436D01*
X8665063Y-14175436D02*
X8655539Y-14156388D01*
X8655539Y-14156388D02*
X8646015Y-14118293D01*
X8646015Y-14118293D02*
X8646015Y-14070674D01*
X8646015Y-14070674D02*
X8655539Y-14032579D01*
X8655539Y-14032579D02*
X8665063Y-14013531D01*
X8665063Y-14013531D02*
X8674587Y-14004008D01*
X8674587Y-14004008D02*
X8693634Y-13994484D01*
X8846015Y-14175436D02*
X8855539Y-14184960D01*
X8855539Y-14184960D02*
X8846015Y-14194484D01*
X8846015Y-14194484D02*
X8836491Y-14184960D01*
X8836491Y-14184960D02*
X8846015Y-14175436D01*
X8846015Y-14175436D02*
X8846015Y-14194484D01*
X8979348Y-13994484D02*
X8998396Y-13994484D01*
X8998396Y-13994484D02*
X9017444Y-14004008D01*
X9017444Y-14004008D02*
X9026968Y-14013531D01*
X9026968Y-14013531D02*
X9036491Y-14032579D01*
X9036491Y-14032579D02*
X9046015Y-14070674D01*
X9046015Y-14070674D02*
X9046015Y-14118293D01*
X9046015Y-14118293D02*
X9036491Y-14156388D01*
X9036491Y-14156388D02*
X9026968Y-14175436D01*
X9026968Y-14175436D02*
X9017444Y-14184960D01*
X9017444Y-14184960D02*
X8998396Y-14194484D01*
X8998396Y-14194484D02*
X8979348Y-14194484D01*
X8979348Y-14194484D02*
X8960301Y-14184960D01*
X8960301Y-14184960D02*
X8950777Y-14175436D01*
X8950777Y-14175436D02*
X8941253Y-14156388D01*
X8941253Y-14156388D02*
X8931729Y-14118293D01*
X8931729Y-14118293D02*
X8931729Y-14070674D01*
X8931729Y-14070674D02*
X8941253Y-14032579D01*
X8941253Y-14032579D02*
X8950777Y-14013531D01*
X8950777Y-14013531D02*
X8960301Y-14004008D01*
X8960301Y-14004008D02*
X8979348Y-13994484D01*
X9112682Y-13994484D02*
X9236491Y-13994484D01*
X9236491Y-13994484D02*
X9169825Y-14070674D01*
X9169825Y-14070674D02*
X9198396Y-14070674D01*
X9198396Y-14070674D02*
X9217444Y-14080198D01*
X9217444Y-14080198D02*
X9226968Y-14089722D01*
X9226968Y-14089722D02*
X9236491Y-14108769D01*
X9236491Y-14108769D02*
X9236491Y-14156388D01*
X9236491Y-14156388D02*
X9226968Y-14175436D01*
X9226968Y-14175436D02*
X9217444Y-14184960D01*
X9217444Y-14184960D02*
X9198396Y-14194484D01*
X9198396Y-14194484D02*
X9141253Y-14194484D01*
X9141253Y-14194484D02*
X9122206Y-14184960D01*
X9122206Y-14184960D02*
X9112682Y-14175436D01*
X9426968Y-14194484D02*
X9312682Y-14194484D01*
X9369825Y-14194484D02*
X9369825Y-13994484D01*
X9369825Y-13994484D02*
X9350777Y-14023055D01*
X9350777Y-14023055D02*
X9331729Y-14042103D01*
X9331729Y-14042103D02*
X9312682Y-14051627D01*
X9607920Y-13994484D02*
X9512682Y-13994484D01*
X9512682Y-13994484D02*
X9503158Y-14089722D01*
X9503158Y-14089722D02*
X9512682Y-14080198D01*
X9512682Y-14080198D02*
X9531729Y-14070674D01*
X9531729Y-14070674D02*
X9579349Y-14070674D01*
X9579349Y-14070674D02*
X9598396Y-14080198D01*
X9598396Y-14080198D02*
X9607920Y-14089722D01*
X9607920Y-14089722D02*
X9617444Y-14108769D01*
X9617444Y-14108769D02*
X9617444Y-14156388D01*
X9617444Y-14156388D02*
X9607920Y-14175436D01*
X9607920Y-14175436D02*
X9598396Y-14184960D01*
X9598396Y-14184960D02*
X9579349Y-14194484D01*
X9579349Y-14194484D02*
X9531729Y-14194484D01*
X9531729Y-14194484D02*
X9512682Y-14184960D01*
X9512682Y-14184960D02*
X9503158Y-14175436D01*
X9693634Y-13994484D02*
X9693634Y-14032579D01*
X9769825Y-13994484D02*
X9769825Y-14032579D01*
X10065063Y-14270674D02*
X10055539Y-14261150D01*
X10055539Y-14261150D02*
X10036491Y-14232579D01*
X10036491Y-14232579D02*
X10026968Y-14213531D01*
X10026968Y-14213531D02*
X10017444Y-14184960D01*
X10017444Y-14184960D02*
X10007920Y-14137341D01*
X10007920Y-14137341D02*
X10007920Y-14099246D01*
X10007920Y-14099246D02*
X10017444Y-14051627D01*
X10017444Y-14051627D02*
X10026968Y-14023055D01*
X10026968Y-14023055D02*
X10036491Y-14004008D01*
X10036491Y-14004008D02*
X10055539Y-13975436D01*
X10055539Y-13975436D02*
X10065063Y-13965912D01*
X10226968Y-13994484D02*
X10188872Y-13994484D01*
X10188872Y-13994484D02*
X10169825Y-14004008D01*
X10169825Y-14004008D02*
X10160301Y-14013531D01*
X10160301Y-14013531D02*
X10141253Y-14042103D01*
X10141253Y-14042103D02*
X10131730Y-14080198D01*
X10131730Y-14080198D02*
X10131730Y-14156388D01*
X10131730Y-14156388D02*
X10141253Y-14175436D01*
X10141253Y-14175436D02*
X10150777Y-14184960D01*
X10150777Y-14184960D02*
X10169825Y-14194484D01*
X10169825Y-14194484D02*
X10207920Y-14194484D01*
X10207920Y-14194484D02*
X10226968Y-14184960D01*
X10226968Y-14184960D02*
X10236491Y-14175436D01*
X10236491Y-14175436D02*
X10246015Y-14156388D01*
X10246015Y-14156388D02*
X10246015Y-14108769D01*
X10246015Y-14108769D02*
X10236491Y-14089722D01*
X10236491Y-14089722D02*
X10226968Y-14080198D01*
X10226968Y-14080198D02*
X10207920Y-14070674D01*
X10207920Y-14070674D02*
X10169825Y-14070674D01*
X10169825Y-14070674D02*
X10150777Y-14080198D01*
X10150777Y-14080198D02*
X10141253Y-14089722D01*
X10141253Y-14089722D02*
X10131730Y-14108769D01*
X10484111Y-14194484D02*
X10484111Y-13994484D01*
X10569825Y-14194484D02*
X10569825Y-14089722D01*
X10569825Y-14089722D02*
X10560301Y-14070674D01*
X10560301Y-14070674D02*
X10541253Y-14061150D01*
X10541253Y-14061150D02*
X10512682Y-14061150D01*
X10512682Y-14061150D02*
X10493634Y-14070674D01*
X10493634Y-14070674D02*
X10484111Y-14080198D01*
X10693634Y-14194484D02*
X10674587Y-14184960D01*
X10674587Y-14184960D02*
X10665063Y-14175436D01*
X10665063Y-14175436D02*
X10655539Y-14156388D01*
X10655539Y-14156388D02*
X10655539Y-14099246D01*
X10655539Y-14099246D02*
X10665063Y-14080198D01*
X10665063Y-14080198D02*
X10674587Y-14070674D01*
X10674587Y-14070674D02*
X10693634Y-14061150D01*
X10693634Y-14061150D02*
X10722206Y-14061150D01*
X10722206Y-14061150D02*
X10741253Y-14070674D01*
X10741253Y-14070674D02*
X10750777Y-14080198D01*
X10750777Y-14080198D02*
X10760301Y-14099246D01*
X10760301Y-14099246D02*
X10760301Y-14156388D01*
X10760301Y-14156388D02*
X10750777Y-14175436D01*
X10750777Y-14175436D02*
X10741253Y-14184960D01*
X10741253Y-14184960D02*
X10722206Y-14194484D01*
X10722206Y-14194484D02*
X10693634Y-14194484D01*
X10874587Y-14194484D02*
X10855539Y-14184960D01*
X10855539Y-14184960D02*
X10846015Y-14165912D01*
X10846015Y-14165912D02*
X10846015Y-13994484D01*
X11026968Y-14184960D02*
X11007920Y-14194484D01*
X11007920Y-14194484D02*
X10969825Y-14194484D01*
X10969825Y-14194484D02*
X10950777Y-14184960D01*
X10950777Y-14184960D02*
X10941253Y-14165912D01*
X10941253Y-14165912D02*
X10941253Y-14089722D01*
X10941253Y-14089722D02*
X10950777Y-14070674D01*
X10950777Y-14070674D02*
X10969825Y-14061150D01*
X10969825Y-14061150D02*
X11007920Y-14061150D01*
X11007920Y-14061150D02*
X11026968Y-14070674D01*
X11026968Y-14070674D02*
X11036492Y-14089722D01*
X11036492Y-14089722D02*
X11036492Y-14108769D01*
X11036492Y-14108769D02*
X10941253Y-14127817D01*
X11112682Y-14184960D02*
X11131730Y-14194484D01*
X11131730Y-14194484D02*
X11169825Y-14194484D01*
X11169825Y-14194484D02*
X11188872Y-14184960D01*
X11188872Y-14184960D02*
X11198396Y-14165912D01*
X11198396Y-14165912D02*
X11198396Y-14156388D01*
X11198396Y-14156388D02*
X11188872Y-14137341D01*
X11188872Y-14137341D02*
X11169825Y-14127817D01*
X11169825Y-14127817D02*
X11141253Y-14127817D01*
X11141253Y-14127817D02*
X11122206Y-14118293D01*
X11122206Y-14118293D02*
X11112682Y-14099246D01*
X11112682Y-14099246D02*
X11112682Y-14089722D01*
X11112682Y-14089722D02*
X11122206Y-14070674D01*
X11122206Y-14070674D02*
X11141253Y-14061150D01*
X11141253Y-14061150D02*
X11169825Y-14061150D01*
X11169825Y-14061150D02*
X11188872Y-14070674D01*
X11265063Y-14270674D02*
X11274587Y-14261150D01*
X11274587Y-14261150D02*
X11293634Y-14232579D01*
X11293634Y-14232579D02*
X11303158Y-14213531D01*
X11303158Y-14213531D02*
X11312682Y-14184960D01*
X11312682Y-14184960D02*
X11322206Y-14137341D01*
X11322206Y-14137341D02*
X11322206Y-14099246D01*
X11322206Y-14099246D02*
X11312682Y-14051627D01*
X11312682Y-14051627D02*
X11303158Y-14023055D01*
X11303158Y-14023055D02*
X11293634Y-14004008D01*
X11293634Y-14004008D02*
X11274587Y-13975436D01*
X11274587Y-13975436D02*
X11265063Y-13965912D01*
D11*
X6476820Y-14398820D02*
X6476820Y-14335180D01*
X6413180Y-14335180D01*
X6413180Y-14398820D01*
X6476820Y-14398820D01*
D10*
X6788872Y-14258484D02*
X6807920Y-14258484D01*
X6807920Y-14258484D02*
X6826967Y-14268008D01*
X6826967Y-14268008D02*
X6836491Y-14277531D01*
X6836491Y-14277531D02*
X6846015Y-14296579D01*
X6846015Y-14296579D02*
X6855539Y-14334674D01*
X6855539Y-14334674D02*
X6855539Y-14382293D01*
X6855539Y-14382293D02*
X6846015Y-14420388D01*
X6846015Y-14420388D02*
X6836491Y-14439436D01*
X6836491Y-14439436D02*
X6826967Y-14448960D01*
X6826967Y-14448960D02*
X6807920Y-14458484D01*
X6807920Y-14458484D02*
X6788872Y-14458484D01*
X6788872Y-14458484D02*
X6769824Y-14448960D01*
X6769824Y-14448960D02*
X6760301Y-14439436D01*
X6760301Y-14439436D02*
X6750777Y-14420388D01*
X6750777Y-14420388D02*
X6741253Y-14382293D01*
X6741253Y-14382293D02*
X6741253Y-14334674D01*
X6741253Y-14334674D02*
X6750777Y-14296579D01*
X6750777Y-14296579D02*
X6760301Y-14277531D01*
X6760301Y-14277531D02*
X6769824Y-14268008D01*
X6769824Y-14268008D02*
X6788872Y-14258484D01*
X6941253Y-14439436D02*
X6950777Y-14448960D01*
X6950777Y-14448960D02*
X6941253Y-14458484D01*
X6941253Y-14458484D02*
X6931729Y-14448960D01*
X6931729Y-14448960D02*
X6941253Y-14439436D01*
X6941253Y-14439436D02*
X6941253Y-14458484D01*
X7046015Y-14458484D02*
X7084110Y-14458484D01*
X7084110Y-14458484D02*
X7103158Y-14448960D01*
X7103158Y-14448960D02*
X7112682Y-14439436D01*
X7112682Y-14439436D02*
X7131729Y-14410865D01*
X7131729Y-14410865D02*
X7141253Y-14372769D01*
X7141253Y-14372769D02*
X7141253Y-14296579D01*
X7141253Y-14296579D02*
X7131729Y-14277531D01*
X7131729Y-14277531D02*
X7122205Y-14268008D01*
X7122205Y-14268008D02*
X7103158Y-14258484D01*
X7103158Y-14258484D02*
X7065062Y-14258484D01*
X7065062Y-14258484D02*
X7046015Y-14268008D01*
X7046015Y-14268008D02*
X7036491Y-14277531D01*
X7036491Y-14277531D02*
X7026967Y-14296579D01*
X7026967Y-14296579D02*
X7026967Y-14344198D01*
X7026967Y-14344198D02*
X7036491Y-14363246D01*
X7036491Y-14363246D02*
X7046015Y-14372769D01*
X7046015Y-14372769D02*
X7065062Y-14382293D01*
X7065062Y-14382293D02*
X7103158Y-14382293D01*
X7103158Y-14382293D02*
X7122205Y-14372769D01*
X7122205Y-14372769D02*
X7131729Y-14363246D01*
X7131729Y-14363246D02*
X7141253Y-14344198D01*
X7265062Y-14258484D02*
X7284110Y-14258484D01*
X7284110Y-14258484D02*
X7303158Y-14268008D01*
X7303158Y-14268008D02*
X7312682Y-14277531D01*
X7312682Y-14277531D02*
X7322205Y-14296579D01*
X7322205Y-14296579D02*
X7331729Y-14334674D01*
X7331729Y-14334674D02*
X7331729Y-14382293D01*
X7331729Y-14382293D02*
X7322205Y-14420388D01*
X7322205Y-14420388D02*
X7312682Y-14439436D01*
X7312682Y-14439436D02*
X7303158Y-14448960D01*
X7303158Y-14448960D02*
X7284110Y-14458484D01*
X7284110Y-14458484D02*
X7265062Y-14458484D01*
X7265062Y-14458484D02*
X7246015Y-14448960D01*
X7246015Y-14448960D02*
X7236491Y-14439436D01*
X7236491Y-14439436D02*
X7226967Y-14420388D01*
X7226967Y-14420388D02*
X7217443Y-14382293D01*
X7217443Y-14382293D02*
X7217443Y-14334674D01*
X7217443Y-14334674D02*
X7226967Y-14296579D01*
X7226967Y-14296579D02*
X7236491Y-14277531D01*
X7236491Y-14277531D02*
X7246015Y-14268008D01*
X7246015Y-14268008D02*
X7265062Y-14258484D01*
X7455539Y-14258484D02*
X7474586Y-14258484D01*
X7474586Y-14258484D02*
X7493634Y-14268008D01*
X7493634Y-14268008D02*
X7503158Y-14277531D01*
X7503158Y-14277531D02*
X7512682Y-14296579D01*
X7512682Y-14296579D02*
X7522205Y-14334674D01*
X7522205Y-14334674D02*
X7522205Y-14382293D01*
X7522205Y-14382293D02*
X7512682Y-14420388D01*
X7512682Y-14420388D02*
X7503158Y-14439436D01*
X7503158Y-14439436D02*
X7493634Y-14448960D01*
X7493634Y-14448960D02*
X7474586Y-14458484D01*
X7474586Y-14458484D02*
X7455539Y-14458484D01*
X7455539Y-14458484D02*
X7436491Y-14448960D01*
X7436491Y-14448960D02*
X7426967Y-14439436D01*
X7426967Y-14439436D02*
X7417443Y-14420388D01*
X7417443Y-14420388D02*
X7407920Y-14382293D01*
X7407920Y-14382293D02*
X7407920Y-14334674D01*
X7407920Y-14334674D02*
X7417443Y-14296579D01*
X7417443Y-14296579D02*
X7426967Y-14277531D01*
X7426967Y-14277531D02*
X7436491Y-14268008D01*
X7436491Y-14268008D02*
X7455539Y-14258484D01*
X7607920Y-14458484D02*
X7607920Y-14325150D01*
X7607920Y-14344198D02*
X7617443Y-14334674D01*
X7617443Y-14334674D02*
X7636491Y-14325150D01*
X7636491Y-14325150D02*
X7665063Y-14325150D01*
X7665063Y-14325150D02*
X7684110Y-14334674D01*
X7684110Y-14334674D02*
X7693634Y-14353722D01*
X7693634Y-14353722D02*
X7693634Y-14458484D01*
X7693634Y-14353722D02*
X7703158Y-14334674D01*
X7703158Y-14334674D02*
X7722205Y-14325150D01*
X7722205Y-14325150D02*
X7750777Y-14325150D01*
X7750777Y-14325150D02*
X7769824Y-14334674D01*
X7769824Y-14334674D02*
X7779348Y-14353722D01*
X7779348Y-14353722D02*
X7779348Y-14458484D01*
X7874586Y-14458484D02*
X7874586Y-14325150D01*
X7874586Y-14344198D02*
X7884110Y-14334674D01*
X7884110Y-14334674D02*
X7903158Y-14325150D01*
X7903158Y-14325150D02*
X7931729Y-14325150D01*
X7931729Y-14325150D02*
X7950777Y-14334674D01*
X7950777Y-14334674D02*
X7960301Y-14353722D01*
X7960301Y-14353722D02*
X7960301Y-14458484D01*
X7960301Y-14353722D02*
X7969824Y-14334674D01*
X7969824Y-14334674D02*
X7988872Y-14325150D01*
X7988872Y-14325150D02*
X8017443Y-14325150D01*
X8017443Y-14325150D02*
X8036491Y-14334674D01*
X8036491Y-14334674D02*
X8046015Y-14353722D01*
X8046015Y-14353722D02*
X8046015Y-14458484D01*
X8436491Y-14248960D02*
X8265063Y-14506103D01*
X8693634Y-14258484D02*
X8712682Y-14258484D01*
X8712682Y-14258484D02*
X8731729Y-14268008D01*
X8731729Y-14268008D02*
X8741253Y-14277531D01*
X8741253Y-14277531D02*
X8750777Y-14296579D01*
X8750777Y-14296579D02*
X8760301Y-14334674D01*
X8760301Y-14334674D02*
X8760301Y-14382293D01*
X8760301Y-14382293D02*
X8750777Y-14420388D01*
X8750777Y-14420388D02*
X8741253Y-14439436D01*
X8741253Y-14439436D02*
X8731729Y-14448960D01*
X8731729Y-14448960D02*
X8712682Y-14458484D01*
X8712682Y-14458484D02*
X8693634Y-14458484D01*
X8693634Y-14458484D02*
X8674587Y-14448960D01*
X8674587Y-14448960D02*
X8665063Y-14439436D01*
X8665063Y-14439436D02*
X8655539Y-14420388D01*
X8655539Y-14420388D02*
X8646015Y-14382293D01*
X8646015Y-14382293D02*
X8646015Y-14334674D01*
X8646015Y-14334674D02*
X8655539Y-14296579D01*
X8655539Y-14296579D02*
X8665063Y-14277531D01*
X8665063Y-14277531D02*
X8674587Y-14268008D01*
X8674587Y-14268008D02*
X8693634Y-14258484D01*
X8846015Y-14439436D02*
X8855539Y-14448960D01*
X8855539Y-14448960D02*
X8846015Y-14458484D01*
X8846015Y-14458484D02*
X8836491Y-14448960D01*
X8836491Y-14448960D02*
X8846015Y-14439436D01*
X8846015Y-14439436D02*
X8846015Y-14458484D01*
X8979348Y-14258484D02*
X8998396Y-14258484D01*
X8998396Y-14258484D02*
X9017444Y-14268008D01*
X9017444Y-14268008D02*
X9026968Y-14277531D01*
X9026968Y-14277531D02*
X9036491Y-14296579D01*
X9036491Y-14296579D02*
X9046015Y-14334674D01*
X9046015Y-14334674D02*
X9046015Y-14382293D01*
X9046015Y-14382293D02*
X9036491Y-14420388D01*
X9036491Y-14420388D02*
X9026968Y-14439436D01*
X9026968Y-14439436D02*
X9017444Y-14448960D01*
X9017444Y-14448960D02*
X8998396Y-14458484D01*
X8998396Y-14458484D02*
X8979348Y-14458484D01*
X8979348Y-14458484D02*
X8960301Y-14448960D01*
X8960301Y-14448960D02*
X8950777Y-14439436D01*
X8950777Y-14439436D02*
X8941253Y-14420388D01*
X8941253Y-14420388D02*
X8931729Y-14382293D01*
X8931729Y-14382293D02*
X8931729Y-14334674D01*
X8931729Y-14334674D02*
X8941253Y-14296579D01*
X8941253Y-14296579D02*
X8950777Y-14277531D01*
X8950777Y-14277531D02*
X8960301Y-14268008D01*
X8960301Y-14268008D02*
X8979348Y-14258484D01*
X9112682Y-14258484D02*
X9236491Y-14258484D01*
X9236491Y-14258484D02*
X9169825Y-14334674D01*
X9169825Y-14334674D02*
X9198396Y-14334674D01*
X9198396Y-14334674D02*
X9217444Y-14344198D01*
X9217444Y-14344198D02*
X9226968Y-14353722D01*
X9226968Y-14353722D02*
X9236491Y-14372769D01*
X9236491Y-14372769D02*
X9236491Y-14420388D01*
X9236491Y-14420388D02*
X9226968Y-14439436D01*
X9226968Y-14439436D02*
X9217444Y-14448960D01*
X9217444Y-14448960D02*
X9198396Y-14458484D01*
X9198396Y-14458484D02*
X9141253Y-14458484D01*
X9141253Y-14458484D02*
X9122206Y-14448960D01*
X9122206Y-14448960D02*
X9112682Y-14439436D01*
X9417444Y-14258484D02*
X9322206Y-14258484D01*
X9322206Y-14258484D02*
X9312682Y-14353722D01*
X9312682Y-14353722D02*
X9322206Y-14344198D01*
X9322206Y-14344198D02*
X9341253Y-14334674D01*
X9341253Y-14334674D02*
X9388872Y-14334674D01*
X9388872Y-14334674D02*
X9407920Y-14344198D01*
X9407920Y-14344198D02*
X9417444Y-14353722D01*
X9417444Y-14353722D02*
X9426968Y-14372769D01*
X9426968Y-14372769D02*
X9426968Y-14420388D01*
X9426968Y-14420388D02*
X9417444Y-14439436D01*
X9417444Y-14439436D02*
X9407920Y-14448960D01*
X9407920Y-14448960D02*
X9388872Y-14458484D01*
X9388872Y-14458484D02*
X9341253Y-14458484D01*
X9341253Y-14458484D02*
X9322206Y-14448960D01*
X9322206Y-14448960D02*
X9312682Y-14439436D01*
X9598396Y-14325150D02*
X9598396Y-14458484D01*
X9550777Y-14248960D02*
X9503158Y-14391817D01*
X9503158Y-14391817D02*
X9626968Y-14391817D01*
X9693634Y-14258484D02*
X9693634Y-14296579D01*
X9769825Y-14258484D02*
X9769825Y-14296579D01*
X10065063Y-14534674D02*
X10055539Y-14525150D01*
X10055539Y-14525150D02*
X10036491Y-14496579D01*
X10036491Y-14496579D02*
X10026968Y-14477531D01*
X10026968Y-14477531D02*
X10017444Y-14448960D01*
X10017444Y-14448960D02*
X10007920Y-14401341D01*
X10007920Y-14401341D02*
X10007920Y-14363246D01*
X10007920Y-14363246D02*
X10017444Y-14315627D01*
X10017444Y-14315627D02*
X10026968Y-14287055D01*
X10026968Y-14287055D02*
X10036491Y-14268008D01*
X10036491Y-14268008D02*
X10055539Y-14239436D01*
X10055539Y-14239436D02*
X10065063Y-14229912D01*
X10246015Y-14458484D02*
X10131730Y-14458484D01*
X10188872Y-14458484D02*
X10188872Y-14258484D01*
X10188872Y-14258484D02*
X10169825Y-14287055D01*
X10169825Y-14287055D02*
X10150777Y-14306103D01*
X10150777Y-14306103D02*
X10131730Y-14315627D01*
X10369825Y-14258484D02*
X10388872Y-14258484D01*
X10388872Y-14258484D02*
X10407920Y-14268008D01*
X10407920Y-14268008D02*
X10417444Y-14277531D01*
X10417444Y-14277531D02*
X10426968Y-14296579D01*
X10426968Y-14296579D02*
X10436491Y-14334674D01*
X10436491Y-14334674D02*
X10436491Y-14382293D01*
X10436491Y-14382293D02*
X10426968Y-14420388D01*
X10426968Y-14420388D02*
X10417444Y-14439436D01*
X10417444Y-14439436D02*
X10407920Y-14448960D01*
X10407920Y-14448960D02*
X10388872Y-14458484D01*
X10388872Y-14458484D02*
X10369825Y-14458484D01*
X10369825Y-14458484D02*
X10350777Y-14448960D01*
X10350777Y-14448960D02*
X10341253Y-14439436D01*
X10341253Y-14439436D02*
X10331730Y-14420388D01*
X10331730Y-14420388D02*
X10322206Y-14382293D01*
X10322206Y-14382293D02*
X10322206Y-14334674D01*
X10322206Y-14334674D02*
X10331730Y-14296579D01*
X10331730Y-14296579D02*
X10341253Y-14277531D01*
X10341253Y-14277531D02*
X10350777Y-14268008D01*
X10350777Y-14268008D02*
X10369825Y-14258484D01*
X10674587Y-14458484D02*
X10674587Y-14258484D01*
X10760301Y-14458484D02*
X10760301Y-14353722D01*
X10760301Y-14353722D02*
X10750777Y-14334674D01*
X10750777Y-14334674D02*
X10731730Y-14325150D01*
X10731730Y-14325150D02*
X10703158Y-14325150D01*
X10703158Y-14325150D02*
X10684111Y-14334674D01*
X10684111Y-14334674D02*
X10674587Y-14344198D01*
X10884111Y-14458484D02*
X10865063Y-14448960D01*
X10865063Y-14448960D02*
X10855539Y-14439436D01*
X10855539Y-14439436D02*
X10846015Y-14420388D01*
X10846015Y-14420388D02*
X10846015Y-14363246D01*
X10846015Y-14363246D02*
X10855539Y-14344198D01*
X10855539Y-14344198D02*
X10865063Y-14334674D01*
X10865063Y-14334674D02*
X10884111Y-14325150D01*
X10884111Y-14325150D02*
X10912682Y-14325150D01*
X10912682Y-14325150D02*
X10931730Y-14334674D01*
X10931730Y-14334674D02*
X10941253Y-14344198D01*
X10941253Y-14344198D02*
X10950777Y-14363246D01*
X10950777Y-14363246D02*
X10950777Y-14420388D01*
X10950777Y-14420388D02*
X10941253Y-14439436D01*
X10941253Y-14439436D02*
X10931730Y-14448960D01*
X10931730Y-14448960D02*
X10912682Y-14458484D01*
X10912682Y-14458484D02*
X10884111Y-14458484D01*
X11065063Y-14458484D02*
X11046015Y-14448960D01*
X11046015Y-14448960D02*
X11036492Y-14429912D01*
X11036492Y-14429912D02*
X11036492Y-14258484D01*
X11217444Y-14448960D02*
X11198396Y-14458484D01*
X11198396Y-14458484D02*
X11160301Y-14458484D01*
X11160301Y-14458484D02*
X11141253Y-14448960D01*
X11141253Y-14448960D02*
X11131730Y-14429912D01*
X11131730Y-14429912D02*
X11131730Y-14353722D01*
X11131730Y-14353722D02*
X11141253Y-14334674D01*
X11141253Y-14334674D02*
X11160301Y-14325150D01*
X11160301Y-14325150D02*
X11198396Y-14325150D01*
X11198396Y-14325150D02*
X11217444Y-14334674D01*
X11217444Y-14334674D02*
X11226968Y-14353722D01*
X11226968Y-14353722D02*
X11226968Y-14372769D01*
X11226968Y-14372769D02*
X11131730Y-14391817D01*
X11303158Y-14448960D02*
X11322206Y-14458484D01*
X11322206Y-14458484D02*
X11360301Y-14458484D01*
X11360301Y-14458484D02*
X11379349Y-14448960D01*
X11379349Y-14448960D02*
X11388872Y-14429912D01*
X11388872Y-14429912D02*
X11388872Y-14420388D01*
X11388872Y-14420388D02*
X11379349Y-14401341D01*
X11379349Y-14401341D02*
X11360301Y-14391817D01*
X11360301Y-14391817D02*
X11331730Y-14391817D01*
X11331730Y-14391817D02*
X11312682Y-14382293D01*
X11312682Y-14382293D02*
X11303158Y-14363246D01*
X11303158Y-14363246D02*
X11303158Y-14353722D01*
X11303158Y-14353722D02*
X11312682Y-14334674D01*
X11312682Y-14334674D02*
X11331730Y-14325150D01*
X11331730Y-14325150D02*
X11360301Y-14325150D01*
X11360301Y-14325150D02*
X11379349Y-14334674D01*
X11455539Y-14534674D02*
X11465063Y-14525150D01*
X11465063Y-14525150D02*
X11484111Y-14496579D01*
X11484111Y-14496579D02*
X11493634Y-14477531D01*
X11493634Y-14477531D02*
X11503158Y-14448960D01*
X11503158Y-14448960D02*
X11512682Y-14401341D01*
X11512682Y-14401341D02*
X11512682Y-14363246D01*
X11512682Y-14363246D02*
X11503158Y-14315627D01*
X11503158Y-14315627D02*
X11493634Y-14287055D01*
X11493634Y-14287055D02*
X11484111Y-14268008D01*
X11484111Y-14268008D02*
X11465063Y-14239436D01*
X11465063Y-14239436D02*
X11455539Y-14229912D01*
D11*
X6440000Y-14681000D02*
X6490000Y-14631000D01*
X6440000Y-14581000D01*
X6390000Y-14631000D01*
X6440000Y-14681000D01*
D10*
X6855539Y-14722484D02*
X6741253Y-14722484D01*
X6798396Y-14722484D02*
X6798396Y-14522484D01*
X6798396Y-14522484D02*
X6779348Y-14551055D01*
X6779348Y-14551055D02*
X6760301Y-14570103D01*
X6760301Y-14570103D02*
X6741253Y-14579627D01*
X6941253Y-14703436D02*
X6950777Y-14712960D01*
X6950777Y-14712960D02*
X6941253Y-14722484D01*
X6941253Y-14722484D02*
X6931729Y-14712960D01*
X6931729Y-14712960D02*
X6941253Y-14703436D01*
X6941253Y-14703436D02*
X6941253Y-14722484D01*
X7074586Y-14522484D02*
X7093634Y-14522484D01*
X7093634Y-14522484D02*
X7112682Y-14532008D01*
X7112682Y-14532008D02*
X7122205Y-14541531D01*
X7122205Y-14541531D02*
X7131729Y-14560579D01*
X7131729Y-14560579D02*
X7141253Y-14598674D01*
X7141253Y-14598674D02*
X7141253Y-14646293D01*
X7141253Y-14646293D02*
X7131729Y-14684388D01*
X7131729Y-14684388D02*
X7122205Y-14703436D01*
X7122205Y-14703436D02*
X7112682Y-14712960D01*
X7112682Y-14712960D02*
X7093634Y-14722484D01*
X7093634Y-14722484D02*
X7074586Y-14722484D01*
X7074586Y-14722484D02*
X7055539Y-14712960D01*
X7055539Y-14712960D02*
X7046015Y-14703436D01*
X7046015Y-14703436D02*
X7036491Y-14684388D01*
X7036491Y-14684388D02*
X7026967Y-14646293D01*
X7026967Y-14646293D02*
X7026967Y-14598674D01*
X7026967Y-14598674D02*
X7036491Y-14560579D01*
X7036491Y-14560579D02*
X7046015Y-14541531D01*
X7046015Y-14541531D02*
X7055539Y-14532008D01*
X7055539Y-14532008D02*
X7074586Y-14522484D01*
X7265062Y-14522484D02*
X7284110Y-14522484D01*
X7284110Y-14522484D02*
X7303158Y-14532008D01*
X7303158Y-14532008D02*
X7312682Y-14541531D01*
X7312682Y-14541531D02*
X7322205Y-14560579D01*
X7322205Y-14560579D02*
X7331729Y-14598674D01*
X7331729Y-14598674D02*
X7331729Y-14646293D01*
X7331729Y-14646293D02*
X7322205Y-14684388D01*
X7322205Y-14684388D02*
X7312682Y-14703436D01*
X7312682Y-14703436D02*
X7303158Y-14712960D01*
X7303158Y-14712960D02*
X7284110Y-14722484D01*
X7284110Y-14722484D02*
X7265062Y-14722484D01*
X7265062Y-14722484D02*
X7246015Y-14712960D01*
X7246015Y-14712960D02*
X7236491Y-14703436D01*
X7236491Y-14703436D02*
X7226967Y-14684388D01*
X7226967Y-14684388D02*
X7217443Y-14646293D01*
X7217443Y-14646293D02*
X7217443Y-14598674D01*
X7217443Y-14598674D02*
X7226967Y-14560579D01*
X7226967Y-14560579D02*
X7236491Y-14541531D01*
X7236491Y-14541531D02*
X7246015Y-14532008D01*
X7246015Y-14532008D02*
X7265062Y-14522484D01*
X7455539Y-14522484D02*
X7474586Y-14522484D01*
X7474586Y-14522484D02*
X7493634Y-14532008D01*
X7493634Y-14532008D02*
X7503158Y-14541531D01*
X7503158Y-14541531D02*
X7512682Y-14560579D01*
X7512682Y-14560579D02*
X7522205Y-14598674D01*
X7522205Y-14598674D02*
X7522205Y-14646293D01*
X7522205Y-14646293D02*
X7512682Y-14684388D01*
X7512682Y-14684388D02*
X7503158Y-14703436D01*
X7503158Y-14703436D02*
X7493634Y-14712960D01*
X7493634Y-14712960D02*
X7474586Y-14722484D01*
X7474586Y-14722484D02*
X7455539Y-14722484D01*
X7455539Y-14722484D02*
X7436491Y-14712960D01*
X7436491Y-14712960D02*
X7426967Y-14703436D01*
X7426967Y-14703436D02*
X7417443Y-14684388D01*
X7417443Y-14684388D02*
X7407920Y-14646293D01*
X7407920Y-14646293D02*
X7407920Y-14598674D01*
X7407920Y-14598674D02*
X7417443Y-14560579D01*
X7417443Y-14560579D02*
X7426967Y-14541531D01*
X7426967Y-14541531D02*
X7436491Y-14532008D01*
X7436491Y-14532008D02*
X7455539Y-14522484D01*
X7607920Y-14722484D02*
X7607920Y-14589150D01*
X7607920Y-14608198D02*
X7617443Y-14598674D01*
X7617443Y-14598674D02*
X7636491Y-14589150D01*
X7636491Y-14589150D02*
X7665063Y-14589150D01*
X7665063Y-14589150D02*
X7684110Y-14598674D01*
X7684110Y-14598674D02*
X7693634Y-14617722D01*
X7693634Y-14617722D02*
X7693634Y-14722484D01*
X7693634Y-14617722D02*
X7703158Y-14598674D01*
X7703158Y-14598674D02*
X7722205Y-14589150D01*
X7722205Y-14589150D02*
X7750777Y-14589150D01*
X7750777Y-14589150D02*
X7769824Y-14598674D01*
X7769824Y-14598674D02*
X7779348Y-14617722D01*
X7779348Y-14617722D02*
X7779348Y-14722484D01*
X7874586Y-14722484D02*
X7874586Y-14589150D01*
X7874586Y-14608198D02*
X7884110Y-14598674D01*
X7884110Y-14598674D02*
X7903158Y-14589150D01*
X7903158Y-14589150D02*
X7931729Y-14589150D01*
X7931729Y-14589150D02*
X7950777Y-14598674D01*
X7950777Y-14598674D02*
X7960301Y-14617722D01*
X7960301Y-14617722D02*
X7960301Y-14722484D01*
X7960301Y-14617722D02*
X7969824Y-14598674D01*
X7969824Y-14598674D02*
X7988872Y-14589150D01*
X7988872Y-14589150D02*
X8017443Y-14589150D01*
X8017443Y-14589150D02*
X8036491Y-14598674D01*
X8036491Y-14598674D02*
X8046015Y-14617722D01*
X8046015Y-14617722D02*
X8046015Y-14722484D01*
X8436491Y-14512960D02*
X8265063Y-14770103D01*
X8693634Y-14522484D02*
X8712682Y-14522484D01*
X8712682Y-14522484D02*
X8731729Y-14532008D01*
X8731729Y-14532008D02*
X8741253Y-14541531D01*
X8741253Y-14541531D02*
X8750777Y-14560579D01*
X8750777Y-14560579D02*
X8760301Y-14598674D01*
X8760301Y-14598674D02*
X8760301Y-14646293D01*
X8760301Y-14646293D02*
X8750777Y-14684388D01*
X8750777Y-14684388D02*
X8741253Y-14703436D01*
X8741253Y-14703436D02*
X8731729Y-14712960D01*
X8731729Y-14712960D02*
X8712682Y-14722484D01*
X8712682Y-14722484D02*
X8693634Y-14722484D01*
X8693634Y-14722484D02*
X8674587Y-14712960D01*
X8674587Y-14712960D02*
X8665063Y-14703436D01*
X8665063Y-14703436D02*
X8655539Y-14684388D01*
X8655539Y-14684388D02*
X8646015Y-14646293D01*
X8646015Y-14646293D02*
X8646015Y-14598674D01*
X8646015Y-14598674D02*
X8655539Y-14560579D01*
X8655539Y-14560579D02*
X8665063Y-14541531D01*
X8665063Y-14541531D02*
X8674587Y-14532008D01*
X8674587Y-14532008D02*
X8693634Y-14522484D01*
X8846015Y-14703436D02*
X8855539Y-14712960D01*
X8855539Y-14712960D02*
X8846015Y-14722484D01*
X8846015Y-14722484D02*
X8836491Y-14712960D01*
X8836491Y-14712960D02*
X8846015Y-14703436D01*
X8846015Y-14703436D02*
X8846015Y-14722484D01*
X8979348Y-14522484D02*
X8998396Y-14522484D01*
X8998396Y-14522484D02*
X9017444Y-14532008D01*
X9017444Y-14532008D02*
X9026968Y-14541531D01*
X9026968Y-14541531D02*
X9036491Y-14560579D01*
X9036491Y-14560579D02*
X9046015Y-14598674D01*
X9046015Y-14598674D02*
X9046015Y-14646293D01*
X9046015Y-14646293D02*
X9036491Y-14684388D01*
X9036491Y-14684388D02*
X9026968Y-14703436D01*
X9026968Y-14703436D02*
X9017444Y-14712960D01*
X9017444Y-14712960D02*
X8998396Y-14722484D01*
X8998396Y-14722484D02*
X8979348Y-14722484D01*
X8979348Y-14722484D02*
X8960301Y-14712960D01*
X8960301Y-14712960D02*
X8950777Y-14703436D01*
X8950777Y-14703436D02*
X8941253Y-14684388D01*
X8941253Y-14684388D02*
X8931729Y-14646293D01*
X8931729Y-14646293D02*
X8931729Y-14598674D01*
X8931729Y-14598674D02*
X8941253Y-14560579D01*
X8941253Y-14560579D02*
X8950777Y-14541531D01*
X8950777Y-14541531D02*
X8960301Y-14532008D01*
X8960301Y-14532008D02*
X8979348Y-14522484D01*
X9112682Y-14522484D02*
X9236491Y-14522484D01*
X9236491Y-14522484D02*
X9169825Y-14598674D01*
X9169825Y-14598674D02*
X9198396Y-14598674D01*
X9198396Y-14598674D02*
X9217444Y-14608198D01*
X9217444Y-14608198D02*
X9226968Y-14617722D01*
X9226968Y-14617722D02*
X9236491Y-14636769D01*
X9236491Y-14636769D02*
X9236491Y-14684388D01*
X9236491Y-14684388D02*
X9226968Y-14703436D01*
X9226968Y-14703436D02*
X9217444Y-14712960D01*
X9217444Y-14712960D02*
X9198396Y-14722484D01*
X9198396Y-14722484D02*
X9141253Y-14722484D01*
X9141253Y-14722484D02*
X9122206Y-14712960D01*
X9122206Y-14712960D02*
X9112682Y-14703436D01*
X9331729Y-14722484D02*
X9369825Y-14722484D01*
X9369825Y-14722484D02*
X9388872Y-14712960D01*
X9388872Y-14712960D02*
X9398396Y-14703436D01*
X9398396Y-14703436D02*
X9417444Y-14674865D01*
X9417444Y-14674865D02*
X9426968Y-14636769D01*
X9426968Y-14636769D02*
X9426968Y-14560579D01*
X9426968Y-14560579D02*
X9417444Y-14541531D01*
X9417444Y-14541531D02*
X9407920Y-14532008D01*
X9407920Y-14532008D02*
X9388872Y-14522484D01*
X9388872Y-14522484D02*
X9350777Y-14522484D01*
X9350777Y-14522484D02*
X9331729Y-14532008D01*
X9331729Y-14532008D02*
X9322206Y-14541531D01*
X9322206Y-14541531D02*
X9312682Y-14560579D01*
X9312682Y-14560579D02*
X9312682Y-14608198D01*
X9312682Y-14608198D02*
X9322206Y-14627246D01*
X9322206Y-14627246D02*
X9331729Y-14636769D01*
X9331729Y-14636769D02*
X9350777Y-14646293D01*
X9350777Y-14646293D02*
X9388872Y-14646293D01*
X9388872Y-14646293D02*
X9407920Y-14636769D01*
X9407920Y-14636769D02*
X9417444Y-14627246D01*
X9417444Y-14627246D02*
X9426968Y-14608198D01*
X9598396Y-14589150D02*
X9598396Y-14722484D01*
X9550777Y-14512960D02*
X9503158Y-14655817D01*
X9503158Y-14655817D02*
X9626968Y-14655817D01*
X9693634Y-14522484D02*
X9693634Y-14560579D01*
X9769825Y-14522484D02*
X9769825Y-14560579D01*
X10065063Y-14798674D02*
X10055539Y-14789150D01*
X10055539Y-14789150D02*
X10036491Y-14760579D01*
X10036491Y-14760579D02*
X10026968Y-14741531D01*
X10026968Y-14741531D02*
X10017444Y-14712960D01*
X10017444Y-14712960D02*
X10007920Y-14665341D01*
X10007920Y-14665341D02*
X10007920Y-14627246D01*
X10007920Y-14627246D02*
X10017444Y-14579627D01*
X10017444Y-14579627D02*
X10026968Y-14551055D01*
X10026968Y-14551055D02*
X10036491Y-14532008D01*
X10036491Y-14532008D02*
X10055539Y-14503436D01*
X10055539Y-14503436D02*
X10065063Y-14493912D01*
X10131730Y-14541531D02*
X10141253Y-14532008D01*
X10141253Y-14532008D02*
X10160301Y-14522484D01*
X10160301Y-14522484D02*
X10207920Y-14522484D01*
X10207920Y-14522484D02*
X10226968Y-14532008D01*
X10226968Y-14532008D02*
X10236491Y-14541531D01*
X10236491Y-14541531D02*
X10246015Y-14560579D01*
X10246015Y-14560579D02*
X10246015Y-14579627D01*
X10246015Y-14579627D02*
X10236491Y-14608198D01*
X10236491Y-14608198D02*
X10122206Y-14722484D01*
X10122206Y-14722484D02*
X10246015Y-14722484D01*
X10341253Y-14722484D02*
X10379349Y-14722484D01*
X10379349Y-14722484D02*
X10398396Y-14712960D01*
X10398396Y-14712960D02*
X10407920Y-14703436D01*
X10407920Y-14703436D02*
X10426968Y-14674865D01*
X10426968Y-14674865D02*
X10436491Y-14636769D01*
X10436491Y-14636769D02*
X10436491Y-14560579D01*
X10436491Y-14560579D02*
X10426968Y-14541531D01*
X10426968Y-14541531D02*
X10417444Y-14532008D01*
X10417444Y-14532008D02*
X10398396Y-14522484D01*
X10398396Y-14522484D02*
X10360301Y-14522484D01*
X10360301Y-14522484D02*
X10341253Y-14532008D01*
X10341253Y-14532008D02*
X10331730Y-14541531D01*
X10331730Y-14541531D02*
X10322206Y-14560579D01*
X10322206Y-14560579D02*
X10322206Y-14608198D01*
X10322206Y-14608198D02*
X10331730Y-14627246D01*
X10331730Y-14627246D02*
X10341253Y-14636769D01*
X10341253Y-14636769D02*
X10360301Y-14646293D01*
X10360301Y-14646293D02*
X10398396Y-14646293D01*
X10398396Y-14646293D02*
X10417444Y-14636769D01*
X10417444Y-14636769D02*
X10426968Y-14627246D01*
X10426968Y-14627246D02*
X10436491Y-14608198D01*
X10674587Y-14722484D02*
X10674587Y-14522484D01*
X10760301Y-14722484D02*
X10760301Y-14617722D01*
X10760301Y-14617722D02*
X10750777Y-14598674D01*
X10750777Y-14598674D02*
X10731730Y-14589150D01*
X10731730Y-14589150D02*
X10703158Y-14589150D01*
X10703158Y-14589150D02*
X10684111Y-14598674D01*
X10684111Y-14598674D02*
X10674587Y-14608198D01*
X10884111Y-14722484D02*
X10865063Y-14712960D01*
X10865063Y-14712960D02*
X10855539Y-14703436D01*
X10855539Y-14703436D02*
X10846015Y-14684388D01*
X10846015Y-14684388D02*
X10846015Y-14627246D01*
X10846015Y-14627246D02*
X10855539Y-14608198D01*
X10855539Y-14608198D02*
X10865063Y-14598674D01*
X10865063Y-14598674D02*
X10884111Y-14589150D01*
X10884111Y-14589150D02*
X10912682Y-14589150D01*
X10912682Y-14589150D02*
X10931730Y-14598674D01*
X10931730Y-14598674D02*
X10941253Y-14608198D01*
X10941253Y-14608198D02*
X10950777Y-14627246D01*
X10950777Y-14627246D02*
X10950777Y-14684388D01*
X10950777Y-14684388D02*
X10941253Y-14703436D01*
X10941253Y-14703436D02*
X10931730Y-14712960D01*
X10931730Y-14712960D02*
X10912682Y-14722484D01*
X10912682Y-14722484D02*
X10884111Y-14722484D01*
X11065063Y-14722484D02*
X11046015Y-14712960D01*
X11046015Y-14712960D02*
X11036492Y-14693912D01*
X11036492Y-14693912D02*
X11036492Y-14522484D01*
X11217444Y-14712960D02*
X11198396Y-14722484D01*
X11198396Y-14722484D02*
X11160301Y-14722484D01*
X11160301Y-14722484D02*
X11141253Y-14712960D01*
X11141253Y-14712960D02*
X11131730Y-14693912D01*
X11131730Y-14693912D02*
X11131730Y-14617722D01*
X11131730Y-14617722D02*
X11141253Y-14598674D01*
X11141253Y-14598674D02*
X11160301Y-14589150D01*
X11160301Y-14589150D02*
X11198396Y-14589150D01*
X11198396Y-14589150D02*
X11217444Y-14598674D01*
X11217444Y-14598674D02*
X11226968Y-14617722D01*
X11226968Y-14617722D02*
X11226968Y-14636769D01*
X11226968Y-14636769D02*
X11131730Y-14655817D01*
X11303158Y-14712960D02*
X11322206Y-14722484D01*
X11322206Y-14722484D02*
X11360301Y-14722484D01*
X11360301Y-14722484D02*
X11379349Y-14712960D01*
X11379349Y-14712960D02*
X11388872Y-14693912D01*
X11388872Y-14693912D02*
X11388872Y-14684388D01*
X11388872Y-14684388D02*
X11379349Y-14665341D01*
X11379349Y-14665341D02*
X11360301Y-14655817D01*
X11360301Y-14655817D02*
X11331730Y-14655817D01*
X11331730Y-14655817D02*
X11312682Y-14646293D01*
X11312682Y-14646293D02*
X11303158Y-14627246D01*
X11303158Y-14627246D02*
X11303158Y-14617722D01*
X11303158Y-14617722D02*
X11312682Y-14598674D01*
X11312682Y-14598674D02*
X11331730Y-14589150D01*
X11331730Y-14589150D02*
X11360301Y-14589150D01*
X11360301Y-14589150D02*
X11379349Y-14598674D01*
X11455539Y-14798674D02*
X11465063Y-14789150D01*
X11465063Y-14789150D02*
X11484111Y-14760579D01*
X11484111Y-14760579D02*
X11493634Y-14741531D01*
X11493634Y-14741531D02*
X11503158Y-14712960D01*
X11503158Y-14712960D02*
X11512682Y-14665341D01*
X11512682Y-14665341D02*
X11512682Y-14627246D01*
X11512682Y-14627246D02*
X11503158Y-14579627D01*
X11503158Y-14579627D02*
X11493634Y-14551055D01*
X11493634Y-14551055D02*
X11484111Y-14532008D01*
X11484111Y-14532008D02*
X11465063Y-14503436D01*
X11465063Y-14503436D02*
X11455539Y-14493912D01*
D12*
X6388400Y-14844200D02*
X6490000Y-14945800D01*
X6490000Y-14844200D02*
X6388400Y-14945800D01*
X6490000Y-14895000D02*
G75*
G02*
X6388400Y-14895000I-50800J0D01*
G01*
X6388400Y-14895000D02*
G75*
G02*
X6490000Y-14895000I50800J0D01*
G01*
D10*
X6855539Y-14986484D02*
X6741253Y-14986484D01*
X6798396Y-14986484D02*
X6798396Y-14786484D01*
X6798396Y-14786484D02*
X6779348Y-14815055D01*
X6779348Y-14815055D02*
X6760301Y-14834103D01*
X6760301Y-14834103D02*
X6741253Y-14843627D01*
X6941253Y-14967436D02*
X6950777Y-14976960D01*
X6950777Y-14976960D02*
X6941253Y-14986484D01*
X6941253Y-14986484D02*
X6931729Y-14976960D01*
X6931729Y-14976960D02*
X6941253Y-14967436D01*
X6941253Y-14967436D02*
X6941253Y-14986484D01*
X7074586Y-14786484D02*
X7093634Y-14786484D01*
X7093634Y-14786484D02*
X7112682Y-14796008D01*
X7112682Y-14796008D02*
X7122205Y-14805531D01*
X7122205Y-14805531D02*
X7131729Y-14824579D01*
X7131729Y-14824579D02*
X7141253Y-14862674D01*
X7141253Y-14862674D02*
X7141253Y-14910293D01*
X7141253Y-14910293D02*
X7131729Y-14948388D01*
X7131729Y-14948388D02*
X7122205Y-14967436D01*
X7122205Y-14967436D02*
X7112682Y-14976960D01*
X7112682Y-14976960D02*
X7093634Y-14986484D01*
X7093634Y-14986484D02*
X7074586Y-14986484D01*
X7074586Y-14986484D02*
X7055539Y-14976960D01*
X7055539Y-14976960D02*
X7046015Y-14967436D01*
X7046015Y-14967436D02*
X7036491Y-14948388D01*
X7036491Y-14948388D02*
X7026967Y-14910293D01*
X7026967Y-14910293D02*
X7026967Y-14862674D01*
X7026967Y-14862674D02*
X7036491Y-14824579D01*
X7036491Y-14824579D02*
X7046015Y-14805531D01*
X7046015Y-14805531D02*
X7055539Y-14796008D01*
X7055539Y-14796008D02*
X7074586Y-14786484D01*
X7331729Y-14986484D02*
X7217443Y-14986484D01*
X7274586Y-14986484D02*
X7274586Y-14786484D01*
X7274586Y-14786484D02*
X7255539Y-14815055D01*
X7255539Y-14815055D02*
X7236491Y-14834103D01*
X7236491Y-14834103D02*
X7217443Y-14843627D01*
X7503158Y-14786484D02*
X7465062Y-14786484D01*
X7465062Y-14786484D02*
X7446015Y-14796008D01*
X7446015Y-14796008D02*
X7436491Y-14805531D01*
X7436491Y-14805531D02*
X7417443Y-14834103D01*
X7417443Y-14834103D02*
X7407920Y-14872198D01*
X7407920Y-14872198D02*
X7407920Y-14948388D01*
X7407920Y-14948388D02*
X7417443Y-14967436D01*
X7417443Y-14967436D02*
X7426967Y-14976960D01*
X7426967Y-14976960D02*
X7446015Y-14986484D01*
X7446015Y-14986484D02*
X7484110Y-14986484D01*
X7484110Y-14986484D02*
X7503158Y-14976960D01*
X7503158Y-14976960D02*
X7512682Y-14967436D01*
X7512682Y-14967436D02*
X7522205Y-14948388D01*
X7522205Y-14948388D02*
X7522205Y-14900769D01*
X7522205Y-14900769D02*
X7512682Y-14881722D01*
X7512682Y-14881722D02*
X7503158Y-14872198D01*
X7503158Y-14872198D02*
X7484110Y-14862674D01*
X7484110Y-14862674D02*
X7446015Y-14862674D01*
X7446015Y-14862674D02*
X7426967Y-14872198D01*
X7426967Y-14872198D02*
X7417443Y-14881722D01*
X7417443Y-14881722D02*
X7407920Y-14900769D01*
X7607920Y-14986484D02*
X7607920Y-14853150D01*
X7607920Y-14872198D02*
X7617443Y-14862674D01*
X7617443Y-14862674D02*
X7636491Y-14853150D01*
X7636491Y-14853150D02*
X7665063Y-14853150D01*
X7665063Y-14853150D02*
X7684110Y-14862674D01*
X7684110Y-14862674D02*
X7693634Y-14881722D01*
X7693634Y-14881722D02*
X7693634Y-14986484D01*
X7693634Y-14881722D02*
X7703158Y-14862674D01*
X7703158Y-14862674D02*
X7722205Y-14853150D01*
X7722205Y-14853150D02*
X7750777Y-14853150D01*
X7750777Y-14853150D02*
X7769824Y-14862674D01*
X7769824Y-14862674D02*
X7779348Y-14881722D01*
X7779348Y-14881722D02*
X7779348Y-14986484D01*
X7874586Y-14986484D02*
X7874586Y-14853150D01*
X7874586Y-14872198D02*
X7884110Y-14862674D01*
X7884110Y-14862674D02*
X7903158Y-14853150D01*
X7903158Y-14853150D02*
X7931729Y-14853150D01*
X7931729Y-14853150D02*
X7950777Y-14862674D01*
X7950777Y-14862674D02*
X7960301Y-14881722D01*
X7960301Y-14881722D02*
X7960301Y-14986484D01*
X7960301Y-14881722D02*
X7969824Y-14862674D01*
X7969824Y-14862674D02*
X7988872Y-14853150D01*
X7988872Y-14853150D02*
X8017443Y-14853150D01*
X8017443Y-14853150D02*
X8036491Y-14862674D01*
X8036491Y-14862674D02*
X8046015Y-14881722D01*
X8046015Y-14881722D02*
X8046015Y-14986484D01*
X8436491Y-14776960D02*
X8265063Y-15034103D01*
X8693634Y-14786484D02*
X8712682Y-14786484D01*
X8712682Y-14786484D02*
X8731729Y-14796008D01*
X8731729Y-14796008D02*
X8741253Y-14805531D01*
X8741253Y-14805531D02*
X8750777Y-14824579D01*
X8750777Y-14824579D02*
X8760301Y-14862674D01*
X8760301Y-14862674D02*
X8760301Y-14910293D01*
X8760301Y-14910293D02*
X8750777Y-14948388D01*
X8750777Y-14948388D02*
X8741253Y-14967436D01*
X8741253Y-14967436D02*
X8731729Y-14976960D01*
X8731729Y-14976960D02*
X8712682Y-14986484D01*
X8712682Y-14986484D02*
X8693634Y-14986484D01*
X8693634Y-14986484D02*
X8674587Y-14976960D01*
X8674587Y-14976960D02*
X8665063Y-14967436D01*
X8665063Y-14967436D02*
X8655539Y-14948388D01*
X8655539Y-14948388D02*
X8646015Y-14910293D01*
X8646015Y-14910293D02*
X8646015Y-14862674D01*
X8646015Y-14862674D02*
X8655539Y-14824579D01*
X8655539Y-14824579D02*
X8665063Y-14805531D01*
X8665063Y-14805531D02*
X8674587Y-14796008D01*
X8674587Y-14796008D02*
X8693634Y-14786484D01*
X8846015Y-14967436D02*
X8855539Y-14976960D01*
X8855539Y-14976960D02*
X8846015Y-14986484D01*
X8846015Y-14986484D02*
X8836491Y-14976960D01*
X8836491Y-14976960D02*
X8846015Y-14967436D01*
X8846015Y-14967436D02*
X8846015Y-14986484D01*
X8979348Y-14786484D02*
X8998396Y-14786484D01*
X8998396Y-14786484D02*
X9017444Y-14796008D01*
X9017444Y-14796008D02*
X9026968Y-14805531D01*
X9026968Y-14805531D02*
X9036491Y-14824579D01*
X9036491Y-14824579D02*
X9046015Y-14862674D01*
X9046015Y-14862674D02*
X9046015Y-14910293D01*
X9046015Y-14910293D02*
X9036491Y-14948388D01*
X9036491Y-14948388D02*
X9026968Y-14967436D01*
X9026968Y-14967436D02*
X9017444Y-14976960D01*
X9017444Y-14976960D02*
X8998396Y-14986484D01*
X8998396Y-14986484D02*
X8979348Y-14986484D01*
X8979348Y-14986484D02*
X8960301Y-14976960D01*
X8960301Y-14976960D02*
X8950777Y-14967436D01*
X8950777Y-14967436D02*
X8941253Y-14948388D01*
X8941253Y-14948388D02*
X8931729Y-14910293D01*
X8931729Y-14910293D02*
X8931729Y-14862674D01*
X8931729Y-14862674D02*
X8941253Y-14824579D01*
X8941253Y-14824579D02*
X8950777Y-14805531D01*
X8950777Y-14805531D02*
X8960301Y-14796008D01*
X8960301Y-14796008D02*
X8979348Y-14786484D01*
X9217444Y-14853150D02*
X9217444Y-14986484D01*
X9169825Y-14776960D02*
X9122206Y-14919817D01*
X9122206Y-14919817D02*
X9246015Y-14919817D01*
X9360301Y-14786484D02*
X9379349Y-14786484D01*
X9379349Y-14786484D02*
X9398396Y-14796008D01*
X9398396Y-14796008D02*
X9407920Y-14805531D01*
X9407920Y-14805531D02*
X9417444Y-14824579D01*
X9417444Y-14824579D02*
X9426968Y-14862674D01*
X9426968Y-14862674D02*
X9426968Y-14910293D01*
X9426968Y-14910293D02*
X9417444Y-14948388D01*
X9417444Y-14948388D02*
X9407920Y-14967436D01*
X9407920Y-14967436D02*
X9398396Y-14976960D01*
X9398396Y-14976960D02*
X9379349Y-14986484D01*
X9379349Y-14986484D02*
X9360301Y-14986484D01*
X9360301Y-14986484D02*
X9341253Y-14976960D01*
X9341253Y-14976960D02*
X9331729Y-14967436D01*
X9331729Y-14967436D02*
X9322206Y-14948388D01*
X9322206Y-14948388D02*
X9312682Y-14910293D01*
X9312682Y-14910293D02*
X9312682Y-14862674D01*
X9312682Y-14862674D02*
X9322206Y-14824579D01*
X9322206Y-14824579D02*
X9331729Y-14805531D01*
X9331729Y-14805531D02*
X9341253Y-14796008D01*
X9341253Y-14796008D02*
X9360301Y-14786484D01*
X9550777Y-14786484D02*
X9569825Y-14786484D01*
X9569825Y-14786484D02*
X9588872Y-14796008D01*
X9588872Y-14796008D02*
X9598396Y-14805531D01*
X9598396Y-14805531D02*
X9607920Y-14824579D01*
X9607920Y-14824579D02*
X9617444Y-14862674D01*
X9617444Y-14862674D02*
X9617444Y-14910293D01*
X9617444Y-14910293D02*
X9607920Y-14948388D01*
X9607920Y-14948388D02*
X9598396Y-14967436D01*
X9598396Y-14967436D02*
X9588872Y-14976960D01*
X9588872Y-14976960D02*
X9569825Y-14986484D01*
X9569825Y-14986484D02*
X9550777Y-14986484D01*
X9550777Y-14986484D02*
X9531729Y-14976960D01*
X9531729Y-14976960D02*
X9522206Y-14967436D01*
X9522206Y-14967436D02*
X9512682Y-14948388D01*
X9512682Y-14948388D02*
X9503158Y-14910293D01*
X9503158Y-14910293D02*
X9503158Y-14862674D01*
X9503158Y-14862674D02*
X9512682Y-14824579D01*
X9512682Y-14824579D02*
X9522206Y-14805531D01*
X9522206Y-14805531D02*
X9531729Y-14796008D01*
X9531729Y-14796008D02*
X9550777Y-14786484D01*
X9693634Y-14786484D02*
X9693634Y-14824579D01*
X9769825Y-14786484D02*
X9769825Y-14824579D01*
X10065063Y-15062674D02*
X10055539Y-15053150D01*
X10055539Y-15053150D02*
X10036491Y-15024579D01*
X10036491Y-15024579D02*
X10026968Y-15005531D01*
X10026968Y-15005531D02*
X10017444Y-14976960D01*
X10017444Y-14976960D02*
X10007920Y-14929341D01*
X10007920Y-14929341D02*
X10007920Y-14891246D01*
X10007920Y-14891246D02*
X10017444Y-14843627D01*
X10017444Y-14843627D02*
X10026968Y-14815055D01*
X10026968Y-14815055D02*
X10036491Y-14796008D01*
X10036491Y-14796008D02*
X10055539Y-14767436D01*
X10055539Y-14767436D02*
X10065063Y-14757912D01*
X10226968Y-14853150D02*
X10226968Y-14986484D01*
X10179349Y-14776960D02*
X10131730Y-14919817D01*
X10131730Y-14919817D02*
X10255539Y-14919817D01*
X10360301Y-14872198D02*
X10341253Y-14862674D01*
X10341253Y-14862674D02*
X10331730Y-14853150D01*
X10331730Y-14853150D02*
X10322206Y-14834103D01*
X10322206Y-14834103D02*
X10322206Y-14824579D01*
X10322206Y-14824579D02*
X10331730Y-14805531D01*
X10331730Y-14805531D02*
X10341253Y-14796008D01*
X10341253Y-14796008D02*
X10360301Y-14786484D01*
X10360301Y-14786484D02*
X10398396Y-14786484D01*
X10398396Y-14786484D02*
X10417444Y-14796008D01*
X10417444Y-14796008D02*
X10426968Y-14805531D01*
X10426968Y-14805531D02*
X10436491Y-14824579D01*
X10436491Y-14824579D02*
X10436491Y-14834103D01*
X10436491Y-14834103D02*
X10426968Y-14853150D01*
X10426968Y-14853150D02*
X10417444Y-14862674D01*
X10417444Y-14862674D02*
X10398396Y-14872198D01*
X10398396Y-14872198D02*
X10360301Y-14872198D01*
X10360301Y-14872198D02*
X10341253Y-14881722D01*
X10341253Y-14881722D02*
X10331730Y-14891246D01*
X10331730Y-14891246D02*
X10322206Y-14910293D01*
X10322206Y-14910293D02*
X10322206Y-14948388D01*
X10322206Y-14948388D02*
X10331730Y-14967436D01*
X10331730Y-14967436D02*
X10341253Y-14976960D01*
X10341253Y-14976960D02*
X10360301Y-14986484D01*
X10360301Y-14986484D02*
X10398396Y-14986484D01*
X10398396Y-14986484D02*
X10417444Y-14976960D01*
X10417444Y-14976960D02*
X10426968Y-14967436D01*
X10426968Y-14967436D02*
X10436491Y-14948388D01*
X10436491Y-14948388D02*
X10436491Y-14910293D01*
X10436491Y-14910293D02*
X10426968Y-14891246D01*
X10426968Y-14891246D02*
X10417444Y-14881722D01*
X10417444Y-14881722D02*
X10398396Y-14872198D01*
X10674587Y-14986484D02*
X10674587Y-14786484D01*
X10760301Y-14986484D02*
X10760301Y-14881722D01*
X10760301Y-14881722D02*
X10750777Y-14862674D01*
X10750777Y-14862674D02*
X10731730Y-14853150D01*
X10731730Y-14853150D02*
X10703158Y-14853150D01*
X10703158Y-14853150D02*
X10684111Y-14862674D01*
X10684111Y-14862674D02*
X10674587Y-14872198D01*
X10884111Y-14986484D02*
X10865063Y-14976960D01*
X10865063Y-14976960D02*
X10855539Y-14967436D01*
X10855539Y-14967436D02*
X10846015Y-14948388D01*
X10846015Y-14948388D02*
X10846015Y-14891246D01*
X10846015Y-14891246D02*
X10855539Y-14872198D01*
X10855539Y-14872198D02*
X10865063Y-14862674D01*
X10865063Y-14862674D02*
X10884111Y-14853150D01*
X10884111Y-14853150D02*
X10912682Y-14853150D01*
X10912682Y-14853150D02*
X10931730Y-14862674D01*
X10931730Y-14862674D02*
X10941253Y-14872198D01*
X10941253Y-14872198D02*
X10950777Y-14891246D01*
X10950777Y-14891246D02*
X10950777Y-14948388D01*
X10950777Y-14948388D02*
X10941253Y-14967436D01*
X10941253Y-14967436D02*
X10931730Y-14976960D01*
X10931730Y-14976960D02*
X10912682Y-14986484D01*
X10912682Y-14986484D02*
X10884111Y-14986484D01*
X11065063Y-14986484D02*
X11046015Y-14976960D01*
X11046015Y-14976960D02*
X11036492Y-14957912D01*
X11036492Y-14957912D02*
X11036492Y-14786484D01*
X11217444Y-14976960D02*
X11198396Y-14986484D01*
X11198396Y-14986484D02*
X11160301Y-14986484D01*
X11160301Y-14986484D02*
X11141253Y-14976960D01*
X11141253Y-14976960D02*
X11131730Y-14957912D01*
X11131730Y-14957912D02*
X11131730Y-14881722D01*
X11131730Y-14881722D02*
X11141253Y-14862674D01*
X11141253Y-14862674D02*
X11160301Y-14853150D01*
X11160301Y-14853150D02*
X11198396Y-14853150D01*
X11198396Y-14853150D02*
X11217444Y-14862674D01*
X11217444Y-14862674D02*
X11226968Y-14881722D01*
X11226968Y-14881722D02*
X11226968Y-14900769D01*
X11226968Y-14900769D02*
X11131730Y-14919817D01*
X11303158Y-14976960D02*
X11322206Y-14986484D01*
X11322206Y-14986484D02*
X11360301Y-14986484D01*
X11360301Y-14986484D02*
X11379349Y-14976960D01*
X11379349Y-14976960D02*
X11388872Y-14957912D01*
X11388872Y-14957912D02*
X11388872Y-14948388D01*
X11388872Y-14948388D02*
X11379349Y-14929341D01*
X11379349Y-14929341D02*
X11360301Y-14919817D01*
X11360301Y-14919817D02*
X11331730Y-14919817D01*
X11331730Y-14919817D02*
X11312682Y-14910293D01*
X11312682Y-14910293D02*
X11303158Y-14891246D01*
X11303158Y-14891246D02*
X11303158Y-14881722D01*
X11303158Y-14881722D02*
X11312682Y-14862674D01*
X11312682Y-14862674D02*
X11331730Y-14853150D01*
X11331730Y-14853150D02*
X11360301Y-14853150D01*
X11360301Y-14853150D02*
X11379349Y-14862674D01*
X11455539Y-15062674D02*
X11465063Y-15053150D01*
X11465063Y-15053150D02*
X11484111Y-15024579D01*
X11484111Y-15024579D02*
X11493634Y-15005531D01*
X11493634Y-15005531D02*
X11503158Y-14976960D01*
X11503158Y-14976960D02*
X11512682Y-14929341D01*
X11512682Y-14929341D02*
X11512682Y-14891246D01*
X11512682Y-14891246D02*
X11503158Y-14843627D01*
X11503158Y-14843627D02*
X11493634Y-14815055D01*
X11493634Y-14815055D02*
X11484111Y-14796008D01*
X11484111Y-14796008D02*
X11465063Y-14767436D01*
X11465063Y-14767436D02*
X11455539Y-14757912D01*
D13*
X6388000Y-15108000D02*
X6490000Y-15210000D01*
X6490000Y-15108000D02*
X6388000Y-15210000D01*
X6439000Y-15108000D02*
X6439000Y-15210000D01*
X6388000Y-15159000D02*
X6490000Y-15159000D01*
D10*
X6855539Y-15250484D02*
X6741253Y-15250484D01*
X6798396Y-15250484D02*
X6798396Y-15050484D01*
X6798396Y-15050484D02*
X6779348Y-15079055D01*
X6779348Y-15079055D02*
X6760301Y-15098103D01*
X6760301Y-15098103D02*
X6741253Y-15107627D01*
X6941253Y-15231436D02*
X6950777Y-15240960D01*
X6950777Y-15240960D02*
X6941253Y-15250484D01*
X6941253Y-15250484D02*
X6931729Y-15240960D01*
X6931729Y-15240960D02*
X6941253Y-15231436D01*
X6941253Y-15231436D02*
X6941253Y-15250484D01*
X7074586Y-15050484D02*
X7093634Y-15050484D01*
X7093634Y-15050484D02*
X7112682Y-15060008D01*
X7112682Y-15060008D02*
X7122205Y-15069531D01*
X7122205Y-15069531D02*
X7131729Y-15088579D01*
X7131729Y-15088579D02*
X7141253Y-15126674D01*
X7141253Y-15126674D02*
X7141253Y-15174293D01*
X7141253Y-15174293D02*
X7131729Y-15212388D01*
X7131729Y-15212388D02*
X7122205Y-15231436D01*
X7122205Y-15231436D02*
X7112682Y-15240960D01*
X7112682Y-15240960D02*
X7093634Y-15250484D01*
X7093634Y-15250484D02*
X7074586Y-15250484D01*
X7074586Y-15250484D02*
X7055539Y-15240960D01*
X7055539Y-15240960D02*
X7046015Y-15231436D01*
X7046015Y-15231436D02*
X7036491Y-15212388D01*
X7036491Y-15212388D02*
X7026967Y-15174293D01*
X7026967Y-15174293D02*
X7026967Y-15126674D01*
X7026967Y-15126674D02*
X7036491Y-15088579D01*
X7036491Y-15088579D02*
X7046015Y-15069531D01*
X7046015Y-15069531D02*
X7055539Y-15060008D01*
X7055539Y-15060008D02*
X7074586Y-15050484D01*
X7217443Y-15069531D02*
X7226967Y-15060008D01*
X7226967Y-15060008D02*
X7246015Y-15050484D01*
X7246015Y-15050484D02*
X7293634Y-15050484D01*
X7293634Y-15050484D02*
X7312682Y-15060008D01*
X7312682Y-15060008D02*
X7322205Y-15069531D01*
X7322205Y-15069531D02*
X7331729Y-15088579D01*
X7331729Y-15088579D02*
X7331729Y-15107627D01*
X7331729Y-15107627D02*
X7322205Y-15136198D01*
X7322205Y-15136198D02*
X7207920Y-15250484D01*
X7207920Y-15250484D02*
X7331729Y-15250484D01*
X7455539Y-15050484D02*
X7474586Y-15050484D01*
X7474586Y-15050484D02*
X7493634Y-15060008D01*
X7493634Y-15060008D02*
X7503158Y-15069531D01*
X7503158Y-15069531D02*
X7512682Y-15088579D01*
X7512682Y-15088579D02*
X7522205Y-15126674D01*
X7522205Y-15126674D02*
X7522205Y-15174293D01*
X7522205Y-15174293D02*
X7512682Y-15212388D01*
X7512682Y-15212388D02*
X7503158Y-15231436D01*
X7503158Y-15231436D02*
X7493634Y-15240960D01*
X7493634Y-15240960D02*
X7474586Y-15250484D01*
X7474586Y-15250484D02*
X7455539Y-15250484D01*
X7455539Y-15250484D02*
X7436491Y-15240960D01*
X7436491Y-15240960D02*
X7426967Y-15231436D01*
X7426967Y-15231436D02*
X7417443Y-15212388D01*
X7417443Y-15212388D02*
X7407920Y-15174293D01*
X7407920Y-15174293D02*
X7407920Y-15126674D01*
X7407920Y-15126674D02*
X7417443Y-15088579D01*
X7417443Y-15088579D02*
X7426967Y-15069531D01*
X7426967Y-15069531D02*
X7436491Y-15060008D01*
X7436491Y-15060008D02*
X7455539Y-15050484D01*
X7607920Y-15250484D02*
X7607920Y-15117150D01*
X7607920Y-15136198D02*
X7617443Y-15126674D01*
X7617443Y-15126674D02*
X7636491Y-15117150D01*
X7636491Y-15117150D02*
X7665063Y-15117150D01*
X7665063Y-15117150D02*
X7684110Y-15126674D01*
X7684110Y-15126674D02*
X7693634Y-15145722D01*
X7693634Y-15145722D02*
X7693634Y-15250484D01*
X7693634Y-15145722D02*
X7703158Y-15126674D01*
X7703158Y-15126674D02*
X7722205Y-15117150D01*
X7722205Y-15117150D02*
X7750777Y-15117150D01*
X7750777Y-15117150D02*
X7769824Y-15126674D01*
X7769824Y-15126674D02*
X7779348Y-15145722D01*
X7779348Y-15145722D02*
X7779348Y-15250484D01*
X7874586Y-15250484D02*
X7874586Y-15117150D01*
X7874586Y-15136198D02*
X7884110Y-15126674D01*
X7884110Y-15126674D02*
X7903158Y-15117150D01*
X7903158Y-15117150D02*
X7931729Y-15117150D01*
X7931729Y-15117150D02*
X7950777Y-15126674D01*
X7950777Y-15126674D02*
X7960301Y-15145722D01*
X7960301Y-15145722D02*
X7960301Y-15250484D01*
X7960301Y-15145722D02*
X7969824Y-15126674D01*
X7969824Y-15126674D02*
X7988872Y-15117150D01*
X7988872Y-15117150D02*
X8017443Y-15117150D01*
X8017443Y-15117150D02*
X8036491Y-15126674D01*
X8036491Y-15126674D02*
X8046015Y-15145722D01*
X8046015Y-15145722D02*
X8046015Y-15250484D01*
X8436491Y-15040960D02*
X8265063Y-15298103D01*
X8693634Y-15050484D02*
X8712682Y-15050484D01*
X8712682Y-15050484D02*
X8731729Y-15060008D01*
X8731729Y-15060008D02*
X8741253Y-15069531D01*
X8741253Y-15069531D02*
X8750777Y-15088579D01*
X8750777Y-15088579D02*
X8760301Y-15126674D01*
X8760301Y-15126674D02*
X8760301Y-15174293D01*
X8760301Y-15174293D02*
X8750777Y-15212388D01*
X8750777Y-15212388D02*
X8741253Y-15231436D01*
X8741253Y-15231436D02*
X8731729Y-15240960D01*
X8731729Y-15240960D02*
X8712682Y-15250484D01*
X8712682Y-15250484D02*
X8693634Y-15250484D01*
X8693634Y-15250484D02*
X8674587Y-15240960D01*
X8674587Y-15240960D02*
X8665063Y-15231436D01*
X8665063Y-15231436D02*
X8655539Y-15212388D01*
X8655539Y-15212388D02*
X8646015Y-15174293D01*
X8646015Y-15174293D02*
X8646015Y-15126674D01*
X8646015Y-15126674D02*
X8655539Y-15088579D01*
X8655539Y-15088579D02*
X8665063Y-15069531D01*
X8665063Y-15069531D02*
X8674587Y-15060008D01*
X8674587Y-15060008D02*
X8693634Y-15050484D01*
X8846015Y-15231436D02*
X8855539Y-15240960D01*
X8855539Y-15240960D02*
X8846015Y-15250484D01*
X8846015Y-15250484D02*
X8836491Y-15240960D01*
X8836491Y-15240960D02*
X8846015Y-15231436D01*
X8846015Y-15231436D02*
X8846015Y-15250484D01*
X8979348Y-15050484D02*
X8998396Y-15050484D01*
X8998396Y-15050484D02*
X9017444Y-15060008D01*
X9017444Y-15060008D02*
X9026968Y-15069531D01*
X9026968Y-15069531D02*
X9036491Y-15088579D01*
X9036491Y-15088579D02*
X9046015Y-15126674D01*
X9046015Y-15126674D02*
X9046015Y-15174293D01*
X9046015Y-15174293D02*
X9036491Y-15212388D01*
X9036491Y-15212388D02*
X9026968Y-15231436D01*
X9026968Y-15231436D02*
X9017444Y-15240960D01*
X9017444Y-15240960D02*
X8998396Y-15250484D01*
X8998396Y-15250484D02*
X8979348Y-15250484D01*
X8979348Y-15250484D02*
X8960301Y-15240960D01*
X8960301Y-15240960D02*
X8950777Y-15231436D01*
X8950777Y-15231436D02*
X8941253Y-15212388D01*
X8941253Y-15212388D02*
X8931729Y-15174293D01*
X8931729Y-15174293D02*
X8931729Y-15126674D01*
X8931729Y-15126674D02*
X8941253Y-15088579D01*
X8941253Y-15088579D02*
X8950777Y-15069531D01*
X8950777Y-15069531D02*
X8960301Y-15060008D01*
X8960301Y-15060008D02*
X8979348Y-15050484D01*
X9217444Y-15117150D02*
X9217444Y-15250484D01*
X9169825Y-15040960D02*
X9122206Y-15183817D01*
X9122206Y-15183817D02*
X9246015Y-15183817D01*
X9360301Y-15050484D02*
X9379349Y-15050484D01*
X9379349Y-15050484D02*
X9398396Y-15060008D01*
X9398396Y-15060008D02*
X9407920Y-15069531D01*
X9407920Y-15069531D02*
X9417444Y-15088579D01*
X9417444Y-15088579D02*
X9426968Y-15126674D01*
X9426968Y-15126674D02*
X9426968Y-15174293D01*
X9426968Y-15174293D02*
X9417444Y-15212388D01*
X9417444Y-15212388D02*
X9407920Y-15231436D01*
X9407920Y-15231436D02*
X9398396Y-15240960D01*
X9398396Y-15240960D02*
X9379349Y-15250484D01*
X9379349Y-15250484D02*
X9360301Y-15250484D01*
X9360301Y-15250484D02*
X9341253Y-15240960D01*
X9341253Y-15240960D02*
X9331729Y-15231436D01*
X9331729Y-15231436D02*
X9322206Y-15212388D01*
X9322206Y-15212388D02*
X9312682Y-15174293D01*
X9312682Y-15174293D02*
X9312682Y-15126674D01*
X9312682Y-15126674D02*
X9322206Y-15088579D01*
X9322206Y-15088579D02*
X9331729Y-15069531D01*
X9331729Y-15069531D02*
X9341253Y-15060008D01*
X9341253Y-15060008D02*
X9360301Y-15050484D01*
X9503158Y-15069531D02*
X9512682Y-15060008D01*
X9512682Y-15060008D02*
X9531729Y-15050484D01*
X9531729Y-15050484D02*
X9579349Y-15050484D01*
X9579349Y-15050484D02*
X9598396Y-15060008D01*
X9598396Y-15060008D02*
X9607920Y-15069531D01*
X9607920Y-15069531D02*
X9617444Y-15088579D01*
X9617444Y-15088579D02*
X9617444Y-15107627D01*
X9617444Y-15107627D02*
X9607920Y-15136198D01*
X9607920Y-15136198D02*
X9493634Y-15250484D01*
X9493634Y-15250484D02*
X9617444Y-15250484D01*
X9693634Y-15050484D02*
X9693634Y-15088579D01*
X9769825Y-15050484D02*
X9769825Y-15088579D01*
X10065063Y-15326674D02*
X10055539Y-15317150D01*
X10055539Y-15317150D02*
X10036491Y-15288579D01*
X10036491Y-15288579D02*
X10026968Y-15269531D01*
X10026968Y-15269531D02*
X10017444Y-15240960D01*
X10017444Y-15240960D02*
X10007920Y-15193341D01*
X10007920Y-15193341D02*
X10007920Y-15155246D01*
X10007920Y-15155246D02*
X10017444Y-15107627D01*
X10017444Y-15107627D02*
X10026968Y-15079055D01*
X10026968Y-15079055D02*
X10036491Y-15060008D01*
X10036491Y-15060008D02*
X10055539Y-15031436D01*
X10055539Y-15031436D02*
X10065063Y-15021912D01*
X10122206Y-15050484D02*
X10246015Y-15050484D01*
X10246015Y-15050484D02*
X10179349Y-15126674D01*
X10179349Y-15126674D02*
X10207920Y-15126674D01*
X10207920Y-15126674D02*
X10226968Y-15136198D01*
X10226968Y-15136198D02*
X10236491Y-15145722D01*
X10236491Y-15145722D02*
X10246015Y-15164769D01*
X10246015Y-15164769D02*
X10246015Y-15212388D01*
X10246015Y-15212388D02*
X10236491Y-15231436D01*
X10236491Y-15231436D02*
X10226968Y-15240960D01*
X10226968Y-15240960D02*
X10207920Y-15250484D01*
X10207920Y-15250484D02*
X10150777Y-15250484D01*
X10150777Y-15250484D02*
X10131730Y-15240960D01*
X10131730Y-15240960D02*
X10122206Y-15231436D01*
X10369825Y-15050484D02*
X10388872Y-15050484D01*
X10388872Y-15050484D02*
X10407920Y-15060008D01*
X10407920Y-15060008D02*
X10417444Y-15069531D01*
X10417444Y-15069531D02*
X10426968Y-15088579D01*
X10426968Y-15088579D02*
X10436491Y-15126674D01*
X10436491Y-15126674D02*
X10436491Y-15174293D01*
X10436491Y-15174293D02*
X10426968Y-15212388D01*
X10426968Y-15212388D02*
X10417444Y-15231436D01*
X10417444Y-15231436D02*
X10407920Y-15240960D01*
X10407920Y-15240960D02*
X10388872Y-15250484D01*
X10388872Y-15250484D02*
X10369825Y-15250484D01*
X10369825Y-15250484D02*
X10350777Y-15240960D01*
X10350777Y-15240960D02*
X10341253Y-15231436D01*
X10341253Y-15231436D02*
X10331730Y-15212388D01*
X10331730Y-15212388D02*
X10322206Y-15174293D01*
X10322206Y-15174293D02*
X10322206Y-15126674D01*
X10322206Y-15126674D02*
X10331730Y-15088579D01*
X10331730Y-15088579D02*
X10341253Y-15069531D01*
X10341253Y-15069531D02*
X10350777Y-15060008D01*
X10350777Y-15060008D02*
X10369825Y-15050484D01*
X10674587Y-15250484D02*
X10674587Y-15050484D01*
X10760301Y-15250484D02*
X10760301Y-15145722D01*
X10760301Y-15145722D02*
X10750777Y-15126674D01*
X10750777Y-15126674D02*
X10731730Y-15117150D01*
X10731730Y-15117150D02*
X10703158Y-15117150D01*
X10703158Y-15117150D02*
X10684111Y-15126674D01*
X10684111Y-15126674D02*
X10674587Y-15136198D01*
X10884111Y-15250484D02*
X10865063Y-15240960D01*
X10865063Y-15240960D02*
X10855539Y-15231436D01*
X10855539Y-15231436D02*
X10846015Y-15212388D01*
X10846015Y-15212388D02*
X10846015Y-15155246D01*
X10846015Y-15155246D02*
X10855539Y-15136198D01*
X10855539Y-15136198D02*
X10865063Y-15126674D01*
X10865063Y-15126674D02*
X10884111Y-15117150D01*
X10884111Y-15117150D02*
X10912682Y-15117150D01*
X10912682Y-15117150D02*
X10931730Y-15126674D01*
X10931730Y-15126674D02*
X10941253Y-15136198D01*
X10941253Y-15136198D02*
X10950777Y-15155246D01*
X10950777Y-15155246D02*
X10950777Y-15212388D01*
X10950777Y-15212388D02*
X10941253Y-15231436D01*
X10941253Y-15231436D02*
X10931730Y-15240960D01*
X10931730Y-15240960D02*
X10912682Y-15250484D01*
X10912682Y-15250484D02*
X10884111Y-15250484D01*
X11065063Y-15250484D02*
X11046015Y-15240960D01*
X11046015Y-15240960D02*
X11036492Y-15221912D01*
X11036492Y-15221912D02*
X11036492Y-15050484D01*
X11217444Y-15240960D02*
X11198396Y-15250484D01*
X11198396Y-15250484D02*
X11160301Y-15250484D01*
X11160301Y-15250484D02*
X11141253Y-15240960D01*
X11141253Y-15240960D02*
X11131730Y-15221912D01*
X11131730Y-15221912D02*
X11131730Y-15145722D01*
X11131730Y-15145722D02*
X11141253Y-15126674D01*
X11141253Y-15126674D02*
X11160301Y-15117150D01*
X11160301Y-15117150D02*
X11198396Y-15117150D01*
X11198396Y-15117150D02*
X11217444Y-15126674D01*
X11217444Y-15126674D02*
X11226968Y-15145722D01*
X11226968Y-15145722D02*
X11226968Y-15164769D01*
X11226968Y-15164769D02*
X11131730Y-15183817D01*
X11303158Y-15240960D02*
X11322206Y-15250484D01*
X11322206Y-15250484D02*
X11360301Y-15250484D01*
X11360301Y-15250484D02*
X11379349Y-15240960D01*
X11379349Y-15240960D02*
X11388872Y-15221912D01*
X11388872Y-15221912D02*
X11388872Y-15212388D01*
X11388872Y-15212388D02*
X11379349Y-15193341D01*
X11379349Y-15193341D02*
X11360301Y-15183817D01*
X11360301Y-15183817D02*
X11331730Y-15183817D01*
X11331730Y-15183817D02*
X11312682Y-15174293D01*
X11312682Y-15174293D02*
X11303158Y-15155246D01*
X11303158Y-15155246D02*
X11303158Y-15145722D01*
X11303158Y-15145722D02*
X11312682Y-15126674D01*
X11312682Y-15126674D02*
X11331730Y-15117150D01*
X11331730Y-15117150D02*
X11360301Y-15117150D01*
X11360301Y-15117150D02*
X11379349Y-15126674D01*
X11455539Y-15326674D02*
X11465063Y-15317150D01*
X11465063Y-15317150D02*
X11484111Y-15288579D01*
X11484111Y-15288579D02*
X11493634Y-15269531D01*
X11493634Y-15269531D02*
X11503158Y-15240960D01*
X11503158Y-15240960D02*
X11512682Y-15193341D01*
X11512682Y-15193341D02*
X11512682Y-15155246D01*
X11512682Y-15155246D02*
X11503158Y-15107627D01*
X11503158Y-15107627D02*
X11493634Y-15079055D01*
X11493634Y-15079055D02*
X11484111Y-15060008D01*
X11484111Y-15060008D02*
X11465063Y-15031436D01*
X11465063Y-15031436D02*
X11455539Y-15021912D01*
D14*
X6380000Y-15368000D02*
X6490000Y-15478000D01*
X6490000Y-15368000D02*
X6380000Y-15478000D01*
X6473891Y-15461891D02*
X6473891Y-15384109D01*
X6396109Y-15384109D01*
X6396109Y-15461891D01*
X6473891Y-15461891D01*
D10*
X6855539Y-15514484D02*
X6741253Y-15514484D01*
X6798396Y-15514484D02*
X6798396Y-15314484D01*
X6798396Y-15314484D02*
X6779348Y-15343055D01*
X6779348Y-15343055D02*
X6760301Y-15362103D01*
X6760301Y-15362103D02*
X6741253Y-15371627D01*
X6941253Y-15495436D02*
X6950777Y-15504960D01*
X6950777Y-15504960D02*
X6941253Y-15514484D01*
X6941253Y-15514484D02*
X6931729Y-15504960D01*
X6931729Y-15504960D02*
X6941253Y-15495436D01*
X6941253Y-15495436D02*
X6941253Y-15514484D01*
X7141253Y-15514484D02*
X7026967Y-15514484D01*
X7084110Y-15514484D02*
X7084110Y-15314484D01*
X7084110Y-15314484D02*
X7065062Y-15343055D01*
X7065062Y-15343055D02*
X7046015Y-15362103D01*
X7046015Y-15362103D02*
X7026967Y-15371627D01*
X7265062Y-15314484D02*
X7284110Y-15314484D01*
X7284110Y-15314484D02*
X7303158Y-15324008D01*
X7303158Y-15324008D02*
X7312682Y-15333531D01*
X7312682Y-15333531D02*
X7322205Y-15352579D01*
X7322205Y-15352579D02*
X7331729Y-15390674D01*
X7331729Y-15390674D02*
X7331729Y-15438293D01*
X7331729Y-15438293D02*
X7322205Y-15476388D01*
X7322205Y-15476388D02*
X7312682Y-15495436D01*
X7312682Y-15495436D02*
X7303158Y-15504960D01*
X7303158Y-15504960D02*
X7284110Y-15514484D01*
X7284110Y-15514484D02*
X7265062Y-15514484D01*
X7265062Y-15514484D02*
X7246015Y-15504960D01*
X7246015Y-15504960D02*
X7236491Y-15495436D01*
X7236491Y-15495436D02*
X7226967Y-15476388D01*
X7226967Y-15476388D02*
X7217443Y-15438293D01*
X7217443Y-15438293D02*
X7217443Y-15390674D01*
X7217443Y-15390674D02*
X7226967Y-15352579D01*
X7226967Y-15352579D02*
X7236491Y-15333531D01*
X7236491Y-15333531D02*
X7246015Y-15324008D01*
X7246015Y-15324008D02*
X7265062Y-15314484D01*
X7455539Y-15314484D02*
X7474586Y-15314484D01*
X7474586Y-15314484D02*
X7493634Y-15324008D01*
X7493634Y-15324008D02*
X7503158Y-15333531D01*
X7503158Y-15333531D02*
X7512682Y-15352579D01*
X7512682Y-15352579D02*
X7522205Y-15390674D01*
X7522205Y-15390674D02*
X7522205Y-15438293D01*
X7522205Y-15438293D02*
X7512682Y-15476388D01*
X7512682Y-15476388D02*
X7503158Y-15495436D01*
X7503158Y-15495436D02*
X7493634Y-15504960D01*
X7493634Y-15504960D02*
X7474586Y-15514484D01*
X7474586Y-15514484D02*
X7455539Y-15514484D01*
X7455539Y-15514484D02*
X7436491Y-15504960D01*
X7436491Y-15504960D02*
X7426967Y-15495436D01*
X7426967Y-15495436D02*
X7417443Y-15476388D01*
X7417443Y-15476388D02*
X7407920Y-15438293D01*
X7407920Y-15438293D02*
X7407920Y-15390674D01*
X7407920Y-15390674D02*
X7417443Y-15352579D01*
X7417443Y-15352579D02*
X7426967Y-15333531D01*
X7426967Y-15333531D02*
X7436491Y-15324008D01*
X7436491Y-15324008D02*
X7455539Y-15314484D01*
X7607920Y-15514484D02*
X7607920Y-15381150D01*
X7607920Y-15400198D02*
X7617443Y-15390674D01*
X7617443Y-15390674D02*
X7636491Y-15381150D01*
X7636491Y-15381150D02*
X7665063Y-15381150D01*
X7665063Y-15381150D02*
X7684110Y-15390674D01*
X7684110Y-15390674D02*
X7693634Y-15409722D01*
X7693634Y-15409722D02*
X7693634Y-15514484D01*
X7693634Y-15409722D02*
X7703158Y-15390674D01*
X7703158Y-15390674D02*
X7722205Y-15381150D01*
X7722205Y-15381150D02*
X7750777Y-15381150D01*
X7750777Y-15381150D02*
X7769824Y-15390674D01*
X7769824Y-15390674D02*
X7779348Y-15409722D01*
X7779348Y-15409722D02*
X7779348Y-15514484D01*
X7874586Y-15514484D02*
X7874586Y-15381150D01*
X7874586Y-15400198D02*
X7884110Y-15390674D01*
X7884110Y-15390674D02*
X7903158Y-15381150D01*
X7903158Y-15381150D02*
X7931729Y-15381150D01*
X7931729Y-15381150D02*
X7950777Y-15390674D01*
X7950777Y-15390674D02*
X7960301Y-15409722D01*
X7960301Y-15409722D02*
X7960301Y-15514484D01*
X7960301Y-15409722D02*
X7969824Y-15390674D01*
X7969824Y-15390674D02*
X7988872Y-15381150D01*
X7988872Y-15381150D02*
X8017443Y-15381150D01*
X8017443Y-15381150D02*
X8036491Y-15390674D01*
X8036491Y-15390674D02*
X8046015Y-15409722D01*
X8046015Y-15409722D02*
X8046015Y-15514484D01*
X8436491Y-15304960D02*
X8265063Y-15562103D01*
X8693634Y-15314484D02*
X8712682Y-15314484D01*
X8712682Y-15314484D02*
X8731729Y-15324008D01*
X8731729Y-15324008D02*
X8741253Y-15333531D01*
X8741253Y-15333531D02*
X8750777Y-15352579D01*
X8750777Y-15352579D02*
X8760301Y-15390674D01*
X8760301Y-15390674D02*
X8760301Y-15438293D01*
X8760301Y-15438293D02*
X8750777Y-15476388D01*
X8750777Y-15476388D02*
X8741253Y-15495436D01*
X8741253Y-15495436D02*
X8731729Y-15504960D01*
X8731729Y-15504960D02*
X8712682Y-15514484D01*
X8712682Y-15514484D02*
X8693634Y-15514484D01*
X8693634Y-15514484D02*
X8674587Y-15504960D01*
X8674587Y-15504960D02*
X8665063Y-15495436D01*
X8665063Y-15495436D02*
X8655539Y-15476388D01*
X8655539Y-15476388D02*
X8646015Y-15438293D01*
X8646015Y-15438293D02*
X8646015Y-15390674D01*
X8646015Y-15390674D02*
X8655539Y-15352579D01*
X8655539Y-15352579D02*
X8665063Y-15333531D01*
X8665063Y-15333531D02*
X8674587Y-15324008D01*
X8674587Y-15324008D02*
X8693634Y-15314484D01*
X8846015Y-15495436D02*
X8855539Y-15504960D01*
X8855539Y-15504960D02*
X8846015Y-15514484D01*
X8846015Y-15514484D02*
X8836491Y-15504960D01*
X8836491Y-15504960D02*
X8846015Y-15495436D01*
X8846015Y-15495436D02*
X8846015Y-15514484D01*
X8979348Y-15314484D02*
X8998396Y-15314484D01*
X8998396Y-15314484D02*
X9017444Y-15324008D01*
X9017444Y-15324008D02*
X9026968Y-15333531D01*
X9026968Y-15333531D02*
X9036491Y-15352579D01*
X9036491Y-15352579D02*
X9046015Y-15390674D01*
X9046015Y-15390674D02*
X9046015Y-15438293D01*
X9046015Y-15438293D02*
X9036491Y-15476388D01*
X9036491Y-15476388D02*
X9026968Y-15495436D01*
X9026968Y-15495436D02*
X9017444Y-15504960D01*
X9017444Y-15504960D02*
X8998396Y-15514484D01*
X8998396Y-15514484D02*
X8979348Y-15514484D01*
X8979348Y-15514484D02*
X8960301Y-15504960D01*
X8960301Y-15504960D02*
X8950777Y-15495436D01*
X8950777Y-15495436D02*
X8941253Y-15476388D01*
X8941253Y-15476388D02*
X8931729Y-15438293D01*
X8931729Y-15438293D02*
X8931729Y-15390674D01*
X8931729Y-15390674D02*
X8941253Y-15352579D01*
X8941253Y-15352579D02*
X8950777Y-15333531D01*
X8950777Y-15333531D02*
X8960301Y-15324008D01*
X8960301Y-15324008D02*
X8979348Y-15314484D01*
X9217444Y-15381150D02*
X9217444Y-15514484D01*
X9169825Y-15304960D02*
X9122206Y-15447817D01*
X9122206Y-15447817D02*
X9246015Y-15447817D01*
X9303158Y-15314484D02*
X9426968Y-15314484D01*
X9426968Y-15314484D02*
X9360301Y-15390674D01*
X9360301Y-15390674D02*
X9388872Y-15390674D01*
X9388872Y-15390674D02*
X9407920Y-15400198D01*
X9407920Y-15400198D02*
X9417444Y-15409722D01*
X9417444Y-15409722D02*
X9426968Y-15428769D01*
X9426968Y-15428769D02*
X9426968Y-15476388D01*
X9426968Y-15476388D02*
X9417444Y-15495436D01*
X9417444Y-15495436D02*
X9407920Y-15504960D01*
X9407920Y-15504960D02*
X9388872Y-15514484D01*
X9388872Y-15514484D02*
X9331729Y-15514484D01*
X9331729Y-15514484D02*
X9312682Y-15504960D01*
X9312682Y-15504960D02*
X9303158Y-15495436D01*
X9493634Y-15314484D02*
X9617444Y-15314484D01*
X9617444Y-15314484D02*
X9550777Y-15390674D01*
X9550777Y-15390674D02*
X9579349Y-15390674D01*
X9579349Y-15390674D02*
X9598396Y-15400198D01*
X9598396Y-15400198D02*
X9607920Y-15409722D01*
X9607920Y-15409722D02*
X9617444Y-15428769D01*
X9617444Y-15428769D02*
X9617444Y-15476388D01*
X9617444Y-15476388D02*
X9607920Y-15495436D01*
X9607920Y-15495436D02*
X9598396Y-15504960D01*
X9598396Y-15504960D02*
X9579349Y-15514484D01*
X9579349Y-15514484D02*
X9522206Y-15514484D01*
X9522206Y-15514484D02*
X9503158Y-15504960D01*
X9503158Y-15504960D02*
X9493634Y-15495436D01*
X9693634Y-15314484D02*
X9693634Y-15352579D01*
X9769825Y-15314484D02*
X9769825Y-15352579D01*
X10065063Y-15590674D02*
X10055539Y-15581150D01*
X10055539Y-15581150D02*
X10036491Y-15552579D01*
X10036491Y-15552579D02*
X10026968Y-15533531D01*
X10026968Y-15533531D02*
X10017444Y-15504960D01*
X10017444Y-15504960D02*
X10007920Y-15457341D01*
X10007920Y-15457341D02*
X10007920Y-15419246D01*
X10007920Y-15419246D02*
X10017444Y-15371627D01*
X10017444Y-15371627D02*
X10026968Y-15343055D01*
X10026968Y-15343055D02*
X10036491Y-15324008D01*
X10036491Y-15324008D02*
X10055539Y-15295436D01*
X10055539Y-15295436D02*
X10065063Y-15285912D01*
X10131730Y-15333531D02*
X10141253Y-15324008D01*
X10141253Y-15324008D02*
X10160301Y-15314484D01*
X10160301Y-15314484D02*
X10207920Y-15314484D01*
X10207920Y-15314484D02*
X10226968Y-15324008D01*
X10226968Y-15324008D02*
X10236491Y-15333531D01*
X10236491Y-15333531D02*
X10246015Y-15352579D01*
X10246015Y-15352579D02*
X10246015Y-15371627D01*
X10246015Y-15371627D02*
X10236491Y-15400198D01*
X10236491Y-15400198D02*
X10122206Y-15514484D01*
X10122206Y-15514484D02*
X10246015Y-15514484D01*
X10484111Y-15514484D02*
X10484111Y-15314484D01*
X10569825Y-15514484D02*
X10569825Y-15409722D01*
X10569825Y-15409722D02*
X10560301Y-15390674D01*
X10560301Y-15390674D02*
X10541253Y-15381150D01*
X10541253Y-15381150D02*
X10512682Y-15381150D01*
X10512682Y-15381150D02*
X10493634Y-15390674D01*
X10493634Y-15390674D02*
X10484111Y-15400198D01*
X10693634Y-15514484D02*
X10674587Y-15504960D01*
X10674587Y-15504960D02*
X10665063Y-15495436D01*
X10665063Y-15495436D02*
X10655539Y-15476388D01*
X10655539Y-15476388D02*
X10655539Y-15419246D01*
X10655539Y-15419246D02*
X10665063Y-15400198D01*
X10665063Y-15400198D02*
X10674587Y-15390674D01*
X10674587Y-15390674D02*
X10693634Y-15381150D01*
X10693634Y-15381150D02*
X10722206Y-15381150D01*
X10722206Y-15381150D02*
X10741253Y-15390674D01*
X10741253Y-15390674D02*
X10750777Y-15400198D01*
X10750777Y-15400198D02*
X10760301Y-15419246D01*
X10760301Y-15419246D02*
X10760301Y-15476388D01*
X10760301Y-15476388D02*
X10750777Y-15495436D01*
X10750777Y-15495436D02*
X10741253Y-15504960D01*
X10741253Y-15504960D02*
X10722206Y-15514484D01*
X10722206Y-15514484D02*
X10693634Y-15514484D01*
X10874587Y-15514484D02*
X10855539Y-15504960D01*
X10855539Y-15504960D02*
X10846015Y-15485912D01*
X10846015Y-15485912D02*
X10846015Y-15314484D01*
X11026968Y-15504960D02*
X11007920Y-15514484D01*
X11007920Y-15514484D02*
X10969825Y-15514484D01*
X10969825Y-15514484D02*
X10950777Y-15504960D01*
X10950777Y-15504960D02*
X10941253Y-15485912D01*
X10941253Y-15485912D02*
X10941253Y-15409722D01*
X10941253Y-15409722D02*
X10950777Y-15390674D01*
X10950777Y-15390674D02*
X10969825Y-15381150D01*
X10969825Y-15381150D02*
X11007920Y-15381150D01*
X11007920Y-15381150D02*
X11026968Y-15390674D01*
X11026968Y-15390674D02*
X11036492Y-15409722D01*
X11036492Y-15409722D02*
X11036492Y-15428769D01*
X11036492Y-15428769D02*
X10941253Y-15447817D01*
X11112682Y-15504960D02*
X11131730Y-15514484D01*
X11131730Y-15514484D02*
X11169825Y-15514484D01*
X11169825Y-15514484D02*
X11188872Y-15504960D01*
X11188872Y-15504960D02*
X11198396Y-15485912D01*
X11198396Y-15485912D02*
X11198396Y-15476388D01*
X11198396Y-15476388D02*
X11188872Y-15457341D01*
X11188872Y-15457341D02*
X11169825Y-15447817D01*
X11169825Y-15447817D02*
X11141253Y-15447817D01*
X11141253Y-15447817D02*
X11122206Y-15438293D01*
X11122206Y-15438293D02*
X11112682Y-15419246D01*
X11112682Y-15419246D02*
X11112682Y-15409722D01*
X11112682Y-15409722D02*
X11122206Y-15390674D01*
X11122206Y-15390674D02*
X11141253Y-15381150D01*
X11141253Y-15381150D02*
X11169825Y-15381150D01*
X11169825Y-15381150D02*
X11188872Y-15390674D01*
X11265063Y-15590674D02*
X11274587Y-15581150D01*
X11274587Y-15581150D02*
X11293634Y-15552579D01*
X11293634Y-15552579D02*
X11303158Y-15533531D01*
X11303158Y-15533531D02*
X11312682Y-15504960D01*
X11312682Y-15504960D02*
X11322206Y-15457341D01*
X11322206Y-15457341D02*
X11322206Y-15419246D01*
X11322206Y-15419246D02*
X11312682Y-15371627D01*
X11312682Y-15371627D02*
X11303158Y-15343055D01*
X11303158Y-15343055D02*
X11293634Y-15324008D01*
X11293634Y-15324008D02*
X11274587Y-15295436D01*
X11274587Y-15295436D02*
X11265063Y-15285912D01*
D15*
X6360000Y-15622000D02*
X6490000Y-15752000D01*
X6490000Y-15622000D02*
X6360000Y-15752000D01*
X6425000Y-15752000D02*
X6490000Y-15687000D01*
X6425000Y-15622000D01*
X6360000Y-15687000D01*
X6425000Y-15752000D01*
D10*
X6855539Y-15778484D02*
X6741253Y-15778484D01*
X6798396Y-15778484D02*
X6798396Y-15578484D01*
X6798396Y-15578484D02*
X6779348Y-15607055D01*
X6779348Y-15607055D02*
X6760301Y-15626103D01*
X6760301Y-15626103D02*
X6741253Y-15635627D01*
X6941253Y-15759436D02*
X6950777Y-15768960D01*
X6950777Y-15768960D02*
X6941253Y-15778484D01*
X6941253Y-15778484D02*
X6931729Y-15768960D01*
X6931729Y-15768960D02*
X6941253Y-15759436D01*
X6941253Y-15759436D02*
X6941253Y-15778484D01*
X7017443Y-15578484D02*
X7141253Y-15578484D01*
X7141253Y-15578484D02*
X7074586Y-15654674D01*
X7074586Y-15654674D02*
X7103158Y-15654674D01*
X7103158Y-15654674D02*
X7122205Y-15664198D01*
X7122205Y-15664198D02*
X7131729Y-15673722D01*
X7131729Y-15673722D02*
X7141253Y-15692769D01*
X7141253Y-15692769D02*
X7141253Y-15740388D01*
X7141253Y-15740388D02*
X7131729Y-15759436D01*
X7131729Y-15759436D02*
X7122205Y-15768960D01*
X7122205Y-15768960D02*
X7103158Y-15778484D01*
X7103158Y-15778484D02*
X7046015Y-15778484D01*
X7046015Y-15778484D02*
X7026967Y-15768960D01*
X7026967Y-15768960D02*
X7017443Y-15759436D01*
X7265062Y-15578484D02*
X7284110Y-15578484D01*
X7284110Y-15578484D02*
X7303158Y-15588008D01*
X7303158Y-15588008D02*
X7312682Y-15597531D01*
X7312682Y-15597531D02*
X7322205Y-15616579D01*
X7322205Y-15616579D02*
X7331729Y-15654674D01*
X7331729Y-15654674D02*
X7331729Y-15702293D01*
X7331729Y-15702293D02*
X7322205Y-15740388D01*
X7322205Y-15740388D02*
X7312682Y-15759436D01*
X7312682Y-15759436D02*
X7303158Y-15768960D01*
X7303158Y-15768960D02*
X7284110Y-15778484D01*
X7284110Y-15778484D02*
X7265062Y-15778484D01*
X7265062Y-15778484D02*
X7246015Y-15768960D01*
X7246015Y-15768960D02*
X7236491Y-15759436D01*
X7236491Y-15759436D02*
X7226967Y-15740388D01*
X7226967Y-15740388D02*
X7217443Y-15702293D01*
X7217443Y-15702293D02*
X7217443Y-15654674D01*
X7217443Y-15654674D02*
X7226967Y-15616579D01*
X7226967Y-15616579D02*
X7236491Y-15597531D01*
X7236491Y-15597531D02*
X7246015Y-15588008D01*
X7246015Y-15588008D02*
X7265062Y-15578484D01*
X7455539Y-15578484D02*
X7474586Y-15578484D01*
X7474586Y-15578484D02*
X7493634Y-15588008D01*
X7493634Y-15588008D02*
X7503158Y-15597531D01*
X7503158Y-15597531D02*
X7512682Y-15616579D01*
X7512682Y-15616579D02*
X7522205Y-15654674D01*
X7522205Y-15654674D02*
X7522205Y-15702293D01*
X7522205Y-15702293D02*
X7512682Y-15740388D01*
X7512682Y-15740388D02*
X7503158Y-15759436D01*
X7503158Y-15759436D02*
X7493634Y-15768960D01*
X7493634Y-15768960D02*
X7474586Y-15778484D01*
X7474586Y-15778484D02*
X7455539Y-15778484D01*
X7455539Y-15778484D02*
X7436491Y-15768960D01*
X7436491Y-15768960D02*
X7426967Y-15759436D01*
X7426967Y-15759436D02*
X7417443Y-15740388D01*
X7417443Y-15740388D02*
X7407920Y-15702293D01*
X7407920Y-15702293D02*
X7407920Y-15654674D01*
X7407920Y-15654674D02*
X7417443Y-15616579D01*
X7417443Y-15616579D02*
X7426967Y-15597531D01*
X7426967Y-15597531D02*
X7436491Y-15588008D01*
X7436491Y-15588008D02*
X7455539Y-15578484D01*
X7607920Y-15778484D02*
X7607920Y-15645150D01*
X7607920Y-15664198D02*
X7617443Y-15654674D01*
X7617443Y-15654674D02*
X7636491Y-15645150D01*
X7636491Y-15645150D02*
X7665063Y-15645150D01*
X7665063Y-15645150D02*
X7684110Y-15654674D01*
X7684110Y-15654674D02*
X7693634Y-15673722D01*
X7693634Y-15673722D02*
X7693634Y-15778484D01*
X7693634Y-15673722D02*
X7703158Y-15654674D01*
X7703158Y-15654674D02*
X7722205Y-15645150D01*
X7722205Y-15645150D02*
X7750777Y-15645150D01*
X7750777Y-15645150D02*
X7769824Y-15654674D01*
X7769824Y-15654674D02*
X7779348Y-15673722D01*
X7779348Y-15673722D02*
X7779348Y-15778484D01*
X7874586Y-15778484D02*
X7874586Y-15645150D01*
X7874586Y-15664198D02*
X7884110Y-15654674D01*
X7884110Y-15654674D02*
X7903158Y-15645150D01*
X7903158Y-15645150D02*
X7931729Y-15645150D01*
X7931729Y-15645150D02*
X7950777Y-15654674D01*
X7950777Y-15654674D02*
X7960301Y-15673722D01*
X7960301Y-15673722D02*
X7960301Y-15778484D01*
X7960301Y-15673722D02*
X7969824Y-15654674D01*
X7969824Y-15654674D02*
X7988872Y-15645150D01*
X7988872Y-15645150D02*
X8017443Y-15645150D01*
X8017443Y-15645150D02*
X8036491Y-15654674D01*
X8036491Y-15654674D02*
X8046015Y-15673722D01*
X8046015Y-15673722D02*
X8046015Y-15778484D01*
X8436491Y-15568960D02*
X8265063Y-15826103D01*
X8693634Y-15578484D02*
X8712682Y-15578484D01*
X8712682Y-15578484D02*
X8731729Y-15588008D01*
X8731729Y-15588008D02*
X8741253Y-15597531D01*
X8741253Y-15597531D02*
X8750777Y-15616579D01*
X8750777Y-15616579D02*
X8760301Y-15654674D01*
X8760301Y-15654674D02*
X8760301Y-15702293D01*
X8760301Y-15702293D02*
X8750777Y-15740388D01*
X8750777Y-15740388D02*
X8741253Y-15759436D01*
X8741253Y-15759436D02*
X8731729Y-15768960D01*
X8731729Y-15768960D02*
X8712682Y-15778484D01*
X8712682Y-15778484D02*
X8693634Y-15778484D01*
X8693634Y-15778484D02*
X8674587Y-15768960D01*
X8674587Y-15768960D02*
X8665063Y-15759436D01*
X8665063Y-15759436D02*
X8655539Y-15740388D01*
X8655539Y-15740388D02*
X8646015Y-15702293D01*
X8646015Y-15702293D02*
X8646015Y-15654674D01*
X8646015Y-15654674D02*
X8655539Y-15616579D01*
X8655539Y-15616579D02*
X8665063Y-15597531D01*
X8665063Y-15597531D02*
X8674587Y-15588008D01*
X8674587Y-15588008D02*
X8693634Y-15578484D01*
X8846015Y-15759436D02*
X8855539Y-15768960D01*
X8855539Y-15768960D02*
X8846015Y-15778484D01*
X8846015Y-15778484D02*
X8836491Y-15768960D01*
X8836491Y-15768960D02*
X8846015Y-15759436D01*
X8846015Y-15759436D02*
X8846015Y-15778484D01*
X8979348Y-15578484D02*
X8998396Y-15578484D01*
X8998396Y-15578484D02*
X9017444Y-15588008D01*
X9017444Y-15588008D02*
X9026968Y-15597531D01*
X9026968Y-15597531D02*
X9036491Y-15616579D01*
X9036491Y-15616579D02*
X9046015Y-15654674D01*
X9046015Y-15654674D02*
X9046015Y-15702293D01*
X9046015Y-15702293D02*
X9036491Y-15740388D01*
X9036491Y-15740388D02*
X9026968Y-15759436D01*
X9026968Y-15759436D02*
X9017444Y-15768960D01*
X9017444Y-15768960D02*
X8998396Y-15778484D01*
X8998396Y-15778484D02*
X8979348Y-15778484D01*
X8979348Y-15778484D02*
X8960301Y-15768960D01*
X8960301Y-15768960D02*
X8950777Y-15759436D01*
X8950777Y-15759436D02*
X8941253Y-15740388D01*
X8941253Y-15740388D02*
X8931729Y-15702293D01*
X8931729Y-15702293D02*
X8931729Y-15654674D01*
X8931729Y-15654674D02*
X8941253Y-15616579D01*
X8941253Y-15616579D02*
X8950777Y-15597531D01*
X8950777Y-15597531D02*
X8960301Y-15588008D01*
X8960301Y-15588008D02*
X8979348Y-15578484D01*
X9226968Y-15578484D02*
X9131729Y-15578484D01*
X9131729Y-15578484D02*
X9122206Y-15673722D01*
X9122206Y-15673722D02*
X9131729Y-15664198D01*
X9131729Y-15664198D02*
X9150777Y-15654674D01*
X9150777Y-15654674D02*
X9198396Y-15654674D01*
X9198396Y-15654674D02*
X9217444Y-15664198D01*
X9217444Y-15664198D02*
X9226968Y-15673722D01*
X9226968Y-15673722D02*
X9236491Y-15692769D01*
X9236491Y-15692769D02*
X9236491Y-15740388D01*
X9236491Y-15740388D02*
X9226968Y-15759436D01*
X9226968Y-15759436D02*
X9217444Y-15768960D01*
X9217444Y-15768960D02*
X9198396Y-15778484D01*
X9198396Y-15778484D02*
X9150777Y-15778484D01*
X9150777Y-15778484D02*
X9131729Y-15768960D01*
X9131729Y-15768960D02*
X9122206Y-15759436D01*
X9426968Y-15778484D02*
X9312682Y-15778484D01*
X9369825Y-15778484D02*
X9369825Y-15578484D01*
X9369825Y-15578484D02*
X9350777Y-15607055D01*
X9350777Y-15607055D02*
X9331729Y-15626103D01*
X9331729Y-15626103D02*
X9312682Y-15635627D01*
X9503158Y-15597531D02*
X9512682Y-15588008D01*
X9512682Y-15588008D02*
X9531729Y-15578484D01*
X9531729Y-15578484D02*
X9579349Y-15578484D01*
X9579349Y-15578484D02*
X9598396Y-15588008D01*
X9598396Y-15588008D02*
X9607920Y-15597531D01*
X9607920Y-15597531D02*
X9617444Y-15616579D01*
X9617444Y-15616579D02*
X9617444Y-15635627D01*
X9617444Y-15635627D02*
X9607920Y-15664198D01*
X9607920Y-15664198D02*
X9493634Y-15778484D01*
X9493634Y-15778484D02*
X9617444Y-15778484D01*
X9693634Y-15578484D02*
X9693634Y-15616579D01*
X9769825Y-15578484D02*
X9769825Y-15616579D01*
X10065063Y-15854674D02*
X10055539Y-15845150D01*
X10055539Y-15845150D02*
X10036491Y-15816579D01*
X10036491Y-15816579D02*
X10026968Y-15797531D01*
X10026968Y-15797531D02*
X10017444Y-15768960D01*
X10017444Y-15768960D02*
X10007920Y-15721341D01*
X10007920Y-15721341D02*
X10007920Y-15683246D01*
X10007920Y-15683246D02*
X10017444Y-15635627D01*
X10017444Y-15635627D02*
X10026968Y-15607055D01*
X10026968Y-15607055D02*
X10036491Y-15588008D01*
X10036491Y-15588008D02*
X10055539Y-15559436D01*
X10055539Y-15559436D02*
X10065063Y-15549912D01*
X10236491Y-15578484D02*
X10141253Y-15578484D01*
X10141253Y-15578484D02*
X10131730Y-15673722D01*
X10131730Y-15673722D02*
X10141253Y-15664198D01*
X10141253Y-15664198D02*
X10160301Y-15654674D01*
X10160301Y-15654674D02*
X10207920Y-15654674D01*
X10207920Y-15654674D02*
X10226968Y-15664198D01*
X10226968Y-15664198D02*
X10236491Y-15673722D01*
X10236491Y-15673722D02*
X10246015Y-15692769D01*
X10246015Y-15692769D02*
X10246015Y-15740388D01*
X10246015Y-15740388D02*
X10236491Y-15759436D01*
X10236491Y-15759436D02*
X10226968Y-15768960D01*
X10226968Y-15768960D02*
X10207920Y-15778484D01*
X10207920Y-15778484D02*
X10160301Y-15778484D01*
X10160301Y-15778484D02*
X10141253Y-15768960D01*
X10141253Y-15768960D02*
X10131730Y-15759436D01*
X10484111Y-15778484D02*
X10484111Y-15578484D01*
X10569825Y-15778484D02*
X10569825Y-15673722D01*
X10569825Y-15673722D02*
X10560301Y-15654674D01*
X10560301Y-15654674D02*
X10541253Y-15645150D01*
X10541253Y-15645150D02*
X10512682Y-15645150D01*
X10512682Y-15645150D02*
X10493634Y-15654674D01*
X10493634Y-15654674D02*
X10484111Y-15664198D01*
X10693634Y-15778484D02*
X10674587Y-15768960D01*
X10674587Y-15768960D02*
X10665063Y-15759436D01*
X10665063Y-15759436D02*
X10655539Y-15740388D01*
X10655539Y-15740388D02*
X10655539Y-15683246D01*
X10655539Y-15683246D02*
X10665063Y-15664198D01*
X10665063Y-15664198D02*
X10674587Y-15654674D01*
X10674587Y-15654674D02*
X10693634Y-15645150D01*
X10693634Y-15645150D02*
X10722206Y-15645150D01*
X10722206Y-15645150D02*
X10741253Y-15654674D01*
X10741253Y-15654674D02*
X10750777Y-15664198D01*
X10750777Y-15664198D02*
X10760301Y-15683246D01*
X10760301Y-15683246D02*
X10760301Y-15740388D01*
X10760301Y-15740388D02*
X10750777Y-15759436D01*
X10750777Y-15759436D02*
X10741253Y-15768960D01*
X10741253Y-15768960D02*
X10722206Y-15778484D01*
X10722206Y-15778484D02*
X10693634Y-15778484D01*
X10874587Y-15778484D02*
X10855539Y-15768960D01*
X10855539Y-15768960D02*
X10846015Y-15749912D01*
X10846015Y-15749912D02*
X10846015Y-15578484D01*
X11026968Y-15768960D02*
X11007920Y-15778484D01*
X11007920Y-15778484D02*
X10969825Y-15778484D01*
X10969825Y-15778484D02*
X10950777Y-15768960D01*
X10950777Y-15768960D02*
X10941253Y-15749912D01*
X10941253Y-15749912D02*
X10941253Y-15673722D01*
X10941253Y-15673722D02*
X10950777Y-15654674D01*
X10950777Y-15654674D02*
X10969825Y-15645150D01*
X10969825Y-15645150D02*
X11007920Y-15645150D01*
X11007920Y-15645150D02*
X11026968Y-15654674D01*
X11026968Y-15654674D02*
X11036492Y-15673722D01*
X11036492Y-15673722D02*
X11036492Y-15692769D01*
X11036492Y-15692769D02*
X10941253Y-15711817D01*
X11112682Y-15768960D02*
X11131730Y-15778484D01*
X11131730Y-15778484D02*
X11169825Y-15778484D01*
X11169825Y-15778484D02*
X11188872Y-15768960D01*
X11188872Y-15768960D02*
X11198396Y-15749912D01*
X11198396Y-15749912D02*
X11198396Y-15740388D01*
X11198396Y-15740388D02*
X11188872Y-15721341D01*
X11188872Y-15721341D02*
X11169825Y-15711817D01*
X11169825Y-15711817D02*
X11141253Y-15711817D01*
X11141253Y-15711817D02*
X11122206Y-15702293D01*
X11122206Y-15702293D02*
X11112682Y-15683246D01*
X11112682Y-15683246D02*
X11112682Y-15673722D01*
X11112682Y-15673722D02*
X11122206Y-15654674D01*
X11122206Y-15654674D02*
X11141253Y-15645150D01*
X11141253Y-15645150D02*
X11169825Y-15645150D01*
X11169825Y-15645150D02*
X11188872Y-15654674D01*
X11265063Y-15854674D02*
X11274587Y-15845150D01*
X11274587Y-15845150D02*
X11293634Y-15816579D01*
X11293634Y-15816579D02*
X11303158Y-15797531D01*
X11303158Y-15797531D02*
X11312682Y-15768960D01*
X11312682Y-15768960D02*
X11322206Y-15721341D01*
X11322206Y-15721341D02*
X11322206Y-15683246D01*
X11322206Y-15683246D02*
X11312682Y-15635627D01*
X11312682Y-15635627D02*
X11303158Y-15607055D01*
X11303158Y-15607055D02*
X11293634Y-15588008D01*
X11293634Y-15588008D02*
X11274587Y-15559436D01*
X11274587Y-15559436D02*
X11265063Y-15549912D01*
X6390000Y-15851000D02*
X6390000Y-16051000D01*
X6290000Y-15951000D02*
X6490000Y-15951000D01*
X6490000Y-15951000D02*
G75*
G02*
X6290000Y-15951000I-100000J0D01*
G01*
X6290000Y-15951000D02*
G75*
G02*
X6490000Y-15951000I100000J0D01*
G01*
X6731729Y-15842484D02*
X6855539Y-15842484D01*
X6855539Y-15842484D02*
X6788872Y-15918674D01*
X6788872Y-15918674D02*
X6817443Y-15918674D01*
X6817443Y-15918674D02*
X6836491Y-15928198D01*
X6836491Y-15928198D02*
X6846015Y-15937722D01*
X6846015Y-15937722D02*
X6855539Y-15956769D01*
X6855539Y-15956769D02*
X6855539Y-16004388D01*
X6855539Y-16004388D02*
X6846015Y-16023436D01*
X6846015Y-16023436D02*
X6836491Y-16032960D01*
X6836491Y-16032960D02*
X6817443Y-16042484D01*
X6817443Y-16042484D02*
X6760301Y-16042484D01*
X6760301Y-16042484D02*
X6741253Y-16032960D01*
X6741253Y-16032960D02*
X6731729Y-16023436D01*
X6941253Y-16023436D02*
X6950777Y-16032960D01*
X6950777Y-16032960D02*
X6941253Y-16042484D01*
X6941253Y-16042484D02*
X6931729Y-16032960D01*
X6931729Y-16032960D02*
X6941253Y-16023436D01*
X6941253Y-16023436D02*
X6941253Y-16042484D01*
X7026967Y-15861531D02*
X7036491Y-15852008D01*
X7036491Y-15852008D02*
X7055539Y-15842484D01*
X7055539Y-15842484D02*
X7103158Y-15842484D01*
X7103158Y-15842484D02*
X7122205Y-15852008D01*
X7122205Y-15852008D02*
X7131729Y-15861531D01*
X7131729Y-15861531D02*
X7141253Y-15880579D01*
X7141253Y-15880579D02*
X7141253Y-15899627D01*
X7141253Y-15899627D02*
X7131729Y-15928198D01*
X7131729Y-15928198D02*
X7017443Y-16042484D01*
X7017443Y-16042484D02*
X7141253Y-16042484D01*
X7265062Y-15842484D02*
X7284110Y-15842484D01*
X7284110Y-15842484D02*
X7303158Y-15852008D01*
X7303158Y-15852008D02*
X7312682Y-15861531D01*
X7312682Y-15861531D02*
X7322205Y-15880579D01*
X7322205Y-15880579D02*
X7331729Y-15918674D01*
X7331729Y-15918674D02*
X7331729Y-15966293D01*
X7331729Y-15966293D02*
X7322205Y-16004388D01*
X7322205Y-16004388D02*
X7312682Y-16023436D01*
X7312682Y-16023436D02*
X7303158Y-16032960D01*
X7303158Y-16032960D02*
X7284110Y-16042484D01*
X7284110Y-16042484D02*
X7265062Y-16042484D01*
X7265062Y-16042484D02*
X7246015Y-16032960D01*
X7246015Y-16032960D02*
X7236491Y-16023436D01*
X7236491Y-16023436D02*
X7226967Y-16004388D01*
X7226967Y-16004388D02*
X7217443Y-15966293D01*
X7217443Y-15966293D02*
X7217443Y-15918674D01*
X7217443Y-15918674D02*
X7226967Y-15880579D01*
X7226967Y-15880579D02*
X7236491Y-15861531D01*
X7236491Y-15861531D02*
X7246015Y-15852008D01*
X7246015Y-15852008D02*
X7265062Y-15842484D01*
X7455539Y-15842484D02*
X7474586Y-15842484D01*
X7474586Y-15842484D02*
X7493634Y-15852008D01*
X7493634Y-15852008D02*
X7503158Y-15861531D01*
X7503158Y-15861531D02*
X7512682Y-15880579D01*
X7512682Y-15880579D02*
X7522205Y-15918674D01*
X7522205Y-15918674D02*
X7522205Y-15966293D01*
X7522205Y-15966293D02*
X7512682Y-16004388D01*
X7512682Y-16004388D02*
X7503158Y-16023436D01*
X7503158Y-16023436D02*
X7493634Y-16032960D01*
X7493634Y-16032960D02*
X7474586Y-16042484D01*
X7474586Y-16042484D02*
X7455539Y-16042484D01*
X7455539Y-16042484D02*
X7436491Y-16032960D01*
X7436491Y-16032960D02*
X7426967Y-16023436D01*
X7426967Y-16023436D02*
X7417443Y-16004388D01*
X7417443Y-16004388D02*
X7407920Y-15966293D01*
X7407920Y-15966293D02*
X7407920Y-15918674D01*
X7407920Y-15918674D02*
X7417443Y-15880579D01*
X7417443Y-15880579D02*
X7426967Y-15861531D01*
X7426967Y-15861531D02*
X7436491Y-15852008D01*
X7436491Y-15852008D02*
X7455539Y-15842484D01*
X7607920Y-16042484D02*
X7607920Y-15909150D01*
X7607920Y-15928198D02*
X7617443Y-15918674D01*
X7617443Y-15918674D02*
X7636491Y-15909150D01*
X7636491Y-15909150D02*
X7665063Y-15909150D01*
X7665063Y-15909150D02*
X7684110Y-15918674D01*
X7684110Y-15918674D02*
X7693634Y-15937722D01*
X7693634Y-15937722D02*
X7693634Y-16042484D01*
X7693634Y-15937722D02*
X7703158Y-15918674D01*
X7703158Y-15918674D02*
X7722205Y-15909150D01*
X7722205Y-15909150D02*
X7750777Y-15909150D01*
X7750777Y-15909150D02*
X7769824Y-15918674D01*
X7769824Y-15918674D02*
X7779348Y-15937722D01*
X7779348Y-15937722D02*
X7779348Y-16042484D01*
X7874586Y-16042484D02*
X7874586Y-15909150D01*
X7874586Y-15928198D02*
X7884110Y-15918674D01*
X7884110Y-15918674D02*
X7903158Y-15909150D01*
X7903158Y-15909150D02*
X7931729Y-15909150D01*
X7931729Y-15909150D02*
X7950777Y-15918674D01*
X7950777Y-15918674D02*
X7960301Y-15937722D01*
X7960301Y-15937722D02*
X7960301Y-16042484D01*
X7960301Y-15937722D02*
X7969824Y-15918674D01*
X7969824Y-15918674D02*
X7988872Y-15909150D01*
X7988872Y-15909150D02*
X8017443Y-15909150D01*
X8017443Y-15909150D02*
X8036491Y-15918674D01*
X8036491Y-15918674D02*
X8046015Y-15937722D01*
X8046015Y-15937722D02*
X8046015Y-16042484D01*
X8436491Y-15832960D02*
X8265063Y-16090103D01*
X8693634Y-15842484D02*
X8712682Y-15842484D01*
X8712682Y-15842484D02*
X8731729Y-15852008D01*
X8731729Y-15852008D02*
X8741253Y-15861531D01*
X8741253Y-15861531D02*
X8750777Y-15880579D01*
X8750777Y-15880579D02*
X8760301Y-15918674D01*
X8760301Y-15918674D02*
X8760301Y-15966293D01*
X8760301Y-15966293D02*
X8750777Y-16004388D01*
X8750777Y-16004388D02*
X8741253Y-16023436D01*
X8741253Y-16023436D02*
X8731729Y-16032960D01*
X8731729Y-16032960D02*
X8712682Y-16042484D01*
X8712682Y-16042484D02*
X8693634Y-16042484D01*
X8693634Y-16042484D02*
X8674587Y-16032960D01*
X8674587Y-16032960D02*
X8665063Y-16023436D01*
X8665063Y-16023436D02*
X8655539Y-16004388D01*
X8655539Y-16004388D02*
X8646015Y-15966293D01*
X8646015Y-15966293D02*
X8646015Y-15918674D01*
X8646015Y-15918674D02*
X8655539Y-15880579D01*
X8655539Y-15880579D02*
X8665063Y-15861531D01*
X8665063Y-15861531D02*
X8674587Y-15852008D01*
X8674587Y-15852008D02*
X8693634Y-15842484D01*
X8846015Y-16023436D02*
X8855539Y-16032960D01*
X8855539Y-16032960D02*
X8846015Y-16042484D01*
X8846015Y-16042484D02*
X8836491Y-16032960D01*
X8836491Y-16032960D02*
X8846015Y-16023436D01*
X8846015Y-16023436D02*
X8846015Y-16042484D01*
X9046015Y-16042484D02*
X8931729Y-16042484D01*
X8988872Y-16042484D02*
X8988872Y-15842484D01*
X8988872Y-15842484D02*
X8969825Y-15871055D01*
X8969825Y-15871055D02*
X8950777Y-15890103D01*
X8950777Y-15890103D02*
X8931729Y-15899627D01*
X9122206Y-15861531D02*
X9131729Y-15852008D01*
X9131729Y-15852008D02*
X9150777Y-15842484D01*
X9150777Y-15842484D02*
X9198396Y-15842484D01*
X9198396Y-15842484D02*
X9217444Y-15852008D01*
X9217444Y-15852008D02*
X9226968Y-15861531D01*
X9226968Y-15861531D02*
X9236491Y-15880579D01*
X9236491Y-15880579D02*
X9236491Y-15899627D01*
X9236491Y-15899627D02*
X9226968Y-15928198D01*
X9226968Y-15928198D02*
X9112682Y-16042484D01*
X9112682Y-16042484D02*
X9236491Y-16042484D01*
X9407920Y-15842484D02*
X9369825Y-15842484D01*
X9369825Y-15842484D02*
X9350777Y-15852008D01*
X9350777Y-15852008D02*
X9341253Y-15861531D01*
X9341253Y-15861531D02*
X9322206Y-15890103D01*
X9322206Y-15890103D02*
X9312682Y-15928198D01*
X9312682Y-15928198D02*
X9312682Y-16004388D01*
X9312682Y-16004388D02*
X9322206Y-16023436D01*
X9322206Y-16023436D02*
X9331729Y-16032960D01*
X9331729Y-16032960D02*
X9350777Y-16042484D01*
X9350777Y-16042484D02*
X9388872Y-16042484D01*
X9388872Y-16042484D02*
X9407920Y-16032960D01*
X9407920Y-16032960D02*
X9417444Y-16023436D01*
X9417444Y-16023436D02*
X9426968Y-16004388D01*
X9426968Y-16004388D02*
X9426968Y-15956769D01*
X9426968Y-15956769D02*
X9417444Y-15937722D01*
X9417444Y-15937722D02*
X9407920Y-15928198D01*
X9407920Y-15928198D02*
X9388872Y-15918674D01*
X9388872Y-15918674D02*
X9350777Y-15918674D01*
X9350777Y-15918674D02*
X9331729Y-15928198D01*
X9331729Y-15928198D02*
X9322206Y-15937722D01*
X9322206Y-15937722D02*
X9312682Y-15956769D01*
X9550777Y-15842484D02*
X9569825Y-15842484D01*
X9569825Y-15842484D02*
X9588872Y-15852008D01*
X9588872Y-15852008D02*
X9598396Y-15861531D01*
X9598396Y-15861531D02*
X9607920Y-15880579D01*
X9607920Y-15880579D02*
X9617444Y-15918674D01*
X9617444Y-15918674D02*
X9617444Y-15966293D01*
X9617444Y-15966293D02*
X9607920Y-16004388D01*
X9607920Y-16004388D02*
X9598396Y-16023436D01*
X9598396Y-16023436D02*
X9588872Y-16032960D01*
X9588872Y-16032960D02*
X9569825Y-16042484D01*
X9569825Y-16042484D02*
X9550777Y-16042484D01*
X9550777Y-16042484D02*
X9531729Y-16032960D01*
X9531729Y-16032960D02*
X9522206Y-16023436D01*
X9522206Y-16023436D02*
X9512682Y-16004388D01*
X9512682Y-16004388D02*
X9503158Y-15966293D01*
X9503158Y-15966293D02*
X9503158Y-15918674D01*
X9503158Y-15918674D02*
X9512682Y-15880579D01*
X9512682Y-15880579D02*
X9522206Y-15861531D01*
X9522206Y-15861531D02*
X9531729Y-15852008D01*
X9531729Y-15852008D02*
X9550777Y-15842484D01*
X9693634Y-15842484D02*
X9693634Y-15880579D01*
X9769825Y-15842484D02*
X9769825Y-15880579D01*
X10065063Y-16118674D02*
X10055539Y-16109150D01*
X10055539Y-16109150D02*
X10036491Y-16080579D01*
X10036491Y-16080579D02*
X10026968Y-16061531D01*
X10026968Y-16061531D02*
X10017444Y-16032960D01*
X10017444Y-16032960D02*
X10007920Y-15985341D01*
X10007920Y-15985341D02*
X10007920Y-15947246D01*
X10007920Y-15947246D02*
X10017444Y-15899627D01*
X10017444Y-15899627D02*
X10026968Y-15871055D01*
X10026968Y-15871055D02*
X10036491Y-15852008D01*
X10036491Y-15852008D02*
X10055539Y-15823436D01*
X10055539Y-15823436D02*
X10065063Y-15813912D01*
X10226968Y-15909150D02*
X10226968Y-16042484D01*
X10179349Y-15832960D02*
X10131730Y-15975817D01*
X10131730Y-15975817D02*
X10255539Y-15975817D01*
X10484111Y-16042484D02*
X10484111Y-15842484D01*
X10569825Y-16042484D02*
X10569825Y-15937722D01*
X10569825Y-15937722D02*
X10560301Y-15918674D01*
X10560301Y-15918674D02*
X10541253Y-15909150D01*
X10541253Y-15909150D02*
X10512682Y-15909150D01*
X10512682Y-15909150D02*
X10493634Y-15918674D01*
X10493634Y-15918674D02*
X10484111Y-15928198D01*
X10693634Y-16042484D02*
X10674587Y-16032960D01*
X10674587Y-16032960D02*
X10665063Y-16023436D01*
X10665063Y-16023436D02*
X10655539Y-16004388D01*
X10655539Y-16004388D02*
X10655539Y-15947246D01*
X10655539Y-15947246D02*
X10665063Y-15928198D01*
X10665063Y-15928198D02*
X10674587Y-15918674D01*
X10674587Y-15918674D02*
X10693634Y-15909150D01*
X10693634Y-15909150D02*
X10722206Y-15909150D01*
X10722206Y-15909150D02*
X10741253Y-15918674D01*
X10741253Y-15918674D02*
X10750777Y-15928198D01*
X10750777Y-15928198D02*
X10760301Y-15947246D01*
X10760301Y-15947246D02*
X10760301Y-16004388D01*
X10760301Y-16004388D02*
X10750777Y-16023436D01*
X10750777Y-16023436D02*
X10741253Y-16032960D01*
X10741253Y-16032960D02*
X10722206Y-16042484D01*
X10722206Y-16042484D02*
X10693634Y-16042484D01*
X10874587Y-16042484D02*
X10855539Y-16032960D01*
X10855539Y-16032960D02*
X10846015Y-16013912D01*
X10846015Y-16013912D02*
X10846015Y-15842484D01*
X11026968Y-16032960D02*
X11007920Y-16042484D01*
X11007920Y-16042484D02*
X10969825Y-16042484D01*
X10969825Y-16042484D02*
X10950777Y-16032960D01*
X10950777Y-16032960D02*
X10941253Y-16013912D01*
X10941253Y-16013912D02*
X10941253Y-15937722D01*
X10941253Y-15937722D02*
X10950777Y-15918674D01*
X10950777Y-15918674D02*
X10969825Y-15909150D01*
X10969825Y-15909150D02*
X11007920Y-15909150D01*
X11007920Y-15909150D02*
X11026968Y-15918674D01*
X11026968Y-15918674D02*
X11036492Y-15937722D01*
X11036492Y-15937722D02*
X11036492Y-15956769D01*
X11036492Y-15956769D02*
X10941253Y-15975817D01*
X11112682Y-16032960D02*
X11131730Y-16042484D01*
X11131730Y-16042484D02*
X11169825Y-16042484D01*
X11169825Y-16042484D02*
X11188872Y-16032960D01*
X11188872Y-16032960D02*
X11198396Y-16013912D01*
X11198396Y-16013912D02*
X11198396Y-16004388D01*
X11198396Y-16004388D02*
X11188872Y-15985341D01*
X11188872Y-15985341D02*
X11169825Y-15975817D01*
X11169825Y-15975817D02*
X11141253Y-15975817D01*
X11141253Y-15975817D02*
X11122206Y-15966293D01*
X11122206Y-15966293D02*
X11112682Y-15947246D01*
X11112682Y-15947246D02*
X11112682Y-15937722D01*
X11112682Y-15937722D02*
X11122206Y-15918674D01*
X11122206Y-15918674D02*
X11141253Y-15909150D01*
X11141253Y-15909150D02*
X11169825Y-15909150D01*
X11169825Y-15909150D02*
X11188872Y-15918674D01*
X11265063Y-16118674D02*
X11274587Y-16109150D01*
X11274587Y-16109150D02*
X11293634Y-16080579D01*
X11293634Y-16080579D02*
X11303158Y-16061531D01*
X11303158Y-16061531D02*
X11312682Y-16032960D01*
X11312682Y-16032960D02*
X11322206Y-15985341D01*
X11322206Y-15985341D02*
X11322206Y-15947246D01*
X11322206Y-15947246D02*
X11312682Y-15899627D01*
X11312682Y-15899627D02*
X11303158Y-15871055D01*
X11303158Y-15871055D02*
X11293634Y-15852008D01*
X11293634Y-15852008D02*
X11274587Y-15823436D01*
X11274587Y-15823436D02*
X11265063Y-15813912D01*
X11626968Y-16118674D02*
X11617444Y-16109150D01*
X11617444Y-16109150D02*
X11598396Y-16080579D01*
X11598396Y-16080579D02*
X11588872Y-16061531D01*
X11588872Y-16061531D02*
X11579349Y-16032960D01*
X11579349Y-16032960D02*
X11569825Y-15985341D01*
X11569825Y-15985341D02*
X11569825Y-15947246D01*
X11569825Y-15947246D02*
X11579349Y-15899627D01*
X11579349Y-15899627D02*
X11588872Y-15871055D01*
X11588872Y-15871055D02*
X11598396Y-15852008D01*
X11598396Y-15852008D02*
X11617444Y-15823436D01*
X11617444Y-15823436D02*
X11626968Y-15813912D01*
X11703158Y-15909150D02*
X11703158Y-16042484D01*
X11703158Y-15928198D02*
X11712682Y-15918674D01*
X11712682Y-15918674D02*
X11731730Y-15909150D01*
X11731730Y-15909150D02*
X11760301Y-15909150D01*
X11760301Y-15909150D02*
X11779349Y-15918674D01*
X11779349Y-15918674D02*
X11788872Y-15937722D01*
X11788872Y-15937722D02*
X11788872Y-16042484D01*
X11912682Y-16042484D02*
X11893634Y-16032960D01*
X11893634Y-16032960D02*
X11884111Y-16023436D01*
X11884111Y-16023436D02*
X11874587Y-16004388D01*
X11874587Y-16004388D02*
X11874587Y-15947246D01*
X11874587Y-15947246D02*
X11884111Y-15928198D01*
X11884111Y-15928198D02*
X11893634Y-15918674D01*
X11893634Y-15918674D02*
X11912682Y-15909150D01*
X11912682Y-15909150D02*
X11941253Y-15909150D01*
X11941253Y-15909150D02*
X11960301Y-15918674D01*
X11960301Y-15918674D02*
X11969825Y-15928198D01*
X11969825Y-15928198D02*
X11979349Y-15947246D01*
X11979349Y-15947246D02*
X11979349Y-16004388D01*
X11979349Y-16004388D02*
X11969825Y-16023436D01*
X11969825Y-16023436D02*
X11960301Y-16032960D01*
X11960301Y-16032960D02*
X11941253Y-16042484D01*
X11941253Y-16042484D02*
X11912682Y-16042484D01*
X12036492Y-15909150D02*
X12112682Y-15909150D01*
X12065063Y-15842484D02*
X12065063Y-16013912D01*
X12065063Y-16013912D02*
X12074587Y-16032960D01*
X12074587Y-16032960D02*
X12093634Y-16042484D01*
X12093634Y-16042484D02*
X12112682Y-16042484D01*
X12331730Y-15909150D02*
X12331730Y-16109150D01*
X12331730Y-15918674D02*
X12350777Y-15909150D01*
X12350777Y-15909150D02*
X12388873Y-15909150D01*
X12388873Y-15909150D02*
X12407920Y-15918674D01*
X12407920Y-15918674D02*
X12417444Y-15928198D01*
X12417444Y-15928198D02*
X12426968Y-15947246D01*
X12426968Y-15947246D02*
X12426968Y-16004388D01*
X12426968Y-16004388D02*
X12417444Y-16023436D01*
X12417444Y-16023436D02*
X12407920Y-16032960D01*
X12407920Y-16032960D02*
X12388873Y-16042484D01*
X12388873Y-16042484D02*
X12350777Y-16042484D01*
X12350777Y-16042484D02*
X12331730Y-16032960D01*
X12541253Y-16042484D02*
X12522206Y-16032960D01*
X12522206Y-16032960D02*
X12512682Y-16013912D01*
X12512682Y-16013912D02*
X12512682Y-15842484D01*
X12703158Y-16042484D02*
X12703158Y-15937722D01*
X12703158Y-15937722D02*
X12693634Y-15918674D01*
X12693634Y-15918674D02*
X12674587Y-15909150D01*
X12674587Y-15909150D02*
X12636492Y-15909150D01*
X12636492Y-15909150D02*
X12617444Y-15918674D01*
X12703158Y-16032960D02*
X12684111Y-16042484D01*
X12684111Y-16042484D02*
X12636492Y-16042484D01*
X12636492Y-16042484D02*
X12617444Y-16032960D01*
X12617444Y-16032960D02*
X12607920Y-16013912D01*
X12607920Y-16013912D02*
X12607920Y-15994865D01*
X12607920Y-15994865D02*
X12617444Y-15975817D01*
X12617444Y-15975817D02*
X12636492Y-15966293D01*
X12636492Y-15966293D02*
X12684111Y-15966293D01*
X12684111Y-15966293D02*
X12703158Y-15956769D01*
X12769825Y-15909150D02*
X12846015Y-15909150D01*
X12798396Y-15842484D02*
X12798396Y-16013912D01*
X12798396Y-16013912D02*
X12807920Y-16032960D01*
X12807920Y-16032960D02*
X12826968Y-16042484D01*
X12826968Y-16042484D02*
X12846015Y-16042484D01*
X12988873Y-16032960D02*
X12969825Y-16042484D01*
X12969825Y-16042484D02*
X12931730Y-16042484D01*
X12931730Y-16042484D02*
X12912682Y-16032960D01*
X12912682Y-16032960D02*
X12903158Y-16013912D01*
X12903158Y-16013912D02*
X12903158Y-15937722D01*
X12903158Y-15937722D02*
X12912682Y-15918674D01*
X12912682Y-15918674D02*
X12931730Y-15909150D01*
X12931730Y-15909150D02*
X12969825Y-15909150D01*
X12969825Y-15909150D02*
X12988873Y-15918674D01*
X12988873Y-15918674D02*
X12998396Y-15937722D01*
X12998396Y-15937722D02*
X12998396Y-15956769D01*
X12998396Y-15956769D02*
X12903158Y-15975817D01*
X13169825Y-16042484D02*
X13169825Y-15842484D01*
X13169825Y-16032960D02*
X13150777Y-16042484D01*
X13150777Y-16042484D02*
X13112682Y-16042484D01*
X13112682Y-16042484D02*
X13093634Y-16032960D01*
X13093634Y-16032960D02*
X13084111Y-16023436D01*
X13084111Y-16023436D02*
X13074587Y-16004388D01*
X13074587Y-16004388D02*
X13074587Y-15947246D01*
X13074587Y-15947246D02*
X13084111Y-15928198D01*
X13084111Y-15928198D02*
X13093634Y-15918674D01*
X13093634Y-15918674D02*
X13112682Y-15909150D01*
X13112682Y-15909150D02*
X13150777Y-15909150D01*
X13150777Y-15909150D02*
X13169825Y-15918674D01*
X13246015Y-16118674D02*
X13255539Y-16109150D01*
X13255539Y-16109150D02*
X13274587Y-16080579D01*
X13274587Y-16080579D02*
X13284111Y-16061531D01*
X13284111Y-16061531D02*
X13293634Y-16032960D01*
X13293634Y-16032960D02*
X13303158Y-15985341D01*
X13303158Y-15985341D02*
X13303158Y-15947246D01*
X13303158Y-15947246D02*
X13293634Y-15899627D01*
X13293634Y-15899627D02*
X13284111Y-15871055D01*
X13284111Y-15871055D02*
X13274587Y-15852008D01*
X13274587Y-15852008D02*
X13255539Y-15823436D01*
X13255539Y-15823436D02*
X13246015Y-15813912D01*
M02*
