M48
; DRILL file {KiCad 8.0.2-8.0.2-0~ubuntu24.04.1} date 2024-05-23T00:09:37+0700
; FORMAT={-:-/ absolute / inch / decimal}
; #@! TF.CreationDate,2024-05-23T00:09:37+07:00
; #@! TF.GenerationSoftware,Kicad,Pcbnew,8.0.2-8.0.2-0~ubuntu24.04.1
; #@! TF.FileFunction,Plated,1,2,PTH
FMAT,2
INCH
; #@! TA.AperFunction,Plated,PTH,ComponentDrill
T1C0.0276
; #@! TA.AperFunction,Plated,PTH,ComponentDrill
T2C0.0315
; #@! TA.AperFunction,Plated,PTH,ComponentDrill
T3C0.0354
; #@! TA.AperFunction,Plated,PTH,ComponentDrill
T4C0.0394
; #@! TA.AperFunction,Plated,PTH,ComponentDrill
T5C0.0400
; #@! TA.AperFunction,Plated,PTH,ComponentDrill
T6C0.0402
; #@! TA.AperFunction,Plated,PTH,ComponentDrill
T7C0.0433
; #@! TA.AperFunction,Plated,PTH,ComponentDrill
T8C0.0472
; #@! TA.AperFunction,Plated,PTH,ComponentDrill
T9C0.0512
%
G90
G05
T1
X4.7352Y-4.6335
X4.7352Y-4.9335
X5.003Y-4.6335
X5.003Y-4.9335
X5.3022Y-4.6335
X5.3022Y-4.9335
X6.2673Y-3.3616
X6.2673Y-3.5348
X6.2673Y-3.7081
X6.5673Y-3.3616
X6.5673Y-3.5348
X6.5673Y-3.7081
T2
X3.9224Y-1.9557
X4.0602Y-1.9557
X4.9535Y-1.96
X5.0913Y-1.96
X5.9969Y-1.9715
X6.1346Y-1.9715
X6.4305Y-3.1159
X6.5305Y-3.1159
X6.6305Y-3.1159
T3
X4.8612Y-5.1228
X4.8612Y-5.2228
X5.0817Y-5.1228
X5.0817Y-5.2228
X5.3022Y-5.1214
X5.3022Y-5.2214
X6.1969Y-3.1018
X6.2969Y-3.1018
X6.6254Y-3.9285
X6.7254Y-3.9285
T4
X3.9368Y-2.8734
X4.0368Y-2.8734
X4.1209Y-3.2697
X4.1368Y-2.8734
X4.3177Y-3.2697
X4.3845Y-2.2179
X4.3845Y-2.3179
X4.3845Y-2.4179
X4.3845Y-2.5179
X4.4565Y-2.8734
X4.5565Y-2.8734
X4.6565Y-2.8734
X5.0707Y-2.8734
X5.1707Y-2.8734
X5.2707Y-2.8734
X5.4203Y-2.2159
X5.4203Y-2.3159
X5.4203Y-2.4159
X5.4203Y-2.5159
X5.8644Y-4.3896
X5.8644Y-5.0896
X6.4614Y-2.2136
X6.4614Y-2.3136
X6.4614Y-2.4136
X6.4614Y-2.5136
X6.8711Y-3.088
X6.8711Y-3.5604
X7.4596Y-3.8236
X7.4596Y-3.9236
X7.4644Y-4.3896
X7.4644Y-5.0896
T5
X3.7451Y-2.0136
X3.7451Y-2.1136
X3.7451Y-2.2136
X3.7451Y-2.3136
X3.7451Y-2.4136
X3.7451Y-2.5136
X3.7451Y-2.6136
X3.7451Y-2.7136
X4.2451Y-2.0136
X4.2451Y-2.1136
X4.2451Y-2.2136
X4.2451Y-2.3136
X4.2451Y-2.4136
X4.2451Y-2.5136
X4.2451Y-2.6136
X4.2451Y-2.7136
X4.7783Y-2.0156
X4.7783Y-2.1156
X4.7783Y-2.2156
X4.7783Y-2.3156
X4.7783Y-2.4156
X4.7783Y-2.5156
X4.7783Y-2.6156
X4.7783Y-2.7156
X5.2783Y-2.0156
X5.2783Y-2.1156
X5.2783Y-2.2156
X5.2783Y-2.3156
X5.2783Y-2.4156
X5.2783Y-2.5156
X5.2783Y-2.6156
X5.2783Y-2.7156
X5.8219Y-2.0156
X5.8219Y-2.1156
X5.8219Y-2.2156
X5.8219Y-2.3156
X5.8219Y-2.4156
X5.8219Y-2.5156
X5.8219Y-2.6156
X5.8219Y-2.7156
X6.3219Y-2.0156
X6.3219Y-2.1156
X6.3219Y-2.2156
X6.3219Y-2.3156
X6.3219Y-2.4156
X6.3219Y-2.5156
X6.3219Y-2.6156
X6.3219Y-2.7156
T6
X4.5404Y-3.1978
X4.5404Y-3.2978
X4.5404Y-3.3978
X4.5404Y-3.4978
X4.5404Y-3.5978
X4.5404Y-3.6978
X4.5404Y-3.7978
X4.5404Y-3.8978
X4.5404Y-3.9978
X4.5404Y-4.0978
X4.5404Y-4.1978
X4.5404Y-4.2978
X4.5404Y-4.3978
X4.5404Y-4.4978
X4.5404Y-4.5978
X5.5404Y-3.1978
X5.5404Y-3.2978
X5.5404Y-3.3978
X5.5404Y-3.4978
X5.5404Y-3.5978
X5.5404Y-3.6978
X5.5404Y-3.7978
X5.5404Y-3.8978
X5.5404Y-3.9978
X5.5404Y-4.0978
X5.5404Y-4.1978
X5.5404Y-4.2978
X5.5404Y-4.3978
X5.5404Y-4.4978
X5.5404Y-4.5978
T7
X6.9396Y-3.9364
X7.2396Y-3.9364
T8
X7.2953Y-2.5492
X7.2953Y-2.687
T9
X6.7943Y-3.3222
X7.3514Y-3.5604
X7.3533Y-3.086
M30
