%TF.GenerationSoftware,KiCad,Pcbnew,8.0.2-8.0.2-0~ubuntu24.04.1*%
%TF.CreationDate,2024-05-23T00:09:34+07:00*%
%TF.ProjectId,tugas-akhir,74756761-732d-4616-9b68-69722e6b6963,6*%
%TF.SameCoordinates,Original*%
%TF.FileFunction,Copper,L2,Bot*%
%TF.FilePolarity,Positive*%
%FSLAX46Y46*%
G04 Gerber Fmt 4.6, Leading zero omitted, Abs format (unit mm)*
G04 Created by KiCad (PCBNEW 8.0.2-8.0.2-0~ubuntu24.04.1) date 2024-05-23 00:09:34*
%MOMM*%
%LPD*%
G01*
G04 APERTURE LIST*
%TA.AperFunction,ComponentPad*%
%ADD10C,1.508000*%
%TD*%
%TA.AperFunction,ComponentPad*%
%ADD11C,1.400000*%
%TD*%
%TA.AperFunction,ComponentPad*%
%ADD12O,1.400000X1.400000*%
%TD*%
%TA.AperFunction,ComponentPad*%
%ADD13R,1.800000X1.800000*%
%TD*%
%TA.AperFunction,ComponentPad*%
%ADD14C,1.800000*%
%TD*%
%TA.AperFunction,ComponentPad*%
%ADD15R,2.000000X2.000000*%
%TD*%
%TA.AperFunction,ComponentPad*%
%ADD16C,2.000000*%
%TD*%
%TA.AperFunction,ComponentPad*%
%ADD17R,1.700000X1.700000*%
%TD*%
%TA.AperFunction,ComponentPad*%
%ADD18O,1.700000X1.700000*%
%TD*%
%TA.AperFunction,ComponentPad*%
%ADD19R,1.500000X1.500000*%
%TD*%
%TA.AperFunction,ComponentPad*%
%ADD20C,1.500000*%
%TD*%
%TA.AperFunction,ComponentPad*%
%ADD21R,2.540000X2.540000*%
%TD*%
%TA.AperFunction,ComponentPad*%
%ADD22C,2.540000*%
%TD*%
%TA.AperFunction,ComponentPad*%
%ADD23R,1.524000X1.524000*%
%TD*%
%TA.AperFunction,ComponentPad*%
%ADD24C,1.524000*%
%TD*%
%TA.AperFunction,ComponentPad*%
%ADD25R,1.600000X1.600000*%
%TD*%
%TA.AperFunction,ComponentPad*%
%ADD26C,1.600000*%
%TD*%
%TA.AperFunction,ComponentPad*%
%ADD27C,3.000000*%
%TD*%
%TA.AperFunction,ComponentPad*%
%ADD28C,2.500000*%
%TD*%
%TA.AperFunction,ComponentPad*%
%ADD29R,2.400000X2.400000*%
%TD*%
%TA.AperFunction,ComponentPad*%
%ADD30C,2.400000*%
%TD*%
%TA.AperFunction,ComponentPad*%
%ADD31R,2.200000X2.200000*%
%TD*%
%TA.AperFunction,ComponentPad*%
%ADD32O,2.200000X2.200000*%
%TD*%
%TA.AperFunction,Conductor*%
%ADD33C,0.300000*%
%TD*%
%TA.AperFunction,Conductor*%
%ADD34C,0.700000*%
%TD*%
%TA.AperFunction,Conductor*%
%ADD35C,1.200000*%
%TD*%
%TA.AperFunction,Conductor*%
%ADD36C,0.250000*%
%TD*%
%TA.AperFunction,Conductor*%
%ADD37C,0.230000*%
%TD*%
%TA.AperFunction,Conductor*%
%ADD38C,0.200000*%
%TD*%
G04 APERTURE END LIST*
D10*
%TO.P,S4,2*%
%TO.N,Net-(U1-EN)*%
X109670000Y-83050000D03*
%TO.P,S4,1*%
%TO.N,GND*%
X104670000Y-83050000D03*
%TD*%
D11*
%TO.P,R1,1*%
%TO.N,3V3*%
X159190000Y-94185000D03*
D12*
%TO.P,R1,2*%
%TO.N,Net-(D2-A)*%
X166810000Y-94185000D03*
%TD*%
D13*
%TO.P,D4,1,K*%
%TO.N,GND*%
X129075000Y-132660000D03*
D14*
%TO.P,D4,2,A*%
%TO.N,Net-(D4-A)*%
X129075000Y-130120000D03*
%TD*%
D15*
%TO.P,U1,1,3V3*%
%TO.N,3V3*%
X140725000Y-116785000D03*
D16*
%TO.P,U1,2,GND*%
%TO.N,GND*%
X140725000Y-114245000D03*
%TO.P,U1,3,D15*%
%TO.N,unconnected-(U1-D15-Pad3)*%
X140725000Y-111705000D03*
%TO.P,U1,4,D2*%
%TO.N,X_SW*%
X140725000Y-109165000D03*
%TO.P,U1,5,D4*%
%TO.N,ZP_SW*%
X140725000Y-106625000D03*
%TO.P,U1,6,RX2*%
%TO.N,ZP_DIR*%
X140725000Y-104085000D03*
%TO.P,U1,7,TX2*%
%TO.N,ZP_STEP*%
X140725000Y-101545000D03*
%TO.P,U1,8,D5*%
%TO.N,RELAY*%
X140725000Y-99005000D03*
%TO.P,U1,9,D18*%
%TO.N,Z_SW*%
X140725000Y-96465000D03*
%TO.P,U1,10,D19*%
%TO.N,ZP_EN*%
X140725000Y-93925000D03*
%TO.P,U1,11,D21*%
%TO.N,Z_EN*%
X140725000Y-91385000D03*
%TO.P,U1,12,RX0*%
%TO.N,unconnected-(U1-RX0-Pad12)*%
X140725000Y-88845000D03*
%TO.P,U1,13,TX0*%
%TO.N,unconnected-(U1-TX0-Pad13)*%
X140725000Y-86305000D03*
%TO.P,U1,14,D22*%
%TO.N,Z_STEP*%
X140725000Y-83765000D03*
%TO.P,U1,15,D23*%
%TO.N,Z_DIR*%
X140725000Y-81225000D03*
%TO.P,U1,16,EN*%
%TO.N,Net-(U1-EN)*%
X115325000Y-81225000D03*
%TO.P,U1,17,VP*%
%TO.N,unconnected-(U1-VP-Pad17)*%
X115325000Y-83765000D03*
%TO.P,U1,18,VN*%
%TO.N,unconnected-(U1-VN-Pad18)*%
X115325000Y-86305000D03*
%TO.P,U1,19,D34*%
%TO.N,unconnected-(U1-D34-Pad19)*%
X115325000Y-88845000D03*
%TO.P,U1,20,D35*%
%TO.N,unconnected-(U1-D35-Pad20)*%
X115325000Y-91385000D03*
%TO.P,U1,21,D32*%
%TO.N,X_DIR*%
X115325000Y-93925000D03*
%TO.P,U1,22,D33*%
%TO.N,X_STEP*%
X115325000Y-96465000D03*
%TO.P,U1,23,D25*%
%TO.N,MS1*%
X115325000Y-99005000D03*
%TO.P,U1,24,D26*%
%TO.N,MS2*%
X115325000Y-101545000D03*
%TO.P,U1,25,D27*%
%TO.N,X_EN*%
X115325000Y-104085000D03*
%TO.P,U1,26,D14*%
%TO.N,X_LED*%
X115325000Y-106625000D03*
%TO.P,U1,27,D12*%
%TO.N,Z_LED*%
X115325000Y-109165000D03*
%TO.P,U1,28,D13*%
%TO.N,ZP_LED*%
X115325000Y-111705000D03*
%TO.P,U1,29,GND*%
%TO.N,Net-(U1-GND-Pad29)*%
X115325000Y-114245000D03*
%TO.P,U1,30,VIN*%
%TO.N,Net-(U1-VIN)*%
X115325000Y-116785000D03*
%TD*%
D17*
%TO.P,M3,1*%
%TO.N,Net-(U5-OA2)*%
X111367500Y-56335000D03*
D18*
%TO.P,M3,2,-*%
%TO.N,Net-(M3--)*%
X111367500Y-58875000D03*
%TO.P,M3,3*%
%TO.N,Net-(U5-OB1)*%
X111367500Y-61415000D03*
%TO.P,M3,4*%
%TO.N,Net-(U5-OB2)*%
X111367500Y-63955000D03*
%TD*%
D19*
%TO.P,Q1,1,E*%
%TO.N,GND*%
X163335000Y-79145000D03*
D20*
%TO.P,Q1,2,B*%
%TO.N,Net-(Q1-B)*%
X165875000Y-79145000D03*
%TO.P,Q1,3,C*%
%TO.N,Net-(D1-K)*%
X168415000Y-79145000D03*
%TD*%
D21*
%TO.P,U2,1,Vin*%
%TO.N,V+*%
X189595000Y-129275000D03*
D22*
%TO.P,U2,2,GND*%
%TO.N,V-*%
X189595000Y-111495000D03*
%TO.P,U2,3,GND*%
%TO.N,Net-(U1-GND-Pad29)*%
X148955000Y-111495000D03*
%TO.P,U2,4,Vout*%
%TO.N,Net-(U1-VIN)*%
X148955000Y-129275000D03*
%TD*%
D17*
%TO.P,M1,1*%
%TO.N,Net-(U3-OA2)*%
X164120000Y-56225000D03*
D18*
%TO.P,M1,2,-*%
%TO.N,Net-(M1--)*%
X164120000Y-58765000D03*
%TO.P,M1,3*%
%TO.N,Net-(U3-OB1)*%
X164120000Y-61305000D03*
%TO.P,M1,4*%
%TO.N,Net-(U3-OB2)*%
X164120000Y-63845000D03*
%TD*%
D23*
%TO.P,U3,JP1_1,DIR*%
%TO.N,Z_DIR*%
X147875000Y-68975000D03*
D24*
%TO.P,U3,JP1_2,STEP*%
%TO.N,Z_STEP*%
X147875000Y-66435000D03*
%TO.P,U3,JP1_3,CLK*%
%TO.N,Net-(U3-CLK)*%
X147875000Y-63895000D03*
%TO.P,U3,JP1_4,PDN/UART1*%
X147875000Y-61355000D03*
%TO.P,U3,JP1_5,NC*%
%TO.N,3V3*%
X147875000Y-58815000D03*
%TO.P,U3,JP1_6,MS2*%
%TO.N,MS2*%
X147875000Y-56275000D03*
%TO.P,U3,JP1_7,MS1*%
%TO.N,MS1*%
X147875000Y-53735000D03*
%TO.P,U3,JP1_8,EN*%
%TO.N,Z_EN*%
X147875000Y-51195000D03*
D23*
%TO.P,U3,JP2_1,VM*%
%TO.N,V+*%
X160575000Y-51195000D03*
D24*
%TO.P,U3,JP2_2,GND*%
%TO.N,V-*%
X160575000Y-53735000D03*
%TO.P,U3,JP2_3,OA2*%
%TO.N,Net-(U3-OA2)*%
X160575000Y-56275000D03*
%TO.P,U3,JP2_4,OA1*%
%TO.N,Net-(M1--)*%
X160575000Y-58815000D03*
%TO.P,U3,JP2_5,OB1*%
%TO.N,Net-(U3-OB1)*%
X160575000Y-61355000D03*
%TO.P,U3,JP2_6,OB2*%
%TO.N,Net-(U3-OB2)*%
X160575000Y-63895000D03*
%TO.P,U3,JP2_7,VIO*%
%TO.N,3V3*%
X160575000Y-66435000D03*
%TO.P,U3,JP2_8,GND*%
%TO.N,GND*%
X160575000Y-68975000D03*
%TD*%
D23*
%TO.P,U5,JP1_1,DIR*%
%TO.N,X_DIR*%
X95125000Y-68925000D03*
D24*
%TO.P,U5,JP1_2,STEP*%
%TO.N,X_STEP*%
X95125000Y-66385000D03*
%TO.P,U5,JP1_3,CLK*%
%TO.N,Net-(U5-CLK)*%
X95125000Y-63845000D03*
%TO.P,U5,JP1_4,PDN/UART1*%
X95125000Y-61305000D03*
%TO.P,U5,JP1_5,NC*%
%TO.N,3V3*%
X95125000Y-58765000D03*
%TO.P,U5,JP1_6,MS2*%
%TO.N,MS2*%
X95125000Y-56225000D03*
%TO.P,U5,JP1_7,MS1*%
%TO.N,MS1*%
X95125000Y-53685000D03*
%TO.P,U5,JP1_8,EN*%
%TO.N,X_EN*%
X95125000Y-51145000D03*
D23*
%TO.P,U5,JP2_1,VM*%
%TO.N,V+*%
X107825000Y-51145000D03*
D24*
%TO.P,U5,JP2_2,GND*%
%TO.N,V-*%
X107825000Y-53685000D03*
%TO.P,U5,JP2_3,OA2*%
%TO.N,Net-(U5-OA2)*%
X107825000Y-56225000D03*
%TO.P,U5,JP2_4,OA1*%
%TO.N,Net-(M3--)*%
X107825000Y-58765000D03*
%TO.P,U5,JP2_5,OB1*%
%TO.N,Net-(U5-OB1)*%
X107825000Y-61305000D03*
%TO.P,U5,JP2_6,OB2*%
%TO.N,Net-(U5-OB2)*%
X107825000Y-63845000D03*
%TO.P,U5,JP2_7,VIO*%
%TO.N,3V3*%
X107825000Y-66385000D03*
%TO.P,U5,JP2_8,GND*%
%TO.N,GND*%
X107825000Y-68925000D03*
%TD*%
D25*
%TO.P,C2,1*%
%TO.N,V+*%
X129320000Y-49785000D03*
D26*
%TO.P,C2,2*%
%TO.N,V-*%
X125820000Y-49785000D03*
%TD*%
D27*
%TO.P,K1,1*%
%TO.N,V+*%
X172575000Y-84385000D03*
D28*
%TO.P,K1,2*%
%TO.N,3V3*%
X174525000Y-90435000D03*
D27*
%TO.P,K1,3*%
%TO.N,Net-(J2-Pin_1)*%
X186725000Y-90435000D03*
%TO.P,K1,4*%
%TO.N,unconnected-(K1-Pad4)*%
X186775000Y-78385000D03*
D28*
%TO.P,K1,5*%
%TO.N,Net-(D1-K)*%
X174525000Y-78435000D03*
%TD*%
D11*
%TO.P,R2,1*%
%TO.N,3V3*%
X159190000Y-89785000D03*
D12*
%TO.P,R2,2*%
%TO.N,Net-(D1-A)*%
X166810000Y-89785000D03*
%TD*%
D25*
%TO.P,C3,1*%
%TO.N,V+*%
X103130000Y-49675000D03*
D26*
%TO.P,C3,2*%
%TO.N,V-*%
X99630000Y-49675000D03*
%TD*%
D13*
%TO.P,D5,1,K*%
%TO.N,GND*%
X123475000Y-132660000D03*
D14*
%TO.P,D5,2,A*%
%TO.N,Net-(D5-A)*%
X123475000Y-130120000D03*
%TD*%
D11*
%TO.P,R4,1*%
%TO.N,X_LED*%
X134675000Y-117690000D03*
D12*
%TO.P,R4,2*%
%TO.N,Net-(D6-A)*%
X134675000Y-125310000D03*
%TD*%
D11*
%TO.P,R6,1*%
%TO.N,Z_LED*%
X127075000Y-117690000D03*
D12*
%TO.P,R6,2*%
%TO.N,Net-(D4-A)*%
X127075000Y-125310000D03*
%TD*%
D29*
%TO.P,J1,1,Pin_1*%
%TO.N,V+*%
X185300000Y-68250000D03*
D30*
%TO.P,J1,2,Pin_2*%
%TO.N,V-*%
X185300000Y-64750000D03*
%TD*%
D17*
%TO.P,M2,1*%
%TO.N,Net-(U4-OA2)*%
X137675000Y-56285000D03*
D18*
%TO.P,M2,2,-*%
%TO.N,Net-(M2--)*%
X137675000Y-58825000D03*
%TO.P,M2,3*%
%TO.N,Net-(U4-OB1)*%
X137675000Y-61365000D03*
%TO.P,M2,4*%
%TO.N,Net-(U4-OB2)*%
X137675000Y-63905000D03*
%TD*%
D13*
%TO.P,D6,1,K*%
%TO.N,GND*%
X134675000Y-132622500D03*
D14*
%TO.P,D6,2,A*%
%TO.N,Net-(D6-A)*%
X134675000Y-130082500D03*
%TD*%
D11*
%TO.P,R5,1*%
%TO.N,ZP_LED*%
X120275000Y-117690000D03*
D12*
%TO.P,R5,2*%
%TO.N,Net-(D5-A)*%
X120275000Y-125310000D03*
%TD*%
D13*
%TO.P,D1,1,K*%
%TO.N,Net-(D1-K)*%
X170825000Y-99785000D03*
D14*
%TO.P,D1,2,A*%
%TO.N,Net-(D1-A)*%
X168285000Y-99785000D03*
%TD*%
D17*
%TO.P,S1,1*%
%TO.N,X_SW*%
X105075000Y-72985000D03*
D18*
%TO.P,S1,2*%
%TO.N,GND*%
X102535000Y-72985000D03*
%TO.P,S1,3*%
%TO.N,3V3*%
X99995000Y-72985000D03*
%TD*%
D13*
%TO.P,D2,1,K*%
%TO.N,GND*%
X157400000Y-78785000D03*
D14*
%TO.P,D2,2,A*%
%TO.N,Net-(D2-A)*%
X159940000Y-78785000D03*
%TD*%
D31*
%TO.P,D3,1,K*%
%TO.N,3V3*%
X183885000Y-99985000D03*
D32*
%TO.P,D3,2,A*%
%TO.N,Net-(D1-K)*%
X176265000Y-99985000D03*
%TD*%
D11*
%TO.P,R3,1*%
%TO.N,RELAY*%
X159190000Y-85385000D03*
D12*
%TO.P,R3,2*%
%TO.N,Net-(Q1-B)*%
X166810000Y-85385000D03*
%TD*%
D23*
%TO.P,U4,JP1_1,DIR*%
%TO.N,ZP_DIR*%
X121370000Y-68975000D03*
D24*
%TO.P,U4,JP1_2,STEP*%
%TO.N,ZP_STEP*%
X121370000Y-66435000D03*
%TO.P,U4,JP1_3,CLK*%
%TO.N,Net-(U4-CLK)*%
X121370000Y-63895000D03*
%TO.P,U4,JP1_4,PDN/UART1*%
X121370000Y-61355000D03*
%TO.P,U4,JP1_5,NC*%
%TO.N,3V3*%
X121370000Y-58815000D03*
%TO.P,U4,JP1_6,MS2*%
%TO.N,MS2*%
X121370000Y-56275000D03*
%TO.P,U4,JP1_7,MS1*%
%TO.N,MS1*%
X121370000Y-53735000D03*
%TO.P,U4,JP1_8,EN*%
%TO.N,ZP_EN*%
X121370000Y-51195000D03*
D23*
%TO.P,U4,JP2_1,VM*%
%TO.N,V+*%
X134070000Y-51195000D03*
D24*
%TO.P,U4,JP2_2,GND*%
%TO.N,V-*%
X134070000Y-53735000D03*
%TO.P,U4,JP2_3,OA2*%
%TO.N,Net-(U4-OA2)*%
X134070000Y-56275000D03*
%TO.P,U4,JP2_4,OA1*%
%TO.N,Net-(M2--)*%
X134070000Y-58815000D03*
%TO.P,U4,JP2_5,OB1*%
%TO.N,Net-(U4-OB1)*%
X134070000Y-61355000D03*
%TO.P,U4,JP2_6,OB2*%
%TO.N,Net-(U4-OB2)*%
X134070000Y-63895000D03*
%TO.P,U4,JP2_7,VIO*%
%TO.N,3V3*%
X134070000Y-66435000D03*
%TO.P,U4,JP2_8,GND*%
%TO.N,GND*%
X134070000Y-68975000D03*
%TD*%
D17*
%TO.P,S2,1*%
%TO.N,ZP_SW*%
X118275000Y-72985000D03*
D18*
%TO.P,S2,2*%
%TO.N,GND*%
X115735000Y-72985000D03*
%TO.P,S2,3*%
%TO.N,3V3*%
X113195000Y-72985000D03*
%TD*%
D17*
%TO.P,J2,1,Pin_1*%
%TO.N,Net-(J2-Pin_1)*%
X189475000Y-99660000D03*
D18*
%TO.P,J2,2,Pin_2*%
%TO.N,V-*%
X189475000Y-97120000D03*
%TD*%
D17*
%TO.P,S3,1*%
%TO.N,Z_SW*%
X133875000Y-72985000D03*
D18*
%TO.P,S3,2*%
%TO.N,GND*%
X131335000Y-72985000D03*
%TO.P,S3,3*%
%TO.N,3V3*%
X128795000Y-72985000D03*
%TD*%
D25*
%TO.P,C1,1*%
%TO.N,V+*%
X155820000Y-50075000D03*
D26*
%TO.P,C1,2*%
%TO.N,V-*%
X152320000Y-50075000D03*
%TD*%
D33*
%TO.N,GND*%
X107535000Y-78240000D02*
X107535000Y-77985000D01*
X107535000Y-78240000D02*
X107790000Y-77985000D01*
X107535000Y-80185000D02*
X107535000Y-78240000D01*
X107535000Y-77985000D02*
X107790000Y-77985000D01*
X107790000Y-77985000D02*
X118475000Y-77985000D01*
%TO.N,3V3*%
X117750000Y-79260000D02*
X110450000Y-79260000D01*
X107410000Y-82300000D02*
X107410000Y-84560000D01*
X136475000Y-120585000D02*
X136475000Y-115985000D01*
X119675000Y-121585000D02*
X135475000Y-121585000D01*
X118275000Y-122985000D02*
X119675000Y-121585000D01*
X121875000Y-134785000D02*
X118275000Y-131185000D01*
X129075000Y-90585000D02*
X117750000Y-79260000D01*
X140725000Y-130135000D02*
X136075000Y-134785000D01*
X136475000Y-115985000D02*
X129075000Y-108585000D01*
X118275000Y-131185000D02*
X118275000Y-122985000D01*
X136075000Y-134785000D02*
X121875000Y-134785000D01*
X102160000Y-86510000D02*
X99995000Y-84345000D01*
X135475000Y-121585000D02*
X136475000Y-120585000D01*
X129075000Y-108585000D02*
X129075000Y-90585000D01*
X140725000Y-116785000D02*
X140725000Y-130135000D01*
X110450000Y-79260000D02*
X107410000Y-82300000D01*
X107410000Y-84560000D02*
X105460000Y-86510000D01*
X105460000Y-86510000D02*
X102160000Y-86510000D01*
X99995000Y-84345000D02*
X99995000Y-72985000D01*
%TO.N,GND*%
X104670000Y-83050000D02*
X107535000Y-80185000D01*
%TO.N,Net-(U1-EN)*%
X109670000Y-83050000D02*
X111495000Y-81225000D01*
X111495000Y-81225000D02*
X115325000Y-81225000D01*
%TO.N,X_DIR*%
X95125000Y-68925000D02*
X93675000Y-67475000D01*
X94570986Y-65057000D02*
X95947000Y-65057000D01*
X95947000Y-65057000D02*
X97730000Y-66840000D01*
X93675000Y-67475000D02*
X93675000Y-65952986D01*
X93675000Y-65952986D02*
X94570986Y-65057000D01*
X97730000Y-66840000D02*
X97730000Y-85550000D01*
X113400000Y-92090000D02*
X115325000Y-94015000D01*
X97730000Y-85550000D02*
X104270000Y-92090000D01*
X104270000Y-92090000D02*
X113400000Y-92090000D01*
%TO.N,MS2*%
X95125000Y-56225000D02*
X96475000Y-54875000D01*
X94250736Y-52409264D02*
X91400000Y-55260000D01*
X96475000Y-54875000D02*
X96475000Y-52985000D01*
X96475000Y-52985000D02*
X95899264Y-52409264D01*
X95899264Y-52409264D02*
X94250736Y-52409264D01*
X91400000Y-55260000D02*
X91400000Y-88890000D01*
X99420000Y-96910000D02*
X110600000Y-96910000D01*
X91400000Y-88890000D02*
X99420000Y-96910000D01*
X110600000Y-96910000D02*
X115325000Y-101635000D01*
%TO.N,X_EN*%
X95125000Y-51145000D02*
X93515000Y-51145000D01*
X93515000Y-51145000D02*
X89800000Y-54860000D01*
X109510000Y-98360000D02*
X115325000Y-104175000D01*
X89800000Y-54860000D02*
X89800000Y-90860000D01*
X89800000Y-90860000D02*
X97300000Y-98360000D01*
X97300000Y-98360000D02*
X109510000Y-98360000D01*
%TO.N,X_STEP*%
X95125000Y-66385000D02*
X96475000Y-67735000D01*
X96475000Y-87475000D02*
X102430000Y-93430000D01*
X96475000Y-67735000D02*
X96475000Y-87475000D01*
X102430000Y-93430000D02*
X112200000Y-93430000D01*
X112200000Y-93430000D02*
X115325000Y-96555000D01*
%TO.N,MS1*%
X95125000Y-53685000D02*
X92729264Y-56080736D01*
X111000000Y-94770000D02*
X115325000Y-99095000D01*
X92729264Y-56080736D02*
X92729264Y-86979264D01*
X92729264Y-86979264D02*
X100520000Y-94770000D01*
X100520000Y-94770000D02*
X111000000Y-94770000D01*
D34*
%TO.N,Net-(U1-VIN)*%
X120875000Y-136985000D02*
X115325000Y-131435000D01*
X148955000Y-129275000D02*
X141245000Y-136985000D01*
X141245000Y-136985000D02*
X120875000Y-136985000D01*
X115325000Y-131435000D02*
X115325000Y-116785000D01*
D35*
%TO.N,V-*%
X160025000Y-53735000D02*
X160575000Y-53735000D01*
X170500000Y-53000000D02*
X181235000Y-63735000D01*
X107075000Y-53685000D02*
X107825000Y-53685000D01*
X150030000Y-47785000D02*
X140475000Y-47785000D01*
X125820000Y-49785000D02*
X124235000Y-48200000D01*
X182250000Y-64750000D02*
X181405000Y-65595000D01*
X190620000Y-97120000D02*
X190575000Y-97120000D01*
X189475000Y-96020000D02*
X189475000Y-97120000D01*
X181235000Y-63735000D02*
X181470000Y-63970000D01*
X181470000Y-63970000D02*
X181470000Y-65530000D01*
X161765000Y-53735000D02*
X162500000Y-53000000D01*
X124235000Y-48200000D02*
X113860000Y-48200000D01*
X99630000Y-49675000D02*
X101640000Y-51685000D01*
X180500000Y-66500000D02*
X180500000Y-79000000D01*
X140475000Y-47785000D02*
X134525000Y-53735000D01*
X185300000Y-64750000D02*
X182250000Y-64750000D01*
X180500000Y-79000000D02*
X189475000Y-87975000D01*
X181470000Y-65530000D02*
X181405000Y-65595000D01*
X192000000Y-109090000D02*
X189595000Y-111495000D01*
X101640000Y-51685000D02*
X105075000Y-51685000D01*
X108375000Y-53685000D02*
X107825000Y-53685000D01*
X190575000Y-97120000D02*
X189475000Y-96020000D01*
X158475000Y-52185000D02*
X160025000Y-53735000D01*
X189475000Y-97120000D02*
X190620000Y-97120000D01*
X129770000Y-53735000D02*
X134070000Y-53735000D01*
X152320000Y-50075000D02*
X150030000Y-47785000D01*
X160575000Y-53735000D02*
X161765000Y-53735000D01*
X189475000Y-87975000D02*
X189475000Y-96020000D01*
X125820000Y-49785000D02*
X129770000Y-53735000D01*
X113860000Y-48200000D02*
X108375000Y-53685000D01*
X162500000Y-53000000D02*
X170500000Y-53000000D01*
X192000000Y-98500000D02*
X192000000Y-109090000D01*
X105075000Y-51685000D02*
X107075000Y-53685000D01*
X190620000Y-97120000D02*
X192000000Y-98500000D01*
X134525000Y-53735000D02*
X134070000Y-53735000D01*
X154430000Y-52185000D02*
X158475000Y-52185000D01*
X152320000Y-50075000D02*
X154430000Y-52185000D01*
X181235000Y-63735000D02*
X182250000Y-64750000D01*
X181405000Y-65595000D02*
X180500000Y-66500000D01*
%TO.N,V+*%
X103130000Y-49675000D02*
X106355000Y-49675000D01*
X190829711Y-114099711D02*
X190359711Y-114569711D01*
X187250000Y-68250000D02*
X185300000Y-68250000D01*
X189595000Y-115334422D02*
X189595000Y-129275000D01*
X194500000Y-75500000D02*
X194500000Y-110429422D01*
X172575000Y-84385000D02*
X172575000Y-84881320D01*
X187250000Y-68250000D02*
X188105000Y-69105000D01*
X194500000Y-110429422D02*
X190829711Y-114099711D01*
X188065000Y-69065000D02*
X188065000Y-67435000D01*
X131685000Y-51195000D02*
X134070000Y-51195000D01*
X188105000Y-69105000D02*
X194500000Y-75500000D01*
X131675000Y-51185000D02*
X131685000Y-51195000D01*
X188065000Y-67435000D02*
X187250000Y-68250000D01*
X112770000Y-46200000D02*
X107825000Y-51145000D01*
X106355000Y-49675000D02*
X107825000Y-51145000D01*
X155820000Y-50075000D02*
X151345000Y-45600000D01*
X160575000Y-51195000D02*
X176695000Y-51195000D01*
X190359711Y-114569711D02*
X188830289Y-114569711D01*
X186000000Y-111739422D02*
X188560289Y-114299711D01*
X176695000Y-51195000D02*
X188500000Y-63000000D01*
X190829711Y-114099711D02*
X189595000Y-115334422D01*
X130720000Y-51185000D02*
X131675000Y-51185000D01*
X186000000Y-98306320D02*
X186000000Y-111739422D01*
X139665000Y-45600000D02*
X134070000Y-51195000D01*
X188500000Y-67000000D02*
X188065000Y-67435000D01*
X188560289Y-114299711D02*
X189595000Y-115334422D01*
X188830289Y-114569711D02*
X188560289Y-114299711D01*
X129320000Y-49785000D02*
X125735000Y-46200000D01*
X159455000Y-50075000D02*
X160575000Y-51195000D01*
X125735000Y-46200000D02*
X112770000Y-46200000D01*
X151345000Y-45600000D02*
X139665000Y-45600000D01*
X188105000Y-69105000D02*
X188065000Y-69065000D01*
X188500000Y-63000000D02*
X188500000Y-67000000D01*
X155820000Y-50075000D02*
X159455000Y-50075000D01*
X172575000Y-84881320D02*
X186000000Y-98306320D01*
X129320000Y-49785000D02*
X130720000Y-51185000D01*
D33*
%TO.N,Z_DIR*%
X147875000Y-68975000D02*
X147875000Y-74165000D01*
X147875000Y-74165000D02*
X140725000Y-81315000D01*
%TO.N,Z_STEP*%
X149680000Y-68240000D02*
X149680000Y-74900000D01*
X149680000Y-74900000D02*
X140725000Y-83855000D01*
X147875000Y-66435000D02*
X149680000Y-68240000D01*
%TO.N,Net-(U5-CLK)*%
X95125000Y-61305000D02*
X95125000Y-63845000D01*
%TO.N,Z_EN*%
X142875000Y-83185000D02*
X142875000Y-89325000D01*
X160961027Y-65107000D02*
X162125000Y-66270973D01*
X149687000Y-53007000D02*
X149687000Y-55796999D01*
X162125000Y-66270973D02*
X162125000Y-69535000D01*
X155275000Y-70785000D02*
X142875000Y-83185000D01*
X147875000Y-51195000D02*
X149687000Y-53007000D01*
X142875000Y-89325000D02*
X140725000Y-91475000D01*
X160875000Y-70785000D02*
X155275000Y-70785000D01*
X149687000Y-55796999D02*
X158997001Y-65107000D01*
X162125000Y-69535000D02*
X160875000Y-70785000D01*
X158997001Y-65107000D02*
X160961027Y-65107000D01*
%TO.N,Net-(U4-CLK)*%
X121370000Y-61355000D02*
X121370000Y-63895000D01*
D35*
%TO.N,Net-(U4-OA2)*%
X134080000Y-56285000D02*
X134070000Y-56275000D01*
X137675000Y-56285000D02*
X134080000Y-56285000D01*
%TO.N,Net-(M2--)*%
X137675000Y-58825000D02*
X134080000Y-58825000D01*
X134080000Y-58825000D02*
X134070000Y-58815000D01*
%TO.N,Net-(U4-OB1)*%
X134080000Y-61365000D02*
X134070000Y-61355000D01*
X137675000Y-61365000D02*
X134080000Y-61365000D01*
%TO.N,Net-(U4-OB2)*%
X134080000Y-63905000D02*
X134070000Y-63895000D01*
X137675000Y-63905000D02*
X134080000Y-63905000D01*
D33*
%TO.N,Net-(U3-CLK)*%
X147875000Y-61355000D02*
X147875000Y-63895000D01*
D35*
%TO.N,Net-(U5-OA2)*%
X107935000Y-56335000D02*
X107825000Y-56225000D01*
X111367500Y-56335000D02*
X107935000Y-56335000D01*
%TO.N,Net-(M3--)*%
X111367500Y-58875000D02*
X107935000Y-58875000D01*
X107935000Y-58875000D02*
X107825000Y-58765000D01*
%TO.N,Net-(U5-OB1)*%
X107935000Y-61415000D02*
X107825000Y-61305000D01*
X111367500Y-61415000D02*
X107935000Y-61415000D01*
%TO.N,Net-(U5-OB2)*%
X107935000Y-63955000D02*
X107825000Y-63845000D01*
X111367500Y-63955000D02*
X107935000Y-63955000D01*
D33*
%TO.N,3V3*%
X154640000Y-63600000D02*
X157475000Y-66435000D01*
X123103000Y-60143000D02*
X128164027Y-65204027D01*
X156985000Y-76500000D02*
X175500000Y-76500000D01*
X179705000Y-102785000D02*
X153475000Y-102785000D01*
X99995000Y-72985000D02*
X106120000Y-66860000D01*
X109685000Y-66685000D02*
X109685000Y-66530000D01*
X155500000Y-77985000D02*
X156985000Y-76500000D01*
X146197000Y-60143000D02*
X139905000Y-66435000D01*
X95125000Y-58765000D02*
X102745000Y-66385000D01*
X129130000Y-66435000D02*
X128550000Y-66435000D01*
X148243000Y-60143000D02*
X147875000Y-59775000D01*
D36*
X147875000Y-60138000D02*
X147870000Y-60143000D01*
D33*
X183885000Y-99985000D02*
X182505000Y-99985000D01*
D36*
X147875000Y-58815000D02*
X147875000Y-59778000D01*
D33*
X113195000Y-70195000D02*
X109785000Y-66785000D01*
X113415000Y-66385000D02*
X109830000Y-66385000D01*
X128795000Y-67065973D02*
X128795000Y-66680000D01*
X128795000Y-67065973D02*
X128164027Y-66435000D01*
X149193000Y-60143000D02*
X152650000Y-63600000D01*
X159190000Y-89785000D02*
X161000000Y-87975000D01*
X147875000Y-59778000D02*
X147510000Y-60143000D01*
X147870000Y-60143000D02*
X147510000Y-60143000D01*
X182505000Y-99985000D02*
X182160000Y-100330000D01*
X121370000Y-58815000D02*
X121370000Y-59833000D01*
X134070000Y-66435000D02*
X129130000Y-66435000D01*
X128164027Y-65204027D02*
X128164027Y-66049027D01*
X128164027Y-66049027D02*
X128550000Y-66435000D01*
X105880000Y-66385000D02*
X105925000Y-66385000D01*
X148270000Y-60143000D02*
X147870000Y-60143000D01*
X152650000Y-63600000D02*
X154640000Y-63600000D01*
X105880000Y-66385000D02*
X107825000Y-66385000D01*
X106120000Y-66860000D02*
X106595000Y-66385000D01*
X105925000Y-66385000D02*
X106100000Y-66560000D01*
X182205000Y-100285000D02*
X182160000Y-100330000D01*
X176500000Y-77500000D02*
X176500000Y-79317717D01*
D36*
X147875000Y-58815000D02*
X147875000Y-60138000D01*
D33*
X174525000Y-90435000D02*
X174525000Y-92015000D01*
X145475000Y-112125000D02*
X140725000Y-116875000D01*
X109785000Y-66785000D02*
X109685000Y-66685000D01*
X176500000Y-79317717D02*
X174317717Y-81500000D01*
X171000000Y-81500000D02*
X169500000Y-83000000D01*
X128795000Y-67065973D02*
X128795000Y-66770000D01*
X109830000Y-66385000D02*
X107825000Y-66385000D01*
X155500000Y-79585000D02*
X155500000Y-77985000D01*
X139905000Y-66435000D02*
X134070000Y-66435000D01*
X121370000Y-59833000D02*
X121060000Y-60143000D01*
X106100000Y-66560000D02*
X106100000Y-66840000D01*
X128795000Y-66680000D02*
X128550000Y-66435000D01*
X128795000Y-72985000D02*
X128795000Y-67065973D01*
X182205000Y-99695000D02*
X182205000Y-100285000D01*
X109785000Y-66785000D02*
X109385000Y-66385000D01*
X102745000Y-66385000D02*
X105880000Y-66385000D01*
X182160000Y-100330000D02*
X179705000Y-102785000D01*
X161000000Y-85085000D02*
X155500000Y-79585000D01*
X119657000Y-60143000D02*
X113415000Y-66385000D01*
D36*
X148270000Y-60143000D02*
X148243000Y-60143000D01*
D33*
X109385000Y-66385000D02*
X107825000Y-66385000D01*
X121680000Y-60143000D02*
X121060000Y-60143000D01*
X109685000Y-66530000D02*
X109830000Y-66385000D01*
X121680000Y-60143000D02*
X121370000Y-59833000D01*
X128795000Y-66770000D02*
X129130000Y-66435000D01*
X147510000Y-60143000D02*
X146197000Y-60143000D01*
X159190000Y-94185000D02*
X159190000Y-89785000D01*
X106595000Y-66385000D02*
X107825000Y-66385000D01*
X128550000Y-66435000D02*
X128164027Y-66435000D01*
X148270000Y-60143000D02*
X149193000Y-60143000D01*
X175500000Y-76500000D02*
X176500000Y-77500000D01*
X157475000Y-66435000D02*
X160575000Y-66435000D01*
X145475000Y-110785000D02*
X145475000Y-112125000D01*
X182495000Y-99985000D02*
X183885000Y-99985000D01*
X121060000Y-60143000D02*
X119657000Y-60143000D01*
X161000000Y-87975000D02*
X161000000Y-85085000D01*
X147875000Y-59775000D02*
X147875000Y-58815000D01*
X169500000Y-83000000D02*
X169500000Y-85410000D01*
X174317717Y-81500000D02*
X171000000Y-81500000D01*
X121680000Y-60143000D02*
X123103000Y-60143000D01*
X113195000Y-72985000D02*
X113195000Y-70195000D01*
X182140000Y-99630000D02*
X182495000Y-99985000D01*
X182140000Y-99630000D02*
X182205000Y-99695000D01*
X128164027Y-66435000D02*
X128164027Y-65204027D01*
X153475000Y-102785000D02*
X145475000Y-110785000D01*
X174525000Y-92015000D02*
X182140000Y-99630000D01*
X169500000Y-85410000D02*
X174525000Y-90435000D01*
%TO.N,MS1*%
X122582000Y-57078000D02*
X122173000Y-57487000D01*
X120773000Y-57487000D02*
X120075000Y-58185000D01*
X148475000Y-57585000D02*
X146475000Y-57585000D01*
X119275000Y-58185000D02*
X112075000Y-65385000D01*
X149087000Y-56973000D02*
X148475000Y-57585000D01*
X104747000Y-65057000D02*
X97127000Y-57437000D01*
X149087000Y-54947000D02*
X149087000Y-56973000D01*
X122173000Y-57487000D02*
X120773000Y-57487000D01*
X132820000Y-65185000D02*
X121370000Y-53735000D01*
X121370000Y-53735000D02*
X121425000Y-53735000D01*
X137116522Y-65185000D02*
X132820000Y-65185000D01*
X97127000Y-57437000D02*
X94327000Y-57437000D01*
X93850000Y-56960000D02*
X93850000Y-54960000D01*
X147875000Y-53735000D02*
X149087000Y-54947000D01*
X137516522Y-65585000D02*
X137116522Y-65185000D01*
X108327027Y-65057000D02*
X104747000Y-65057000D01*
X121425000Y-53735000D02*
X122582000Y-54892000D01*
X122582000Y-54892000D02*
X122582000Y-57078000D01*
X112075000Y-65385000D02*
X108655027Y-65385000D01*
X93850000Y-54960000D02*
X95125000Y-53685000D01*
X108655027Y-65385000D02*
X108327027Y-65057000D01*
X146475000Y-57585000D02*
X138475000Y-65585000D01*
X138475000Y-65585000D02*
X137516522Y-65585000D01*
X94327000Y-57437000D02*
X93850000Y-56960000D01*
X120075000Y-58185000D02*
X119275000Y-58185000D01*
D37*
%TO.N,MS2*%
X120737000Y-52523000D02*
X122213000Y-52523000D01*
D33*
X95125000Y-56225000D02*
X96453000Y-54897000D01*
X121370000Y-56275000D02*
X120158000Y-55063000D01*
D37*
X145385000Y-56275000D02*
X147875000Y-56275000D01*
X122213000Y-52523000D02*
X132320000Y-62630000D01*
D33*
X119992000Y-54897000D02*
X121370000Y-56275000D01*
D37*
X120075000Y-54980000D02*
X120075000Y-53185000D01*
D38*
X120158000Y-55063000D02*
X120075000Y-54980000D01*
D37*
X132320000Y-62630000D02*
X139030000Y-62630000D01*
D33*
X96453000Y-54897000D02*
X119992000Y-54897000D01*
D37*
X120075000Y-53185000D02*
X120737000Y-52523000D01*
X139030000Y-62630000D02*
X145385000Y-56275000D01*
D33*
%TO.N,GND*%
X123475000Y-132660000D02*
X129075000Y-132660000D01*
X123600000Y-70600000D02*
X123600000Y-66400000D01*
X129520000Y-74800000D02*
X127800000Y-74800000D01*
X163335000Y-79145000D02*
X161625000Y-77435000D01*
X115735000Y-72985000D02*
X114120000Y-74600000D01*
X158750000Y-77435000D02*
X157400000Y-78785000D01*
X147294973Y-65185000D02*
X153675000Y-65185000D01*
X140725000Y-114335000D02*
X143875000Y-111185000D01*
X163075000Y-83385000D02*
X160675000Y-80985000D01*
X134070000Y-68975000D02*
X143504973Y-68975000D01*
X114120000Y-74600000D02*
X112000000Y-74600000D01*
X102535000Y-72985000D02*
X107535000Y-77985000D01*
X157465000Y-68975000D02*
X160575000Y-68975000D01*
X138275000Y-129022500D02*
X138275000Y-116335000D01*
X131335000Y-72985000D02*
X131335000Y-71710000D01*
X134675000Y-132622500D02*
X138275000Y-129022500D01*
X163075000Y-97785000D02*
X163075000Y-83385000D01*
X115735000Y-68865000D02*
X115735000Y-72985000D01*
X131335000Y-72985000D02*
X129520000Y-74800000D01*
X122400000Y-65200000D02*
X119400000Y-65200000D01*
X127800000Y-74800000D02*
X123600000Y-70600000D01*
X140365000Y-114245000D02*
X140725000Y-114245000D01*
X129112500Y-132622500D02*
X129075000Y-132660000D01*
X107825000Y-68925000D02*
X106595000Y-68925000D01*
X161625000Y-77435000D02*
X158750000Y-77435000D01*
X107825000Y-70425000D02*
X107825000Y-68925000D01*
X106595000Y-68925000D02*
X102535000Y-72985000D01*
X131675000Y-107985000D02*
X138025000Y-114335000D01*
X153675000Y-65185000D02*
X157465000Y-68975000D01*
X131675000Y-91185000D02*
X131675000Y-107985000D01*
X143875000Y-111185000D02*
X143875000Y-109785000D01*
X138025000Y-114335000D02*
X140725000Y-114335000D01*
X134675000Y-132622500D02*
X129112500Y-132622500D01*
X138275000Y-116335000D02*
X140365000Y-114245000D01*
X119400000Y-65200000D02*
X115735000Y-68865000D01*
X123600000Y-66400000D02*
X122400000Y-65200000D01*
X159600000Y-80985000D02*
X157400000Y-78785000D01*
X160675000Y-80985000D02*
X159600000Y-80985000D01*
X112000000Y-74600000D02*
X107825000Y-70425000D01*
X143504973Y-68975000D02*
X147294973Y-65185000D01*
X118475000Y-77985000D02*
X131675000Y-91185000D01*
X131335000Y-71710000D02*
X134070000Y-68975000D01*
X160075000Y-100785000D02*
X163075000Y-97785000D01*
X143875000Y-109785000D02*
X152875000Y-100785000D01*
X152875000Y-100785000D02*
X160075000Y-100785000D01*
D34*
%TO.N,Net-(U1-GND-Pad29)*%
X148955000Y-111495000D02*
X151675000Y-114215000D01*
X111875000Y-130385000D02*
X111875000Y-117695000D01*
X120075000Y-138585000D02*
X111875000Y-130385000D01*
X111875000Y-117695000D02*
X115325000Y-114245000D01*
X151675000Y-114215000D02*
X151675000Y-130985000D01*
X151675000Y-130985000D02*
X144075000Y-138585000D01*
X144075000Y-138585000D02*
X120075000Y-138585000D01*
D33*
%TO.N,Net-(D2-A)*%
X165000000Y-92375000D02*
X166810000Y-94185000D01*
X159940000Y-78940000D02*
X165000000Y-84000000D01*
X159940000Y-78785000D02*
X159940000Y-78940000D01*
X165000000Y-84000000D02*
X165000000Y-92375000D01*
%TO.N,Net-(D1-A)*%
X166810000Y-92558654D02*
X168285000Y-94033654D01*
X166810000Y-89785000D02*
X166810000Y-92558654D01*
X168285000Y-94033654D02*
X168285000Y-99785000D01*
D35*
%TO.N,Net-(U3-OA2)*%
X160625000Y-56225000D02*
X160575000Y-56275000D01*
X164120000Y-56225000D02*
X160625000Y-56225000D01*
%TO.N,Net-(M1--)*%
X164120000Y-58765000D02*
X160625000Y-58765000D01*
X160625000Y-58765000D02*
X160575000Y-58815000D01*
%TO.N,Net-(U3-OB1)*%
X164120000Y-61305000D02*
X160625000Y-61305000D01*
X160625000Y-61305000D02*
X160575000Y-61355000D01*
%TO.N,Net-(U3-OB2)*%
X160625000Y-63845000D02*
X160575000Y-63895000D01*
X164120000Y-63845000D02*
X160625000Y-63845000D01*
D33*
%TO.N,Net-(Q1-B)*%
X165875000Y-84450000D02*
X166810000Y-85385000D01*
X165875000Y-79145000D02*
X165875000Y-84450000D01*
%TO.N,Net-(D6-A)*%
X134675000Y-130082500D02*
X134675000Y-125310000D01*
%TO.N,Net-(D5-A)*%
X123475000Y-128510000D02*
X120275000Y-125310000D01*
X123475000Y-130120000D02*
X123475000Y-128510000D01*
%TO.N,Net-(D4-A)*%
X129075000Y-130120000D02*
X129075000Y-127310000D01*
X129075000Y-127310000D02*
X127075000Y-125310000D01*
%TO.N,Net-(D1-K)*%
X171025000Y-99985000D02*
X170825000Y-99785000D01*
X170825000Y-93946472D02*
X168475000Y-91596472D01*
X176265000Y-99985000D02*
X171025000Y-99985000D01*
X168475000Y-91596472D02*
X168475000Y-79205000D01*
X170825000Y-99785000D02*
X170825000Y-93946472D01*
X169125000Y-78435000D02*
X168415000Y-79145000D01*
X174525000Y-78435000D02*
X169125000Y-78435000D01*
X168475000Y-79205000D02*
X168415000Y-79145000D01*
D35*
%TO.N,Net-(J2-Pin_1)*%
X189475000Y-99660000D02*
X188660000Y-99660000D01*
X187600000Y-91310000D02*
X186725000Y-90435000D01*
X188660000Y-99660000D02*
X187600000Y-98600000D01*
X187600000Y-98600000D02*
X187600000Y-91310000D01*
D33*
%TO.N,ZP_EN*%
X135875000Y-54985000D02*
X141475000Y-49385000D01*
X141475000Y-49385000D02*
X149075000Y-49385000D01*
X165875000Y-55480000D02*
X165875000Y-67185000D01*
X124806683Y-51195000D02*
X128596683Y-54985000D01*
X162275000Y-54985000D02*
X162875000Y-54385000D01*
X128596683Y-54985000D02*
X135875000Y-54985000D01*
X165875000Y-67185000D02*
X161475000Y-71585000D01*
X121370000Y-51195000D02*
X124806683Y-51195000D01*
X149075000Y-49385000D02*
X154675000Y-54985000D01*
X154675000Y-54985000D02*
X162275000Y-54985000D01*
X156475000Y-71585000D02*
X143875000Y-84185000D01*
X161475000Y-71585000D02*
X156475000Y-71585000D01*
X164780000Y-54385000D02*
X165875000Y-55480000D01*
X143875000Y-90865000D02*
X140725000Y-94015000D01*
X143875000Y-84185000D02*
X143875000Y-90865000D01*
X162875000Y-54385000D02*
X164780000Y-54385000D01*
%TO.N,X_LED*%
X134675000Y-117690000D02*
X123610000Y-106625000D01*
X123610000Y-106625000D02*
X115325000Y-106625000D01*
%TO.N,ZP_STEP*%
X121370000Y-66435000D02*
X121370000Y-66480000D01*
X140525000Y-101635000D02*
X140725000Y-101635000D01*
X137475000Y-86585000D02*
X137475000Y-98585000D01*
X122875000Y-71985000D02*
X137475000Y-86585000D01*
X137475000Y-98585000D02*
X140525000Y-101635000D01*
X121370000Y-66480000D02*
X122875000Y-67985000D01*
X122875000Y-67985000D02*
X122875000Y-71985000D01*
%TO.N,Z_SW*%
X138675000Y-94505000D02*
X140725000Y-96555000D01*
X138675000Y-77785000D02*
X138675000Y-94505000D01*
X133875000Y-72985000D02*
X138675000Y-77785000D01*
%TO.N,ZP_LED*%
X118705000Y-111705000D02*
X120275000Y-113275000D01*
X115325000Y-111705000D02*
X118705000Y-111705000D01*
X120275000Y-113275000D02*
X120275000Y-117690000D01*
%TO.N,Z_LED*%
X122165000Y-109165000D02*
X115325000Y-109165000D01*
X127075000Y-117690000D02*
X127075000Y-114075000D01*
X127075000Y-114075000D02*
X122165000Y-109165000D01*
%TO.N,ZP_DIR*%
X121275000Y-69070000D02*
X121275000Y-73785000D01*
X139465000Y-104175000D02*
X140725000Y-104175000D01*
X121370000Y-68975000D02*
X121275000Y-69070000D01*
X136475000Y-88985000D02*
X136475000Y-101185000D01*
X121275000Y-73785000D02*
X136475000Y-88985000D01*
X136475000Y-101185000D02*
X139465000Y-104175000D01*
%TO.N,ZP_SW*%
X140725000Y-106715000D02*
X135275000Y-101265000D01*
X135275000Y-101265000D02*
X135275000Y-89985000D01*
X135275000Y-89985000D02*
X118275000Y-72985000D01*
%TO.N,X_SW*%
X108475000Y-76385000D02*
X119475000Y-76385000D01*
X119475000Y-76385000D02*
X134075000Y-90985000D01*
X134075000Y-90985000D02*
X134075000Y-102605000D01*
X105075000Y-72985000D02*
X108475000Y-76385000D01*
X134075000Y-102605000D02*
X140725000Y-109255000D01*
%TO.N,RELAY*%
X159190000Y-85385000D02*
X154345000Y-85385000D01*
X154345000Y-85385000D02*
X140725000Y-99005000D01*
%TD*%
M02*
