%TF.GenerationSoftware,KiCad,Pcbnew,8.0.1*%
%TF.CreationDate,2024-05-01T14:14:03+07:00*%
%TF.ProjectId,tugas-akhir,74756761-732d-4616-9b68-69722e6b6963,2*%
%TF.SameCoordinates,Original*%
%TF.FileFunction,Drillmap*%
%TF.FilePolarity,Positive*%
%FSLAX45Y45*%
G04 Gerber Fmt 4.5, Leading zero omitted, Abs format (unit mm)*
G04 Created by KiCad (PCBNEW 8.0.1) date 2024-05-01 14:14:03*
%MOMM*%
%LPD*%
G01*
G04 APERTURE LIST*
%ADD10C,0.100000*%
%ADD11C,0.200000*%
%ADD12C,0.101600*%
%ADD13C,0.102000*%
%ADD14C,0.110000*%
%ADD15C,0.130000*%
%ADD16C,0.320000*%
G04 APERTURE END LIST*
D10*
X20220000Y-14260000D02*
X8620000Y-14260000D01*
X20420000Y-4460000D02*
X20420000Y-14060000D01*
X8620000Y-4260000D02*
X20220000Y-4260000D01*
X8420000Y-14060000D02*
X8420000Y-4460000D01*
X20420000Y-14060000D02*
G75*
G02*
X20220000Y-14260000I-200000J0D01*
G01*
X20220000Y-4260000D02*
G75*
G02*
X20420000Y-4460000I0J-200000D01*
G01*
X8620000Y-14260000D02*
G75*
G02*
X8420000Y-14060000I0J200000D01*
G01*
X8420000Y-4460000D02*
G75*
G02*
X8620000Y-4260000I200000J0D01*
G01*
D11*
D10*
X11992500Y-11869500D02*
X12062500Y-11939500D01*
X12062500Y-11869500D02*
X11992500Y-11939500D01*
X11992500Y-12377500D02*
X12062500Y-12447500D01*
X12062500Y-12377500D02*
X11992500Y-12447500D01*
X12672500Y-11869500D02*
X12742500Y-11939500D01*
X12742500Y-11869500D02*
X12672500Y-11939500D01*
X12672500Y-12377500D02*
X12742500Y-12447500D01*
X12742500Y-12377500D02*
X12672500Y-12447500D01*
X13432500Y-11885750D02*
X13502500Y-11955750D01*
X13502500Y-11885750D02*
X13432500Y-11955750D01*
X13432500Y-12393750D02*
X13502500Y-12463750D01*
X13502500Y-12393750D02*
X13432500Y-12463750D01*
X16038500Y-8503500D02*
X16108500Y-8573500D01*
X16108500Y-8503500D02*
X16038500Y-8573500D01*
X16038500Y-8943500D02*
X16108500Y-9013500D01*
X16108500Y-8943500D02*
X16038500Y-9013500D01*
X16038500Y-9383500D02*
X16108500Y-9453500D01*
X16108500Y-9383500D02*
X16038500Y-9453500D01*
X16546500Y-8503500D02*
X16616500Y-8573500D01*
X16616500Y-8503500D02*
X16546500Y-8573500D01*
X16546500Y-8943500D02*
X16616500Y-9013500D01*
X16616500Y-8943500D02*
X16546500Y-9013500D01*
X16546500Y-9383500D02*
X16616500Y-9453500D01*
X16616500Y-9383500D02*
X16546500Y-9453500D01*
X10003000Y-4967500D02*
G75*
G02*
X9923000Y-4967500I-40000J0D01*
G01*
X9923000Y-4967500D02*
G75*
G02*
X10003000Y-4967500I40000J0D01*
G01*
X10353000Y-4967500D02*
G75*
G02*
X10273000Y-4967500I-40000J0D01*
G01*
X10273000Y-4967500D02*
G75*
G02*
X10353000Y-4967500I40000J0D01*
G01*
X12622000Y-4978500D02*
G75*
G02*
X12542000Y-4978500I-40000J0D01*
G01*
X12542000Y-4978500D02*
G75*
G02*
X12622000Y-4978500I40000J0D01*
G01*
X12972000Y-4978500D02*
G75*
G02*
X12892000Y-4978500I-40000J0D01*
G01*
X12892000Y-4978500D02*
G75*
G02*
X12972000Y-4978500I40000J0D01*
G01*
X15272000Y-5007500D02*
G75*
G02*
X15192000Y-5007500I-40000J0D01*
G01*
X15192000Y-5007500D02*
G75*
G02*
X15272000Y-5007500I40000J0D01*
G01*
X15622000Y-5007500D02*
G75*
G02*
X15542000Y-5007500I-40000J0D01*
G01*
X15542000Y-5007500D02*
G75*
G02*
X15622000Y-5007500I40000J0D01*
G01*
X16373500Y-7914500D02*
G75*
G02*
X16293500Y-7914500I-40000J0D01*
G01*
X16293500Y-7914500D02*
G75*
G02*
X16373500Y-7914500I40000J0D01*
G01*
X16627500Y-7914500D02*
G75*
G02*
X16547500Y-7914500I-40000J0D01*
G01*
X16547500Y-7914500D02*
G75*
G02*
X16627500Y-7914500I40000J0D01*
G01*
X16881500Y-7914500D02*
G75*
G02*
X16801500Y-7914500I-40000J0D01*
G01*
X16801500Y-7914500D02*
G75*
G02*
X16881500Y-7914500I40000J0D01*
G01*
X12347500Y-12967000D02*
X12347500Y-13057000D01*
X12302500Y-13012000D02*
X12392500Y-13012000D01*
X12347500Y-13221000D02*
X12347500Y-13311000D01*
X12302500Y-13266000D02*
X12392500Y-13266000D01*
X12907500Y-12967000D02*
X12907500Y-13057000D01*
X12862500Y-13012000D02*
X12952500Y-13012000D01*
X12907500Y-13221000D02*
X12907500Y-13311000D01*
X12862500Y-13266000D02*
X12952500Y-13266000D01*
X13467500Y-12963250D02*
X13467500Y-13053250D01*
X13422500Y-13008250D02*
X13512500Y-13008250D01*
X13467500Y-13217250D02*
X13467500Y-13307250D01*
X13422500Y-13262250D02*
X13512500Y-13262250D01*
X15740000Y-7833500D02*
X15740000Y-7923500D01*
X15695000Y-7878500D02*
X15785000Y-7878500D01*
X15994000Y-7833500D02*
X15994000Y-7923500D01*
X15949000Y-7878500D02*
X16039000Y-7878500D01*
X16828500Y-9933500D02*
X16828500Y-10023500D01*
X16783500Y-9978500D02*
X16873500Y-9978500D01*
X17082500Y-9933500D02*
X17082500Y-10023500D01*
X17037500Y-9978500D02*
X17127500Y-9978500D01*
X10034856Y-7333856D02*
X10034856Y-7263144D01*
X9964144Y-7263144D01*
X9964144Y-7333856D01*
X10034856Y-7333856D01*
X10288856Y-7333856D02*
X10288856Y-7263144D01*
X10218144Y-7263144D01*
X10218144Y-7333856D01*
X10288856Y-7333856D01*
X10542856Y-7333856D02*
X10542856Y-7263144D01*
X10472144Y-7263144D01*
X10472144Y-7333856D01*
X10542856Y-7333856D01*
X11172106Y-5668856D02*
X11172106Y-5598144D01*
X11101394Y-5598144D01*
X11101394Y-5668856D01*
X11172106Y-5668856D01*
X11172106Y-5922856D02*
X11172106Y-5852144D01*
X11101394Y-5852144D01*
X11101394Y-5922856D01*
X11172106Y-5922856D01*
X11172106Y-6176856D02*
X11172106Y-6106144D01*
X11101394Y-6106144D01*
X11101394Y-6176856D01*
X11172106Y-6176856D01*
X11172106Y-6430856D02*
X11172106Y-6360144D01*
X11101394Y-6360144D01*
X11101394Y-6430856D01*
X11172106Y-6430856D01*
X11354856Y-7333856D02*
X11354856Y-7263144D01*
X11284144Y-7263144D01*
X11284144Y-7333856D01*
X11354856Y-7333856D01*
X11608856Y-7333856D02*
X11608856Y-7263144D01*
X11538144Y-7263144D01*
X11538144Y-7333856D01*
X11608856Y-7333856D01*
X11862856Y-7333856D02*
X11862856Y-7263144D01*
X11792144Y-7263144D01*
X11792144Y-7333856D01*
X11862856Y-7333856D01*
X12914856Y-7333856D02*
X12914856Y-7263144D01*
X12844144Y-7263144D01*
X12844144Y-7333856D01*
X12914856Y-7333856D01*
X13168856Y-7333856D02*
X13168856Y-7263144D01*
X13098144Y-7263144D01*
X13098144Y-7333856D01*
X13168856Y-7333856D01*
X13422856Y-7333856D02*
X13422856Y-7263144D01*
X13352144Y-7263144D01*
X13352144Y-7333856D01*
X13422856Y-7333856D01*
X13802856Y-5663856D02*
X13802856Y-5593144D01*
X13732144Y-5593144D01*
X13732144Y-5663856D01*
X13802856Y-5663856D01*
X13802856Y-5917856D02*
X13802856Y-5847144D01*
X13732144Y-5847144D01*
X13732144Y-5917856D01*
X13802856Y-5917856D01*
X13802856Y-6171856D02*
X13802856Y-6101144D01*
X13732144Y-6101144D01*
X13732144Y-6171856D01*
X13802856Y-6171856D01*
X13802856Y-6425856D02*
X13802856Y-6355144D01*
X13732144Y-6355144D01*
X13732144Y-6425856D01*
X13802856Y-6425856D01*
X14930856Y-11184856D02*
X14930856Y-11114144D01*
X14860144Y-11114144D01*
X14860144Y-11184856D01*
X14930856Y-11184856D01*
X14930856Y-12962856D02*
X14930856Y-12892144D01*
X14860144Y-12892144D01*
X14860144Y-12962856D01*
X14930856Y-12962856D01*
X16447356Y-5657856D02*
X16447356Y-5587144D01*
X16376644Y-5587144D01*
X16376644Y-5657856D01*
X16447356Y-5657856D01*
X16447356Y-5911856D02*
X16447356Y-5841144D01*
X16376644Y-5841144D01*
X16376644Y-5911856D01*
X16447356Y-5911856D01*
X16447356Y-6165856D02*
X16447356Y-6095144D01*
X16376644Y-6095144D01*
X16376644Y-6165856D01*
X16447356Y-6165856D01*
X16447356Y-6419856D02*
X16447356Y-6349144D01*
X16376644Y-6349144D01*
X16376644Y-6419856D01*
X16447356Y-6419856D01*
X17487856Y-7878856D02*
X17487856Y-7808144D01*
X17417144Y-7808144D01*
X17417144Y-7878856D01*
X17487856Y-7878856D01*
X17487856Y-9078856D02*
X17487856Y-9008144D01*
X17417144Y-9008144D01*
X17417144Y-9078856D01*
X17487856Y-9078856D01*
X18982856Y-9747356D02*
X18982856Y-9676644D01*
X18912144Y-9676644D01*
X18912144Y-9747356D01*
X18982856Y-9747356D01*
X18982856Y-10001356D02*
X18982856Y-9930644D01*
X18912144Y-9930644D01*
X18912144Y-10001356D01*
X18982856Y-10001356D01*
X18994856Y-11184856D02*
X18994856Y-11114144D01*
X18924144Y-11114144D01*
X18924144Y-11184856D01*
X18994856Y-11184856D01*
X18994856Y-12962856D02*
X18994856Y-12892144D01*
X18924144Y-12892144D01*
X18924144Y-12962856D01*
X18994856Y-12962856D01*
D12*
X9512500Y-5165300D02*
X9563300Y-5114500D01*
X9512500Y-5063700D01*
X9461700Y-5114500D01*
X9512500Y-5165300D01*
X9512500Y-5419300D02*
X9563300Y-5368500D01*
X9512500Y-5317700D01*
X9461700Y-5368500D01*
X9512500Y-5419300D01*
X9512500Y-5673300D02*
X9563300Y-5622500D01*
X9512500Y-5571700D01*
X9461700Y-5622500D01*
X9512500Y-5673300D01*
X9512500Y-5927300D02*
X9563300Y-5876500D01*
X9512500Y-5825700D01*
X9461700Y-5876500D01*
X9512500Y-5927300D01*
X9512500Y-6181300D02*
X9563300Y-6130500D01*
X9512500Y-6079700D01*
X9461700Y-6130500D01*
X9512500Y-6181300D01*
X9512500Y-6435300D02*
X9563300Y-6384500D01*
X9512500Y-6333700D01*
X9461700Y-6384500D01*
X9512500Y-6435300D01*
X9512500Y-6689300D02*
X9563300Y-6638500D01*
X9512500Y-6587700D01*
X9461700Y-6638500D01*
X9512500Y-6689300D01*
X9512500Y-6943300D02*
X9563300Y-6892500D01*
X9512500Y-6841700D01*
X9461700Y-6892500D01*
X9512500Y-6943300D01*
X10782500Y-5165300D02*
X10833300Y-5114500D01*
X10782500Y-5063700D01*
X10731700Y-5114500D01*
X10782500Y-5165300D01*
X10782500Y-5419300D02*
X10833300Y-5368500D01*
X10782500Y-5317700D01*
X10731700Y-5368500D01*
X10782500Y-5419300D01*
X10782500Y-5673300D02*
X10833300Y-5622500D01*
X10782500Y-5571700D01*
X10731700Y-5622500D01*
X10782500Y-5673300D01*
X10782500Y-5927300D02*
X10833300Y-5876500D01*
X10782500Y-5825700D01*
X10731700Y-5876500D01*
X10782500Y-5927300D01*
X10782500Y-6181300D02*
X10833300Y-6130500D01*
X10782500Y-6079700D01*
X10731700Y-6130500D01*
X10782500Y-6181300D01*
X10782500Y-6435300D02*
X10833300Y-6384500D01*
X10782500Y-6333700D01*
X10731700Y-6384500D01*
X10782500Y-6435300D01*
X10782500Y-6689300D02*
X10833300Y-6638500D01*
X10782500Y-6587700D01*
X10731700Y-6638500D01*
X10782500Y-6689300D01*
X10782500Y-6943300D02*
X10833300Y-6892500D01*
X10782500Y-6841700D01*
X10731700Y-6892500D01*
X10782500Y-6943300D01*
X12137000Y-5170300D02*
X12187800Y-5119500D01*
X12137000Y-5068700D01*
X12086200Y-5119500D01*
X12137000Y-5170300D01*
X12137000Y-5424300D02*
X12187800Y-5373500D01*
X12137000Y-5322700D01*
X12086200Y-5373500D01*
X12137000Y-5424300D01*
X12137000Y-5678300D02*
X12187800Y-5627500D01*
X12137000Y-5576700D01*
X12086200Y-5627500D01*
X12137000Y-5678300D01*
X12137000Y-5932300D02*
X12187800Y-5881500D01*
X12137000Y-5830700D01*
X12086200Y-5881500D01*
X12137000Y-5932300D01*
X12137000Y-6186300D02*
X12187800Y-6135500D01*
X12137000Y-6084700D01*
X12086200Y-6135500D01*
X12137000Y-6186300D01*
X12137000Y-6440300D02*
X12187800Y-6389500D01*
X12137000Y-6338700D01*
X12086200Y-6389500D01*
X12137000Y-6440300D01*
X12137000Y-6694300D02*
X12187800Y-6643500D01*
X12137000Y-6592700D01*
X12086200Y-6643500D01*
X12137000Y-6694300D01*
X12137000Y-6948300D02*
X12187800Y-6897500D01*
X12137000Y-6846700D01*
X12086200Y-6897500D01*
X12137000Y-6948300D01*
X13407000Y-5170300D02*
X13457800Y-5119500D01*
X13407000Y-5068700D01*
X13356200Y-5119500D01*
X13407000Y-5170300D01*
X13407000Y-5424300D02*
X13457800Y-5373500D01*
X13407000Y-5322700D01*
X13356200Y-5373500D01*
X13407000Y-5424300D01*
X13407000Y-5678300D02*
X13457800Y-5627500D01*
X13407000Y-5576700D01*
X13356200Y-5627500D01*
X13407000Y-5678300D01*
X13407000Y-5932300D02*
X13457800Y-5881500D01*
X13407000Y-5830700D01*
X13356200Y-5881500D01*
X13407000Y-5932300D01*
X13407000Y-6186300D02*
X13457800Y-6135500D01*
X13407000Y-6084700D01*
X13356200Y-6135500D01*
X13407000Y-6186300D01*
X13407000Y-6440300D02*
X13457800Y-6389500D01*
X13407000Y-6338700D01*
X13356200Y-6389500D01*
X13407000Y-6440300D01*
X13407000Y-6694300D02*
X13457800Y-6643500D01*
X13407000Y-6592700D01*
X13356200Y-6643500D01*
X13407000Y-6694300D01*
X13407000Y-6948300D02*
X13457800Y-6897500D01*
X13407000Y-6846700D01*
X13356200Y-6897500D01*
X13407000Y-6948300D01*
X14787500Y-5170300D02*
X14838300Y-5119500D01*
X14787500Y-5068700D01*
X14736700Y-5119500D01*
X14787500Y-5170300D01*
X14787500Y-5424300D02*
X14838300Y-5373500D01*
X14787500Y-5322700D01*
X14736700Y-5373500D01*
X14787500Y-5424300D01*
X14787500Y-5678300D02*
X14838300Y-5627500D01*
X14787500Y-5576700D01*
X14736700Y-5627500D01*
X14787500Y-5678300D01*
X14787500Y-5932300D02*
X14838300Y-5881500D01*
X14787500Y-5830700D01*
X14736700Y-5881500D01*
X14787500Y-5932300D01*
X14787500Y-6186300D02*
X14838300Y-6135500D01*
X14787500Y-6084700D01*
X14736700Y-6135500D01*
X14787500Y-6186300D01*
X14787500Y-6440300D02*
X14838300Y-6389500D01*
X14787500Y-6338700D01*
X14736700Y-6389500D01*
X14787500Y-6440300D01*
X14787500Y-6694300D02*
X14838300Y-6643500D01*
X14787500Y-6592700D01*
X14736700Y-6643500D01*
X14787500Y-6694300D01*
X14787500Y-6948300D02*
X14838300Y-6897500D01*
X14787500Y-6846700D01*
X14736700Y-6897500D01*
X14787500Y-6948300D01*
X16057500Y-5170300D02*
X16108300Y-5119500D01*
X16057500Y-5068700D01*
X16006700Y-5119500D01*
X16057500Y-5170300D01*
X16057500Y-5424300D02*
X16108300Y-5373500D01*
X16057500Y-5322700D01*
X16006700Y-5373500D01*
X16057500Y-5424300D01*
X16057500Y-5678300D02*
X16108300Y-5627500D01*
X16057500Y-5576700D01*
X16006700Y-5627500D01*
X16057500Y-5678300D01*
X16057500Y-5932300D02*
X16108300Y-5881500D01*
X16057500Y-5830700D01*
X16006700Y-5881500D01*
X16057500Y-5932300D01*
X16057500Y-6186300D02*
X16108300Y-6135500D01*
X16057500Y-6084700D01*
X16006700Y-6135500D01*
X16057500Y-6186300D01*
X16057500Y-6440300D02*
X16108300Y-6389500D01*
X16057500Y-6338700D01*
X16006700Y-6389500D01*
X16057500Y-6440300D01*
X16057500Y-6694300D02*
X16108300Y-6643500D01*
X16057500Y-6592700D01*
X16006700Y-6643500D01*
X16057500Y-6694300D01*
X16057500Y-6948300D02*
X16108300Y-6897500D01*
X16057500Y-6846700D01*
X16006700Y-6897500D01*
X16057500Y-6948300D01*
D13*
X11481500Y-8071500D02*
X11583500Y-8173500D01*
X11583500Y-8071500D02*
X11481500Y-8173500D01*
X11583500Y-8122500D02*
G75*
G02*
X11481500Y-8122500I-51000J0D01*
G01*
X11481500Y-8122500D02*
G75*
G02*
X11583500Y-8122500I51000J0D01*
G01*
X11481500Y-8325500D02*
X11583500Y-8427500D01*
X11583500Y-8325500D02*
X11481500Y-8427500D01*
X11583500Y-8376500D02*
G75*
G02*
X11481500Y-8376500I-51000J0D01*
G01*
X11481500Y-8376500D02*
G75*
G02*
X11583500Y-8376500I51000J0D01*
G01*
X11481500Y-8579500D02*
X11583500Y-8681500D01*
X11583500Y-8579500D02*
X11481500Y-8681500D01*
X11583500Y-8630500D02*
G75*
G02*
X11481500Y-8630500I-51000J0D01*
G01*
X11481500Y-8630500D02*
G75*
G02*
X11583500Y-8630500I51000J0D01*
G01*
X11481500Y-8833500D02*
X11583500Y-8935500D01*
X11583500Y-8833500D02*
X11481500Y-8935500D01*
X11583500Y-8884500D02*
G75*
G02*
X11481500Y-8884500I-51000J0D01*
G01*
X11481500Y-8884500D02*
G75*
G02*
X11583500Y-8884500I51000J0D01*
G01*
X11481500Y-9087500D02*
X11583500Y-9189500D01*
X11583500Y-9087500D02*
X11481500Y-9189500D01*
X11583500Y-9138500D02*
G75*
G02*
X11481500Y-9138500I-51000J0D01*
G01*
X11481500Y-9138500D02*
G75*
G02*
X11583500Y-9138500I51000J0D01*
G01*
X11481500Y-9341500D02*
X11583500Y-9443500D01*
X11583500Y-9341500D02*
X11481500Y-9443500D01*
X11583500Y-9392500D02*
G75*
G02*
X11481500Y-9392500I-51000J0D01*
G01*
X11481500Y-9392500D02*
G75*
G02*
X11583500Y-9392500I51000J0D01*
G01*
X11481500Y-9595500D02*
X11583500Y-9697500D01*
X11583500Y-9595500D02*
X11481500Y-9697500D01*
X11583500Y-9646500D02*
G75*
G02*
X11481500Y-9646500I-51000J0D01*
G01*
X11481500Y-9646500D02*
G75*
G02*
X11583500Y-9646500I51000J0D01*
G01*
X11481500Y-9849500D02*
X11583500Y-9951500D01*
X11583500Y-9849500D02*
X11481500Y-9951500D01*
X11583500Y-9900500D02*
G75*
G02*
X11481500Y-9900500I-51000J0D01*
G01*
X11481500Y-9900500D02*
G75*
G02*
X11583500Y-9900500I51000J0D01*
G01*
X11481500Y-10103500D02*
X11583500Y-10205500D01*
X11583500Y-10103500D02*
X11481500Y-10205500D01*
X11583500Y-10154500D02*
G75*
G02*
X11481500Y-10154500I-51000J0D01*
G01*
X11481500Y-10154500D02*
G75*
G02*
X11583500Y-10154500I51000J0D01*
G01*
X11481500Y-10357500D02*
X11583500Y-10459500D01*
X11583500Y-10357500D02*
X11481500Y-10459500D01*
X11583500Y-10408500D02*
G75*
G02*
X11481500Y-10408500I-51000J0D01*
G01*
X11481500Y-10408500D02*
G75*
G02*
X11583500Y-10408500I51000J0D01*
G01*
X11481500Y-10611500D02*
X11583500Y-10713500D01*
X11583500Y-10611500D02*
X11481500Y-10713500D01*
X11583500Y-10662500D02*
G75*
G02*
X11481500Y-10662500I-51000J0D01*
G01*
X11481500Y-10662500D02*
G75*
G02*
X11583500Y-10662500I51000J0D01*
G01*
X11481500Y-10865500D02*
X11583500Y-10967500D01*
X11583500Y-10865500D02*
X11481500Y-10967500D01*
X11583500Y-10916500D02*
G75*
G02*
X11481500Y-10916500I-51000J0D01*
G01*
X11481500Y-10916500D02*
G75*
G02*
X11583500Y-10916500I51000J0D01*
G01*
X11481500Y-11119500D02*
X11583500Y-11221500D01*
X11583500Y-11119500D02*
X11481500Y-11221500D01*
X11583500Y-11170500D02*
G75*
G02*
X11481500Y-11170500I-51000J0D01*
G01*
X11481500Y-11170500D02*
G75*
G02*
X11583500Y-11170500I51000J0D01*
G01*
X11481500Y-11373500D02*
X11583500Y-11475500D01*
X11583500Y-11373500D02*
X11481500Y-11475500D01*
X11583500Y-11424500D02*
G75*
G02*
X11481500Y-11424500I-51000J0D01*
G01*
X11481500Y-11424500D02*
G75*
G02*
X11583500Y-11424500I51000J0D01*
G01*
X11481500Y-11627500D02*
X11583500Y-11729500D01*
X11583500Y-11627500D02*
X11481500Y-11729500D01*
X11583500Y-11678500D02*
G75*
G02*
X11481500Y-11678500I-51000J0D01*
G01*
X11481500Y-11678500D02*
G75*
G02*
X11583500Y-11678500I51000J0D01*
G01*
X14021500Y-8071500D02*
X14123500Y-8173500D01*
X14123500Y-8071500D02*
X14021500Y-8173500D01*
X14123500Y-8122500D02*
G75*
G02*
X14021500Y-8122500I-51000J0D01*
G01*
X14021500Y-8122500D02*
G75*
G02*
X14123500Y-8122500I51000J0D01*
G01*
X14021500Y-8325500D02*
X14123500Y-8427500D01*
X14123500Y-8325500D02*
X14021500Y-8427500D01*
X14123500Y-8376500D02*
G75*
G02*
X14021500Y-8376500I-51000J0D01*
G01*
X14021500Y-8376500D02*
G75*
G02*
X14123500Y-8376500I51000J0D01*
G01*
X14021500Y-8579500D02*
X14123500Y-8681500D01*
X14123500Y-8579500D02*
X14021500Y-8681500D01*
X14123500Y-8630500D02*
G75*
G02*
X14021500Y-8630500I-51000J0D01*
G01*
X14021500Y-8630500D02*
G75*
G02*
X14123500Y-8630500I51000J0D01*
G01*
X14021500Y-8833500D02*
X14123500Y-8935500D01*
X14123500Y-8833500D02*
X14021500Y-8935500D01*
X14123500Y-8884500D02*
G75*
G02*
X14021500Y-8884500I-51000J0D01*
G01*
X14021500Y-8884500D02*
G75*
G02*
X14123500Y-8884500I51000J0D01*
G01*
X14021500Y-9087500D02*
X14123500Y-9189500D01*
X14123500Y-9087500D02*
X14021500Y-9189500D01*
X14123500Y-9138500D02*
G75*
G02*
X14021500Y-9138500I-51000J0D01*
G01*
X14021500Y-9138500D02*
G75*
G02*
X14123500Y-9138500I51000J0D01*
G01*
X14021500Y-9341500D02*
X14123500Y-9443500D01*
X14123500Y-9341500D02*
X14021500Y-9443500D01*
X14123500Y-9392500D02*
G75*
G02*
X14021500Y-9392500I-51000J0D01*
G01*
X14021500Y-9392500D02*
G75*
G02*
X14123500Y-9392500I51000J0D01*
G01*
X14021500Y-9595500D02*
X14123500Y-9697500D01*
X14123500Y-9595500D02*
X14021500Y-9697500D01*
X14123500Y-9646500D02*
G75*
G02*
X14021500Y-9646500I-51000J0D01*
G01*
X14021500Y-9646500D02*
G75*
G02*
X14123500Y-9646500I51000J0D01*
G01*
X14021500Y-9849500D02*
X14123500Y-9951500D01*
X14123500Y-9849500D02*
X14021500Y-9951500D01*
X14123500Y-9900500D02*
G75*
G02*
X14021500Y-9900500I-51000J0D01*
G01*
X14021500Y-9900500D02*
G75*
G02*
X14123500Y-9900500I51000J0D01*
G01*
X14021500Y-10103500D02*
X14123500Y-10205500D01*
X14123500Y-10103500D02*
X14021500Y-10205500D01*
X14123500Y-10154500D02*
G75*
G02*
X14021500Y-10154500I-51000J0D01*
G01*
X14021500Y-10154500D02*
G75*
G02*
X14123500Y-10154500I51000J0D01*
G01*
X14021500Y-10357500D02*
X14123500Y-10459500D01*
X14123500Y-10357500D02*
X14021500Y-10459500D01*
X14123500Y-10408500D02*
G75*
G02*
X14021500Y-10408500I-51000J0D01*
G01*
X14021500Y-10408500D02*
G75*
G02*
X14123500Y-10408500I51000J0D01*
G01*
X14021500Y-10611500D02*
X14123500Y-10713500D01*
X14123500Y-10611500D02*
X14021500Y-10713500D01*
X14123500Y-10662500D02*
G75*
G02*
X14021500Y-10662500I-51000J0D01*
G01*
X14021500Y-10662500D02*
G75*
G02*
X14123500Y-10662500I51000J0D01*
G01*
X14021500Y-10865500D02*
X14123500Y-10967500D01*
X14123500Y-10865500D02*
X14021500Y-10967500D01*
X14123500Y-10916500D02*
G75*
G02*
X14021500Y-10916500I-51000J0D01*
G01*
X14021500Y-10916500D02*
G75*
G02*
X14123500Y-10916500I51000J0D01*
G01*
X14021500Y-11119500D02*
X14123500Y-11221500D01*
X14123500Y-11119500D02*
X14021500Y-11221500D01*
X14123500Y-11170500D02*
G75*
G02*
X14021500Y-11170500I-51000J0D01*
G01*
X14021500Y-11170500D02*
G75*
G02*
X14123500Y-11170500I51000J0D01*
G01*
X14021500Y-11373500D02*
X14123500Y-11475500D01*
X14123500Y-11373500D02*
X14021500Y-11475500D01*
X14123500Y-11424500D02*
G75*
G02*
X14021500Y-11424500I-51000J0D01*
G01*
X14021500Y-11424500D02*
G75*
G02*
X14123500Y-11424500I51000J0D01*
G01*
X14021500Y-11627500D02*
X14123500Y-11729500D01*
X14123500Y-11627500D02*
X14021500Y-11729500D01*
X14123500Y-11678500D02*
G75*
G02*
X14021500Y-11678500I-51000J0D01*
G01*
X14021500Y-11678500D02*
G75*
G02*
X14123500Y-11678500I51000J0D01*
G01*
D14*
X17571500Y-9943500D02*
X17681500Y-10053500D01*
X17681500Y-9943500D02*
X17571500Y-10053500D01*
X17626500Y-9943500D02*
X17626500Y-10053500D01*
X17571500Y-9998500D02*
X17681500Y-9998500D01*
X18333500Y-9943500D02*
X18443500Y-10053500D01*
X18443500Y-9943500D02*
X18333500Y-10053500D01*
X18388500Y-9943500D02*
X18388500Y-10053500D01*
X18333500Y-9998500D02*
X18443500Y-9998500D01*
D15*
X17192500Y-8373500D02*
X17322500Y-8503500D01*
X17322500Y-8373500D02*
X17192500Y-8503500D01*
X17303462Y-8484462D02*
X17303462Y-8392538D01*
X17211538Y-8392538D01*
X17211538Y-8484462D01*
X17303462Y-8484462D01*
X18442500Y-6313500D02*
X18572500Y-6443500D01*
X18572500Y-6313500D02*
X18442500Y-6443500D01*
X18553462Y-6424462D02*
X18553462Y-6332538D01*
X18461538Y-6332538D01*
X18461538Y-6424462D01*
X18553462Y-6424462D01*
X18442500Y-6821500D02*
X18572500Y-6951500D01*
X18572500Y-6821500D02*
X18442500Y-6951500D01*
X18553462Y-6932462D02*
X18553462Y-6840538D01*
X18461538Y-6840538D01*
X18461538Y-6932462D01*
X18553462Y-6932462D01*
X18607500Y-8978500D02*
X18737500Y-9108500D01*
X18737500Y-8978500D02*
X18607500Y-9108500D01*
X18718462Y-9089462D02*
X18718462Y-8997538D01*
X18626538Y-8997538D01*
X18626538Y-9089462D01*
X18718462Y-9089462D01*
X18612500Y-7773500D02*
X18742500Y-7903500D01*
X18742500Y-7773500D02*
X18612500Y-7903500D01*
X18723462Y-7884462D02*
X18723462Y-7792538D01*
X18631538Y-7792538D01*
X18631538Y-7884462D01*
X18723462Y-7884462D01*
D16*
X8660000Y-4500000D02*
X8980000Y-4820000D01*
X8980000Y-4500000D02*
X8660000Y-4820000D01*
X8820000Y-4820000D02*
X8980000Y-4660000D01*
X8820000Y-4500000D01*
X8660000Y-4660000D01*
X8820000Y-4820000D01*
X8660000Y-13700000D02*
X8980000Y-14020000D01*
X8980000Y-13700000D02*
X8660000Y-14020000D01*
X8820000Y-14020000D02*
X8980000Y-13860000D01*
X8820000Y-13700000D01*
X8660000Y-13860000D01*
X8820000Y-14020000D01*
X19860000Y-4500000D02*
X20180000Y-4820000D01*
X20180000Y-4500000D02*
X19860000Y-4820000D01*
X20020000Y-4820000D02*
X20180000Y-4660000D01*
X20020000Y-4500000D01*
X19860000Y-4660000D01*
X20020000Y-4820000D01*
X19860000Y-13700000D02*
X20180000Y-14020000D01*
X20180000Y-13700000D02*
X19860000Y-14020000D01*
X20020000Y-14020000D02*
X20180000Y-13860000D01*
X20020000Y-13700000D01*
X19860000Y-13860000D01*
X20020000Y-14020000D01*
D11*
X8675777Y-14576484D02*
X8675777Y-14376484D01*
X8675777Y-14376484D02*
X8723396Y-14376484D01*
X8723396Y-14376484D02*
X8751967Y-14386008D01*
X8751967Y-14386008D02*
X8771015Y-14405055D01*
X8771015Y-14405055D02*
X8780539Y-14424103D01*
X8780539Y-14424103D02*
X8790063Y-14462198D01*
X8790063Y-14462198D02*
X8790063Y-14490769D01*
X8790063Y-14490769D02*
X8780539Y-14528865D01*
X8780539Y-14528865D02*
X8771015Y-14547912D01*
X8771015Y-14547912D02*
X8751967Y-14566960D01*
X8751967Y-14566960D02*
X8723396Y-14576484D01*
X8723396Y-14576484D02*
X8675777Y-14576484D01*
X8875777Y-14576484D02*
X8875777Y-14443150D01*
X8875777Y-14481246D02*
X8885301Y-14462198D01*
X8885301Y-14462198D02*
X8894824Y-14452674D01*
X8894824Y-14452674D02*
X8913872Y-14443150D01*
X8913872Y-14443150D02*
X8932920Y-14443150D01*
X8999586Y-14576484D02*
X8999586Y-14443150D01*
X8999586Y-14376484D02*
X8990063Y-14386008D01*
X8990063Y-14386008D02*
X8999586Y-14395531D01*
X8999586Y-14395531D02*
X9009110Y-14386008D01*
X9009110Y-14386008D02*
X8999586Y-14376484D01*
X8999586Y-14376484D02*
X8999586Y-14395531D01*
X9123396Y-14576484D02*
X9104348Y-14566960D01*
X9104348Y-14566960D02*
X9094824Y-14547912D01*
X9094824Y-14547912D02*
X9094824Y-14376484D01*
X9228158Y-14576484D02*
X9209110Y-14566960D01*
X9209110Y-14566960D02*
X9199586Y-14547912D01*
X9199586Y-14547912D02*
X9199586Y-14376484D01*
X9456729Y-14576484D02*
X9456729Y-14376484D01*
X9456729Y-14376484D02*
X9523396Y-14519341D01*
X9523396Y-14519341D02*
X9590063Y-14376484D01*
X9590063Y-14376484D02*
X9590063Y-14576484D01*
X9771015Y-14576484D02*
X9771015Y-14471722D01*
X9771015Y-14471722D02*
X9761491Y-14452674D01*
X9761491Y-14452674D02*
X9742444Y-14443150D01*
X9742444Y-14443150D02*
X9704348Y-14443150D01*
X9704348Y-14443150D02*
X9685301Y-14452674D01*
X9771015Y-14566960D02*
X9751967Y-14576484D01*
X9751967Y-14576484D02*
X9704348Y-14576484D01*
X9704348Y-14576484D02*
X9685301Y-14566960D01*
X9685301Y-14566960D02*
X9675777Y-14547912D01*
X9675777Y-14547912D02*
X9675777Y-14528865D01*
X9675777Y-14528865D02*
X9685301Y-14509817D01*
X9685301Y-14509817D02*
X9704348Y-14500293D01*
X9704348Y-14500293D02*
X9751967Y-14500293D01*
X9751967Y-14500293D02*
X9771015Y-14490769D01*
X9866253Y-14443150D02*
X9866253Y-14643150D01*
X9866253Y-14452674D02*
X9885301Y-14443150D01*
X9885301Y-14443150D02*
X9923396Y-14443150D01*
X9923396Y-14443150D02*
X9942444Y-14452674D01*
X9942444Y-14452674D02*
X9951967Y-14462198D01*
X9951967Y-14462198D02*
X9961491Y-14481246D01*
X9961491Y-14481246D02*
X9961491Y-14538388D01*
X9961491Y-14538388D02*
X9951967Y-14557436D01*
X9951967Y-14557436D02*
X9942444Y-14566960D01*
X9942444Y-14566960D02*
X9923396Y-14576484D01*
X9923396Y-14576484D02*
X9885301Y-14576484D01*
X9885301Y-14576484D02*
X9866253Y-14566960D01*
X10047205Y-14557436D02*
X10056729Y-14566960D01*
X10056729Y-14566960D02*
X10047205Y-14576484D01*
X10047205Y-14576484D02*
X10037682Y-14566960D01*
X10037682Y-14566960D02*
X10047205Y-14557436D01*
X10047205Y-14557436D02*
X10047205Y-14576484D01*
X10047205Y-14452674D02*
X10056729Y-14462198D01*
X10056729Y-14462198D02*
X10047205Y-14471722D01*
X10047205Y-14471722D02*
X10037682Y-14462198D01*
X10037682Y-14462198D02*
X10047205Y-14452674D01*
X10047205Y-14452674D02*
X10047205Y-14471722D01*
D10*
X8345000Y-14870000D02*
X8415000Y-14940000D01*
X8415000Y-14870000D02*
X8345000Y-14940000D01*
D11*
X8713872Y-14796484D02*
X8732920Y-14796484D01*
X8732920Y-14796484D02*
X8751967Y-14806008D01*
X8751967Y-14806008D02*
X8761491Y-14815531D01*
X8761491Y-14815531D02*
X8771015Y-14834579D01*
X8771015Y-14834579D02*
X8780539Y-14872674D01*
X8780539Y-14872674D02*
X8780539Y-14920293D01*
X8780539Y-14920293D02*
X8771015Y-14958388D01*
X8771015Y-14958388D02*
X8761491Y-14977436D01*
X8761491Y-14977436D02*
X8751967Y-14986960D01*
X8751967Y-14986960D02*
X8732920Y-14996484D01*
X8732920Y-14996484D02*
X8713872Y-14996484D01*
X8713872Y-14996484D02*
X8694824Y-14986960D01*
X8694824Y-14986960D02*
X8685301Y-14977436D01*
X8685301Y-14977436D02*
X8675777Y-14958388D01*
X8675777Y-14958388D02*
X8666253Y-14920293D01*
X8666253Y-14920293D02*
X8666253Y-14872674D01*
X8666253Y-14872674D02*
X8675777Y-14834579D01*
X8675777Y-14834579D02*
X8685301Y-14815531D01*
X8685301Y-14815531D02*
X8694824Y-14806008D01*
X8694824Y-14806008D02*
X8713872Y-14796484D01*
X8866253Y-14977436D02*
X8875777Y-14986960D01*
X8875777Y-14986960D02*
X8866253Y-14996484D01*
X8866253Y-14996484D02*
X8856729Y-14986960D01*
X8856729Y-14986960D02*
X8866253Y-14977436D01*
X8866253Y-14977436D02*
X8866253Y-14996484D01*
X8942444Y-14796484D02*
X9075777Y-14796484D01*
X9075777Y-14796484D02*
X8990063Y-14996484D01*
X9190063Y-14796484D02*
X9209110Y-14796484D01*
X9209110Y-14796484D02*
X9228158Y-14806008D01*
X9228158Y-14806008D02*
X9237682Y-14815531D01*
X9237682Y-14815531D02*
X9247205Y-14834579D01*
X9247205Y-14834579D02*
X9256729Y-14872674D01*
X9256729Y-14872674D02*
X9256729Y-14920293D01*
X9256729Y-14920293D02*
X9247205Y-14958388D01*
X9247205Y-14958388D02*
X9237682Y-14977436D01*
X9237682Y-14977436D02*
X9228158Y-14986960D01*
X9228158Y-14986960D02*
X9209110Y-14996484D01*
X9209110Y-14996484D02*
X9190063Y-14996484D01*
X9190063Y-14996484D02*
X9171015Y-14986960D01*
X9171015Y-14986960D02*
X9161491Y-14977436D01*
X9161491Y-14977436D02*
X9151967Y-14958388D01*
X9151967Y-14958388D02*
X9142444Y-14920293D01*
X9142444Y-14920293D02*
X9142444Y-14872674D01*
X9142444Y-14872674D02*
X9151967Y-14834579D01*
X9151967Y-14834579D02*
X9161491Y-14815531D01*
X9161491Y-14815531D02*
X9171015Y-14806008D01*
X9171015Y-14806008D02*
X9190063Y-14796484D01*
X9380539Y-14796484D02*
X9399586Y-14796484D01*
X9399586Y-14796484D02*
X9418634Y-14806008D01*
X9418634Y-14806008D02*
X9428158Y-14815531D01*
X9428158Y-14815531D02*
X9437682Y-14834579D01*
X9437682Y-14834579D02*
X9447205Y-14872674D01*
X9447205Y-14872674D02*
X9447205Y-14920293D01*
X9447205Y-14920293D02*
X9437682Y-14958388D01*
X9437682Y-14958388D02*
X9428158Y-14977436D01*
X9428158Y-14977436D02*
X9418634Y-14986960D01*
X9418634Y-14986960D02*
X9399586Y-14996484D01*
X9399586Y-14996484D02*
X9380539Y-14996484D01*
X9380539Y-14996484D02*
X9361491Y-14986960D01*
X9361491Y-14986960D02*
X9351967Y-14977436D01*
X9351967Y-14977436D02*
X9342444Y-14958388D01*
X9342444Y-14958388D02*
X9332920Y-14920293D01*
X9332920Y-14920293D02*
X9332920Y-14872674D01*
X9332920Y-14872674D02*
X9342444Y-14834579D01*
X9342444Y-14834579D02*
X9351967Y-14815531D01*
X9351967Y-14815531D02*
X9361491Y-14806008D01*
X9361491Y-14806008D02*
X9380539Y-14796484D01*
X9532920Y-14996484D02*
X9532920Y-14863150D01*
X9532920Y-14882198D02*
X9542444Y-14872674D01*
X9542444Y-14872674D02*
X9561491Y-14863150D01*
X9561491Y-14863150D02*
X9590063Y-14863150D01*
X9590063Y-14863150D02*
X9609110Y-14872674D01*
X9609110Y-14872674D02*
X9618634Y-14891722D01*
X9618634Y-14891722D02*
X9618634Y-14996484D01*
X9618634Y-14891722D02*
X9628158Y-14872674D01*
X9628158Y-14872674D02*
X9647205Y-14863150D01*
X9647205Y-14863150D02*
X9675777Y-14863150D01*
X9675777Y-14863150D02*
X9694825Y-14872674D01*
X9694825Y-14872674D02*
X9704348Y-14891722D01*
X9704348Y-14891722D02*
X9704348Y-14996484D01*
X9799586Y-14996484D02*
X9799586Y-14863150D01*
X9799586Y-14882198D02*
X9809110Y-14872674D01*
X9809110Y-14872674D02*
X9828158Y-14863150D01*
X9828158Y-14863150D02*
X9856729Y-14863150D01*
X9856729Y-14863150D02*
X9875777Y-14872674D01*
X9875777Y-14872674D02*
X9885301Y-14891722D01*
X9885301Y-14891722D02*
X9885301Y-14996484D01*
X9885301Y-14891722D02*
X9894825Y-14872674D01*
X9894825Y-14872674D02*
X9913872Y-14863150D01*
X9913872Y-14863150D02*
X9942444Y-14863150D01*
X9942444Y-14863150D02*
X9961491Y-14872674D01*
X9961491Y-14872674D02*
X9971015Y-14891722D01*
X9971015Y-14891722D02*
X9971015Y-14996484D01*
X10361491Y-14786960D02*
X10190063Y-15044103D01*
X10618634Y-14796484D02*
X10637682Y-14796484D01*
X10637682Y-14796484D02*
X10656729Y-14806008D01*
X10656729Y-14806008D02*
X10666253Y-14815531D01*
X10666253Y-14815531D02*
X10675777Y-14834579D01*
X10675777Y-14834579D02*
X10685301Y-14872674D01*
X10685301Y-14872674D02*
X10685301Y-14920293D01*
X10685301Y-14920293D02*
X10675777Y-14958388D01*
X10675777Y-14958388D02*
X10666253Y-14977436D01*
X10666253Y-14977436D02*
X10656729Y-14986960D01*
X10656729Y-14986960D02*
X10637682Y-14996484D01*
X10637682Y-14996484D02*
X10618634Y-14996484D01*
X10618634Y-14996484D02*
X10599587Y-14986960D01*
X10599587Y-14986960D02*
X10590063Y-14977436D01*
X10590063Y-14977436D02*
X10580539Y-14958388D01*
X10580539Y-14958388D02*
X10571015Y-14920293D01*
X10571015Y-14920293D02*
X10571015Y-14872674D01*
X10571015Y-14872674D02*
X10580539Y-14834579D01*
X10580539Y-14834579D02*
X10590063Y-14815531D01*
X10590063Y-14815531D02*
X10599587Y-14806008D01*
X10599587Y-14806008D02*
X10618634Y-14796484D01*
X10771015Y-14977436D02*
X10780539Y-14986960D01*
X10780539Y-14986960D02*
X10771015Y-14996484D01*
X10771015Y-14996484D02*
X10761491Y-14986960D01*
X10761491Y-14986960D02*
X10771015Y-14977436D01*
X10771015Y-14977436D02*
X10771015Y-14996484D01*
X10904348Y-14796484D02*
X10923396Y-14796484D01*
X10923396Y-14796484D02*
X10942444Y-14806008D01*
X10942444Y-14806008D02*
X10951968Y-14815531D01*
X10951968Y-14815531D02*
X10961491Y-14834579D01*
X10961491Y-14834579D02*
X10971015Y-14872674D01*
X10971015Y-14872674D02*
X10971015Y-14920293D01*
X10971015Y-14920293D02*
X10961491Y-14958388D01*
X10961491Y-14958388D02*
X10951968Y-14977436D01*
X10951968Y-14977436D02*
X10942444Y-14986960D01*
X10942444Y-14986960D02*
X10923396Y-14996484D01*
X10923396Y-14996484D02*
X10904348Y-14996484D01*
X10904348Y-14996484D02*
X10885301Y-14986960D01*
X10885301Y-14986960D02*
X10875777Y-14977436D01*
X10875777Y-14977436D02*
X10866253Y-14958388D01*
X10866253Y-14958388D02*
X10856729Y-14920293D01*
X10856729Y-14920293D02*
X10856729Y-14872674D01*
X10856729Y-14872674D02*
X10866253Y-14834579D01*
X10866253Y-14834579D02*
X10875777Y-14815531D01*
X10875777Y-14815531D02*
X10885301Y-14806008D01*
X10885301Y-14806008D02*
X10904348Y-14796484D01*
X11047206Y-14815531D02*
X11056729Y-14806008D01*
X11056729Y-14806008D02*
X11075777Y-14796484D01*
X11075777Y-14796484D02*
X11123396Y-14796484D01*
X11123396Y-14796484D02*
X11142444Y-14806008D01*
X11142444Y-14806008D02*
X11151968Y-14815531D01*
X11151968Y-14815531D02*
X11161491Y-14834579D01*
X11161491Y-14834579D02*
X11161491Y-14853627D01*
X11161491Y-14853627D02*
X11151968Y-14882198D01*
X11151968Y-14882198D02*
X11037682Y-14996484D01*
X11037682Y-14996484D02*
X11161491Y-14996484D01*
X11228158Y-14796484D02*
X11361491Y-14796484D01*
X11361491Y-14796484D02*
X11275777Y-14996484D01*
X11523396Y-14796484D02*
X11485301Y-14796484D01*
X11485301Y-14796484D02*
X11466253Y-14806008D01*
X11466253Y-14806008D02*
X11456729Y-14815531D01*
X11456729Y-14815531D02*
X11437682Y-14844103D01*
X11437682Y-14844103D02*
X11428158Y-14882198D01*
X11428158Y-14882198D02*
X11428158Y-14958388D01*
X11428158Y-14958388D02*
X11437682Y-14977436D01*
X11437682Y-14977436D02*
X11447206Y-14986960D01*
X11447206Y-14986960D02*
X11466253Y-14996484D01*
X11466253Y-14996484D02*
X11504348Y-14996484D01*
X11504348Y-14996484D02*
X11523396Y-14986960D01*
X11523396Y-14986960D02*
X11532920Y-14977436D01*
X11532920Y-14977436D02*
X11542444Y-14958388D01*
X11542444Y-14958388D02*
X11542444Y-14910769D01*
X11542444Y-14910769D02*
X11532920Y-14891722D01*
X11532920Y-14891722D02*
X11523396Y-14882198D01*
X11523396Y-14882198D02*
X11504348Y-14872674D01*
X11504348Y-14872674D02*
X11466253Y-14872674D01*
X11466253Y-14872674D02*
X11447206Y-14882198D01*
X11447206Y-14882198D02*
X11437682Y-14891722D01*
X11437682Y-14891722D02*
X11428158Y-14910769D01*
X11618634Y-14796484D02*
X11618634Y-14834579D01*
X11694825Y-14796484D02*
X11694825Y-14834579D01*
X11990063Y-15072674D02*
X11980539Y-15063150D01*
X11980539Y-15063150D02*
X11961491Y-15034579D01*
X11961491Y-15034579D02*
X11951968Y-15015531D01*
X11951968Y-15015531D02*
X11942444Y-14986960D01*
X11942444Y-14986960D02*
X11932920Y-14939341D01*
X11932920Y-14939341D02*
X11932920Y-14901246D01*
X11932920Y-14901246D02*
X11942444Y-14853627D01*
X11942444Y-14853627D02*
X11951968Y-14825055D01*
X11951968Y-14825055D02*
X11961491Y-14806008D01*
X11961491Y-14806008D02*
X11980539Y-14777436D01*
X11980539Y-14777436D02*
X11990063Y-14767912D01*
X12171015Y-14996484D02*
X12056729Y-14996484D01*
X12113872Y-14996484D02*
X12113872Y-14796484D01*
X12113872Y-14796484D02*
X12094825Y-14825055D01*
X12094825Y-14825055D02*
X12075777Y-14844103D01*
X12075777Y-14844103D02*
X12056729Y-14853627D01*
X12247206Y-14815531D02*
X12256729Y-14806008D01*
X12256729Y-14806008D02*
X12275777Y-14796484D01*
X12275777Y-14796484D02*
X12323396Y-14796484D01*
X12323396Y-14796484D02*
X12342444Y-14806008D01*
X12342444Y-14806008D02*
X12351968Y-14815531D01*
X12351968Y-14815531D02*
X12361491Y-14834579D01*
X12361491Y-14834579D02*
X12361491Y-14853627D01*
X12361491Y-14853627D02*
X12351968Y-14882198D01*
X12351968Y-14882198D02*
X12237682Y-14996484D01*
X12237682Y-14996484D02*
X12361491Y-14996484D01*
X12599587Y-14996484D02*
X12599587Y-14796484D01*
X12685301Y-14996484D02*
X12685301Y-14891722D01*
X12685301Y-14891722D02*
X12675777Y-14872674D01*
X12675777Y-14872674D02*
X12656730Y-14863150D01*
X12656730Y-14863150D02*
X12628158Y-14863150D01*
X12628158Y-14863150D02*
X12609110Y-14872674D01*
X12609110Y-14872674D02*
X12599587Y-14882198D01*
X12809110Y-14996484D02*
X12790063Y-14986960D01*
X12790063Y-14986960D02*
X12780539Y-14977436D01*
X12780539Y-14977436D02*
X12771015Y-14958388D01*
X12771015Y-14958388D02*
X12771015Y-14901246D01*
X12771015Y-14901246D02*
X12780539Y-14882198D01*
X12780539Y-14882198D02*
X12790063Y-14872674D01*
X12790063Y-14872674D02*
X12809110Y-14863150D01*
X12809110Y-14863150D02*
X12837682Y-14863150D01*
X12837682Y-14863150D02*
X12856730Y-14872674D01*
X12856730Y-14872674D02*
X12866253Y-14882198D01*
X12866253Y-14882198D02*
X12875777Y-14901246D01*
X12875777Y-14901246D02*
X12875777Y-14958388D01*
X12875777Y-14958388D02*
X12866253Y-14977436D01*
X12866253Y-14977436D02*
X12856730Y-14986960D01*
X12856730Y-14986960D02*
X12837682Y-14996484D01*
X12837682Y-14996484D02*
X12809110Y-14996484D01*
X12990063Y-14996484D02*
X12971015Y-14986960D01*
X12971015Y-14986960D02*
X12961491Y-14967912D01*
X12961491Y-14967912D02*
X12961491Y-14796484D01*
X13142444Y-14986960D02*
X13123396Y-14996484D01*
X13123396Y-14996484D02*
X13085301Y-14996484D01*
X13085301Y-14996484D02*
X13066253Y-14986960D01*
X13066253Y-14986960D02*
X13056730Y-14967912D01*
X13056730Y-14967912D02*
X13056730Y-14891722D01*
X13056730Y-14891722D02*
X13066253Y-14872674D01*
X13066253Y-14872674D02*
X13085301Y-14863150D01*
X13085301Y-14863150D02*
X13123396Y-14863150D01*
X13123396Y-14863150D02*
X13142444Y-14872674D01*
X13142444Y-14872674D02*
X13151968Y-14891722D01*
X13151968Y-14891722D02*
X13151968Y-14910769D01*
X13151968Y-14910769D02*
X13056730Y-14929817D01*
X13228158Y-14986960D02*
X13247206Y-14996484D01*
X13247206Y-14996484D02*
X13285301Y-14996484D01*
X13285301Y-14996484D02*
X13304349Y-14986960D01*
X13304349Y-14986960D02*
X13313872Y-14967912D01*
X13313872Y-14967912D02*
X13313872Y-14958388D01*
X13313872Y-14958388D02*
X13304349Y-14939341D01*
X13304349Y-14939341D02*
X13285301Y-14929817D01*
X13285301Y-14929817D02*
X13256730Y-14929817D01*
X13256730Y-14929817D02*
X13237682Y-14920293D01*
X13237682Y-14920293D02*
X13228158Y-14901246D01*
X13228158Y-14901246D02*
X13228158Y-14891722D01*
X13228158Y-14891722D02*
X13237682Y-14872674D01*
X13237682Y-14872674D02*
X13256730Y-14863150D01*
X13256730Y-14863150D02*
X13285301Y-14863150D01*
X13285301Y-14863150D02*
X13304349Y-14872674D01*
X13380539Y-15072674D02*
X13390063Y-15063150D01*
X13390063Y-15063150D02*
X13409111Y-15034579D01*
X13409111Y-15034579D02*
X13418634Y-15015531D01*
X13418634Y-15015531D02*
X13428158Y-14986960D01*
X13428158Y-14986960D02*
X13437682Y-14939341D01*
X13437682Y-14939341D02*
X13437682Y-14901246D01*
X13437682Y-14901246D02*
X13428158Y-14853627D01*
X13428158Y-14853627D02*
X13418634Y-14825055D01*
X13418634Y-14825055D02*
X13409111Y-14806008D01*
X13409111Y-14806008D02*
X13390063Y-14777436D01*
X13390063Y-14777436D02*
X13380539Y-14767912D01*
D10*
X8415000Y-15169000D02*
G75*
G02*
X8335000Y-15169000I-40000J0D01*
G01*
X8335000Y-15169000D02*
G75*
G02*
X8415000Y-15169000I40000J0D01*
G01*
D11*
X8713872Y-15060484D02*
X8732920Y-15060484D01*
X8732920Y-15060484D02*
X8751967Y-15070008D01*
X8751967Y-15070008D02*
X8761491Y-15079531D01*
X8761491Y-15079531D02*
X8771015Y-15098579D01*
X8771015Y-15098579D02*
X8780539Y-15136674D01*
X8780539Y-15136674D02*
X8780539Y-15184293D01*
X8780539Y-15184293D02*
X8771015Y-15222388D01*
X8771015Y-15222388D02*
X8761491Y-15241436D01*
X8761491Y-15241436D02*
X8751967Y-15250960D01*
X8751967Y-15250960D02*
X8732920Y-15260484D01*
X8732920Y-15260484D02*
X8713872Y-15260484D01*
X8713872Y-15260484D02*
X8694824Y-15250960D01*
X8694824Y-15250960D02*
X8685301Y-15241436D01*
X8685301Y-15241436D02*
X8675777Y-15222388D01*
X8675777Y-15222388D02*
X8666253Y-15184293D01*
X8666253Y-15184293D02*
X8666253Y-15136674D01*
X8666253Y-15136674D02*
X8675777Y-15098579D01*
X8675777Y-15098579D02*
X8685301Y-15079531D01*
X8685301Y-15079531D02*
X8694824Y-15070008D01*
X8694824Y-15070008D02*
X8713872Y-15060484D01*
X8866253Y-15241436D02*
X8875777Y-15250960D01*
X8875777Y-15250960D02*
X8866253Y-15260484D01*
X8866253Y-15260484D02*
X8856729Y-15250960D01*
X8856729Y-15250960D02*
X8866253Y-15241436D01*
X8866253Y-15241436D02*
X8866253Y-15260484D01*
X8990063Y-15146198D02*
X8971015Y-15136674D01*
X8971015Y-15136674D02*
X8961491Y-15127150D01*
X8961491Y-15127150D02*
X8951967Y-15108103D01*
X8951967Y-15108103D02*
X8951967Y-15098579D01*
X8951967Y-15098579D02*
X8961491Y-15079531D01*
X8961491Y-15079531D02*
X8971015Y-15070008D01*
X8971015Y-15070008D02*
X8990063Y-15060484D01*
X8990063Y-15060484D02*
X9028158Y-15060484D01*
X9028158Y-15060484D02*
X9047205Y-15070008D01*
X9047205Y-15070008D02*
X9056729Y-15079531D01*
X9056729Y-15079531D02*
X9066253Y-15098579D01*
X9066253Y-15098579D02*
X9066253Y-15108103D01*
X9066253Y-15108103D02*
X9056729Y-15127150D01*
X9056729Y-15127150D02*
X9047205Y-15136674D01*
X9047205Y-15136674D02*
X9028158Y-15146198D01*
X9028158Y-15146198D02*
X8990063Y-15146198D01*
X8990063Y-15146198D02*
X8971015Y-15155722D01*
X8971015Y-15155722D02*
X8961491Y-15165246D01*
X8961491Y-15165246D02*
X8951967Y-15184293D01*
X8951967Y-15184293D02*
X8951967Y-15222388D01*
X8951967Y-15222388D02*
X8961491Y-15241436D01*
X8961491Y-15241436D02*
X8971015Y-15250960D01*
X8971015Y-15250960D02*
X8990063Y-15260484D01*
X8990063Y-15260484D02*
X9028158Y-15260484D01*
X9028158Y-15260484D02*
X9047205Y-15250960D01*
X9047205Y-15250960D02*
X9056729Y-15241436D01*
X9056729Y-15241436D02*
X9066253Y-15222388D01*
X9066253Y-15222388D02*
X9066253Y-15184293D01*
X9066253Y-15184293D02*
X9056729Y-15165246D01*
X9056729Y-15165246D02*
X9047205Y-15155722D01*
X9047205Y-15155722D02*
X9028158Y-15146198D01*
X9190063Y-15060484D02*
X9209110Y-15060484D01*
X9209110Y-15060484D02*
X9228158Y-15070008D01*
X9228158Y-15070008D02*
X9237682Y-15079531D01*
X9237682Y-15079531D02*
X9247205Y-15098579D01*
X9247205Y-15098579D02*
X9256729Y-15136674D01*
X9256729Y-15136674D02*
X9256729Y-15184293D01*
X9256729Y-15184293D02*
X9247205Y-15222388D01*
X9247205Y-15222388D02*
X9237682Y-15241436D01*
X9237682Y-15241436D02*
X9228158Y-15250960D01*
X9228158Y-15250960D02*
X9209110Y-15260484D01*
X9209110Y-15260484D02*
X9190063Y-15260484D01*
X9190063Y-15260484D02*
X9171015Y-15250960D01*
X9171015Y-15250960D02*
X9161491Y-15241436D01*
X9161491Y-15241436D02*
X9151967Y-15222388D01*
X9151967Y-15222388D02*
X9142444Y-15184293D01*
X9142444Y-15184293D02*
X9142444Y-15136674D01*
X9142444Y-15136674D02*
X9151967Y-15098579D01*
X9151967Y-15098579D02*
X9161491Y-15079531D01*
X9161491Y-15079531D02*
X9171015Y-15070008D01*
X9171015Y-15070008D02*
X9190063Y-15060484D01*
X9380539Y-15060484D02*
X9399586Y-15060484D01*
X9399586Y-15060484D02*
X9418634Y-15070008D01*
X9418634Y-15070008D02*
X9428158Y-15079531D01*
X9428158Y-15079531D02*
X9437682Y-15098579D01*
X9437682Y-15098579D02*
X9447205Y-15136674D01*
X9447205Y-15136674D02*
X9447205Y-15184293D01*
X9447205Y-15184293D02*
X9437682Y-15222388D01*
X9437682Y-15222388D02*
X9428158Y-15241436D01*
X9428158Y-15241436D02*
X9418634Y-15250960D01*
X9418634Y-15250960D02*
X9399586Y-15260484D01*
X9399586Y-15260484D02*
X9380539Y-15260484D01*
X9380539Y-15260484D02*
X9361491Y-15250960D01*
X9361491Y-15250960D02*
X9351967Y-15241436D01*
X9351967Y-15241436D02*
X9342444Y-15222388D01*
X9342444Y-15222388D02*
X9332920Y-15184293D01*
X9332920Y-15184293D02*
X9332920Y-15136674D01*
X9332920Y-15136674D02*
X9342444Y-15098579D01*
X9342444Y-15098579D02*
X9351967Y-15079531D01*
X9351967Y-15079531D02*
X9361491Y-15070008D01*
X9361491Y-15070008D02*
X9380539Y-15060484D01*
X9532920Y-15260484D02*
X9532920Y-15127150D01*
X9532920Y-15146198D02*
X9542444Y-15136674D01*
X9542444Y-15136674D02*
X9561491Y-15127150D01*
X9561491Y-15127150D02*
X9590063Y-15127150D01*
X9590063Y-15127150D02*
X9609110Y-15136674D01*
X9609110Y-15136674D02*
X9618634Y-15155722D01*
X9618634Y-15155722D02*
X9618634Y-15260484D01*
X9618634Y-15155722D02*
X9628158Y-15136674D01*
X9628158Y-15136674D02*
X9647205Y-15127150D01*
X9647205Y-15127150D02*
X9675777Y-15127150D01*
X9675777Y-15127150D02*
X9694825Y-15136674D01*
X9694825Y-15136674D02*
X9704348Y-15155722D01*
X9704348Y-15155722D02*
X9704348Y-15260484D01*
X9799586Y-15260484D02*
X9799586Y-15127150D01*
X9799586Y-15146198D02*
X9809110Y-15136674D01*
X9809110Y-15136674D02*
X9828158Y-15127150D01*
X9828158Y-15127150D02*
X9856729Y-15127150D01*
X9856729Y-15127150D02*
X9875777Y-15136674D01*
X9875777Y-15136674D02*
X9885301Y-15155722D01*
X9885301Y-15155722D02*
X9885301Y-15260484D01*
X9885301Y-15155722D02*
X9894825Y-15136674D01*
X9894825Y-15136674D02*
X9913872Y-15127150D01*
X9913872Y-15127150D02*
X9942444Y-15127150D01*
X9942444Y-15127150D02*
X9961491Y-15136674D01*
X9961491Y-15136674D02*
X9971015Y-15155722D01*
X9971015Y-15155722D02*
X9971015Y-15260484D01*
X10361491Y-15050960D02*
X10190063Y-15308103D01*
X10618634Y-15060484D02*
X10637682Y-15060484D01*
X10637682Y-15060484D02*
X10656729Y-15070008D01*
X10656729Y-15070008D02*
X10666253Y-15079531D01*
X10666253Y-15079531D02*
X10675777Y-15098579D01*
X10675777Y-15098579D02*
X10685301Y-15136674D01*
X10685301Y-15136674D02*
X10685301Y-15184293D01*
X10685301Y-15184293D02*
X10675777Y-15222388D01*
X10675777Y-15222388D02*
X10666253Y-15241436D01*
X10666253Y-15241436D02*
X10656729Y-15250960D01*
X10656729Y-15250960D02*
X10637682Y-15260484D01*
X10637682Y-15260484D02*
X10618634Y-15260484D01*
X10618634Y-15260484D02*
X10599587Y-15250960D01*
X10599587Y-15250960D02*
X10590063Y-15241436D01*
X10590063Y-15241436D02*
X10580539Y-15222388D01*
X10580539Y-15222388D02*
X10571015Y-15184293D01*
X10571015Y-15184293D02*
X10571015Y-15136674D01*
X10571015Y-15136674D02*
X10580539Y-15098579D01*
X10580539Y-15098579D02*
X10590063Y-15079531D01*
X10590063Y-15079531D02*
X10599587Y-15070008D01*
X10599587Y-15070008D02*
X10618634Y-15060484D01*
X10771015Y-15241436D02*
X10780539Y-15250960D01*
X10780539Y-15250960D02*
X10771015Y-15260484D01*
X10771015Y-15260484D02*
X10761491Y-15250960D01*
X10761491Y-15250960D02*
X10771015Y-15241436D01*
X10771015Y-15241436D02*
X10771015Y-15260484D01*
X10904348Y-15060484D02*
X10923396Y-15060484D01*
X10923396Y-15060484D02*
X10942444Y-15070008D01*
X10942444Y-15070008D02*
X10951968Y-15079531D01*
X10951968Y-15079531D02*
X10961491Y-15098579D01*
X10961491Y-15098579D02*
X10971015Y-15136674D01*
X10971015Y-15136674D02*
X10971015Y-15184293D01*
X10971015Y-15184293D02*
X10961491Y-15222388D01*
X10961491Y-15222388D02*
X10951968Y-15241436D01*
X10951968Y-15241436D02*
X10942444Y-15250960D01*
X10942444Y-15250960D02*
X10923396Y-15260484D01*
X10923396Y-15260484D02*
X10904348Y-15260484D01*
X10904348Y-15260484D02*
X10885301Y-15250960D01*
X10885301Y-15250960D02*
X10875777Y-15241436D01*
X10875777Y-15241436D02*
X10866253Y-15222388D01*
X10866253Y-15222388D02*
X10856729Y-15184293D01*
X10856729Y-15184293D02*
X10856729Y-15136674D01*
X10856729Y-15136674D02*
X10866253Y-15098579D01*
X10866253Y-15098579D02*
X10875777Y-15079531D01*
X10875777Y-15079531D02*
X10885301Y-15070008D01*
X10885301Y-15070008D02*
X10904348Y-15060484D01*
X11037682Y-15060484D02*
X11161491Y-15060484D01*
X11161491Y-15060484D02*
X11094825Y-15136674D01*
X11094825Y-15136674D02*
X11123396Y-15136674D01*
X11123396Y-15136674D02*
X11142444Y-15146198D01*
X11142444Y-15146198D02*
X11151968Y-15155722D01*
X11151968Y-15155722D02*
X11161491Y-15174769D01*
X11161491Y-15174769D02*
X11161491Y-15222388D01*
X11161491Y-15222388D02*
X11151968Y-15241436D01*
X11151968Y-15241436D02*
X11142444Y-15250960D01*
X11142444Y-15250960D02*
X11123396Y-15260484D01*
X11123396Y-15260484D02*
X11066253Y-15260484D01*
X11066253Y-15260484D02*
X11047206Y-15250960D01*
X11047206Y-15250960D02*
X11037682Y-15241436D01*
X11351967Y-15260484D02*
X11237682Y-15260484D01*
X11294825Y-15260484D02*
X11294825Y-15060484D01*
X11294825Y-15060484D02*
X11275777Y-15089055D01*
X11275777Y-15089055D02*
X11256729Y-15108103D01*
X11256729Y-15108103D02*
X11237682Y-15117627D01*
X11532920Y-15060484D02*
X11437682Y-15060484D01*
X11437682Y-15060484D02*
X11428158Y-15155722D01*
X11428158Y-15155722D02*
X11437682Y-15146198D01*
X11437682Y-15146198D02*
X11456729Y-15136674D01*
X11456729Y-15136674D02*
X11504348Y-15136674D01*
X11504348Y-15136674D02*
X11523396Y-15146198D01*
X11523396Y-15146198D02*
X11532920Y-15155722D01*
X11532920Y-15155722D02*
X11542444Y-15174769D01*
X11542444Y-15174769D02*
X11542444Y-15222388D01*
X11542444Y-15222388D02*
X11532920Y-15241436D01*
X11532920Y-15241436D02*
X11523396Y-15250960D01*
X11523396Y-15250960D02*
X11504348Y-15260484D01*
X11504348Y-15260484D02*
X11456729Y-15260484D01*
X11456729Y-15260484D02*
X11437682Y-15250960D01*
X11437682Y-15250960D02*
X11428158Y-15241436D01*
X11618634Y-15060484D02*
X11618634Y-15098579D01*
X11694825Y-15060484D02*
X11694825Y-15098579D01*
X11990063Y-15336674D02*
X11980539Y-15327150D01*
X11980539Y-15327150D02*
X11961491Y-15298579D01*
X11961491Y-15298579D02*
X11951968Y-15279531D01*
X11951968Y-15279531D02*
X11942444Y-15250960D01*
X11942444Y-15250960D02*
X11932920Y-15203341D01*
X11932920Y-15203341D02*
X11932920Y-15165246D01*
X11932920Y-15165246D02*
X11942444Y-15117627D01*
X11942444Y-15117627D02*
X11951968Y-15089055D01*
X11951968Y-15089055D02*
X11961491Y-15070008D01*
X11961491Y-15070008D02*
X11980539Y-15041436D01*
X11980539Y-15041436D02*
X11990063Y-15031912D01*
X12075777Y-15260484D02*
X12113872Y-15260484D01*
X12113872Y-15260484D02*
X12132920Y-15250960D01*
X12132920Y-15250960D02*
X12142444Y-15241436D01*
X12142444Y-15241436D02*
X12161491Y-15212865D01*
X12161491Y-15212865D02*
X12171015Y-15174769D01*
X12171015Y-15174769D02*
X12171015Y-15098579D01*
X12171015Y-15098579D02*
X12161491Y-15079531D01*
X12161491Y-15079531D02*
X12151968Y-15070008D01*
X12151968Y-15070008D02*
X12132920Y-15060484D01*
X12132920Y-15060484D02*
X12094825Y-15060484D01*
X12094825Y-15060484D02*
X12075777Y-15070008D01*
X12075777Y-15070008D02*
X12066253Y-15079531D01*
X12066253Y-15079531D02*
X12056729Y-15098579D01*
X12056729Y-15098579D02*
X12056729Y-15146198D01*
X12056729Y-15146198D02*
X12066253Y-15165246D01*
X12066253Y-15165246D02*
X12075777Y-15174769D01*
X12075777Y-15174769D02*
X12094825Y-15184293D01*
X12094825Y-15184293D02*
X12132920Y-15184293D01*
X12132920Y-15184293D02*
X12151968Y-15174769D01*
X12151968Y-15174769D02*
X12161491Y-15165246D01*
X12161491Y-15165246D02*
X12171015Y-15146198D01*
X12409110Y-15260484D02*
X12409110Y-15060484D01*
X12494825Y-15260484D02*
X12494825Y-15155722D01*
X12494825Y-15155722D02*
X12485301Y-15136674D01*
X12485301Y-15136674D02*
X12466253Y-15127150D01*
X12466253Y-15127150D02*
X12437682Y-15127150D01*
X12437682Y-15127150D02*
X12418634Y-15136674D01*
X12418634Y-15136674D02*
X12409110Y-15146198D01*
X12618634Y-15260484D02*
X12599587Y-15250960D01*
X12599587Y-15250960D02*
X12590063Y-15241436D01*
X12590063Y-15241436D02*
X12580539Y-15222388D01*
X12580539Y-15222388D02*
X12580539Y-15165246D01*
X12580539Y-15165246D02*
X12590063Y-15146198D01*
X12590063Y-15146198D02*
X12599587Y-15136674D01*
X12599587Y-15136674D02*
X12618634Y-15127150D01*
X12618634Y-15127150D02*
X12647206Y-15127150D01*
X12647206Y-15127150D02*
X12666253Y-15136674D01*
X12666253Y-15136674D02*
X12675777Y-15146198D01*
X12675777Y-15146198D02*
X12685301Y-15165246D01*
X12685301Y-15165246D02*
X12685301Y-15222388D01*
X12685301Y-15222388D02*
X12675777Y-15241436D01*
X12675777Y-15241436D02*
X12666253Y-15250960D01*
X12666253Y-15250960D02*
X12647206Y-15260484D01*
X12647206Y-15260484D02*
X12618634Y-15260484D01*
X12799587Y-15260484D02*
X12780539Y-15250960D01*
X12780539Y-15250960D02*
X12771015Y-15231912D01*
X12771015Y-15231912D02*
X12771015Y-15060484D01*
X12951968Y-15250960D02*
X12932920Y-15260484D01*
X12932920Y-15260484D02*
X12894825Y-15260484D01*
X12894825Y-15260484D02*
X12875777Y-15250960D01*
X12875777Y-15250960D02*
X12866253Y-15231912D01*
X12866253Y-15231912D02*
X12866253Y-15155722D01*
X12866253Y-15155722D02*
X12875777Y-15136674D01*
X12875777Y-15136674D02*
X12894825Y-15127150D01*
X12894825Y-15127150D02*
X12932920Y-15127150D01*
X12932920Y-15127150D02*
X12951968Y-15136674D01*
X12951968Y-15136674D02*
X12961491Y-15155722D01*
X12961491Y-15155722D02*
X12961491Y-15174769D01*
X12961491Y-15174769D02*
X12866253Y-15193817D01*
X13037682Y-15250960D02*
X13056730Y-15260484D01*
X13056730Y-15260484D02*
X13094825Y-15260484D01*
X13094825Y-15260484D02*
X13113872Y-15250960D01*
X13113872Y-15250960D02*
X13123396Y-15231912D01*
X13123396Y-15231912D02*
X13123396Y-15222388D01*
X13123396Y-15222388D02*
X13113872Y-15203341D01*
X13113872Y-15203341D02*
X13094825Y-15193817D01*
X13094825Y-15193817D02*
X13066253Y-15193817D01*
X13066253Y-15193817D02*
X13047206Y-15184293D01*
X13047206Y-15184293D02*
X13037682Y-15165246D01*
X13037682Y-15165246D02*
X13037682Y-15155722D01*
X13037682Y-15155722D02*
X13047206Y-15136674D01*
X13047206Y-15136674D02*
X13066253Y-15127150D01*
X13066253Y-15127150D02*
X13094825Y-15127150D01*
X13094825Y-15127150D02*
X13113872Y-15136674D01*
X13190063Y-15336674D02*
X13199587Y-15327150D01*
X13199587Y-15327150D02*
X13218634Y-15298579D01*
X13218634Y-15298579D02*
X13228158Y-15279531D01*
X13228158Y-15279531D02*
X13237682Y-15250960D01*
X13237682Y-15250960D02*
X13247206Y-15203341D01*
X13247206Y-15203341D02*
X13247206Y-15165246D01*
X13247206Y-15165246D02*
X13237682Y-15117627D01*
X13237682Y-15117627D02*
X13228158Y-15089055D01*
X13228158Y-15089055D02*
X13218634Y-15070008D01*
X13218634Y-15070008D02*
X13199587Y-15041436D01*
X13199587Y-15041436D02*
X13190063Y-15031912D01*
D10*
X8370000Y-15388000D02*
X8370000Y-15478000D01*
X8325000Y-15433000D02*
X8415000Y-15433000D01*
D11*
X8713872Y-15324484D02*
X8732920Y-15324484D01*
X8732920Y-15324484D02*
X8751967Y-15334008D01*
X8751967Y-15334008D02*
X8761491Y-15343531D01*
X8761491Y-15343531D02*
X8771015Y-15362579D01*
X8771015Y-15362579D02*
X8780539Y-15400674D01*
X8780539Y-15400674D02*
X8780539Y-15448293D01*
X8780539Y-15448293D02*
X8771015Y-15486388D01*
X8771015Y-15486388D02*
X8761491Y-15505436D01*
X8761491Y-15505436D02*
X8751967Y-15514960D01*
X8751967Y-15514960D02*
X8732920Y-15524484D01*
X8732920Y-15524484D02*
X8713872Y-15524484D01*
X8713872Y-15524484D02*
X8694824Y-15514960D01*
X8694824Y-15514960D02*
X8685301Y-15505436D01*
X8685301Y-15505436D02*
X8675777Y-15486388D01*
X8675777Y-15486388D02*
X8666253Y-15448293D01*
X8666253Y-15448293D02*
X8666253Y-15400674D01*
X8666253Y-15400674D02*
X8675777Y-15362579D01*
X8675777Y-15362579D02*
X8685301Y-15343531D01*
X8685301Y-15343531D02*
X8694824Y-15334008D01*
X8694824Y-15334008D02*
X8713872Y-15324484D01*
X8866253Y-15505436D02*
X8875777Y-15514960D01*
X8875777Y-15514960D02*
X8866253Y-15524484D01*
X8866253Y-15524484D02*
X8856729Y-15514960D01*
X8856729Y-15514960D02*
X8866253Y-15505436D01*
X8866253Y-15505436D02*
X8866253Y-15524484D01*
X8971015Y-15524484D02*
X9009110Y-15524484D01*
X9009110Y-15524484D02*
X9028158Y-15514960D01*
X9028158Y-15514960D02*
X9037682Y-15505436D01*
X9037682Y-15505436D02*
X9056729Y-15476865D01*
X9056729Y-15476865D02*
X9066253Y-15438769D01*
X9066253Y-15438769D02*
X9066253Y-15362579D01*
X9066253Y-15362579D02*
X9056729Y-15343531D01*
X9056729Y-15343531D02*
X9047205Y-15334008D01*
X9047205Y-15334008D02*
X9028158Y-15324484D01*
X9028158Y-15324484D02*
X8990063Y-15324484D01*
X8990063Y-15324484D02*
X8971015Y-15334008D01*
X8971015Y-15334008D02*
X8961491Y-15343531D01*
X8961491Y-15343531D02*
X8951967Y-15362579D01*
X8951967Y-15362579D02*
X8951967Y-15410198D01*
X8951967Y-15410198D02*
X8961491Y-15429246D01*
X8961491Y-15429246D02*
X8971015Y-15438769D01*
X8971015Y-15438769D02*
X8990063Y-15448293D01*
X8990063Y-15448293D02*
X9028158Y-15448293D01*
X9028158Y-15448293D02*
X9047205Y-15438769D01*
X9047205Y-15438769D02*
X9056729Y-15429246D01*
X9056729Y-15429246D02*
X9066253Y-15410198D01*
X9190063Y-15324484D02*
X9209110Y-15324484D01*
X9209110Y-15324484D02*
X9228158Y-15334008D01*
X9228158Y-15334008D02*
X9237682Y-15343531D01*
X9237682Y-15343531D02*
X9247205Y-15362579D01*
X9247205Y-15362579D02*
X9256729Y-15400674D01*
X9256729Y-15400674D02*
X9256729Y-15448293D01*
X9256729Y-15448293D02*
X9247205Y-15486388D01*
X9247205Y-15486388D02*
X9237682Y-15505436D01*
X9237682Y-15505436D02*
X9228158Y-15514960D01*
X9228158Y-15514960D02*
X9209110Y-15524484D01*
X9209110Y-15524484D02*
X9190063Y-15524484D01*
X9190063Y-15524484D02*
X9171015Y-15514960D01*
X9171015Y-15514960D02*
X9161491Y-15505436D01*
X9161491Y-15505436D02*
X9151967Y-15486388D01*
X9151967Y-15486388D02*
X9142444Y-15448293D01*
X9142444Y-15448293D02*
X9142444Y-15400674D01*
X9142444Y-15400674D02*
X9151967Y-15362579D01*
X9151967Y-15362579D02*
X9161491Y-15343531D01*
X9161491Y-15343531D02*
X9171015Y-15334008D01*
X9171015Y-15334008D02*
X9190063Y-15324484D01*
X9380539Y-15324484D02*
X9399586Y-15324484D01*
X9399586Y-15324484D02*
X9418634Y-15334008D01*
X9418634Y-15334008D02*
X9428158Y-15343531D01*
X9428158Y-15343531D02*
X9437682Y-15362579D01*
X9437682Y-15362579D02*
X9447205Y-15400674D01*
X9447205Y-15400674D02*
X9447205Y-15448293D01*
X9447205Y-15448293D02*
X9437682Y-15486388D01*
X9437682Y-15486388D02*
X9428158Y-15505436D01*
X9428158Y-15505436D02*
X9418634Y-15514960D01*
X9418634Y-15514960D02*
X9399586Y-15524484D01*
X9399586Y-15524484D02*
X9380539Y-15524484D01*
X9380539Y-15524484D02*
X9361491Y-15514960D01*
X9361491Y-15514960D02*
X9351967Y-15505436D01*
X9351967Y-15505436D02*
X9342444Y-15486388D01*
X9342444Y-15486388D02*
X9332920Y-15448293D01*
X9332920Y-15448293D02*
X9332920Y-15400674D01*
X9332920Y-15400674D02*
X9342444Y-15362579D01*
X9342444Y-15362579D02*
X9351967Y-15343531D01*
X9351967Y-15343531D02*
X9361491Y-15334008D01*
X9361491Y-15334008D02*
X9380539Y-15324484D01*
X9532920Y-15524484D02*
X9532920Y-15391150D01*
X9532920Y-15410198D02*
X9542444Y-15400674D01*
X9542444Y-15400674D02*
X9561491Y-15391150D01*
X9561491Y-15391150D02*
X9590063Y-15391150D01*
X9590063Y-15391150D02*
X9609110Y-15400674D01*
X9609110Y-15400674D02*
X9618634Y-15419722D01*
X9618634Y-15419722D02*
X9618634Y-15524484D01*
X9618634Y-15419722D02*
X9628158Y-15400674D01*
X9628158Y-15400674D02*
X9647205Y-15391150D01*
X9647205Y-15391150D02*
X9675777Y-15391150D01*
X9675777Y-15391150D02*
X9694825Y-15400674D01*
X9694825Y-15400674D02*
X9704348Y-15419722D01*
X9704348Y-15419722D02*
X9704348Y-15524484D01*
X9799586Y-15524484D02*
X9799586Y-15391150D01*
X9799586Y-15410198D02*
X9809110Y-15400674D01*
X9809110Y-15400674D02*
X9828158Y-15391150D01*
X9828158Y-15391150D02*
X9856729Y-15391150D01*
X9856729Y-15391150D02*
X9875777Y-15400674D01*
X9875777Y-15400674D02*
X9885301Y-15419722D01*
X9885301Y-15419722D02*
X9885301Y-15524484D01*
X9885301Y-15419722D02*
X9894825Y-15400674D01*
X9894825Y-15400674D02*
X9913872Y-15391150D01*
X9913872Y-15391150D02*
X9942444Y-15391150D01*
X9942444Y-15391150D02*
X9961491Y-15400674D01*
X9961491Y-15400674D02*
X9971015Y-15419722D01*
X9971015Y-15419722D02*
X9971015Y-15524484D01*
X10361491Y-15314960D02*
X10190063Y-15572103D01*
X10618634Y-15324484D02*
X10637682Y-15324484D01*
X10637682Y-15324484D02*
X10656729Y-15334008D01*
X10656729Y-15334008D02*
X10666253Y-15343531D01*
X10666253Y-15343531D02*
X10675777Y-15362579D01*
X10675777Y-15362579D02*
X10685301Y-15400674D01*
X10685301Y-15400674D02*
X10685301Y-15448293D01*
X10685301Y-15448293D02*
X10675777Y-15486388D01*
X10675777Y-15486388D02*
X10666253Y-15505436D01*
X10666253Y-15505436D02*
X10656729Y-15514960D01*
X10656729Y-15514960D02*
X10637682Y-15524484D01*
X10637682Y-15524484D02*
X10618634Y-15524484D01*
X10618634Y-15524484D02*
X10599587Y-15514960D01*
X10599587Y-15514960D02*
X10590063Y-15505436D01*
X10590063Y-15505436D02*
X10580539Y-15486388D01*
X10580539Y-15486388D02*
X10571015Y-15448293D01*
X10571015Y-15448293D02*
X10571015Y-15400674D01*
X10571015Y-15400674D02*
X10580539Y-15362579D01*
X10580539Y-15362579D02*
X10590063Y-15343531D01*
X10590063Y-15343531D02*
X10599587Y-15334008D01*
X10599587Y-15334008D02*
X10618634Y-15324484D01*
X10771015Y-15505436D02*
X10780539Y-15514960D01*
X10780539Y-15514960D02*
X10771015Y-15524484D01*
X10771015Y-15524484D02*
X10761491Y-15514960D01*
X10761491Y-15514960D02*
X10771015Y-15505436D01*
X10771015Y-15505436D02*
X10771015Y-15524484D01*
X10904348Y-15324484D02*
X10923396Y-15324484D01*
X10923396Y-15324484D02*
X10942444Y-15334008D01*
X10942444Y-15334008D02*
X10951968Y-15343531D01*
X10951968Y-15343531D02*
X10961491Y-15362579D01*
X10961491Y-15362579D02*
X10971015Y-15400674D01*
X10971015Y-15400674D02*
X10971015Y-15448293D01*
X10971015Y-15448293D02*
X10961491Y-15486388D01*
X10961491Y-15486388D02*
X10951968Y-15505436D01*
X10951968Y-15505436D02*
X10942444Y-15514960D01*
X10942444Y-15514960D02*
X10923396Y-15524484D01*
X10923396Y-15524484D02*
X10904348Y-15524484D01*
X10904348Y-15524484D02*
X10885301Y-15514960D01*
X10885301Y-15514960D02*
X10875777Y-15505436D01*
X10875777Y-15505436D02*
X10866253Y-15486388D01*
X10866253Y-15486388D02*
X10856729Y-15448293D01*
X10856729Y-15448293D02*
X10856729Y-15400674D01*
X10856729Y-15400674D02*
X10866253Y-15362579D01*
X10866253Y-15362579D02*
X10875777Y-15343531D01*
X10875777Y-15343531D02*
X10885301Y-15334008D01*
X10885301Y-15334008D02*
X10904348Y-15324484D01*
X11037682Y-15324484D02*
X11161491Y-15324484D01*
X11161491Y-15324484D02*
X11094825Y-15400674D01*
X11094825Y-15400674D02*
X11123396Y-15400674D01*
X11123396Y-15400674D02*
X11142444Y-15410198D01*
X11142444Y-15410198D02*
X11151968Y-15419722D01*
X11151968Y-15419722D02*
X11161491Y-15438769D01*
X11161491Y-15438769D02*
X11161491Y-15486388D01*
X11161491Y-15486388D02*
X11151968Y-15505436D01*
X11151968Y-15505436D02*
X11142444Y-15514960D01*
X11142444Y-15514960D02*
X11123396Y-15524484D01*
X11123396Y-15524484D02*
X11066253Y-15524484D01*
X11066253Y-15524484D02*
X11047206Y-15514960D01*
X11047206Y-15514960D02*
X11037682Y-15505436D01*
X11342444Y-15324484D02*
X11247206Y-15324484D01*
X11247206Y-15324484D02*
X11237682Y-15419722D01*
X11237682Y-15419722D02*
X11247206Y-15410198D01*
X11247206Y-15410198D02*
X11266253Y-15400674D01*
X11266253Y-15400674D02*
X11313872Y-15400674D01*
X11313872Y-15400674D02*
X11332920Y-15410198D01*
X11332920Y-15410198D02*
X11342444Y-15419722D01*
X11342444Y-15419722D02*
X11351967Y-15438769D01*
X11351967Y-15438769D02*
X11351967Y-15486388D01*
X11351967Y-15486388D02*
X11342444Y-15505436D01*
X11342444Y-15505436D02*
X11332920Y-15514960D01*
X11332920Y-15514960D02*
X11313872Y-15524484D01*
X11313872Y-15524484D02*
X11266253Y-15524484D01*
X11266253Y-15524484D02*
X11247206Y-15514960D01*
X11247206Y-15514960D02*
X11237682Y-15505436D01*
X11523396Y-15391150D02*
X11523396Y-15524484D01*
X11475777Y-15314960D02*
X11428158Y-15457817D01*
X11428158Y-15457817D02*
X11551967Y-15457817D01*
X11618634Y-15324484D02*
X11618634Y-15362579D01*
X11694825Y-15324484D02*
X11694825Y-15362579D01*
X11990063Y-15600674D02*
X11980539Y-15591150D01*
X11980539Y-15591150D02*
X11961491Y-15562579D01*
X11961491Y-15562579D02*
X11951968Y-15543531D01*
X11951968Y-15543531D02*
X11942444Y-15514960D01*
X11942444Y-15514960D02*
X11932920Y-15467341D01*
X11932920Y-15467341D02*
X11932920Y-15429246D01*
X11932920Y-15429246D02*
X11942444Y-15381627D01*
X11942444Y-15381627D02*
X11951968Y-15353055D01*
X11951968Y-15353055D02*
X11961491Y-15334008D01*
X11961491Y-15334008D02*
X11980539Y-15305436D01*
X11980539Y-15305436D02*
X11990063Y-15295912D01*
X12171015Y-15524484D02*
X12056729Y-15524484D01*
X12113872Y-15524484D02*
X12113872Y-15324484D01*
X12113872Y-15324484D02*
X12094825Y-15353055D01*
X12094825Y-15353055D02*
X12075777Y-15372103D01*
X12075777Y-15372103D02*
X12056729Y-15381627D01*
X12294825Y-15324484D02*
X12313872Y-15324484D01*
X12313872Y-15324484D02*
X12332920Y-15334008D01*
X12332920Y-15334008D02*
X12342444Y-15343531D01*
X12342444Y-15343531D02*
X12351968Y-15362579D01*
X12351968Y-15362579D02*
X12361491Y-15400674D01*
X12361491Y-15400674D02*
X12361491Y-15448293D01*
X12361491Y-15448293D02*
X12351968Y-15486388D01*
X12351968Y-15486388D02*
X12342444Y-15505436D01*
X12342444Y-15505436D02*
X12332920Y-15514960D01*
X12332920Y-15514960D02*
X12313872Y-15524484D01*
X12313872Y-15524484D02*
X12294825Y-15524484D01*
X12294825Y-15524484D02*
X12275777Y-15514960D01*
X12275777Y-15514960D02*
X12266253Y-15505436D01*
X12266253Y-15505436D02*
X12256729Y-15486388D01*
X12256729Y-15486388D02*
X12247206Y-15448293D01*
X12247206Y-15448293D02*
X12247206Y-15400674D01*
X12247206Y-15400674D02*
X12256729Y-15362579D01*
X12256729Y-15362579D02*
X12266253Y-15343531D01*
X12266253Y-15343531D02*
X12275777Y-15334008D01*
X12275777Y-15334008D02*
X12294825Y-15324484D01*
X12599587Y-15524484D02*
X12599587Y-15324484D01*
X12685301Y-15524484D02*
X12685301Y-15419722D01*
X12685301Y-15419722D02*
X12675777Y-15400674D01*
X12675777Y-15400674D02*
X12656730Y-15391150D01*
X12656730Y-15391150D02*
X12628158Y-15391150D01*
X12628158Y-15391150D02*
X12609110Y-15400674D01*
X12609110Y-15400674D02*
X12599587Y-15410198D01*
X12809110Y-15524484D02*
X12790063Y-15514960D01*
X12790063Y-15514960D02*
X12780539Y-15505436D01*
X12780539Y-15505436D02*
X12771015Y-15486388D01*
X12771015Y-15486388D02*
X12771015Y-15429246D01*
X12771015Y-15429246D02*
X12780539Y-15410198D01*
X12780539Y-15410198D02*
X12790063Y-15400674D01*
X12790063Y-15400674D02*
X12809110Y-15391150D01*
X12809110Y-15391150D02*
X12837682Y-15391150D01*
X12837682Y-15391150D02*
X12856730Y-15400674D01*
X12856730Y-15400674D02*
X12866253Y-15410198D01*
X12866253Y-15410198D02*
X12875777Y-15429246D01*
X12875777Y-15429246D02*
X12875777Y-15486388D01*
X12875777Y-15486388D02*
X12866253Y-15505436D01*
X12866253Y-15505436D02*
X12856730Y-15514960D01*
X12856730Y-15514960D02*
X12837682Y-15524484D01*
X12837682Y-15524484D02*
X12809110Y-15524484D01*
X12990063Y-15524484D02*
X12971015Y-15514960D01*
X12971015Y-15514960D02*
X12961491Y-15495912D01*
X12961491Y-15495912D02*
X12961491Y-15324484D01*
X13142444Y-15514960D02*
X13123396Y-15524484D01*
X13123396Y-15524484D02*
X13085301Y-15524484D01*
X13085301Y-15524484D02*
X13066253Y-15514960D01*
X13066253Y-15514960D02*
X13056730Y-15495912D01*
X13056730Y-15495912D02*
X13056730Y-15419722D01*
X13056730Y-15419722D02*
X13066253Y-15400674D01*
X13066253Y-15400674D02*
X13085301Y-15391150D01*
X13085301Y-15391150D02*
X13123396Y-15391150D01*
X13123396Y-15391150D02*
X13142444Y-15400674D01*
X13142444Y-15400674D02*
X13151968Y-15419722D01*
X13151968Y-15419722D02*
X13151968Y-15438769D01*
X13151968Y-15438769D02*
X13056730Y-15457817D01*
X13228158Y-15514960D02*
X13247206Y-15524484D01*
X13247206Y-15524484D02*
X13285301Y-15524484D01*
X13285301Y-15524484D02*
X13304349Y-15514960D01*
X13304349Y-15514960D02*
X13313872Y-15495912D01*
X13313872Y-15495912D02*
X13313872Y-15486388D01*
X13313872Y-15486388D02*
X13304349Y-15467341D01*
X13304349Y-15467341D02*
X13285301Y-15457817D01*
X13285301Y-15457817D02*
X13256730Y-15457817D01*
X13256730Y-15457817D02*
X13237682Y-15448293D01*
X13237682Y-15448293D02*
X13228158Y-15429246D01*
X13228158Y-15429246D02*
X13228158Y-15419722D01*
X13228158Y-15419722D02*
X13237682Y-15400674D01*
X13237682Y-15400674D02*
X13256730Y-15391150D01*
X13256730Y-15391150D02*
X13285301Y-15391150D01*
X13285301Y-15391150D02*
X13304349Y-15400674D01*
X13380539Y-15600674D02*
X13390063Y-15591150D01*
X13390063Y-15591150D02*
X13409111Y-15562579D01*
X13409111Y-15562579D02*
X13418634Y-15543531D01*
X13418634Y-15543531D02*
X13428158Y-15514960D01*
X13428158Y-15514960D02*
X13437682Y-15467341D01*
X13437682Y-15467341D02*
X13437682Y-15429246D01*
X13437682Y-15429246D02*
X13428158Y-15381627D01*
X13428158Y-15381627D02*
X13418634Y-15353055D01*
X13418634Y-15353055D02*
X13409111Y-15334008D01*
X13409111Y-15334008D02*
X13390063Y-15305436D01*
X13390063Y-15305436D02*
X13380539Y-15295912D01*
D10*
X8400356Y-15732356D02*
X8400356Y-15661644D01*
X8329644Y-15661644D01*
X8329644Y-15732356D01*
X8400356Y-15732356D01*
D11*
X8780539Y-15788484D02*
X8666253Y-15788484D01*
X8723396Y-15788484D02*
X8723396Y-15588484D01*
X8723396Y-15588484D02*
X8704348Y-15617055D01*
X8704348Y-15617055D02*
X8685301Y-15636103D01*
X8685301Y-15636103D02*
X8666253Y-15645627D01*
X8866253Y-15769436D02*
X8875777Y-15778960D01*
X8875777Y-15778960D02*
X8866253Y-15788484D01*
X8866253Y-15788484D02*
X8856729Y-15778960D01*
X8856729Y-15778960D02*
X8866253Y-15769436D01*
X8866253Y-15769436D02*
X8866253Y-15788484D01*
X8999586Y-15588484D02*
X9018634Y-15588484D01*
X9018634Y-15588484D02*
X9037682Y-15598008D01*
X9037682Y-15598008D02*
X9047205Y-15607531D01*
X9047205Y-15607531D02*
X9056729Y-15626579D01*
X9056729Y-15626579D02*
X9066253Y-15664674D01*
X9066253Y-15664674D02*
X9066253Y-15712293D01*
X9066253Y-15712293D02*
X9056729Y-15750388D01*
X9056729Y-15750388D02*
X9047205Y-15769436D01*
X9047205Y-15769436D02*
X9037682Y-15778960D01*
X9037682Y-15778960D02*
X9018634Y-15788484D01*
X9018634Y-15788484D02*
X8999586Y-15788484D01*
X8999586Y-15788484D02*
X8980539Y-15778960D01*
X8980539Y-15778960D02*
X8971015Y-15769436D01*
X8971015Y-15769436D02*
X8961491Y-15750388D01*
X8961491Y-15750388D02*
X8951967Y-15712293D01*
X8951967Y-15712293D02*
X8951967Y-15664674D01*
X8951967Y-15664674D02*
X8961491Y-15626579D01*
X8961491Y-15626579D02*
X8971015Y-15607531D01*
X8971015Y-15607531D02*
X8980539Y-15598008D01*
X8980539Y-15598008D02*
X8999586Y-15588484D01*
X9190063Y-15588484D02*
X9209110Y-15588484D01*
X9209110Y-15588484D02*
X9228158Y-15598008D01*
X9228158Y-15598008D02*
X9237682Y-15607531D01*
X9237682Y-15607531D02*
X9247205Y-15626579D01*
X9247205Y-15626579D02*
X9256729Y-15664674D01*
X9256729Y-15664674D02*
X9256729Y-15712293D01*
X9256729Y-15712293D02*
X9247205Y-15750388D01*
X9247205Y-15750388D02*
X9237682Y-15769436D01*
X9237682Y-15769436D02*
X9228158Y-15778960D01*
X9228158Y-15778960D02*
X9209110Y-15788484D01*
X9209110Y-15788484D02*
X9190063Y-15788484D01*
X9190063Y-15788484D02*
X9171015Y-15778960D01*
X9171015Y-15778960D02*
X9161491Y-15769436D01*
X9161491Y-15769436D02*
X9151967Y-15750388D01*
X9151967Y-15750388D02*
X9142444Y-15712293D01*
X9142444Y-15712293D02*
X9142444Y-15664674D01*
X9142444Y-15664674D02*
X9151967Y-15626579D01*
X9151967Y-15626579D02*
X9161491Y-15607531D01*
X9161491Y-15607531D02*
X9171015Y-15598008D01*
X9171015Y-15598008D02*
X9190063Y-15588484D01*
X9380539Y-15588484D02*
X9399586Y-15588484D01*
X9399586Y-15588484D02*
X9418634Y-15598008D01*
X9418634Y-15598008D02*
X9428158Y-15607531D01*
X9428158Y-15607531D02*
X9437682Y-15626579D01*
X9437682Y-15626579D02*
X9447205Y-15664674D01*
X9447205Y-15664674D02*
X9447205Y-15712293D01*
X9447205Y-15712293D02*
X9437682Y-15750388D01*
X9437682Y-15750388D02*
X9428158Y-15769436D01*
X9428158Y-15769436D02*
X9418634Y-15778960D01*
X9418634Y-15778960D02*
X9399586Y-15788484D01*
X9399586Y-15788484D02*
X9380539Y-15788484D01*
X9380539Y-15788484D02*
X9361491Y-15778960D01*
X9361491Y-15778960D02*
X9351967Y-15769436D01*
X9351967Y-15769436D02*
X9342444Y-15750388D01*
X9342444Y-15750388D02*
X9332920Y-15712293D01*
X9332920Y-15712293D02*
X9332920Y-15664674D01*
X9332920Y-15664674D02*
X9342444Y-15626579D01*
X9342444Y-15626579D02*
X9351967Y-15607531D01*
X9351967Y-15607531D02*
X9361491Y-15598008D01*
X9361491Y-15598008D02*
X9380539Y-15588484D01*
X9532920Y-15788484D02*
X9532920Y-15655150D01*
X9532920Y-15674198D02*
X9542444Y-15664674D01*
X9542444Y-15664674D02*
X9561491Y-15655150D01*
X9561491Y-15655150D02*
X9590063Y-15655150D01*
X9590063Y-15655150D02*
X9609110Y-15664674D01*
X9609110Y-15664674D02*
X9618634Y-15683722D01*
X9618634Y-15683722D02*
X9618634Y-15788484D01*
X9618634Y-15683722D02*
X9628158Y-15664674D01*
X9628158Y-15664674D02*
X9647205Y-15655150D01*
X9647205Y-15655150D02*
X9675777Y-15655150D01*
X9675777Y-15655150D02*
X9694825Y-15664674D01*
X9694825Y-15664674D02*
X9704348Y-15683722D01*
X9704348Y-15683722D02*
X9704348Y-15788484D01*
X9799586Y-15788484D02*
X9799586Y-15655150D01*
X9799586Y-15674198D02*
X9809110Y-15664674D01*
X9809110Y-15664674D02*
X9828158Y-15655150D01*
X9828158Y-15655150D02*
X9856729Y-15655150D01*
X9856729Y-15655150D02*
X9875777Y-15664674D01*
X9875777Y-15664674D02*
X9885301Y-15683722D01*
X9885301Y-15683722D02*
X9885301Y-15788484D01*
X9885301Y-15683722D02*
X9894825Y-15664674D01*
X9894825Y-15664674D02*
X9913872Y-15655150D01*
X9913872Y-15655150D02*
X9942444Y-15655150D01*
X9942444Y-15655150D02*
X9961491Y-15664674D01*
X9961491Y-15664674D02*
X9971015Y-15683722D01*
X9971015Y-15683722D02*
X9971015Y-15788484D01*
X10361491Y-15578960D02*
X10190063Y-15836103D01*
X10618634Y-15588484D02*
X10637682Y-15588484D01*
X10637682Y-15588484D02*
X10656729Y-15598008D01*
X10656729Y-15598008D02*
X10666253Y-15607531D01*
X10666253Y-15607531D02*
X10675777Y-15626579D01*
X10675777Y-15626579D02*
X10685301Y-15664674D01*
X10685301Y-15664674D02*
X10685301Y-15712293D01*
X10685301Y-15712293D02*
X10675777Y-15750388D01*
X10675777Y-15750388D02*
X10666253Y-15769436D01*
X10666253Y-15769436D02*
X10656729Y-15778960D01*
X10656729Y-15778960D02*
X10637682Y-15788484D01*
X10637682Y-15788484D02*
X10618634Y-15788484D01*
X10618634Y-15788484D02*
X10599587Y-15778960D01*
X10599587Y-15778960D02*
X10590063Y-15769436D01*
X10590063Y-15769436D02*
X10580539Y-15750388D01*
X10580539Y-15750388D02*
X10571015Y-15712293D01*
X10571015Y-15712293D02*
X10571015Y-15664674D01*
X10571015Y-15664674D02*
X10580539Y-15626579D01*
X10580539Y-15626579D02*
X10590063Y-15607531D01*
X10590063Y-15607531D02*
X10599587Y-15598008D01*
X10599587Y-15598008D02*
X10618634Y-15588484D01*
X10771015Y-15769436D02*
X10780539Y-15778960D01*
X10780539Y-15778960D02*
X10771015Y-15788484D01*
X10771015Y-15788484D02*
X10761491Y-15778960D01*
X10761491Y-15778960D02*
X10771015Y-15769436D01*
X10771015Y-15769436D02*
X10771015Y-15788484D01*
X10904348Y-15588484D02*
X10923396Y-15588484D01*
X10923396Y-15588484D02*
X10942444Y-15598008D01*
X10942444Y-15598008D02*
X10951968Y-15607531D01*
X10951968Y-15607531D02*
X10961491Y-15626579D01*
X10961491Y-15626579D02*
X10971015Y-15664674D01*
X10971015Y-15664674D02*
X10971015Y-15712293D01*
X10971015Y-15712293D02*
X10961491Y-15750388D01*
X10961491Y-15750388D02*
X10951968Y-15769436D01*
X10951968Y-15769436D02*
X10942444Y-15778960D01*
X10942444Y-15778960D02*
X10923396Y-15788484D01*
X10923396Y-15788484D02*
X10904348Y-15788484D01*
X10904348Y-15788484D02*
X10885301Y-15778960D01*
X10885301Y-15778960D02*
X10875777Y-15769436D01*
X10875777Y-15769436D02*
X10866253Y-15750388D01*
X10866253Y-15750388D02*
X10856729Y-15712293D01*
X10856729Y-15712293D02*
X10856729Y-15664674D01*
X10856729Y-15664674D02*
X10866253Y-15626579D01*
X10866253Y-15626579D02*
X10875777Y-15607531D01*
X10875777Y-15607531D02*
X10885301Y-15598008D01*
X10885301Y-15598008D02*
X10904348Y-15588484D01*
X11037682Y-15588484D02*
X11161491Y-15588484D01*
X11161491Y-15588484D02*
X11094825Y-15664674D01*
X11094825Y-15664674D02*
X11123396Y-15664674D01*
X11123396Y-15664674D02*
X11142444Y-15674198D01*
X11142444Y-15674198D02*
X11151968Y-15683722D01*
X11151968Y-15683722D02*
X11161491Y-15702769D01*
X11161491Y-15702769D02*
X11161491Y-15750388D01*
X11161491Y-15750388D02*
X11151968Y-15769436D01*
X11151968Y-15769436D02*
X11142444Y-15778960D01*
X11142444Y-15778960D02*
X11123396Y-15788484D01*
X11123396Y-15788484D02*
X11066253Y-15788484D01*
X11066253Y-15788484D02*
X11047206Y-15778960D01*
X11047206Y-15778960D02*
X11037682Y-15769436D01*
X11256729Y-15788484D02*
X11294825Y-15788484D01*
X11294825Y-15788484D02*
X11313872Y-15778960D01*
X11313872Y-15778960D02*
X11323396Y-15769436D01*
X11323396Y-15769436D02*
X11342444Y-15740865D01*
X11342444Y-15740865D02*
X11351967Y-15702769D01*
X11351967Y-15702769D02*
X11351967Y-15626579D01*
X11351967Y-15626579D02*
X11342444Y-15607531D01*
X11342444Y-15607531D02*
X11332920Y-15598008D01*
X11332920Y-15598008D02*
X11313872Y-15588484D01*
X11313872Y-15588484D02*
X11275777Y-15588484D01*
X11275777Y-15588484D02*
X11256729Y-15598008D01*
X11256729Y-15598008D02*
X11247206Y-15607531D01*
X11247206Y-15607531D02*
X11237682Y-15626579D01*
X11237682Y-15626579D02*
X11237682Y-15674198D01*
X11237682Y-15674198D02*
X11247206Y-15693246D01*
X11247206Y-15693246D02*
X11256729Y-15702769D01*
X11256729Y-15702769D02*
X11275777Y-15712293D01*
X11275777Y-15712293D02*
X11313872Y-15712293D01*
X11313872Y-15712293D02*
X11332920Y-15702769D01*
X11332920Y-15702769D02*
X11342444Y-15693246D01*
X11342444Y-15693246D02*
X11351967Y-15674198D01*
X11523396Y-15655150D02*
X11523396Y-15788484D01*
X11475777Y-15578960D02*
X11428158Y-15721817D01*
X11428158Y-15721817D02*
X11551967Y-15721817D01*
X11618634Y-15588484D02*
X11618634Y-15626579D01*
X11694825Y-15588484D02*
X11694825Y-15626579D01*
X11990063Y-15864674D02*
X11980539Y-15855150D01*
X11980539Y-15855150D02*
X11961491Y-15826579D01*
X11961491Y-15826579D02*
X11951968Y-15807531D01*
X11951968Y-15807531D02*
X11942444Y-15778960D01*
X11942444Y-15778960D02*
X11932920Y-15731341D01*
X11932920Y-15731341D02*
X11932920Y-15693246D01*
X11932920Y-15693246D02*
X11942444Y-15645627D01*
X11942444Y-15645627D02*
X11951968Y-15617055D01*
X11951968Y-15617055D02*
X11961491Y-15598008D01*
X11961491Y-15598008D02*
X11980539Y-15569436D01*
X11980539Y-15569436D02*
X11990063Y-15559912D01*
X12056729Y-15607531D02*
X12066253Y-15598008D01*
X12066253Y-15598008D02*
X12085301Y-15588484D01*
X12085301Y-15588484D02*
X12132920Y-15588484D01*
X12132920Y-15588484D02*
X12151968Y-15598008D01*
X12151968Y-15598008D02*
X12161491Y-15607531D01*
X12161491Y-15607531D02*
X12171015Y-15626579D01*
X12171015Y-15626579D02*
X12171015Y-15645627D01*
X12171015Y-15645627D02*
X12161491Y-15674198D01*
X12161491Y-15674198D02*
X12047206Y-15788484D01*
X12047206Y-15788484D02*
X12171015Y-15788484D01*
X12266253Y-15788484D02*
X12304348Y-15788484D01*
X12304348Y-15788484D02*
X12323396Y-15778960D01*
X12323396Y-15778960D02*
X12332920Y-15769436D01*
X12332920Y-15769436D02*
X12351968Y-15740865D01*
X12351968Y-15740865D02*
X12361491Y-15702769D01*
X12361491Y-15702769D02*
X12361491Y-15626579D01*
X12361491Y-15626579D02*
X12351968Y-15607531D01*
X12351968Y-15607531D02*
X12342444Y-15598008D01*
X12342444Y-15598008D02*
X12323396Y-15588484D01*
X12323396Y-15588484D02*
X12285301Y-15588484D01*
X12285301Y-15588484D02*
X12266253Y-15598008D01*
X12266253Y-15598008D02*
X12256729Y-15607531D01*
X12256729Y-15607531D02*
X12247206Y-15626579D01*
X12247206Y-15626579D02*
X12247206Y-15674198D01*
X12247206Y-15674198D02*
X12256729Y-15693246D01*
X12256729Y-15693246D02*
X12266253Y-15702769D01*
X12266253Y-15702769D02*
X12285301Y-15712293D01*
X12285301Y-15712293D02*
X12323396Y-15712293D01*
X12323396Y-15712293D02*
X12342444Y-15702769D01*
X12342444Y-15702769D02*
X12351968Y-15693246D01*
X12351968Y-15693246D02*
X12361491Y-15674198D01*
X12599587Y-15788484D02*
X12599587Y-15588484D01*
X12685301Y-15788484D02*
X12685301Y-15683722D01*
X12685301Y-15683722D02*
X12675777Y-15664674D01*
X12675777Y-15664674D02*
X12656730Y-15655150D01*
X12656730Y-15655150D02*
X12628158Y-15655150D01*
X12628158Y-15655150D02*
X12609110Y-15664674D01*
X12609110Y-15664674D02*
X12599587Y-15674198D01*
X12809110Y-15788484D02*
X12790063Y-15778960D01*
X12790063Y-15778960D02*
X12780539Y-15769436D01*
X12780539Y-15769436D02*
X12771015Y-15750388D01*
X12771015Y-15750388D02*
X12771015Y-15693246D01*
X12771015Y-15693246D02*
X12780539Y-15674198D01*
X12780539Y-15674198D02*
X12790063Y-15664674D01*
X12790063Y-15664674D02*
X12809110Y-15655150D01*
X12809110Y-15655150D02*
X12837682Y-15655150D01*
X12837682Y-15655150D02*
X12856730Y-15664674D01*
X12856730Y-15664674D02*
X12866253Y-15674198D01*
X12866253Y-15674198D02*
X12875777Y-15693246D01*
X12875777Y-15693246D02*
X12875777Y-15750388D01*
X12875777Y-15750388D02*
X12866253Y-15769436D01*
X12866253Y-15769436D02*
X12856730Y-15778960D01*
X12856730Y-15778960D02*
X12837682Y-15788484D01*
X12837682Y-15788484D02*
X12809110Y-15788484D01*
X12990063Y-15788484D02*
X12971015Y-15778960D01*
X12971015Y-15778960D02*
X12961491Y-15759912D01*
X12961491Y-15759912D02*
X12961491Y-15588484D01*
X13142444Y-15778960D02*
X13123396Y-15788484D01*
X13123396Y-15788484D02*
X13085301Y-15788484D01*
X13085301Y-15788484D02*
X13066253Y-15778960D01*
X13066253Y-15778960D02*
X13056730Y-15759912D01*
X13056730Y-15759912D02*
X13056730Y-15683722D01*
X13056730Y-15683722D02*
X13066253Y-15664674D01*
X13066253Y-15664674D02*
X13085301Y-15655150D01*
X13085301Y-15655150D02*
X13123396Y-15655150D01*
X13123396Y-15655150D02*
X13142444Y-15664674D01*
X13142444Y-15664674D02*
X13151968Y-15683722D01*
X13151968Y-15683722D02*
X13151968Y-15702769D01*
X13151968Y-15702769D02*
X13056730Y-15721817D01*
X13228158Y-15778960D02*
X13247206Y-15788484D01*
X13247206Y-15788484D02*
X13285301Y-15788484D01*
X13285301Y-15788484D02*
X13304349Y-15778960D01*
X13304349Y-15778960D02*
X13313872Y-15759912D01*
X13313872Y-15759912D02*
X13313872Y-15750388D01*
X13313872Y-15750388D02*
X13304349Y-15731341D01*
X13304349Y-15731341D02*
X13285301Y-15721817D01*
X13285301Y-15721817D02*
X13256730Y-15721817D01*
X13256730Y-15721817D02*
X13237682Y-15712293D01*
X13237682Y-15712293D02*
X13228158Y-15693246D01*
X13228158Y-15693246D02*
X13228158Y-15683722D01*
X13228158Y-15683722D02*
X13237682Y-15664674D01*
X13237682Y-15664674D02*
X13256730Y-15655150D01*
X13256730Y-15655150D02*
X13285301Y-15655150D01*
X13285301Y-15655150D02*
X13304349Y-15664674D01*
X13380539Y-15864674D02*
X13390063Y-15855150D01*
X13390063Y-15855150D02*
X13409111Y-15826579D01*
X13409111Y-15826579D02*
X13418634Y-15807531D01*
X13418634Y-15807531D02*
X13428158Y-15778960D01*
X13428158Y-15778960D02*
X13437682Y-15731341D01*
X13437682Y-15731341D02*
X13437682Y-15693246D01*
X13437682Y-15693246D02*
X13428158Y-15645627D01*
X13428158Y-15645627D02*
X13418634Y-15617055D01*
X13418634Y-15617055D02*
X13409111Y-15598008D01*
X13409111Y-15598008D02*
X13390063Y-15569436D01*
X13390063Y-15569436D02*
X13380539Y-15559912D01*
D12*
X8364200Y-16011800D02*
X8415000Y-15961000D01*
X8364200Y-15910200D01*
X8313400Y-15961000D01*
X8364200Y-16011800D01*
D11*
X8780539Y-16052484D02*
X8666253Y-16052484D01*
X8723396Y-16052484D02*
X8723396Y-15852484D01*
X8723396Y-15852484D02*
X8704348Y-15881055D01*
X8704348Y-15881055D02*
X8685301Y-15900103D01*
X8685301Y-15900103D02*
X8666253Y-15909627D01*
X8866253Y-16033436D02*
X8875777Y-16042960D01*
X8875777Y-16042960D02*
X8866253Y-16052484D01*
X8866253Y-16052484D02*
X8856729Y-16042960D01*
X8856729Y-16042960D02*
X8866253Y-16033436D01*
X8866253Y-16033436D02*
X8866253Y-16052484D01*
X8999586Y-15852484D02*
X9018634Y-15852484D01*
X9018634Y-15852484D02*
X9037682Y-15862008D01*
X9037682Y-15862008D02*
X9047205Y-15871531D01*
X9047205Y-15871531D02*
X9056729Y-15890579D01*
X9056729Y-15890579D02*
X9066253Y-15928674D01*
X9066253Y-15928674D02*
X9066253Y-15976293D01*
X9066253Y-15976293D02*
X9056729Y-16014388D01*
X9056729Y-16014388D02*
X9047205Y-16033436D01*
X9047205Y-16033436D02*
X9037682Y-16042960D01*
X9037682Y-16042960D02*
X9018634Y-16052484D01*
X9018634Y-16052484D02*
X8999586Y-16052484D01*
X8999586Y-16052484D02*
X8980539Y-16042960D01*
X8980539Y-16042960D02*
X8971015Y-16033436D01*
X8971015Y-16033436D02*
X8961491Y-16014388D01*
X8961491Y-16014388D02*
X8951967Y-15976293D01*
X8951967Y-15976293D02*
X8951967Y-15928674D01*
X8951967Y-15928674D02*
X8961491Y-15890579D01*
X8961491Y-15890579D02*
X8971015Y-15871531D01*
X8971015Y-15871531D02*
X8980539Y-15862008D01*
X8980539Y-15862008D02*
X8999586Y-15852484D01*
X9256729Y-16052484D02*
X9142444Y-16052484D01*
X9199586Y-16052484D02*
X9199586Y-15852484D01*
X9199586Y-15852484D02*
X9180539Y-15881055D01*
X9180539Y-15881055D02*
X9161491Y-15900103D01*
X9161491Y-15900103D02*
X9142444Y-15909627D01*
X9428158Y-15852484D02*
X9390063Y-15852484D01*
X9390063Y-15852484D02*
X9371015Y-15862008D01*
X9371015Y-15862008D02*
X9361491Y-15871531D01*
X9361491Y-15871531D02*
X9342444Y-15900103D01*
X9342444Y-15900103D02*
X9332920Y-15938198D01*
X9332920Y-15938198D02*
X9332920Y-16014388D01*
X9332920Y-16014388D02*
X9342444Y-16033436D01*
X9342444Y-16033436D02*
X9351967Y-16042960D01*
X9351967Y-16042960D02*
X9371015Y-16052484D01*
X9371015Y-16052484D02*
X9409110Y-16052484D01*
X9409110Y-16052484D02*
X9428158Y-16042960D01*
X9428158Y-16042960D02*
X9437682Y-16033436D01*
X9437682Y-16033436D02*
X9447205Y-16014388D01*
X9447205Y-16014388D02*
X9447205Y-15966769D01*
X9447205Y-15966769D02*
X9437682Y-15947722D01*
X9437682Y-15947722D02*
X9428158Y-15938198D01*
X9428158Y-15938198D02*
X9409110Y-15928674D01*
X9409110Y-15928674D02*
X9371015Y-15928674D01*
X9371015Y-15928674D02*
X9351967Y-15938198D01*
X9351967Y-15938198D02*
X9342444Y-15947722D01*
X9342444Y-15947722D02*
X9332920Y-15966769D01*
X9532920Y-16052484D02*
X9532920Y-15919150D01*
X9532920Y-15938198D02*
X9542444Y-15928674D01*
X9542444Y-15928674D02*
X9561491Y-15919150D01*
X9561491Y-15919150D02*
X9590063Y-15919150D01*
X9590063Y-15919150D02*
X9609110Y-15928674D01*
X9609110Y-15928674D02*
X9618634Y-15947722D01*
X9618634Y-15947722D02*
X9618634Y-16052484D01*
X9618634Y-15947722D02*
X9628158Y-15928674D01*
X9628158Y-15928674D02*
X9647205Y-15919150D01*
X9647205Y-15919150D02*
X9675777Y-15919150D01*
X9675777Y-15919150D02*
X9694825Y-15928674D01*
X9694825Y-15928674D02*
X9704348Y-15947722D01*
X9704348Y-15947722D02*
X9704348Y-16052484D01*
X9799586Y-16052484D02*
X9799586Y-15919150D01*
X9799586Y-15938198D02*
X9809110Y-15928674D01*
X9809110Y-15928674D02*
X9828158Y-15919150D01*
X9828158Y-15919150D02*
X9856729Y-15919150D01*
X9856729Y-15919150D02*
X9875777Y-15928674D01*
X9875777Y-15928674D02*
X9885301Y-15947722D01*
X9885301Y-15947722D02*
X9885301Y-16052484D01*
X9885301Y-15947722D02*
X9894825Y-15928674D01*
X9894825Y-15928674D02*
X9913872Y-15919150D01*
X9913872Y-15919150D02*
X9942444Y-15919150D01*
X9942444Y-15919150D02*
X9961491Y-15928674D01*
X9961491Y-15928674D02*
X9971015Y-15947722D01*
X9971015Y-15947722D02*
X9971015Y-16052484D01*
X10361491Y-15842960D02*
X10190063Y-16100103D01*
X10618634Y-15852484D02*
X10637682Y-15852484D01*
X10637682Y-15852484D02*
X10656729Y-15862008D01*
X10656729Y-15862008D02*
X10666253Y-15871531D01*
X10666253Y-15871531D02*
X10675777Y-15890579D01*
X10675777Y-15890579D02*
X10685301Y-15928674D01*
X10685301Y-15928674D02*
X10685301Y-15976293D01*
X10685301Y-15976293D02*
X10675777Y-16014388D01*
X10675777Y-16014388D02*
X10666253Y-16033436D01*
X10666253Y-16033436D02*
X10656729Y-16042960D01*
X10656729Y-16042960D02*
X10637682Y-16052484D01*
X10637682Y-16052484D02*
X10618634Y-16052484D01*
X10618634Y-16052484D02*
X10599587Y-16042960D01*
X10599587Y-16042960D02*
X10590063Y-16033436D01*
X10590063Y-16033436D02*
X10580539Y-16014388D01*
X10580539Y-16014388D02*
X10571015Y-15976293D01*
X10571015Y-15976293D02*
X10571015Y-15928674D01*
X10571015Y-15928674D02*
X10580539Y-15890579D01*
X10580539Y-15890579D02*
X10590063Y-15871531D01*
X10590063Y-15871531D02*
X10599587Y-15862008D01*
X10599587Y-15862008D02*
X10618634Y-15852484D01*
X10771015Y-16033436D02*
X10780539Y-16042960D01*
X10780539Y-16042960D02*
X10771015Y-16052484D01*
X10771015Y-16052484D02*
X10761491Y-16042960D01*
X10761491Y-16042960D02*
X10771015Y-16033436D01*
X10771015Y-16033436D02*
X10771015Y-16052484D01*
X10904348Y-15852484D02*
X10923396Y-15852484D01*
X10923396Y-15852484D02*
X10942444Y-15862008D01*
X10942444Y-15862008D02*
X10951968Y-15871531D01*
X10951968Y-15871531D02*
X10961491Y-15890579D01*
X10961491Y-15890579D02*
X10971015Y-15928674D01*
X10971015Y-15928674D02*
X10971015Y-15976293D01*
X10971015Y-15976293D02*
X10961491Y-16014388D01*
X10961491Y-16014388D02*
X10951968Y-16033436D01*
X10951968Y-16033436D02*
X10942444Y-16042960D01*
X10942444Y-16042960D02*
X10923396Y-16052484D01*
X10923396Y-16052484D02*
X10904348Y-16052484D01*
X10904348Y-16052484D02*
X10885301Y-16042960D01*
X10885301Y-16042960D02*
X10875777Y-16033436D01*
X10875777Y-16033436D02*
X10866253Y-16014388D01*
X10866253Y-16014388D02*
X10856729Y-15976293D01*
X10856729Y-15976293D02*
X10856729Y-15928674D01*
X10856729Y-15928674D02*
X10866253Y-15890579D01*
X10866253Y-15890579D02*
X10875777Y-15871531D01*
X10875777Y-15871531D02*
X10885301Y-15862008D01*
X10885301Y-15862008D02*
X10904348Y-15852484D01*
X11142444Y-15919150D02*
X11142444Y-16052484D01*
X11094825Y-15842960D02*
X11047206Y-15985817D01*
X11047206Y-15985817D02*
X11171015Y-15985817D01*
X11285301Y-15852484D02*
X11304348Y-15852484D01*
X11304348Y-15852484D02*
X11323396Y-15862008D01*
X11323396Y-15862008D02*
X11332920Y-15871531D01*
X11332920Y-15871531D02*
X11342444Y-15890579D01*
X11342444Y-15890579D02*
X11351967Y-15928674D01*
X11351967Y-15928674D02*
X11351967Y-15976293D01*
X11351967Y-15976293D02*
X11342444Y-16014388D01*
X11342444Y-16014388D02*
X11332920Y-16033436D01*
X11332920Y-16033436D02*
X11323396Y-16042960D01*
X11323396Y-16042960D02*
X11304348Y-16052484D01*
X11304348Y-16052484D02*
X11285301Y-16052484D01*
X11285301Y-16052484D02*
X11266253Y-16042960D01*
X11266253Y-16042960D02*
X11256729Y-16033436D01*
X11256729Y-16033436D02*
X11247206Y-16014388D01*
X11247206Y-16014388D02*
X11237682Y-15976293D01*
X11237682Y-15976293D02*
X11237682Y-15928674D01*
X11237682Y-15928674D02*
X11247206Y-15890579D01*
X11247206Y-15890579D02*
X11256729Y-15871531D01*
X11256729Y-15871531D02*
X11266253Y-15862008D01*
X11266253Y-15862008D02*
X11285301Y-15852484D01*
X11475777Y-15852484D02*
X11494825Y-15852484D01*
X11494825Y-15852484D02*
X11513872Y-15862008D01*
X11513872Y-15862008D02*
X11523396Y-15871531D01*
X11523396Y-15871531D02*
X11532920Y-15890579D01*
X11532920Y-15890579D02*
X11542444Y-15928674D01*
X11542444Y-15928674D02*
X11542444Y-15976293D01*
X11542444Y-15976293D02*
X11532920Y-16014388D01*
X11532920Y-16014388D02*
X11523396Y-16033436D01*
X11523396Y-16033436D02*
X11513872Y-16042960D01*
X11513872Y-16042960D02*
X11494825Y-16052484D01*
X11494825Y-16052484D02*
X11475777Y-16052484D01*
X11475777Y-16052484D02*
X11456729Y-16042960D01*
X11456729Y-16042960D02*
X11447206Y-16033436D01*
X11447206Y-16033436D02*
X11437682Y-16014388D01*
X11437682Y-16014388D02*
X11428158Y-15976293D01*
X11428158Y-15976293D02*
X11428158Y-15928674D01*
X11428158Y-15928674D02*
X11437682Y-15890579D01*
X11437682Y-15890579D02*
X11447206Y-15871531D01*
X11447206Y-15871531D02*
X11456729Y-15862008D01*
X11456729Y-15862008D02*
X11475777Y-15852484D01*
X11618634Y-15852484D02*
X11618634Y-15890579D01*
X11694825Y-15852484D02*
X11694825Y-15890579D01*
X11990063Y-16128674D02*
X11980539Y-16119150D01*
X11980539Y-16119150D02*
X11961491Y-16090579D01*
X11961491Y-16090579D02*
X11951968Y-16071531D01*
X11951968Y-16071531D02*
X11942444Y-16042960D01*
X11942444Y-16042960D02*
X11932920Y-15995341D01*
X11932920Y-15995341D02*
X11932920Y-15957246D01*
X11932920Y-15957246D02*
X11942444Y-15909627D01*
X11942444Y-15909627D02*
X11951968Y-15881055D01*
X11951968Y-15881055D02*
X11961491Y-15862008D01*
X11961491Y-15862008D02*
X11980539Y-15833436D01*
X11980539Y-15833436D02*
X11990063Y-15823912D01*
X12151968Y-15919150D02*
X12151968Y-16052484D01*
X12104348Y-15842960D02*
X12056729Y-15985817D01*
X12056729Y-15985817D02*
X12180539Y-15985817D01*
X12285301Y-15938198D02*
X12266253Y-15928674D01*
X12266253Y-15928674D02*
X12256729Y-15919150D01*
X12256729Y-15919150D02*
X12247206Y-15900103D01*
X12247206Y-15900103D02*
X12247206Y-15890579D01*
X12247206Y-15890579D02*
X12256729Y-15871531D01*
X12256729Y-15871531D02*
X12266253Y-15862008D01*
X12266253Y-15862008D02*
X12285301Y-15852484D01*
X12285301Y-15852484D02*
X12323396Y-15852484D01*
X12323396Y-15852484D02*
X12342444Y-15862008D01*
X12342444Y-15862008D02*
X12351968Y-15871531D01*
X12351968Y-15871531D02*
X12361491Y-15890579D01*
X12361491Y-15890579D02*
X12361491Y-15900103D01*
X12361491Y-15900103D02*
X12351968Y-15919150D01*
X12351968Y-15919150D02*
X12342444Y-15928674D01*
X12342444Y-15928674D02*
X12323396Y-15938198D01*
X12323396Y-15938198D02*
X12285301Y-15938198D01*
X12285301Y-15938198D02*
X12266253Y-15947722D01*
X12266253Y-15947722D02*
X12256729Y-15957246D01*
X12256729Y-15957246D02*
X12247206Y-15976293D01*
X12247206Y-15976293D02*
X12247206Y-16014388D01*
X12247206Y-16014388D02*
X12256729Y-16033436D01*
X12256729Y-16033436D02*
X12266253Y-16042960D01*
X12266253Y-16042960D02*
X12285301Y-16052484D01*
X12285301Y-16052484D02*
X12323396Y-16052484D01*
X12323396Y-16052484D02*
X12342444Y-16042960D01*
X12342444Y-16042960D02*
X12351968Y-16033436D01*
X12351968Y-16033436D02*
X12361491Y-16014388D01*
X12361491Y-16014388D02*
X12361491Y-15976293D01*
X12361491Y-15976293D02*
X12351968Y-15957246D01*
X12351968Y-15957246D02*
X12342444Y-15947722D01*
X12342444Y-15947722D02*
X12323396Y-15938198D01*
X12599587Y-16052484D02*
X12599587Y-15852484D01*
X12685301Y-16052484D02*
X12685301Y-15947722D01*
X12685301Y-15947722D02*
X12675777Y-15928674D01*
X12675777Y-15928674D02*
X12656730Y-15919150D01*
X12656730Y-15919150D02*
X12628158Y-15919150D01*
X12628158Y-15919150D02*
X12609110Y-15928674D01*
X12609110Y-15928674D02*
X12599587Y-15938198D01*
X12809110Y-16052484D02*
X12790063Y-16042960D01*
X12790063Y-16042960D02*
X12780539Y-16033436D01*
X12780539Y-16033436D02*
X12771015Y-16014388D01*
X12771015Y-16014388D02*
X12771015Y-15957246D01*
X12771015Y-15957246D02*
X12780539Y-15938198D01*
X12780539Y-15938198D02*
X12790063Y-15928674D01*
X12790063Y-15928674D02*
X12809110Y-15919150D01*
X12809110Y-15919150D02*
X12837682Y-15919150D01*
X12837682Y-15919150D02*
X12856730Y-15928674D01*
X12856730Y-15928674D02*
X12866253Y-15938198D01*
X12866253Y-15938198D02*
X12875777Y-15957246D01*
X12875777Y-15957246D02*
X12875777Y-16014388D01*
X12875777Y-16014388D02*
X12866253Y-16033436D01*
X12866253Y-16033436D02*
X12856730Y-16042960D01*
X12856730Y-16042960D02*
X12837682Y-16052484D01*
X12837682Y-16052484D02*
X12809110Y-16052484D01*
X12990063Y-16052484D02*
X12971015Y-16042960D01*
X12971015Y-16042960D02*
X12961491Y-16023912D01*
X12961491Y-16023912D02*
X12961491Y-15852484D01*
X13142444Y-16042960D02*
X13123396Y-16052484D01*
X13123396Y-16052484D02*
X13085301Y-16052484D01*
X13085301Y-16052484D02*
X13066253Y-16042960D01*
X13066253Y-16042960D02*
X13056730Y-16023912D01*
X13056730Y-16023912D02*
X13056730Y-15947722D01*
X13056730Y-15947722D02*
X13066253Y-15928674D01*
X13066253Y-15928674D02*
X13085301Y-15919150D01*
X13085301Y-15919150D02*
X13123396Y-15919150D01*
X13123396Y-15919150D02*
X13142444Y-15928674D01*
X13142444Y-15928674D02*
X13151968Y-15947722D01*
X13151968Y-15947722D02*
X13151968Y-15966769D01*
X13151968Y-15966769D02*
X13056730Y-15985817D01*
X13228158Y-16042960D02*
X13247206Y-16052484D01*
X13247206Y-16052484D02*
X13285301Y-16052484D01*
X13285301Y-16052484D02*
X13304349Y-16042960D01*
X13304349Y-16042960D02*
X13313872Y-16023912D01*
X13313872Y-16023912D02*
X13313872Y-16014388D01*
X13313872Y-16014388D02*
X13304349Y-15995341D01*
X13304349Y-15995341D02*
X13285301Y-15985817D01*
X13285301Y-15985817D02*
X13256730Y-15985817D01*
X13256730Y-15985817D02*
X13237682Y-15976293D01*
X13237682Y-15976293D02*
X13228158Y-15957246D01*
X13228158Y-15957246D02*
X13228158Y-15947722D01*
X13228158Y-15947722D02*
X13237682Y-15928674D01*
X13237682Y-15928674D02*
X13256730Y-15919150D01*
X13256730Y-15919150D02*
X13285301Y-15919150D01*
X13285301Y-15919150D02*
X13304349Y-15928674D01*
X13380539Y-16128674D02*
X13390063Y-16119150D01*
X13390063Y-16119150D02*
X13409111Y-16090579D01*
X13409111Y-16090579D02*
X13418634Y-16071531D01*
X13418634Y-16071531D02*
X13428158Y-16042960D01*
X13428158Y-16042960D02*
X13437682Y-15995341D01*
X13437682Y-15995341D02*
X13437682Y-15957246D01*
X13437682Y-15957246D02*
X13428158Y-15909627D01*
X13428158Y-15909627D02*
X13418634Y-15881055D01*
X13418634Y-15881055D02*
X13409111Y-15862008D01*
X13409111Y-15862008D02*
X13390063Y-15833436D01*
X13390063Y-15833436D02*
X13380539Y-15823912D01*
D13*
X8313000Y-16174000D02*
X8415000Y-16276000D01*
X8415000Y-16174000D02*
X8313000Y-16276000D01*
X8415000Y-16225000D02*
G75*
G02*
X8313000Y-16225000I-51000J0D01*
G01*
X8313000Y-16225000D02*
G75*
G02*
X8415000Y-16225000I51000J0D01*
G01*
D11*
X8780539Y-16316484D02*
X8666253Y-16316484D01*
X8723396Y-16316484D02*
X8723396Y-16116484D01*
X8723396Y-16116484D02*
X8704348Y-16145055D01*
X8704348Y-16145055D02*
X8685301Y-16164103D01*
X8685301Y-16164103D02*
X8666253Y-16173627D01*
X8866253Y-16297436D02*
X8875777Y-16306960D01*
X8875777Y-16306960D02*
X8866253Y-16316484D01*
X8866253Y-16316484D02*
X8856729Y-16306960D01*
X8856729Y-16306960D02*
X8866253Y-16297436D01*
X8866253Y-16297436D02*
X8866253Y-16316484D01*
X8999586Y-16116484D02*
X9018634Y-16116484D01*
X9018634Y-16116484D02*
X9037682Y-16126008D01*
X9037682Y-16126008D02*
X9047205Y-16135531D01*
X9047205Y-16135531D02*
X9056729Y-16154579D01*
X9056729Y-16154579D02*
X9066253Y-16192674D01*
X9066253Y-16192674D02*
X9066253Y-16240293D01*
X9066253Y-16240293D02*
X9056729Y-16278388D01*
X9056729Y-16278388D02*
X9047205Y-16297436D01*
X9047205Y-16297436D02*
X9037682Y-16306960D01*
X9037682Y-16306960D02*
X9018634Y-16316484D01*
X9018634Y-16316484D02*
X8999586Y-16316484D01*
X8999586Y-16316484D02*
X8980539Y-16306960D01*
X8980539Y-16306960D02*
X8971015Y-16297436D01*
X8971015Y-16297436D02*
X8961491Y-16278388D01*
X8961491Y-16278388D02*
X8951967Y-16240293D01*
X8951967Y-16240293D02*
X8951967Y-16192674D01*
X8951967Y-16192674D02*
X8961491Y-16154579D01*
X8961491Y-16154579D02*
X8971015Y-16135531D01*
X8971015Y-16135531D02*
X8980539Y-16126008D01*
X8980539Y-16126008D02*
X8999586Y-16116484D01*
X9142444Y-16135531D02*
X9151967Y-16126008D01*
X9151967Y-16126008D02*
X9171015Y-16116484D01*
X9171015Y-16116484D02*
X9218634Y-16116484D01*
X9218634Y-16116484D02*
X9237682Y-16126008D01*
X9237682Y-16126008D02*
X9247205Y-16135531D01*
X9247205Y-16135531D02*
X9256729Y-16154579D01*
X9256729Y-16154579D02*
X9256729Y-16173627D01*
X9256729Y-16173627D02*
X9247205Y-16202198D01*
X9247205Y-16202198D02*
X9132920Y-16316484D01*
X9132920Y-16316484D02*
X9256729Y-16316484D01*
X9380539Y-16116484D02*
X9399586Y-16116484D01*
X9399586Y-16116484D02*
X9418634Y-16126008D01*
X9418634Y-16126008D02*
X9428158Y-16135531D01*
X9428158Y-16135531D02*
X9437682Y-16154579D01*
X9437682Y-16154579D02*
X9447205Y-16192674D01*
X9447205Y-16192674D02*
X9447205Y-16240293D01*
X9447205Y-16240293D02*
X9437682Y-16278388D01*
X9437682Y-16278388D02*
X9428158Y-16297436D01*
X9428158Y-16297436D02*
X9418634Y-16306960D01*
X9418634Y-16306960D02*
X9399586Y-16316484D01*
X9399586Y-16316484D02*
X9380539Y-16316484D01*
X9380539Y-16316484D02*
X9361491Y-16306960D01*
X9361491Y-16306960D02*
X9351967Y-16297436D01*
X9351967Y-16297436D02*
X9342444Y-16278388D01*
X9342444Y-16278388D02*
X9332920Y-16240293D01*
X9332920Y-16240293D02*
X9332920Y-16192674D01*
X9332920Y-16192674D02*
X9342444Y-16154579D01*
X9342444Y-16154579D02*
X9351967Y-16135531D01*
X9351967Y-16135531D02*
X9361491Y-16126008D01*
X9361491Y-16126008D02*
X9380539Y-16116484D01*
X9532920Y-16316484D02*
X9532920Y-16183150D01*
X9532920Y-16202198D02*
X9542444Y-16192674D01*
X9542444Y-16192674D02*
X9561491Y-16183150D01*
X9561491Y-16183150D02*
X9590063Y-16183150D01*
X9590063Y-16183150D02*
X9609110Y-16192674D01*
X9609110Y-16192674D02*
X9618634Y-16211722D01*
X9618634Y-16211722D02*
X9618634Y-16316484D01*
X9618634Y-16211722D02*
X9628158Y-16192674D01*
X9628158Y-16192674D02*
X9647205Y-16183150D01*
X9647205Y-16183150D02*
X9675777Y-16183150D01*
X9675777Y-16183150D02*
X9694825Y-16192674D01*
X9694825Y-16192674D02*
X9704348Y-16211722D01*
X9704348Y-16211722D02*
X9704348Y-16316484D01*
X9799586Y-16316484D02*
X9799586Y-16183150D01*
X9799586Y-16202198D02*
X9809110Y-16192674D01*
X9809110Y-16192674D02*
X9828158Y-16183150D01*
X9828158Y-16183150D02*
X9856729Y-16183150D01*
X9856729Y-16183150D02*
X9875777Y-16192674D01*
X9875777Y-16192674D02*
X9885301Y-16211722D01*
X9885301Y-16211722D02*
X9885301Y-16316484D01*
X9885301Y-16211722D02*
X9894825Y-16192674D01*
X9894825Y-16192674D02*
X9913872Y-16183150D01*
X9913872Y-16183150D02*
X9942444Y-16183150D01*
X9942444Y-16183150D02*
X9961491Y-16192674D01*
X9961491Y-16192674D02*
X9971015Y-16211722D01*
X9971015Y-16211722D02*
X9971015Y-16316484D01*
X10361491Y-16106960D02*
X10190063Y-16364103D01*
X10618634Y-16116484D02*
X10637682Y-16116484D01*
X10637682Y-16116484D02*
X10656729Y-16126008D01*
X10656729Y-16126008D02*
X10666253Y-16135531D01*
X10666253Y-16135531D02*
X10675777Y-16154579D01*
X10675777Y-16154579D02*
X10685301Y-16192674D01*
X10685301Y-16192674D02*
X10685301Y-16240293D01*
X10685301Y-16240293D02*
X10675777Y-16278388D01*
X10675777Y-16278388D02*
X10666253Y-16297436D01*
X10666253Y-16297436D02*
X10656729Y-16306960D01*
X10656729Y-16306960D02*
X10637682Y-16316484D01*
X10637682Y-16316484D02*
X10618634Y-16316484D01*
X10618634Y-16316484D02*
X10599587Y-16306960D01*
X10599587Y-16306960D02*
X10590063Y-16297436D01*
X10590063Y-16297436D02*
X10580539Y-16278388D01*
X10580539Y-16278388D02*
X10571015Y-16240293D01*
X10571015Y-16240293D02*
X10571015Y-16192674D01*
X10571015Y-16192674D02*
X10580539Y-16154579D01*
X10580539Y-16154579D02*
X10590063Y-16135531D01*
X10590063Y-16135531D02*
X10599587Y-16126008D01*
X10599587Y-16126008D02*
X10618634Y-16116484D01*
X10771015Y-16297436D02*
X10780539Y-16306960D01*
X10780539Y-16306960D02*
X10771015Y-16316484D01*
X10771015Y-16316484D02*
X10761491Y-16306960D01*
X10761491Y-16306960D02*
X10771015Y-16297436D01*
X10771015Y-16297436D02*
X10771015Y-16316484D01*
X10904348Y-16116484D02*
X10923396Y-16116484D01*
X10923396Y-16116484D02*
X10942444Y-16126008D01*
X10942444Y-16126008D02*
X10951968Y-16135531D01*
X10951968Y-16135531D02*
X10961491Y-16154579D01*
X10961491Y-16154579D02*
X10971015Y-16192674D01*
X10971015Y-16192674D02*
X10971015Y-16240293D01*
X10971015Y-16240293D02*
X10961491Y-16278388D01*
X10961491Y-16278388D02*
X10951968Y-16297436D01*
X10951968Y-16297436D02*
X10942444Y-16306960D01*
X10942444Y-16306960D02*
X10923396Y-16316484D01*
X10923396Y-16316484D02*
X10904348Y-16316484D01*
X10904348Y-16316484D02*
X10885301Y-16306960D01*
X10885301Y-16306960D02*
X10875777Y-16297436D01*
X10875777Y-16297436D02*
X10866253Y-16278388D01*
X10866253Y-16278388D02*
X10856729Y-16240293D01*
X10856729Y-16240293D02*
X10856729Y-16192674D01*
X10856729Y-16192674D02*
X10866253Y-16154579D01*
X10866253Y-16154579D02*
X10875777Y-16135531D01*
X10875777Y-16135531D02*
X10885301Y-16126008D01*
X10885301Y-16126008D02*
X10904348Y-16116484D01*
X11142444Y-16183150D02*
X11142444Y-16316484D01*
X11094825Y-16106960D02*
X11047206Y-16249817D01*
X11047206Y-16249817D02*
X11171015Y-16249817D01*
X11285301Y-16116484D02*
X11304348Y-16116484D01*
X11304348Y-16116484D02*
X11323396Y-16126008D01*
X11323396Y-16126008D02*
X11332920Y-16135531D01*
X11332920Y-16135531D02*
X11342444Y-16154579D01*
X11342444Y-16154579D02*
X11351967Y-16192674D01*
X11351967Y-16192674D02*
X11351967Y-16240293D01*
X11351967Y-16240293D02*
X11342444Y-16278388D01*
X11342444Y-16278388D02*
X11332920Y-16297436D01*
X11332920Y-16297436D02*
X11323396Y-16306960D01*
X11323396Y-16306960D02*
X11304348Y-16316484D01*
X11304348Y-16316484D02*
X11285301Y-16316484D01*
X11285301Y-16316484D02*
X11266253Y-16306960D01*
X11266253Y-16306960D02*
X11256729Y-16297436D01*
X11256729Y-16297436D02*
X11247206Y-16278388D01*
X11247206Y-16278388D02*
X11237682Y-16240293D01*
X11237682Y-16240293D02*
X11237682Y-16192674D01*
X11237682Y-16192674D02*
X11247206Y-16154579D01*
X11247206Y-16154579D02*
X11256729Y-16135531D01*
X11256729Y-16135531D02*
X11266253Y-16126008D01*
X11266253Y-16126008D02*
X11285301Y-16116484D01*
X11428158Y-16135531D02*
X11437682Y-16126008D01*
X11437682Y-16126008D02*
X11456729Y-16116484D01*
X11456729Y-16116484D02*
X11504348Y-16116484D01*
X11504348Y-16116484D02*
X11523396Y-16126008D01*
X11523396Y-16126008D02*
X11532920Y-16135531D01*
X11532920Y-16135531D02*
X11542444Y-16154579D01*
X11542444Y-16154579D02*
X11542444Y-16173627D01*
X11542444Y-16173627D02*
X11532920Y-16202198D01*
X11532920Y-16202198D02*
X11418634Y-16316484D01*
X11418634Y-16316484D02*
X11542444Y-16316484D01*
X11618634Y-16116484D02*
X11618634Y-16154579D01*
X11694825Y-16116484D02*
X11694825Y-16154579D01*
X11990063Y-16392674D02*
X11980539Y-16383150D01*
X11980539Y-16383150D02*
X11961491Y-16354579D01*
X11961491Y-16354579D02*
X11951968Y-16335531D01*
X11951968Y-16335531D02*
X11942444Y-16306960D01*
X11942444Y-16306960D02*
X11932920Y-16259341D01*
X11932920Y-16259341D02*
X11932920Y-16221246D01*
X11932920Y-16221246D02*
X11942444Y-16173627D01*
X11942444Y-16173627D02*
X11951968Y-16145055D01*
X11951968Y-16145055D02*
X11961491Y-16126008D01*
X11961491Y-16126008D02*
X11980539Y-16097436D01*
X11980539Y-16097436D02*
X11990063Y-16087912D01*
X12047206Y-16116484D02*
X12171015Y-16116484D01*
X12171015Y-16116484D02*
X12104348Y-16192674D01*
X12104348Y-16192674D02*
X12132920Y-16192674D01*
X12132920Y-16192674D02*
X12151968Y-16202198D01*
X12151968Y-16202198D02*
X12161491Y-16211722D01*
X12161491Y-16211722D02*
X12171015Y-16230769D01*
X12171015Y-16230769D02*
X12171015Y-16278388D01*
X12171015Y-16278388D02*
X12161491Y-16297436D01*
X12161491Y-16297436D02*
X12151968Y-16306960D01*
X12151968Y-16306960D02*
X12132920Y-16316484D01*
X12132920Y-16316484D02*
X12075777Y-16316484D01*
X12075777Y-16316484D02*
X12056729Y-16306960D01*
X12056729Y-16306960D02*
X12047206Y-16297436D01*
X12294825Y-16116484D02*
X12313872Y-16116484D01*
X12313872Y-16116484D02*
X12332920Y-16126008D01*
X12332920Y-16126008D02*
X12342444Y-16135531D01*
X12342444Y-16135531D02*
X12351968Y-16154579D01*
X12351968Y-16154579D02*
X12361491Y-16192674D01*
X12361491Y-16192674D02*
X12361491Y-16240293D01*
X12361491Y-16240293D02*
X12351968Y-16278388D01*
X12351968Y-16278388D02*
X12342444Y-16297436D01*
X12342444Y-16297436D02*
X12332920Y-16306960D01*
X12332920Y-16306960D02*
X12313872Y-16316484D01*
X12313872Y-16316484D02*
X12294825Y-16316484D01*
X12294825Y-16316484D02*
X12275777Y-16306960D01*
X12275777Y-16306960D02*
X12266253Y-16297436D01*
X12266253Y-16297436D02*
X12256729Y-16278388D01*
X12256729Y-16278388D02*
X12247206Y-16240293D01*
X12247206Y-16240293D02*
X12247206Y-16192674D01*
X12247206Y-16192674D02*
X12256729Y-16154579D01*
X12256729Y-16154579D02*
X12266253Y-16135531D01*
X12266253Y-16135531D02*
X12275777Y-16126008D01*
X12275777Y-16126008D02*
X12294825Y-16116484D01*
X12599587Y-16316484D02*
X12599587Y-16116484D01*
X12685301Y-16316484D02*
X12685301Y-16211722D01*
X12685301Y-16211722D02*
X12675777Y-16192674D01*
X12675777Y-16192674D02*
X12656730Y-16183150D01*
X12656730Y-16183150D02*
X12628158Y-16183150D01*
X12628158Y-16183150D02*
X12609110Y-16192674D01*
X12609110Y-16192674D02*
X12599587Y-16202198D01*
X12809110Y-16316484D02*
X12790063Y-16306960D01*
X12790063Y-16306960D02*
X12780539Y-16297436D01*
X12780539Y-16297436D02*
X12771015Y-16278388D01*
X12771015Y-16278388D02*
X12771015Y-16221246D01*
X12771015Y-16221246D02*
X12780539Y-16202198D01*
X12780539Y-16202198D02*
X12790063Y-16192674D01*
X12790063Y-16192674D02*
X12809110Y-16183150D01*
X12809110Y-16183150D02*
X12837682Y-16183150D01*
X12837682Y-16183150D02*
X12856730Y-16192674D01*
X12856730Y-16192674D02*
X12866253Y-16202198D01*
X12866253Y-16202198D02*
X12875777Y-16221246D01*
X12875777Y-16221246D02*
X12875777Y-16278388D01*
X12875777Y-16278388D02*
X12866253Y-16297436D01*
X12866253Y-16297436D02*
X12856730Y-16306960D01*
X12856730Y-16306960D02*
X12837682Y-16316484D01*
X12837682Y-16316484D02*
X12809110Y-16316484D01*
X12990063Y-16316484D02*
X12971015Y-16306960D01*
X12971015Y-16306960D02*
X12961491Y-16287912D01*
X12961491Y-16287912D02*
X12961491Y-16116484D01*
X13142444Y-16306960D02*
X13123396Y-16316484D01*
X13123396Y-16316484D02*
X13085301Y-16316484D01*
X13085301Y-16316484D02*
X13066253Y-16306960D01*
X13066253Y-16306960D02*
X13056730Y-16287912D01*
X13056730Y-16287912D02*
X13056730Y-16211722D01*
X13056730Y-16211722D02*
X13066253Y-16192674D01*
X13066253Y-16192674D02*
X13085301Y-16183150D01*
X13085301Y-16183150D02*
X13123396Y-16183150D01*
X13123396Y-16183150D02*
X13142444Y-16192674D01*
X13142444Y-16192674D02*
X13151968Y-16211722D01*
X13151968Y-16211722D02*
X13151968Y-16230769D01*
X13151968Y-16230769D02*
X13056730Y-16249817D01*
X13228158Y-16306960D02*
X13247206Y-16316484D01*
X13247206Y-16316484D02*
X13285301Y-16316484D01*
X13285301Y-16316484D02*
X13304349Y-16306960D01*
X13304349Y-16306960D02*
X13313872Y-16287912D01*
X13313872Y-16287912D02*
X13313872Y-16278388D01*
X13313872Y-16278388D02*
X13304349Y-16259341D01*
X13304349Y-16259341D02*
X13285301Y-16249817D01*
X13285301Y-16249817D02*
X13256730Y-16249817D01*
X13256730Y-16249817D02*
X13237682Y-16240293D01*
X13237682Y-16240293D02*
X13228158Y-16221246D01*
X13228158Y-16221246D02*
X13228158Y-16211722D01*
X13228158Y-16211722D02*
X13237682Y-16192674D01*
X13237682Y-16192674D02*
X13256730Y-16183150D01*
X13256730Y-16183150D02*
X13285301Y-16183150D01*
X13285301Y-16183150D02*
X13304349Y-16192674D01*
X13380539Y-16392674D02*
X13390063Y-16383150D01*
X13390063Y-16383150D02*
X13409111Y-16354579D01*
X13409111Y-16354579D02*
X13418634Y-16335531D01*
X13418634Y-16335531D02*
X13428158Y-16306960D01*
X13428158Y-16306960D02*
X13437682Y-16259341D01*
X13437682Y-16259341D02*
X13437682Y-16221246D01*
X13437682Y-16221246D02*
X13428158Y-16173627D01*
X13428158Y-16173627D02*
X13418634Y-16145055D01*
X13418634Y-16145055D02*
X13409111Y-16126008D01*
X13409111Y-16126008D02*
X13390063Y-16097436D01*
X13390063Y-16097436D02*
X13380539Y-16087912D01*
D14*
X8305000Y-16434000D02*
X8415000Y-16544000D01*
X8415000Y-16434000D02*
X8305000Y-16544000D01*
X8360000Y-16434000D02*
X8360000Y-16544000D01*
X8305000Y-16489000D02*
X8415000Y-16489000D01*
D11*
X8780539Y-16580484D02*
X8666253Y-16580484D01*
X8723396Y-16580484D02*
X8723396Y-16380484D01*
X8723396Y-16380484D02*
X8704348Y-16409055D01*
X8704348Y-16409055D02*
X8685301Y-16428103D01*
X8685301Y-16428103D02*
X8666253Y-16437627D01*
X8866253Y-16561436D02*
X8875777Y-16570960D01*
X8875777Y-16570960D02*
X8866253Y-16580484D01*
X8866253Y-16580484D02*
X8856729Y-16570960D01*
X8856729Y-16570960D02*
X8866253Y-16561436D01*
X8866253Y-16561436D02*
X8866253Y-16580484D01*
X9066253Y-16580484D02*
X8951967Y-16580484D01*
X9009110Y-16580484D02*
X9009110Y-16380484D01*
X9009110Y-16380484D02*
X8990063Y-16409055D01*
X8990063Y-16409055D02*
X8971015Y-16428103D01*
X8971015Y-16428103D02*
X8951967Y-16437627D01*
X9190063Y-16380484D02*
X9209110Y-16380484D01*
X9209110Y-16380484D02*
X9228158Y-16390008D01*
X9228158Y-16390008D02*
X9237682Y-16399531D01*
X9237682Y-16399531D02*
X9247205Y-16418579D01*
X9247205Y-16418579D02*
X9256729Y-16456674D01*
X9256729Y-16456674D02*
X9256729Y-16504293D01*
X9256729Y-16504293D02*
X9247205Y-16542388D01*
X9247205Y-16542388D02*
X9237682Y-16561436D01*
X9237682Y-16561436D02*
X9228158Y-16570960D01*
X9228158Y-16570960D02*
X9209110Y-16580484D01*
X9209110Y-16580484D02*
X9190063Y-16580484D01*
X9190063Y-16580484D02*
X9171015Y-16570960D01*
X9171015Y-16570960D02*
X9161491Y-16561436D01*
X9161491Y-16561436D02*
X9151967Y-16542388D01*
X9151967Y-16542388D02*
X9142444Y-16504293D01*
X9142444Y-16504293D02*
X9142444Y-16456674D01*
X9142444Y-16456674D02*
X9151967Y-16418579D01*
X9151967Y-16418579D02*
X9161491Y-16399531D01*
X9161491Y-16399531D02*
X9171015Y-16390008D01*
X9171015Y-16390008D02*
X9190063Y-16380484D01*
X9380539Y-16380484D02*
X9399586Y-16380484D01*
X9399586Y-16380484D02*
X9418634Y-16390008D01*
X9418634Y-16390008D02*
X9428158Y-16399531D01*
X9428158Y-16399531D02*
X9437682Y-16418579D01*
X9437682Y-16418579D02*
X9447205Y-16456674D01*
X9447205Y-16456674D02*
X9447205Y-16504293D01*
X9447205Y-16504293D02*
X9437682Y-16542388D01*
X9437682Y-16542388D02*
X9428158Y-16561436D01*
X9428158Y-16561436D02*
X9418634Y-16570960D01*
X9418634Y-16570960D02*
X9399586Y-16580484D01*
X9399586Y-16580484D02*
X9380539Y-16580484D01*
X9380539Y-16580484D02*
X9361491Y-16570960D01*
X9361491Y-16570960D02*
X9351967Y-16561436D01*
X9351967Y-16561436D02*
X9342444Y-16542388D01*
X9342444Y-16542388D02*
X9332920Y-16504293D01*
X9332920Y-16504293D02*
X9332920Y-16456674D01*
X9332920Y-16456674D02*
X9342444Y-16418579D01*
X9342444Y-16418579D02*
X9351967Y-16399531D01*
X9351967Y-16399531D02*
X9361491Y-16390008D01*
X9361491Y-16390008D02*
X9380539Y-16380484D01*
X9532920Y-16580484D02*
X9532920Y-16447150D01*
X9532920Y-16466198D02*
X9542444Y-16456674D01*
X9542444Y-16456674D02*
X9561491Y-16447150D01*
X9561491Y-16447150D02*
X9590063Y-16447150D01*
X9590063Y-16447150D02*
X9609110Y-16456674D01*
X9609110Y-16456674D02*
X9618634Y-16475722D01*
X9618634Y-16475722D02*
X9618634Y-16580484D01*
X9618634Y-16475722D02*
X9628158Y-16456674D01*
X9628158Y-16456674D02*
X9647205Y-16447150D01*
X9647205Y-16447150D02*
X9675777Y-16447150D01*
X9675777Y-16447150D02*
X9694825Y-16456674D01*
X9694825Y-16456674D02*
X9704348Y-16475722D01*
X9704348Y-16475722D02*
X9704348Y-16580484D01*
X9799586Y-16580484D02*
X9799586Y-16447150D01*
X9799586Y-16466198D02*
X9809110Y-16456674D01*
X9809110Y-16456674D02*
X9828158Y-16447150D01*
X9828158Y-16447150D02*
X9856729Y-16447150D01*
X9856729Y-16447150D02*
X9875777Y-16456674D01*
X9875777Y-16456674D02*
X9885301Y-16475722D01*
X9885301Y-16475722D02*
X9885301Y-16580484D01*
X9885301Y-16475722D02*
X9894825Y-16456674D01*
X9894825Y-16456674D02*
X9913872Y-16447150D01*
X9913872Y-16447150D02*
X9942444Y-16447150D01*
X9942444Y-16447150D02*
X9961491Y-16456674D01*
X9961491Y-16456674D02*
X9971015Y-16475722D01*
X9971015Y-16475722D02*
X9971015Y-16580484D01*
X10361491Y-16370960D02*
X10190063Y-16628103D01*
X10618634Y-16380484D02*
X10637682Y-16380484D01*
X10637682Y-16380484D02*
X10656729Y-16390008D01*
X10656729Y-16390008D02*
X10666253Y-16399531D01*
X10666253Y-16399531D02*
X10675777Y-16418579D01*
X10675777Y-16418579D02*
X10685301Y-16456674D01*
X10685301Y-16456674D02*
X10685301Y-16504293D01*
X10685301Y-16504293D02*
X10675777Y-16542388D01*
X10675777Y-16542388D02*
X10666253Y-16561436D01*
X10666253Y-16561436D02*
X10656729Y-16570960D01*
X10656729Y-16570960D02*
X10637682Y-16580484D01*
X10637682Y-16580484D02*
X10618634Y-16580484D01*
X10618634Y-16580484D02*
X10599587Y-16570960D01*
X10599587Y-16570960D02*
X10590063Y-16561436D01*
X10590063Y-16561436D02*
X10580539Y-16542388D01*
X10580539Y-16542388D02*
X10571015Y-16504293D01*
X10571015Y-16504293D02*
X10571015Y-16456674D01*
X10571015Y-16456674D02*
X10580539Y-16418579D01*
X10580539Y-16418579D02*
X10590063Y-16399531D01*
X10590063Y-16399531D02*
X10599587Y-16390008D01*
X10599587Y-16390008D02*
X10618634Y-16380484D01*
X10771015Y-16561436D02*
X10780539Y-16570960D01*
X10780539Y-16570960D02*
X10771015Y-16580484D01*
X10771015Y-16580484D02*
X10761491Y-16570960D01*
X10761491Y-16570960D02*
X10771015Y-16561436D01*
X10771015Y-16561436D02*
X10771015Y-16580484D01*
X10904348Y-16380484D02*
X10923396Y-16380484D01*
X10923396Y-16380484D02*
X10942444Y-16390008D01*
X10942444Y-16390008D02*
X10951968Y-16399531D01*
X10951968Y-16399531D02*
X10961491Y-16418579D01*
X10961491Y-16418579D02*
X10971015Y-16456674D01*
X10971015Y-16456674D02*
X10971015Y-16504293D01*
X10971015Y-16504293D02*
X10961491Y-16542388D01*
X10961491Y-16542388D02*
X10951968Y-16561436D01*
X10951968Y-16561436D02*
X10942444Y-16570960D01*
X10942444Y-16570960D02*
X10923396Y-16580484D01*
X10923396Y-16580484D02*
X10904348Y-16580484D01*
X10904348Y-16580484D02*
X10885301Y-16570960D01*
X10885301Y-16570960D02*
X10875777Y-16561436D01*
X10875777Y-16561436D02*
X10866253Y-16542388D01*
X10866253Y-16542388D02*
X10856729Y-16504293D01*
X10856729Y-16504293D02*
X10856729Y-16456674D01*
X10856729Y-16456674D02*
X10866253Y-16418579D01*
X10866253Y-16418579D02*
X10875777Y-16399531D01*
X10875777Y-16399531D02*
X10885301Y-16390008D01*
X10885301Y-16390008D02*
X10904348Y-16380484D01*
X11142444Y-16447150D02*
X11142444Y-16580484D01*
X11094825Y-16370960D02*
X11047206Y-16513817D01*
X11047206Y-16513817D02*
X11171015Y-16513817D01*
X11228158Y-16380484D02*
X11351967Y-16380484D01*
X11351967Y-16380484D02*
X11285301Y-16456674D01*
X11285301Y-16456674D02*
X11313872Y-16456674D01*
X11313872Y-16456674D02*
X11332920Y-16466198D01*
X11332920Y-16466198D02*
X11342444Y-16475722D01*
X11342444Y-16475722D02*
X11351967Y-16494769D01*
X11351967Y-16494769D02*
X11351967Y-16542388D01*
X11351967Y-16542388D02*
X11342444Y-16561436D01*
X11342444Y-16561436D02*
X11332920Y-16570960D01*
X11332920Y-16570960D02*
X11313872Y-16580484D01*
X11313872Y-16580484D02*
X11256729Y-16580484D01*
X11256729Y-16580484D02*
X11237682Y-16570960D01*
X11237682Y-16570960D02*
X11228158Y-16561436D01*
X11418634Y-16380484D02*
X11542444Y-16380484D01*
X11542444Y-16380484D02*
X11475777Y-16456674D01*
X11475777Y-16456674D02*
X11504348Y-16456674D01*
X11504348Y-16456674D02*
X11523396Y-16466198D01*
X11523396Y-16466198D02*
X11532920Y-16475722D01*
X11532920Y-16475722D02*
X11542444Y-16494769D01*
X11542444Y-16494769D02*
X11542444Y-16542388D01*
X11542444Y-16542388D02*
X11532920Y-16561436D01*
X11532920Y-16561436D02*
X11523396Y-16570960D01*
X11523396Y-16570960D02*
X11504348Y-16580484D01*
X11504348Y-16580484D02*
X11447206Y-16580484D01*
X11447206Y-16580484D02*
X11428158Y-16570960D01*
X11428158Y-16570960D02*
X11418634Y-16561436D01*
X11618634Y-16380484D02*
X11618634Y-16418579D01*
X11694825Y-16380484D02*
X11694825Y-16418579D01*
X11990063Y-16656674D02*
X11980539Y-16647150D01*
X11980539Y-16647150D02*
X11961491Y-16618579D01*
X11961491Y-16618579D02*
X11951968Y-16599531D01*
X11951968Y-16599531D02*
X11942444Y-16570960D01*
X11942444Y-16570960D02*
X11932920Y-16523341D01*
X11932920Y-16523341D02*
X11932920Y-16485246D01*
X11932920Y-16485246D02*
X11942444Y-16437627D01*
X11942444Y-16437627D02*
X11951968Y-16409055D01*
X11951968Y-16409055D02*
X11961491Y-16390008D01*
X11961491Y-16390008D02*
X11980539Y-16361436D01*
X11980539Y-16361436D02*
X11990063Y-16351912D01*
X12056729Y-16399531D02*
X12066253Y-16390008D01*
X12066253Y-16390008D02*
X12085301Y-16380484D01*
X12085301Y-16380484D02*
X12132920Y-16380484D01*
X12132920Y-16380484D02*
X12151968Y-16390008D01*
X12151968Y-16390008D02*
X12161491Y-16399531D01*
X12161491Y-16399531D02*
X12171015Y-16418579D01*
X12171015Y-16418579D02*
X12171015Y-16437627D01*
X12171015Y-16437627D02*
X12161491Y-16466198D01*
X12161491Y-16466198D02*
X12047206Y-16580484D01*
X12047206Y-16580484D02*
X12171015Y-16580484D01*
X12409110Y-16580484D02*
X12409110Y-16380484D01*
X12494825Y-16580484D02*
X12494825Y-16475722D01*
X12494825Y-16475722D02*
X12485301Y-16456674D01*
X12485301Y-16456674D02*
X12466253Y-16447150D01*
X12466253Y-16447150D02*
X12437682Y-16447150D01*
X12437682Y-16447150D02*
X12418634Y-16456674D01*
X12418634Y-16456674D02*
X12409110Y-16466198D01*
X12618634Y-16580484D02*
X12599587Y-16570960D01*
X12599587Y-16570960D02*
X12590063Y-16561436D01*
X12590063Y-16561436D02*
X12580539Y-16542388D01*
X12580539Y-16542388D02*
X12580539Y-16485246D01*
X12580539Y-16485246D02*
X12590063Y-16466198D01*
X12590063Y-16466198D02*
X12599587Y-16456674D01*
X12599587Y-16456674D02*
X12618634Y-16447150D01*
X12618634Y-16447150D02*
X12647206Y-16447150D01*
X12647206Y-16447150D02*
X12666253Y-16456674D01*
X12666253Y-16456674D02*
X12675777Y-16466198D01*
X12675777Y-16466198D02*
X12685301Y-16485246D01*
X12685301Y-16485246D02*
X12685301Y-16542388D01*
X12685301Y-16542388D02*
X12675777Y-16561436D01*
X12675777Y-16561436D02*
X12666253Y-16570960D01*
X12666253Y-16570960D02*
X12647206Y-16580484D01*
X12647206Y-16580484D02*
X12618634Y-16580484D01*
X12799587Y-16580484D02*
X12780539Y-16570960D01*
X12780539Y-16570960D02*
X12771015Y-16551912D01*
X12771015Y-16551912D02*
X12771015Y-16380484D01*
X12951968Y-16570960D02*
X12932920Y-16580484D01*
X12932920Y-16580484D02*
X12894825Y-16580484D01*
X12894825Y-16580484D02*
X12875777Y-16570960D01*
X12875777Y-16570960D02*
X12866253Y-16551912D01*
X12866253Y-16551912D02*
X12866253Y-16475722D01*
X12866253Y-16475722D02*
X12875777Y-16456674D01*
X12875777Y-16456674D02*
X12894825Y-16447150D01*
X12894825Y-16447150D02*
X12932920Y-16447150D01*
X12932920Y-16447150D02*
X12951968Y-16456674D01*
X12951968Y-16456674D02*
X12961491Y-16475722D01*
X12961491Y-16475722D02*
X12961491Y-16494769D01*
X12961491Y-16494769D02*
X12866253Y-16513817D01*
X13037682Y-16570960D02*
X13056730Y-16580484D01*
X13056730Y-16580484D02*
X13094825Y-16580484D01*
X13094825Y-16580484D02*
X13113872Y-16570960D01*
X13113872Y-16570960D02*
X13123396Y-16551912D01*
X13123396Y-16551912D02*
X13123396Y-16542388D01*
X13123396Y-16542388D02*
X13113872Y-16523341D01*
X13113872Y-16523341D02*
X13094825Y-16513817D01*
X13094825Y-16513817D02*
X13066253Y-16513817D01*
X13066253Y-16513817D02*
X13047206Y-16504293D01*
X13047206Y-16504293D02*
X13037682Y-16485246D01*
X13037682Y-16485246D02*
X13037682Y-16475722D01*
X13037682Y-16475722D02*
X13047206Y-16456674D01*
X13047206Y-16456674D02*
X13066253Y-16447150D01*
X13066253Y-16447150D02*
X13094825Y-16447150D01*
X13094825Y-16447150D02*
X13113872Y-16456674D01*
X13190063Y-16656674D02*
X13199587Y-16647150D01*
X13199587Y-16647150D02*
X13218634Y-16618579D01*
X13218634Y-16618579D02*
X13228158Y-16599531D01*
X13228158Y-16599531D02*
X13237682Y-16570960D01*
X13237682Y-16570960D02*
X13247206Y-16523341D01*
X13247206Y-16523341D02*
X13247206Y-16485246D01*
X13247206Y-16485246D02*
X13237682Y-16437627D01*
X13237682Y-16437627D02*
X13228158Y-16409055D01*
X13228158Y-16409055D02*
X13218634Y-16390008D01*
X13218634Y-16390008D02*
X13199587Y-16361436D01*
X13199587Y-16361436D02*
X13190063Y-16351912D01*
D15*
X8285000Y-16688000D02*
X8415000Y-16818000D01*
X8415000Y-16688000D02*
X8285000Y-16818000D01*
X8395962Y-16798962D02*
X8395962Y-16707038D01*
X8304038Y-16707038D01*
X8304038Y-16798962D01*
X8395962Y-16798962D01*
D11*
X8780539Y-16844484D02*
X8666253Y-16844484D01*
X8723396Y-16844484D02*
X8723396Y-16644484D01*
X8723396Y-16644484D02*
X8704348Y-16673055D01*
X8704348Y-16673055D02*
X8685301Y-16692103D01*
X8685301Y-16692103D02*
X8666253Y-16701627D01*
X8866253Y-16825436D02*
X8875777Y-16834960D01*
X8875777Y-16834960D02*
X8866253Y-16844484D01*
X8866253Y-16844484D02*
X8856729Y-16834960D01*
X8856729Y-16834960D02*
X8866253Y-16825436D01*
X8866253Y-16825436D02*
X8866253Y-16844484D01*
X8942444Y-16644484D02*
X9066253Y-16644484D01*
X9066253Y-16644484D02*
X8999586Y-16720674D01*
X8999586Y-16720674D02*
X9028158Y-16720674D01*
X9028158Y-16720674D02*
X9047205Y-16730198D01*
X9047205Y-16730198D02*
X9056729Y-16739722D01*
X9056729Y-16739722D02*
X9066253Y-16758769D01*
X9066253Y-16758769D02*
X9066253Y-16806389D01*
X9066253Y-16806389D02*
X9056729Y-16825436D01*
X9056729Y-16825436D02*
X9047205Y-16834960D01*
X9047205Y-16834960D02*
X9028158Y-16844484D01*
X9028158Y-16844484D02*
X8971015Y-16844484D01*
X8971015Y-16844484D02*
X8951967Y-16834960D01*
X8951967Y-16834960D02*
X8942444Y-16825436D01*
X9190063Y-16644484D02*
X9209110Y-16644484D01*
X9209110Y-16644484D02*
X9228158Y-16654008D01*
X9228158Y-16654008D02*
X9237682Y-16663531D01*
X9237682Y-16663531D02*
X9247205Y-16682579D01*
X9247205Y-16682579D02*
X9256729Y-16720674D01*
X9256729Y-16720674D02*
X9256729Y-16768293D01*
X9256729Y-16768293D02*
X9247205Y-16806389D01*
X9247205Y-16806389D02*
X9237682Y-16825436D01*
X9237682Y-16825436D02*
X9228158Y-16834960D01*
X9228158Y-16834960D02*
X9209110Y-16844484D01*
X9209110Y-16844484D02*
X9190063Y-16844484D01*
X9190063Y-16844484D02*
X9171015Y-16834960D01*
X9171015Y-16834960D02*
X9161491Y-16825436D01*
X9161491Y-16825436D02*
X9151967Y-16806389D01*
X9151967Y-16806389D02*
X9142444Y-16768293D01*
X9142444Y-16768293D02*
X9142444Y-16720674D01*
X9142444Y-16720674D02*
X9151967Y-16682579D01*
X9151967Y-16682579D02*
X9161491Y-16663531D01*
X9161491Y-16663531D02*
X9171015Y-16654008D01*
X9171015Y-16654008D02*
X9190063Y-16644484D01*
X9380539Y-16644484D02*
X9399586Y-16644484D01*
X9399586Y-16644484D02*
X9418634Y-16654008D01*
X9418634Y-16654008D02*
X9428158Y-16663531D01*
X9428158Y-16663531D02*
X9437682Y-16682579D01*
X9437682Y-16682579D02*
X9447205Y-16720674D01*
X9447205Y-16720674D02*
X9447205Y-16768293D01*
X9447205Y-16768293D02*
X9437682Y-16806389D01*
X9437682Y-16806389D02*
X9428158Y-16825436D01*
X9428158Y-16825436D02*
X9418634Y-16834960D01*
X9418634Y-16834960D02*
X9399586Y-16844484D01*
X9399586Y-16844484D02*
X9380539Y-16844484D01*
X9380539Y-16844484D02*
X9361491Y-16834960D01*
X9361491Y-16834960D02*
X9351967Y-16825436D01*
X9351967Y-16825436D02*
X9342444Y-16806389D01*
X9342444Y-16806389D02*
X9332920Y-16768293D01*
X9332920Y-16768293D02*
X9332920Y-16720674D01*
X9332920Y-16720674D02*
X9342444Y-16682579D01*
X9342444Y-16682579D02*
X9351967Y-16663531D01*
X9351967Y-16663531D02*
X9361491Y-16654008D01*
X9361491Y-16654008D02*
X9380539Y-16644484D01*
X9532920Y-16844484D02*
X9532920Y-16711150D01*
X9532920Y-16730198D02*
X9542444Y-16720674D01*
X9542444Y-16720674D02*
X9561491Y-16711150D01*
X9561491Y-16711150D02*
X9590063Y-16711150D01*
X9590063Y-16711150D02*
X9609110Y-16720674D01*
X9609110Y-16720674D02*
X9618634Y-16739722D01*
X9618634Y-16739722D02*
X9618634Y-16844484D01*
X9618634Y-16739722D02*
X9628158Y-16720674D01*
X9628158Y-16720674D02*
X9647205Y-16711150D01*
X9647205Y-16711150D02*
X9675777Y-16711150D01*
X9675777Y-16711150D02*
X9694825Y-16720674D01*
X9694825Y-16720674D02*
X9704348Y-16739722D01*
X9704348Y-16739722D02*
X9704348Y-16844484D01*
X9799586Y-16844484D02*
X9799586Y-16711150D01*
X9799586Y-16730198D02*
X9809110Y-16720674D01*
X9809110Y-16720674D02*
X9828158Y-16711150D01*
X9828158Y-16711150D02*
X9856729Y-16711150D01*
X9856729Y-16711150D02*
X9875777Y-16720674D01*
X9875777Y-16720674D02*
X9885301Y-16739722D01*
X9885301Y-16739722D02*
X9885301Y-16844484D01*
X9885301Y-16739722D02*
X9894825Y-16720674D01*
X9894825Y-16720674D02*
X9913872Y-16711150D01*
X9913872Y-16711150D02*
X9942444Y-16711150D01*
X9942444Y-16711150D02*
X9961491Y-16720674D01*
X9961491Y-16720674D02*
X9971015Y-16739722D01*
X9971015Y-16739722D02*
X9971015Y-16844484D01*
X10361491Y-16634960D02*
X10190063Y-16892103D01*
X10618634Y-16644484D02*
X10637682Y-16644484D01*
X10637682Y-16644484D02*
X10656729Y-16654008D01*
X10656729Y-16654008D02*
X10666253Y-16663531D01*
X10666253Y-16663531D02*
X10675777Y-16682579D01*
X10675777Y-16682579D02*
X10685301Y-16720674D01*
X10685301Y-16720674D02*
X10685301Y-16768293D01*
X10685301Y-16768293D02*
X10675777Y-16806389D01*
X10675777Y-16806389D02*
X10666253Y-16825436D01*
X10666253Y-16825436D02*
X10656729Y-16834960D01*
X10656729Y-16834960D02*
X10637682Y-16844484D01*
X10637682Y-16844484D02*
X10618634Y-16844484D01*
X10618634Y-16844484D02*
X10599587Y-16834960D01*
X10599587Y-16834960D02*
X10590063Y-16825436D01*
X10590063Y-16825436D02*
X10580539Y-16806389D01*
X10580539Y-16806389D02*
X10571015Y-16768293D01*
X10571015Y-16768293D02*
X10571015Y-16720674D01*
X10571015Y-16720674D02*
X10580539Y-16682579D01*
X10580539Y-16682579D02*
X10590063Y-16663531D01*
X10590063Y-16663531D02*
X10599587Y-16654008D01*
X10599587Y-16654008D02*
X10618634Y-16644484D01*
X10771015Y-16825436D02*
X10780539Y-16834960D01*
X10780539Y-16834960D02*
X10771015Y-16844484D01*
X10771015Y-16844484D02*
X10761491Y-16834960D01*
X10761491Y-16834960D02*
X10771015Y-16825436D01*
X10771015Y-16825436D02*
X10771015Y-16844484D01*
X10904348Y-16644484D02*
X10923396Y-16644484D01*
X10923396Y-16644484D02*
X10942444Y-16654008D01*
X10942444Y-16654008D02*
X10951968Y-16663531D01*
X10951968Y-16663531D02*
X10961491Y-16682579D01*
X10961491Y-16682579D02*
X10971015Y-16720674D01*
X10971015Y-16720674D02*
X10971015Y-16768293D01*
X10971015Y-16768293D02*
X10961491Y-16806389D01*
X10961491Y-16806389D02*
X10951968Y-16825436D01*
X10951968Y-16825436D02*
X10942444Y-16834960D01*
X10942444Y-16834960D02*
X10923396Y-16844484D01*
X10923396Y-16844484D02*
X10904348Y-16844484D01*
X10904348Y-16844484D02*
X10885301Y-16834960D01*
X10885301Y-16834960D02*
X10875777Y-16825436D01*
X10875777Y-16825436D02*
X10866253Y-16806389D01*
X10866253Y-16806389D02*
X10856729Y-16768293D01*
X10856729Y-16768293D02*
X10856729Y-16720674D01*
X10856729Y-16720674D02*
X10866253Y-16682579D01*
X10866253Y-16682579D02*
X10875777Y-16663531D01*
X10875777Y-16663531D02*
X10885301Y-16654008D01*
X10885301Y-16654008D02*
X10904348Y-16644484D01*
X11151968Y-16644484D02*
X11056729Y-16644484D01*
X11056729Y-16644484D02*
X11047206Y-16739722D01*
X11047206Y-16739722D02*
X11056729Y-16730198D01*
X11056729Y-16730198D02*
X11075777Y-16720674D01*
X11075777Y-16720674D02*
X11123396Y-16720674D01*
X11123396Y-16720674D02*
X11142444Y-16730198D01*
X11142444Y-16730198D02*
X11151968Y-16739722D01*
X11151968Y-16739722D02*
X11161491Y-16758769D01*
X11161491Y-16758769D02*
X11161491Y-16806389D01*
X11161491Y-16806389D02*
X11151968Y-16825436D01*
X11151968Y-16825436D02*
X11142444Y-16834960D01*
X11142444Y-16834960D02*
X11123396Y-16844484D01*
X11123396Y-16844484D02*
X11075777Y-16844484D01*
X11075777Y-16844484D02*
X11056729Y-16834960D01*
X11056729Y-16834960D02*
X11047206Y-16825436D01*
X11351967Y-16844484D02*
X11237682Y-16844484D01*
X11294825Y-16844484D02*
X11294825Y-16644484D01*
X11294825Y-16644484D02*
X11275777Y-16673055D01*
X11275777Y-16673055D02*
X11256729Y-16692103D01*
X11256729Y-16692103D02*
X11237682Y-16701627D01*
X11428158Y-16663531D02*
X11437682Y-16654008D01*
X11437682Y-16654008D02*
X11456729Y-16644484D01*
X11456729Y-16644484D02*
X11504348Y-16644484D01*
X11504348Y-16644484D02*
X11523396Y-16654008D01*
X11523396Y-16654008D02*
X11532920Y-16663531D01*
X11532920Y-16663531D02*
X11542444Y-16682579D01*
X11542444Y-16682579D02*
X11542444Y-16701627D01*
X11542444Y-16701627D02*
X11532920Y-16730198D01*
X11532920Y-16730198D02*
X11418634Y-16844484D01*
X11418634Y-16844484D02*
X11542444Y-16844484D01*
X11618634Y-16644484D02*
X11618634Y-16682579D01*
X11694825Y-16644484D02*
X11694825Y-16682579D01*
X11990063Y-16920674D02*
X11980539Y-16911150D01*
X11980539Y-16911150D02*
X11961491Y-16882579D01*
X11961491Y-16882579D02*
X11951968Y-16863531D01*
X11951968Y-16863531D02*
X11942444Y-16834960D01*
X11942444Y-16834960D02*
X11932920Y-16787341D01*
X11932920Y-16787341D02*
X11932920Y-16749246D01*
X11932920Y-16749246D02*
X11942444Y-16701627D01*
X11942444Y-16701627D02*
X11951968Y-16673055D01*
X11951968Y-16673055D02*
X11961491Y-16654008D01*
X11961491Y-16654008D02*
X11980539Y-16625436D01*
X11980539Y-16625436D02*
X11990063Y-16615912D01*
X12161491Y-16644484D02*
X12066253Y-16644484D01*
X12066253Y-16644484D02*
X12056729Y-16739722D01*
X12056729Y-16739722D02*
X12066253Y-16730198D01*
X12066253Y-16730198D02*
X12085301Y-16720674D01*
X12085301Y-16720674D02*
X12132920Y-16720674D01*
X12132920Y-16720674D02*
X12151968Y-16730198D01*
X12151968Y-16730198D02*
X12161491Y-16739722D01*
X12161491Y-16739722D02*
X12171015Y-16758769D01*
X12171015Y-16758769D02*
X12171015Y-16806389D01*
X12171015Y-16806389D02*
X12161491Y-16825436D01*
X12161491Y-16825436D02*
X12151968Y-16834960D01*
X12151968Y-16834960D02*
X12132920Y-16844484D01*
X12132920Y-16844484D02*
X12085301Y-16844484D01*
X12085301Y-16844484D02*
X12066253Y-16834960D01*
X12066253Y-16834960D02*
X12056729Y-16825436D01*
X12409110Y-16844484D02*
X12409110Y-16644484D01*
X12494825Y-16844484D02*
X12494825Y-16739722D01*
X12494825Y-16739722D02*
X12485301Y-16720674D01*
X12485301Y-16720674D02*
X12466253Y-16711150D01*
X12466253Y-16711150D02*
X12437682Y-16711150D01*
X12437682Y-16711150D02*
X12418634Y-16720674D01*
X12418634Y-16720674D02*
X12409110Y-16730198D01*
X12618634Y-16844484D02*
X12599587Y-16834960D01*
X12599587Y-16834960D02*
X12590063Y-16825436D01*
X12590063Y-16825436D02*
X12580539Y-16806389D01*
X12580539Y-16806389D02*
X12580539Y-16749246D01*
X12580539Y-16749246D02*
X12590063Y-16730198D01*
X12590063Y-16730198D02*
X12599587Y-16720674D01*
X12599587Y-16720674D02*
X12618634Y-16711150D01*
X12618634Y-16711150D02*
X12647206Y-16711150D01*
X12647206Y-16711150D02*
X12666253Y-16720674D01*
X12666253Y-16720674D02*
X12675777Y-16730198D01*
X12675777Y-16730198D02*
X12685301Y-16749246D01*
X12685301Y-16749246D02*
X12685301Y-16806389D01*
X12685301Y-16806389D02*
X12675777Y-16825436D01*
X12675777Y-16825436D02*
X12666253Y-16834960D01*
X12666253Y-16834960D02*
X12647206Y-16844484D01*
X12647206Y-16844484D02*
X12618634Y-16844484D01*
X12799587Y-16844484D02*
X12780539Y-16834960D01*
X12780539Y-16834960D02*
X12771015Y-16815912D01*
X12771015Y-16815912D02*
X12771015Y-16644484D01*
X12951968Y-16834960D02*
X12932920Y-16844484D01*
X12932920Y-16844484D02*
X12894825Y-16844484D01*
X12894825Y-16844484D02*
X12875777Y-16834960D01*
X12875777Y-16834960D02*
X12866253Y-16815912D01*
X12866253Y-16815912D02*
X12866253Y-16739722D01*
X12866253Y-16739722D02*
X12875777Y-16720674D01*
X12875777Y-16720674D02*
X12894825Y-16711150D01*
X12894825Y-16711150D02*
X12932920Y-16711150D01*
X12932920Y-16711150D02*
X12951968Y-16720674D01*
X12951968Y-16720674D02*
X12961491Y-16739722D01*
X12961491Y-16739722D02*
X12961491Y-16758769D01*
X12961491Y-16758769D02*
X12866253Y-16777817D01*
X13037682Y-16834960D02*
X13056730Y-16844484D01*
X13056730Y-16844484D02*
X13094825Y-16844484D01*
X13094825Y-16844484D02*
X13113872Y-16834960D01*
X13113872Y-16834960D02*
X13123396Y-16815912D01*
X13123396Y-16815912D02*
X13123396Y-16806389D01*
X13123396Y-16806389D02*
X13113872Y-16787341D01*
X13113872Y-16787341D02*
X13094825Y-16777817D01*
X13094825Y-16777817D02*
X13066253Y-16777817D01*
X13066253Y-16777817D02*
X13047206Y-16768293D01*
X13047206Y-16768293D02*
X13037682Y-16749246D01*
X13037682Y-16749246D02*
X13037682Y-16739722D01*
X13037682Y-16739722D02*
X13047206Y-16720674D01*
X13047206Y-16720674D02*
X13066253Y-16711150D01*
X13066253Y-16711150D02*
X13094825Y-16711150D01*
X13094825Y-16711150D02*
X13113872Y-16720674D01*
X13190063Y-16920674D02*
X13199587Y-16911150D01*
X13199587Y-16911150D02*
X13218634Y-16882579D01*
X13218634Y-16882579D02*
X13228158Y-16863531D01*
X13228158Y-16863531D02*
X13237682Y-16834960D01*
X13237682Y-16834960D02*
X13247206Y-16787341D01*
X13247206Y-16787341D02*
X13247206Y-16749246D01*
X13247206Y-16749246D02*
X13237682Y-16701627D01*
X13237682Y-16701627D02*
X13228158Y-16673055D01*
X13228158Y-16673055D02*
X13218634Y-16654008D01*
X13218634Y-16654008D02*
X13199587Y-16625436D01*
X13199587Y-16625436D02*
X13190063Y-16615912D01*
X8215000Y-16917000D02*
X8415000Y-17117000D01*
X8415000Y-16917000D02*
X8215000Y-17117000D01*
X8315000Y-17117000D02*
X8415000Y-17017000D01*
X8315000Y-16917000D01*
X8215000Y-17017000D01*
X8315000Y-17117000D01*
X8656729Y-16908484D02*
X8780539Y-16908484D01*
X8780539Y-16908484D02*
X8713872Y-16984674D01*
X8713872Y-16984674D02*
X8742444Y-16984674D01*
X8742444Y-16984674D02*
X8761491Y-16994198D01*
X8761491Y-16994198D02*
X8771015Y-17003722D01*
X8771015Y-17003722D02*
X8780539Y-17022770D01*
X8780539Y-17022770D02*
X8780539Y-17070389D01*
X8780539Y-17070389D02*
X8771015Y-17089436D01*
X8771015Y-17089436D02*
X8761491Y-17098960D01*
X8761491Y-17098960D02*
X8742444Y-17108484D01*
X8742444Y-17108484D02*
X8685301Y-17108484D01*
X8685301Y-17108484D02*
X8666253Y-17098960D01*
X8666253Y-17098960D02*
X8656729Y-17089436D01*
X8866253Y-17089436D02*
X8875777Y-17098960D01*
X8875777Y-17098960D02*
X8866253Y-17108484D01*
X8866253Y-17108484D02*
X8856729Y-17098960D01*
X8856729Y-17098960D02*
X8866253Y-17089436D01*
X8866253Y-17089436D02*
X8866253Y-17108484D01*
X8951967Y-16927531D02*
X8961491Y-16918008D01*
X8961491Y-16918008D02*
X8980539Y-16908484D01*
X8980539Y-16908484D02*
X9028158Y-16908484D01*
X9028158Y-16908484D02*
X9047205Y-16918008D01*
X9047205Y-16918008D02*
X9056729Y-16927531D01*
X9056729Y-16927531D02*
X9066253Y-16946579D01*
X9066253Y-16946579D02*
X9066253Y-16965627D01*
X9066253Y-16965627D02*
X9056729Y-16994198D01*
X9056729Y-16994198D02*
X8942444Y-17108484D01*
X8942444Y-17108484D02*
X9066253Y-17108484D01*
X9190063Y-16908484D02*
X9209110Y-16908484D01*
X9209110Y-16908484D02*
X9228158Y-16918008D01*
X9228158Y-16918008D02*
X9237682Y-16927531D01*
X9237682Y-16927531D02*
X9247205Y-16946579D01*
X9247205Y-16946579D02*
X9256729Y-16984674D01*
X9256729Y-16984674D02*
X9256729Y-17032293D01*
X9256729Y-17032293D02*
X9247205Y-17070389D01*
X9247205Y-17070389D02*
X9237682Y-17089436D01*
X9237682Y-17089436D02*
X9228158Y-17098960D01*
X9228158Y-17098960D02*
X9209110Y-17108484D01*
X9209110Y-17108484D02*
X9190063Y-17108484D01*
X9190063Y-17108484D02*
X9171015Y-17098960D01*
X9171015Y-17098960D02*
X9161491Y-17089436D01*
X9161491Y-17089436D02*
X9151967Y-17070389D01*
X9151967Y-17070389D02*
X9142444Y-17032293D01*
X9142444Y-17032293D02*
X9142444Y-16984674D01*
X9142444Y-16984674D02*
X9151967Y-16946579D01*
X9151967Y-16946579D02*
X9161491Y-16927531D01*
X9161491Y-16927531D02*
X9171015Y-16918008D01*
X9171015Y-16918008D02*
X9190063Y-16908484D01*
X9380539Y-16908484D02*
X9399586Y-16908484D01*
X9399586Y-16908484D02*
X9418634Y-16918008D01*
X9418634Y-16918008D02*
X9428158Y-16927531D01*
X9428158Y-16927531D02*
X9437682Y-16946579D01*
X9437682Y-16946579D02*
X9447205Y-16984674D01*
X9447205Y-16984674D02*
X9447205Y-17032293D01*
X9447205Y-17032293D02*
X9437682Y-17070389D01*
X9437682Y-17070389D02*
X9428158Y-17089436D01*
X9428158Y-17089436D02*
X9418634Y-17098960D01*
X9418634Y-17098960D02*
X9399586Y-17108484D01*
X9399586Y-17108484D02*
X9380539Y-17108484D01*
X9380539Y-17108484D02*
X9361491Y-17098960D01*
X9361491Y-17098960D02*
X9351967Y-17089436D01*
X9351967Y-17089436D02*
X9342444Y-17070389D01*
X9342444Y-17070389D02*
X9332920Y-17032293D01*
X9332920Y-17032293D02*
X9332920Y-16984674D01*
X9332920Y-16984674D02*
X9342444Y-16946579D01*
X9342444Y-16946579D02*
X9351967Y-16927531D01*
X9351967Y-16927531D02*
X9361491Y-16918008D01*
X9361491Y-16918008D02*
X9380539Y-16908484D01*
X9532920Y-17108484D02*
X9532920Y-16975150D01*
X9532920Y-16994198D02*
X9542444Y-16984674D01*
X9542444Y-16984674D02*
X9561491Y-16975150D01*
X9561491Y-16975150D02*
X9590063Y-16975150D01*
X9590063Y-16975150D02*
X9609110Y-16984674D01*
X9609110Y-16984674D02*
X9618634Y-17003722D01*
X9618634Y-17003722D02*
X9618634Y-17108484D01*
X9618634Y-17003722D02*
X9628158Y-16984674D01*
X9628158Y-16984674D02*
X9647205Y-16975150D01*
X9647205Y-16975150D02*
X9675777Y-16975150D01*
X9675777Y-16975150D02*
X9694825Y-16984674D01*
X9694825Y-16984674D02*
X9704348Y-17003722D01*
X9704348Y-17003722D02*
X9704348Y-17108484D01*
X9799586Y-17108484D02*
X9799586Y-16975150D01*
X9799586Y-16994198D02*
X9809110Y-16984674D01*
X9809110Y-16984674D02*
X9828158Y-16975150D01*
X9828158Y-16975150D02*
X9856729Y-16975150D01*
X9856729Y-16975150D02*
X9875777Y-16984674D01*
X9875777Y-16984674D02*
X9885301Y-17003722D01*
X9885301Y-17003722D02*
X9885301Y-17108484D01*
X9885301Y-17003722D02*
X9894825Y-16984674D01*
X9894825Y-16984674D02*
X9913872Y-16975150D01*
X9913872Y-16975150D02*
X9942444Y-16975150D01*
X9942444Y-16975150D02*
X9961491Y-16984674D01*
X9961491Y-16984674D02*
X9971015Y-17003722D01*
X9971015Y-17003722D02*
X9971015Y-17108484D01*
X10361491Y-16898960D02*
X10190063Y-17156103D01*
X10618634Y-16908484D02*
X10637682Y-16908484D01*
X10637682Y-16908484D02*
X10656729Y-16918008D01*
X10656729Y-16918008D02*
X10666253Y-16927531D01*
X10666253Y-16927531D02*
X10675777Y-16946579D01*
X10675777Y-16946579D02*
X10685301Y-16984674D01*
X10685301Y-16984674D02*
X10685301Y-17032293D01*
X10685301Y-17032293D02*
X10675777Y-17070389D01*
X10675777Y-17070389D02*
X10666253Y-17089436D01*
X10666253Y-17089436D02*
X10656729Y-17098960D01*
X10656729Y-17098960D02*
X10637682Y-17108484D01*
X10637682Y-17108484D02*
X10618634Y-17108484D01*
X10618634Y-17108484D02*
X10599587Y-17098960D01*
X10599587Y-17098960D02*
X10590063Y-17089436D01*
X10590063Y-17089436D02*
X10580539Y-17070389D01*
X10580539Y-17070389D02*
X10571015Y-17032293D01*
X10571015Y-17032293D02*
X10571015Y-16984674D01*
X10571015Y-16984674D02*
X10580539Y-16946579D01*
X10580539Y-16946579D02*
X10590063Y-16927531D01*
X10590063Y-16927531D02*
X10599587Y-16918008D01*
X10599587Y-16918008D02*
X10618634Y-16908484D01*
X10771015Y-17089436D02*
X10780539Y-17098960D01*
X10780539Y-17098960D02*
X10771015Y-17108484D01*
X10771015Y-17108484D02*
X10761491Y-17098960D01*
X10761491Y-17098960D02*
X10771015Y-17089436D01*
X10771015Y-17089436D02*
X10771015Y-17108484D01*
X10971015Y-17108484D02*
X10856729Y-17108484D01*
X10913872Y-17108484D02*
X10913872Y-16908484D01*
X10913872Y-16908484D02*
X10894825Y-16937055D01*
X10894825Y-16937055D02*
X10875777Y-16956103D01*
X10875777Y-16956103D02*
X10856729Y-16965627D01*
X11047206Y-16927531D02*
X11056729Y-16918008D01*
X11056729Y-16918008D02*
X11075777Y-16908484D01*
X11075777Y-16908484D02*
X11123396Y-16908484D01*
X11123396Y-16908484D02*
X11142444Y-16918008D01*
X11142444Y-16918008D02*
X11151968Y-16927531D01*
X11151968Y-16927531D02*
X11161491Y-16946579D01*
X11161491Y-16946579D02*
X11161491Y-16965627D01*
X11161491Y-16965627D02*
X11151968Y-16994198D01*
X11151968Y-16994198D02*
X11037682Y-17108484D01*
X11037682Y-17108484D02*
X11161491Y-17108484D01*
X11332920Y-16908484D02*
X11294825Y-16908484D01*
X11294825Y-16908484D02*
X11275777Y-16918008D01*
X11275777Y-16918008D02*
X11266253Y-16927531D01*
X11266253Y-16927531D02*
X11247206Y-16956103D01*
X11247206Y-16956103D02*
X11237682Y-16994198D01*
X11237682Y-16994198D02*
X11237682Y-17070389D01*
X11237682Y-17070389D02*
X11247206Y-17089436D01*
X11247206Y-17089436D02*
X11256729Y-17098960D01*
X11256729Y-17098960D02*
X11275777Y-17108484D01*
X11275777Y-17108484D02*
X11313872Y-17108484D01*
X11313872Y-17108484D02*
X11332920Y-17098960D01*
X11332920Y-17098960D02*
X11342444Y-17089436D01*
X11342444Y-17089436D02*
X11351967Y-17070389D01*
X11351967Y-17070389D02*
X11351967Y-17022770D01*
X11351967Y-17022770D02*
X11342444Y-17003722D01*
X11342444Y-17003722D02*
X11332920Y-16994198D01*
X11332920Y-16994198D02*
X11313872Y-16984674D01*
X11313872Y-16984674D02*
X11275777Y-16984674D01*
X11275777Y-16984674D02*
X11256729Y-16994198D01*
X11256729Y-16994198D02*
X11247206Y-17003722D01*
X11247206Y-17003722D02*
X11237682Y-17022770D01*
X11475777Y-16908484D02*
X11494825Y-16908484D01*
X11494825Y-16908484D02*
X11513872Y-16918008D01*
X11513872Y-16918008D02*
X11523396Y-16927531D01*
X11523396Y-16927531D02*
X11532920Y-16946579D01*
X11532920Y-16946579D02*
X11542444Y-16984674D01*
X11542444Y-16984674D02*
X11542444Y-17032293D01*
X11542444Y-17032293D02*
X11532920Y-17070389D01*
X11532920Y-17070389D02*
X11523396Y-17089436D01*
X11523396Y-17089436D02*
X11513872Y-17098960D01*
X11513872Y-17098960D02*
X11494825Y-17108484D01*
X11494825Y-17108484D02*
X11475777Y-17108484D01*
X11475777Y-17108484D02*
X11456729Y-17098960D01*
X11456729Y-17098960D02*
X11447206Y-17089436D01*
X11447206Y-17089436D02*
X11437682Y-17070389D01*
X11437682Y-17070389D02*
X11428158Y-17032293D01*
X11428158Y-17032293D02*
X11428158Y-16984674D01*
X11428158Y-16984674D02*
X11437682Y-16946579D01*
X11437682Y-16946579D02*
X11447206Y-16927531D01*
X11447206Y-16927531D02*
X11456729Y-16918008D01*
X11456729Y-16918008D02*
X11475777Y-16908484D01*
X11618634Y-16908484D02*
X11618634Y-16946579D01*
X11694825Y-16908484D02*
X11694825Y-16946579D01*
X11990063Y-17184674D02*
X11980539Y-17175150D01*
X11980539Y-17175150D02*
X11961491Y-17146579D01*
X11961491Y-17146579D02*
X11951968Y-17127531D01*
X11951968Y-17127531D02*
X11942444Y-17098960D01*
X11942444Y-17098960D02*
X11932920Y-17051341D01*
X11932920Y-17051341D02*
X11932920Y-17013246D01*
X11932920Y-17013246D02*
X11942444Y-16965627D01*
X11942444Y-16965627D02*
X11951968Y-16937055D01*
X11951968Y-16937055D02*
X11961491Y-16918008D01*
X11961491Y-16918008D02*
X11980539Y-16889436D01*
X11980539Y-16889436D02*
X11990063Y-16879912D01*
X12151968Y-16975150D02*
X12151968Y-17108484D01*
X12104348Y-16898960D02*
X12056729Y-17041817D01*
X12056729Y-17041817D02*
X12180539Y-17041817D01*
X12409110Y-17108484D02*
X12409110Y-16908484D01*
X12494825Y-17108484D02*
X12494825Y-17003722D01*
X12494825Y-17003722D02*
X12485301Y-16984674D01*
X12485301Y-16984674D02*
X12466253Y-16975150D01*
X12466253Y-16975150D02*
X12437682Y-16975150D01*
X12437682Y-16975150D02*
X12418634Y-16984674D01*
X12418634Y-16984674D02*
X12409110Y-16994198D01*
X12618634Y-17108484D02*
X12599587Y-17098960D01*
X12599587Y-17098960D02*
X12590063Y-17089436D01*
X12590063Y-17089436D02*
X12580539Y-17070389D01*
X12580539Y-17070389D02*
X12580539Y-17013246D01*
X12580539Y-17013246D02*
X12590063Y-16994198D01*
X12590063Y-16994198D02*
X12599587Y-16984674D01*
X12599587Y-16984674D02*
X12618634Y-16975150D01*
X12618634Y-16975150D02*
X12647206Y-16975150D01*
X12647206Y-16975150D02*
X12666253Y-16984674D01*
X12666253Y-16984674D02*
X12675777Y-16994198D01*
X12675777Y-16994198D02*
X12685301Y-17013246D01*
X12685301Y-17013246D02*
X12685301Y-17070389D01*
X12685301Y-17070389D02*
X12675777Y-17089436D01*
X12675777Y-17089436D02*
X12666253Y-17098960D01*
X12666253Y-17098960D02*
X12647206Y-17108484D01*
X12647206Y-17108484D02*
X12618634Y-17108484D01*
X12799587Y-17108484D02*
X12780539Y-17098960D01*
X12780539Y-17098960D02*
X12771015Y-17079912D01*
X12771015Y-17079912D02*
X12771015Y-16908484D01*
X12951968Y-17098960D02*
X12932920Y-17108484D01*
X12932920Y-17108484D02*
X12894825Y-17108484D01*
X12894825Y-17108484D02*
X12875777Y-17098960D01*
X12875777Y-17098960D02*
X12866253Y-17079912D01*
X12866253Y-17079912D02*
X12866253Y-17003722D01*
X12866253Y-17003722D02*
X12875777Y-16984674D01*
X12875777Y-16984674D02*
X12894825Y-16975150D01*
X12894825Y-16975150D02*
X12932920Y-16975150D01*
X12932920Y-16975150D02*
X12951968Y-16984674D01*
X12951968Y-16984674D02*
X12961491Y-17003722D01*
X12961491Y-17003722D02*
X12961491Y-17022770D01*
X12961491Y-17022770D02*
X12866253Y-17041817D01*
X13037682Y-17098960D02*
X13056730Y-17108484D01*
X13056730Y-17108484D02*
X13094825Y-17108484D01*
X13094825Y-17108484D02*
X13113872Y-17098960D01*
X13113872Y-17098960D02*
X13123396Y-17079912D01*
X13123396Y-17079912D02*
X13123396Y-17070389D01*
X13123396Y-17070389D02*
X13113872Y-17051341D01*
X13113872Y-17051341D02*
X13094825Y-17041817D01*
X13094825Y-17041817D02*
X13066253Y-17041817D01*
X13066253Y-17041817D02*
X13047206Y-17032293D01*
X13047206Y-17032293D02*
X13037682Y-17013246D01*
X13037682Y-17013246D02*
X13037682Y-17003722D01*
X13037682Y-17003722D02*
X13047206Y-16984674D01*
X13047206Y-16984674D02*
X13066253Y-16975150D01*
X13066253Y-16975150D02*
X13094825Y-16975150D01*
X13094825Y-16975150D02*
X13113872Y-16984674D01*
X13190063Y-17184674D02*
X13199587Y-17175150D01*
X13199587Y-17175150D02*
X13218634Y-17146579D01*
X13218634Y-17146579D02*
X13228158Y-17127531D01*
X13228158Y-17127531D02*
X13237682Y-17098960D01*
X13237682Y-17098960D02*
X13247206Y-17051341D01*
X13247206Y-17051341D02*
X13247206Y-17013246D01*
X13247206Y-17013246D02*
X13237682Y-16965627D01*
X13237682Y-16965627D02*
X13228158Y-16937055D01*
X13228158Y-16937055D02*
X13218634Y-16918008D01*
X13218634Y-16918008D02*
X13199587Y-16889436D01*
X13199587Y-16889436D02*
X13190063Y-16879912D01*
X13551968Y-17184674D02*
X13542444Y-17175150D01*
X13542444Y-17175150D02*
X13523396Y-17146579D01*
X13523396Y-17146579D02*
X13513872Y-17127531D01*
X13513872Y-17127531D02*
X13504349Y-17098960D01*
X13504349Y-17098960D02*
X13494825Y-17051341D01*
X13494825Y-17051341D02*
X13494825Y-17013246D01*
X13494825Y-17013246D02*
X13504349Y-16965627D01*
X13504349Y-16965627D02*
X13513872Y-16937055D01*
X13513872Y-16937055D02*
X13523396Y-16918008D01*
X13523396Y-16918008D02*
X13542444Y-16889436D01*
X13542444Y-16889436D02*
X13551968Y-16879912D01*
X13628158Y-16975150D02*
X13628158Y-17108484D01*
X13628158Y-16994198D02*
X13637682Y-16984674D01*
X13637682Y-16984674D02*
X13656730Y-16975150D01*
X13656730Y-16975150D02*
X13685301Y-16975150D01*
X13685301Y-16975150D02*
X13704349Y-16984674D01*
X13704349Y-16984674D02*
X13713872Y-17003722D01*
X13713872Y-17003722D02*
X13713872Y-17108484D01*
X13837682Y-17108484D02*
X13818634Y-17098960D01*
X13818634Y-17098960D02*
X13809111Y-17089436D01*
X13809111Y-17089436D02*
X13799587Y-17070389D01*
X13799587Y-17070389D02*
X13799587Y-17013246D01*
X13799587Y-17013246D02*
X13809111Y-16994198D01*
X13809111Y-16994198D02*
X13818634Y-16984674D01*
X13818634Y-16984674D02*
X13837682Y-16975150D01*
X13837682Y-16975150D02*
X13866253Y-16975150D01*
X13866253Y-16975150D02*
X13885301Y-16984674D01*
X13885301Y-16984674D02*
X13894825Y-16994198D01*
X13894825Y-16994198D02*
X13904349Y-17013246D01*
X13904349Y-17013246D02*
X13904349Y-17070389D01*
X13904349Y-17070389D02*
X13894825Y-17089436D01*
X13894825Y-17089436D02*
X13885301Y-17098960D01*
X13885301Y-17098960D02*
X13866253Y-17108484D01*
X13866253Y-17108484D02*
X13837682Y-17108484D01*
X13961492Y-16975150D02*
X14037682Y-16975150D01*
X13990063Y-16908484D02*
X13990063Y-17079912D01*
X13990063Y-17079912D02*
X13999587Y-17098960D01*
X13999587Y-17098960D02*
X14018634Y-17108484D01*
X14018634Y-17108484D02*
X14037682Y-17108484D01*
X14256730Y-16975150D02*
X14256730Y-17175150D01*
X14256730Y-16984674D02*
X14275777Y-16975150D01*
X14275777Y-16975150D02*
X14313873Y-16975150D01*
X14313873Y-16975150D02*
X14332920Y-16984674D01*
X14332920Y-16984674D02*
X14342444Y-16994198D01*
X14342444Y-16994198D02*
X14351968Y-17013246D01*
X14351968Y-17013246D02*
X14351968Y-17070389D01*
X14351968Y-17070389D02*
X14342444Y-17089436D01*
X14342444Y-17089436D02*
X14332920Y-17098960D01*
X14332920Y-17098960D02*
X14313873Y-17108484D01*
X14313873Y-17108484D02*
X14275777Y-17108484D01*
X14275777Y-17108484D02*
X14256730Y-17098960D01*
X14466253Y-17108484D02*
X14447206Y-17098960D01*
X14447206Y-17098960D02*
X14437682Y-17079912D01*
X14437682Y-17079912D02*
X14437682Y-16908484D01*
X14628158Y-17108484D02*
X14628158Y-17003722D01*
X14628158Y-17003722D02*
X14618634Y-16984674D01*
X14618634Y-16984674D02*
X14599587Y-16975150D01*
X14599587Y-16975150D02*
X14561492Y-16975150D01*
X14561492Y-16975150D02*
X14542444Y-16984674D01*
X14628158Y-17098960D02*
X14609111Y-17108484D01*
X14609111Y-17108484D02*
X14561492Y-17108484D01*
X14561492Y-17108484D02*
X14542444Y-17098960D01*
X14542444Y-17098960D02*
X14532920Y-17079912D01*
X14532920Y-17079912D02*
X14532920Y-17060865D01*
X14532920Y-17060865D02*
X14542444Y-17041817D01*
X14542444Y-17041817D02*
X14561492Y-17032293D01*
X14561492Y-17032293D02*
X14609111Y-17032293D01*
X14609111Y-17032293D02*
X14628158Y-17022770D01*
X14694825Y-16975150D02*
X14771015Y-16975150D01*
X14723396Y-16908484D02*
X14723396Y-17079912D01*
X14723396Y-17079912D02*
X14732920Y-17098960D01*
X14732920Y-17098960D02*
X14751968Y-17108484D01*
X14751968Y-17108484D02*
X14771015Y-17108484D01*
X14913873Y-17098960D02*
X14894825Y-17108484D01*
X14894825Y-17108484D02*
X14856730Y-17108484D01*
X14856730Y-17108484D02*
X14837682Y-17098960D01*
X14837682Y-17098960D02*
X14828158Y-17079912D01*
X14828158Y-17079912D02*
X14828158Y-17003722D01*
X14828158Y-17003722D02*
X14837682Y-16984674D01*
X14837682Y-16984674D02*
X14856730Y-16975150D01*
X14856730Y-16975150D02*
X14894825Y-16975150D01*
X14894825Y-16975150D02*
X14913873Y-16984674D01*
X14913873Y-16984674D02*
X14923396Y-17003722D01*
X14923396Y-17003722D02*
X14923396Y-17022770D01*
X14923396Y-17022770D02*
X14828158Y-17041817D01*
X15094825Y-17108484D02*
X15094825Y-16908484D01*
X15094825Y-17098960D02*
X15075777Y-17108484D01*
X15075777Y-17108484D02*
X15037682Y-17108484D01*
X15037682Y-17108484D02*
X15018634Y-17098960D01*
X15018634Y-17098960D02*
X15009111Y-17089436D01*
X15009111Y-17089436D02*
X14999587Y-17070389D01*
X14999587Y-17070389D02*
X14999587Y-17013246D01*
X14999587Y-17013246D02*
X15009111Y-16994198D01*
X15009111Y-16994198D02*
X15018634Y-16984674D01*
X15018634Y-16984674D02*
X15037682Y-16975150D01*
X15037682Y-16975150D02*
X15075777Y-16975150D01*
X15075777Y-16975150D02*
X15094825Y-16984674D01*
X15171015Y-17184674D02*
X15180539Y-17175150D01*
X15180539Y-17175150D02*
X15199587Y-17146579D01*
X15199587Y-17146579D02*
X15209111Y-17127531D01*
X15209111Y-17127531D02*
X15218634Y-17098960D01*
X15218634Y-17098960D02*
X15228158Y-17051341D01*
X15228158Y-17051341D02*
X15228158Y-17013246D01*
X15228158Y-17013246D02*
X15218634Y-16965627D01*
X15218634Y-16965627D02*
X15209111Y-16937055D01*
X15209111Y-16937055D02*
X15199587Y-16918008D01*
X15199587Y-16918008D02*
X15180539Y-16889436D01*
X15180539Y-16889436D02*
X15171015Y-16879912D01*
M02*
