%TF.GenerationSoftware,KiCad,Pcbnew,8.0.0*%
%TF.CreationDate,2024-04-26T14:48:52+07:00*%
%TF.ProjectId,tugas-akhir,74756761-732d-4616-9b68-69722e6b6963,0*%
%TF.SameCoordinates,Original*%
%TF.FileFunction,Legend,Bot*%
%TF.FilePolarity,Positive*%
%FSLAX46Y46*%
G04 Gerber Fmt 4.6, Leading zero omitted, Abs format (unit mm)*
G04 Created by KiCad (PCBNEW 8.0.0) date 2024-04-26 14:48:52*
%MOMM*%
%LPD*%
G01*
G04 APERTURE LIST*
G04 Aperture macros list*
%AMRoundRect*
0 Rectangle with rounded corners*
0 $1 Rounding radius*
0 $2 $3 $4 $5 $6 $7 $8 $9 X,Y pos of 4 corners*
0 Add a 4 corners polygon primitive as box body*
4,1,4,$2,$3,$4,$5,$6,$7,$8,$9,$2,$3,0*
0 Add four circle primitives for the rounded corners*
1,1,$1+$1,$2,$3*
1,1,$1+$1,$4,$5*
1,1,$1+$1,$6,$7*
1,1,$1+$1,$8,$9*
0 Add four rect primitives between the rounded corners*
20,1,$1+$1,$2,$3,$4,$5,0*
20,1,$1+$1,$4,$5,$6,$7,0*
20,1,$1+$1,$6,$7,$8,$9,0*
20,1,$1+$1,$8,$9,$2,$3,0*%
G04 Aperture macros list end*
%ADD10R,2.600000X2.600000*%
%ADD11C,2.600000*%
%ADD12C,1.400000*%
%ADD13O,1.400000X1.400000*%
%ADD14R,1.700000X1.700000*%
%ADD15O,1.700000X1.700000*%
%ADD16R,1.800000X1.800000*%
%ADD17C,1.800000*%
%ADD18RoundRect,0.102000X-0.762000X0.762000X-0.762000X-0.762000X0.762000X-0.762000X0.762000X0.762000X0*%
%ADD19C,1.728000*%
%ADD20RoundRect,0.102000X-1.000000X1.000000X-1.000000X-1.000000X1.000000X-1.000000X1.000000X1.000000X0*%
%ADD21C,2.204000*%
%ADD22C,3.000000*%
%ADD23C,2.500000*%
%ADD24C,3.200000*%
%ADD25R,1.050000X1.500000*%
%ADD26O,1.050000X1.500000*%
%ADD27C,1.600000*%
%ADD28RoundRect,0.102000X0.762000X-0.762000X0.762000X0.762000X-0.762000X0.762000X-0.762000X-0.762000X0*%
%ADD29R,2.540000X2.540000*%
%ADD30C,2.540000*%
%ADD31R,2.200000X2.200000*%
%ADD32O,2.200000X2.200000*%
G04 APERTURE END LIST*
%LPC*%
D10*
%TO.C,J1*%
X74345000Y-111300000D03*
D11*
X74345000Y-116380000D03*
%TD*%
D12*
%TO.C,R3*%
X182495000Y-105490000D03*
D13*
X182495000Y-100410000D03*
%TD*%
D14*
%TO.C,S3*%
X97345000Y-64510000D03*
D15*
X97345000Y-67050000D03*
X97345000Y-69590000D03*
%TD*%
D14*
%TO.C,M2*%
X78275000Y-87150000D03*
D15*
X80815000Y-87150000D03*
X83355000Y-87150000D03*
X85895000Y-87150000D03*
%TD*%
D14*
%TO.C,M3*%
X117145000Y-111800000D03*
D15*
X114605000Y-111800000D03*
X112065000Y-111800000D03*
X109525000Y-111800000D03*
%TD*%
D16*
%TO.C,D5*%
X196370000Y-86050000D03*
D17*
X193830000Y-86050000D03*
%TD*%
D14*
%TO.C,S1*%
X97345000Y-75800000D03*
D15*
X97345000Y-78340000D03*
X97345000Y-80880000D03*
%TD*%
D14*
%TO.C,S2*%
X97345000Y-87300000D03*
D15*
X97345000Y-89840000D03*
X97345000Y-92380000D03*
%TD*%
D12*
%TO.C,R5*%
X183805000Y-86050000D03*
D13*
X188885000Y-86050000D03*
%TD*%
D16*
%TO.C,D1*%
X186035000Y-112200000D03*
D17*
X183495000Y-112200000D03*
%TD*%
D12*
%TO.C,R1*%
X193245000Y-100160000D03*
D13*
X193245000Y-105240000D03*
%TD*%
D14*
%TO.C,J2*%
X215035000Y-93700000D03*
D15*
X212495000Y-93700000D03*
%TD*%
D18*
%TO.C,U3*%
X90735000Y-79650000D03*
D19*
X88195000Y-79650000D03*
X85655000Y-79650000D03*
X83115000Y-79650000D03*
X80575000Y-79650000D03*
X78035000Y-79650000D03*
X75495000Y-79650000D03*
X72955000Y-79650000D03*
D18*
X72955000Y-66950000D03*
D19*
X75495000Y-66950000D03*
X78035000Y-66950000D03*
X80575000Y-66950000D03*
X83115000Y-66950000D03*
X85655000Y-66950000D03*
X88195000Y-66950000D03*
X90735000Y-66950000D03*
%TD*%
D14*
%TO.C,M1*%
X78045000Y-62800000D03*
D15*
X80585000Y-62800000D03*
X83125000Y-62800000D03*
X85665000Y-62800000D03*
%TD*%
D20*
%TO.C,U1*%
X144360000Y-63600000D03*
D21*
X141820000Y-63600000D03*
X139280000Y-63600000D03*
X136740000Y-63600000D03*
X134200000Y-63600000D03*
X131660000Y-63600000D03*
X129120000Y-63600000D03*
X126580000Y-63600000D03*
X124040000Y-63600000D03*
X121500000Y-63600000D03*
X118960000Y-63600000D03*
X116420000Y-63600000D03*
X113880000Y-63600000D03*
X111340000Y-63600000D03*
X108800000Y-63600000D03*
X108800000Y-89000000D03*
X111340000Y-89000000D03*
X113880000Y-89000000D03*
X116420000Y-89000000D03*
X118960000Y-89000000D03*
X121500000Y-89000000D03*
X124040000Y-89000000D03*
X126580000Y-89000000D03*
X129120000Y-89000000D03*
X131660000Y-89000000D03*
X134200000Y-89000000D03*
X136740000Y-89000000D03*
X139280000Y-89000000D03*
X141820000Y-89000000D03*
X144360000Y-89000000D03*
%TD*%
D22*
%TO.C,K1*%
X215245000Y-106700000D03*
D23*
X213295000Y-100650000D03*
D22*
X201095000Y-100650000D03*
X201045000Y-112700000D03*
D23*
X213295000Y-112650000D03*
%TD*%
D18*
%TO.C,U4*%
X90965000Y-104000000D03*
D19*
X88425000Y-104000000D03*
X85885000Y-104000000D03*
X83345000Y-104000000D03*
X80805000Y-104000000D03*
X78265000Y-104000000D03*
X75725000Y-104000000D03*
X73185000Y-104000000D03*
D18*
X73185000Y-91300000D03*
D19*
X75725000Y-91300000D03*
X78265000Y-91300000D03*
X80805000Y-91300000D03*
X83345000Y-91300000D03*
X85885000Y-91300000D03*
X88425000Y-91300000D03*
X90965000Y-91300000D03*
%TD*%
D24*
%TO.C,REF\u002A\u002A*%
X69000000Y-125200000D03*
%TD*%
D25*
%TO.C,Q1*%
X185725000Y-93810000D03*
D26*
X186995000Y-93810000D03*
X188265000Y-93810000D03*
%TD*%
D27*
%TO.C,C1*%
X73845000Y-70800000D03*
X73845000Y-74300000D03*
%TD*%
D24*
%TO.C,REF\u002A\u002A*%
X216000000Y-57700000D03*
%TD*%
%TO.C,REF\u002A\u002A*%
X69000000Y-57750000D03*
%TD*%
D27*
%TO.C,C3*%
X121345000Y-104500000D03*
X121345000Y-101000000D03*
%TD*%
D16*
%TO.C,D6*%
X187870000Y-76050000D03*
D17*
X185330000Y-76050000D03*
%TD*%
D12*
%TO.C,R4*%
X174055000Y-76050000D03*
D13*
X179135000Y-76050000D03*
%TD*%
D28*
%TO.C,U5*%
X104455000Y-95450000D03*
D19*
X106995000Y-95450000D03*
X109535000Y-95450000D03*
X112075000Y-95450000D03*
X114615000Y-95450000D03*
X117155000Y-95450000D03*
X119695000Y-95450000D03*
X122235000Y-95450000D03*
D28*
X122235000Y-108150000D03*
D19*
X119695000Y-108150000D03*
X117155000Y-108150000D03*
X114615000Y-108150000D03*
X112075000Y-108150000D03*
X109535000Y-108150000D03*
X106995000Y-108150000D03*
X104455000Y-108150000D03*
%TD*%
D12*
%TO.C,R6*%
X163305000Y-86050000D03*
D13*
X168385000Y-86050000D03*
%TD*%
D12*
%TO.C,R2*%
X188245000Y-100160000D03*
D13*
X188245000Y-105240000D03*
%TD*%
D24*
%TO.C,REF\u002A\u002A*%
X216000000Y-125200000D03*
%TD*%
D29*
%TO.C,U2*%
X133025000Y-95160000D03*
D30*
X133025000Y-112940000D03*
X173665000Y-112940000D03*
X173665000Y-95160000D03*
%TD*%
D16*
%TO.C,D4*%
X176870000Y-86050000D03*
D17*
X174330000Y-86050000D03*
%TD*%
D16*
%TO.C,D2*%
X190745000Y-112200000D03*
D17*
X193285000Y-112200000D03*
%TD*%
D27*
%TO.C,C2*%
X73575000Y-95150000D03*
X73575000Y-98650000D03*
%TD*%
D31*
%TO.C,D3*%
X202305000Y-93700000D03*
D32*
X194685000Y-93700000D03*
%TD*%
%LPD*%
M02*
